<svg width="80" height="80" fill="none" xmlns="http://www.w3.org/2000/svg">
  <path fill-rule="evenodd" clip-rule="evenodd" d="M70.922 28.926c.64.853-.173 2.03-1.197 1.734l-16.25-4.687a1.111 1.111 0 0 1-.768-1.343l3.244-12.653c.232-.904 1.406-1.137 1.965-.391l13.006 17.34Zm2.308 10.645a1.111 1.111 0 0 0-.797-1.19l-21.795-6.288a1.111 1.111 0 0 0-1.238.46l-5.83 8.916c-.27.412-.236.952.083 1.328l6.613 7.779c.112.132.253.235.412.303l18.961 8.059a1.111 1.111 0 0 0 1.539-.9L73.23 39.57ZM63.068 65.5c.97-.324 1.025-1.677.083-2.077l-12.165-5.17a1.111 1.111 0 0 0-1.433.535l-5.374 11.017c-.432.885.416 1.852 1.35 1.54l17.539-5.845Zm-28.303 6.641c.477.069.944-.179 1.155-.612l3.602-7.384c.47-.962-.56-1.966-1.51-1.474l-11.954 6.19c-.96.498-.716 1.934.354 2.087l8.353 1.193ZM16.124 64.96a1.111 1.111 0 0 0 1.589.717l24.2-12.533a1.111 1.111 0 0 0 .336-1.706l-5.118-6.02a1.112 1.112 0 0 0-.43-.312L10.317 34.461a1.111 1.111 0 0 0-1.494 1.3l7.3 29.199ZM9.94 25.678a1.111 1.111 0 0 0 .509 1.647l18.058 7.287c.972.392 1.897-.658 1.385-1.573L19.44 14.347a1.111 1.111 0 0 0-1.895-.074L9.941 25.678ZM25.932 9.116c-.796.08-1.25.95-.859 1.648L38.29 34.392a1.111 1.111 0 0 0 1.9.066l5.025-7.686c.067-.102.116-.214.146-.332l4.676-18.234a1.111 1.111 0 0 0-1.187-1.381L25.932 9.116Z" fill="#E9B840" />
</svg>