<svg width="160" height="160" fill="none" xmlns="http://www.w3.org/2000/svg">
  <g clip-path="url(#a)">
    <g style="mix-blend-mode:multiply">
      <rect width="160" height="160" rx="2" fill="#E7D7B0"/>
    </g>
    <g style="mix-blend-mode:multiply">
      <path d="m139.019 62.22.022.1-.022-.1ZM34.567 33.73l.87-.092-.051.908 1.492.478.071.795 1.196-.28 1.039 1.988 8.545 1.348 1.862 3.618-.436 3.493-.827 1.41 2.99 1.305.415-.435.548.643.948-.694 1.619 1.453 1.855.273.42.592-.28.702 2.427.856-.997.913 4.54-.326-.486 1.596.869 1.553 3.25.504 1.921-1.451 1.207.269 4.744-2.628 2.623 2.227-.056 4.122 2.233 1.509.877-.204-.031 1.197 2.575-1.305.32-1.102 1.787-.448 2.885 1.1-.062.654 1.47-.239.657.767.915-.835 1.958-.073 5.634 2.365.749 1.2 4.211 2.178.896-1.06 1.784.575 1.59-.67-.061-.7 1-.103.075-.792 2.165-.446.775-1.606.706.044.515 3.944 1.864 1.344 2.455-.206.253 1.084 1.22.072.748.686.731-1.752 2.561-.94 3.653 1.73 1.203-.367.679-1.219 1.466.804.857-.134.611-1.653 1.545.952 1.034-1.461 1.014 1.992 1.699.748.163.8.844.002.121-.788 1.579-1.33.229-2.857 1.029.717.6-.768 1.65-.426.056.572-1.425 1.216.387.54.852-.123.072.847 1.019.738-.981.809.188.54.784-.169.638.792-2.035 2.1-1.829.838-1.956 2.239-.849-.058-.639 1.069-1.284-.323.106 2.05-.792-.09-.178.448-.477-.639-1.855 1.349-.32 3.16-.686.675.5 1.177 2.307.57-.721.672.711.399-.315 1.303.889-.045.749 1.35 2.296.987-.34 1.553.491.116-.872 1.326.386 1.45.971.947-.063.676-1.122-.163-.526-.7-.085.472-.461-.247-.016-.64-1.572-.33-.709.921-.518-.338-.414 1.46-.776.024-.658.877-.716-.301-.584 1.142.174.78.606.166-.127 1.147 1.9 1.576-.883 1.251.363 1.01-1.285-.612-.113-.74-1.979-.294-.62-1.548-2.023-.036-.704-1.066-.856.503-.202 1.422-1.526-.39.372.941-.603.622-.014 1.33-2.106-.946-.574.647-1.217-.519-.849 3.851-1.063-.477-1.026.468-1.693 1.877.297 3.984-.187.781-.958.082-.941.956.474.597-1.21 5.583-3.155-1.033-.839 1.612.342 1.372-.911-.82-.571.483-.461-.509-.963.105.144-.857-.752-.725-.689.052-.504 1.208-1.657.436-1.715-1.274-1.473 2.007-1.074.496-.449 2.653-.597.089-.356 1.523-.96-.302-1.7-1.845-1.876-.524.872-1.33-.22-1.426.493-.739-1.538.235-1.226-1.028-.587.762-1.616-.527-.233-2.913-.993-1.179-1.244.143.301-1.097-2.627 1.361-1.902-1.956-2.634.039-1.062-.681-1.051 3.134-1.235.755.397 3.013-2.31-.604-.216 1.083-.825-.001-.486 1.166-.834-.75-5.346.688-.015.843-3.44.984.49.955-2.095 1.438-.628-.216.28-1.521-.6.709-1.647.082-.573 1.037-1.848.111-.468-2.595-1.2.294-.046-1.688-.978-.515-3.05 2.094-.543 1.792-2.248-.534-.177.813-1.158.22.104 1.052-.837 1.498-1.023-1.475-.972.207.133-.794-1.057-.874-1.214-.175-.546-.791.402-.221-.975-.562.026-.857.844-.629-.875-1.811-.622.05.285.353-.601.606-.58-.642-.46.515-.764-.578-.404.235.167 1.052-.87-.856-.157 1.016-.793.67-1.651-3.747-1.43-.738-1.67 2.581-1.585.43-3.966.8-5.726-.632 1.132-2.84-1.15-.731.425-.846-.864-.704-.024-.919-.701.131-1.739-1.461.094-1.402-.954-1.078-.265-4.017-.674-.197 1.027-3.074-.578-1.645.375-.506 1.013-.233.55-1.217 1.337-.078 2.075-1.892.647.275 1.526-.616.73-1.109 1.017-.096-.36-.205.506-.51.247.286.746-.705.771.655.982-.666-.13-.595 1.152-.153-.737-.837 1.072-.225 1.727-2.448 4.18-2.283-.181-1.678.65-.717 1.41-.307 1.208.797.225.976 2.167.236-.053-.452.917.15.334-2.1 1.276-.118.573 1.422 1.23-.434 1.037 1.059.95-.188.295-1.219-.118.974.548.254.087-1.514 1.964.234-.788-.935.516-.967-1.67-1.256-.773.092.043-1.256-2.76-.425-.393-1.128-1.491-.81-1.442.357-2.478-1.552-.933.262.027-.984-1.997-2.061-1.1-.091-.81-1.32-.175-2.773 1.778.565.882-1.182 1.214.465.587-2.067-.272-1.655-2.602-.305-1.6-1.862-.76.403-2.087-.456-.003-1.974 1.581.276.305-.68 1.929-.336.911-1.635-.02-1.26 4.99 1.268 3.727-.81-.319-1.284-2.007-.38-.723-2.012-1.329.7-.35-.3-.246-.513.725-1.506-.293-1.57-.835-.25-1.056 1.065-.977-.618.24-.932-1.053-.387-.278.692-.997-.425-.114-1.172-.597-.318.57-.562-.153-2.42-1.312-.7.785-.785-2.131.072 1.032-3.145-.638-1.015-1.48-.714.725-1.312-.235-.62-1.626.414-.674-.34.775-.826 1.309-.977-.87-.224-.13-1.074 1.65-.613 2.52.463 1.787-1.64.06-.803.53.103Z" fill="#28A062" fill-opacity=".7"/>
      <path d="m13.701 132.487 2.668.502.583 1.177 1.55.407.945 3.704.874.395-.392.61 3.518 1.205.89 1.876-.384 2.054 1.576 2.361 4.203 1.036.069-1.688 1.811-.281.411 2.502-1.393 2.524-.097 2.106 1.067.806.966-.602.704 1.25-.958 5.429 2.509 1.611.486 3.329 1.099-1.693.712 1.337 1.424-.351.188.78 2.41-.39.484 1.027-.502 2.1-1.058.14-1.16 2.716-.813.012-.755.785-.125 1.871-1.854.973-1.822-.06-1.974 1.89-.066 1.373-.588-.033-.105.559 1.717 1.073-.98 2.717-3.751.673-2.837 2.842-1.567-.076-1.239.589-2.27 3.395 1.08 1.078-1.624.285-.085 2.58.477.88 1.236.599-.76 1.093.341.792-1.397.328.14 1.066-1.194-.578-.623.892.444 1.155-1.688 1.866 1.7 1.384-.834.57-.302-1.235-1.586 1.024-1.208 3.282.409 1.442 1.14 1.247.233 1.426-.73.238-2.745-.981-.417 1.752.536.746-1.474.712-.74 3.481-1.841.962-2.077-.497-2.216-1.581-2.012.738-1.75-.265-.62.538-.957-.572-3.049.289.238 1.328-.935.856.34.965-1.819 2.653-1.762 1.059-.699 2.22-1.14-.074-.37-1.002-1.437-.597-.3 3.492.867 3.742-1.158 1.953 1.48 1.224.199 1.593.576-.577.5 1.32-.927 2.508.929 1.459-.632.539.223 1.7-.91 1.601.314 2.356 5.437 2.049.876-.399 1.984.271-.182 2.686.445.623-.388 1.101-1.493.156-1.59 1.504-.362-1.421.583-1.166-3.96-1.066-1.404.588-1.293 1.434-2.852-4.655-1.368.554-3.16-1.99-.877 1.104-2.177-2.556-1.96 1.836-.767 2.382.323 1.164 2.902 1.475.519 1.633 2.088.35-.584 2.19.225 4.57-.622 1.016 1.826-.221.715 2.374 1.67.173-.438 1.426-.669.111 1.11 1.165-.825 1.495.71 2.94-.5.893 1.049.247.324.742-.472.836.812 1.258.379 2.866-1.75.417-.305 2.87-.84.916-1.25.05-.073 1.202-1.176-.185-1.731.776-.531 1.698-1.626-.592.079.807 1.733.942-.2.757-1.003-.14-.309.984-1.019.421-2.511 2.793-.45 1.809-2.277.167.016.773-1.711.269-1.715 1.156-.607 2.065.467.725-.366 1.778-.911 1.749.09 1.602-1.05 2.574-1.137-.252-.233 2.149-3.432-.152-2.475-1.107-2.253 1.814-1.078-.094-2.319-7.971.78-2.386-2.928.971-.362-1.78.506-.264-.994-.735-.83 1.859-1.66-.149-.034-1.291 1.437-.966-1.14-1.32-.742-2.214.269-.715-.932-.284.207-.458-1.26-.995-.475-1.279-3.911-3-3.711 1.145-1.948-3.615-.665-1.149.901-.14 1.886-1.625-2.118-2.885v-1.612l1.427-2.411.071-1.836 1.62-1.308-.087-1.383 1.407-.604 1.011-2.042 2.418-1.817 1.108 2.586 1.618-.533.437 1.186 1.59-.09 2.51-2.044-1.494-1.817 2.727-1.077-.34-1.474-.883-.279-.465-.925-1.604-.156-1.19-1.108-1.682-.107.236-2.211-3.307-2.279.073-1.236-1.92-.149.233 1.447-.672-.567-1.514-.046.076-.601.893.165 1.726-1.619-.388-.835-1.966-.193-.036-.736.98-.559.964.689 1.045-.085.66-1.56.016-2.176-.151-1.224-1.11-.806-2.731-.142-.205-.521.733-.761-.813-1.429 3.35-.774.82-1.034 1.984-.744-.832-1.72.95-5.79-1.44-.238-1.452.76-.795-.89.682-1.044 1.9-.808-.906-2.275-.096-4.695-2.261.05-.835-2.161.62-.756-.369-1.686.629-2.115 4.665-2.159.986-1.344-.43-.909 1.931-3.951-.55-3.212.243-3.503.641-1.294 1.788.294.537-1.608.128-3.671-.475-.594.716-.115 1.706-4.446 1.04.173.338 1.536.935-.089.12-.994-.861-.5 1.178-.508.095-2.713 1.71-.493.764-1.342-.1-4.13 1.836-1.383 1.004 1.085 1.497-1.347.746.499.497-1.2 1.463.535.467 1.805.73-1.07.618.335-.261-.749 1.095.019 1.028-1.317 2.535.028.204-.713.659-.132.205-1.778 1.323-.498.417-.749.46.794.583-.439-.423-1.775.988-1.134-.614-1.912.223-1.107 2.28-.492.095-.682 2.103-1.191-.57-2.372.514-1.043 2.253-.065 1.128-1.039 1.278.369.922-1.076-.225-2.434 1.232-1.613-.094-1.158-1.26-1.034-.706.17-.324-1.186-1.384.562-.817-.285.039-1.009-1.046.294-1.566-3.378-2.337.589-.591-.98-1.798-.614-1.125 1.253-1.01-.234-.69 1.171-.555-.469-.035-1.239-.75-.127-.193-.957.864-.324.277-1.733.782.019 1.158-1.737-.346-.927-.902-.488-.239-1.699-.841-.652.316-1.518 1.339-.53 1.609 1.898-.103.528 1.666.813 1.842-.354 1.665-1.386.897.573 1.311-.293 1.17 1.213 3.067.017 1.088-.941-.122.6.705.713.764-.427 1.911.519 3.453-.22 1.474.773.74-.282-.449-.852 1.536.035 1.732-.959.118-1.463 2.4-.41 1.563-1.162 3.434 2.483 3.875-.065 2.697-1.223.694-1.946 1.573-.966.34-1.416.904-.811Z" fill="#EBF0EE"/>
      <path d="m18.278 120.32 5.726.632 3.966-.8 1.585-.43 1.67-2.581 1.429.738 1.652 3.747.792-.67.157-1.016.872.855-.168-1.051.404-.234.767.577.458-.515.58.642.602-.606-.285-.354.623-.05.875 1.812-.844.629-.027.856.977.562-.403.221.546.791 1.214.175 1.057.873-.134.795.971-.208 1.024 1.474.838-1.498-.104-1.052 1.158-.22.175-.812 2.249.533.542-1.792 3.05-2.093.977.514.048 1.688 1.2-.294.467 2.595 1.847-.11.573-1.037 1.65-.083.598-.709-.28 1.52.628.216 2.095-1.439-.49-.954 3.441-.984.014-.843 5.345-.688.834.75.486-1.166.825.002.217-1.084 2.308.604-.397-3.013 1.235-.757 1.051-3.131 1.062.679 2.634-.039 1.902 1.957 2.627-1.361-.303 1.097 1.245-.142.993 1.178.233 2.913 1.616.527.587-.762 1.224 1.028 1.54-.236-.493.739.22 1.425-.872 1.33 1.876.525 1.7 1.845.96.302.356-1.523.597-.089.449-2.654 1.074-.495 1.473-2.006 1.715 1.273 1.657-.434.505-1.209.689-.051.751.724-.144.857.962-.105.461.509.571-.483.91.82-.341-1.37.839-1.613 3.153 1.034 1.211-5.583-.475-.597.942-.955.957-.084.187-.781-.297-3.983 1.692-1.877 1.027-.468 1.062.477.849-3.852 1.217.52.574-.646 2.105.946.014-1.331.604-.622-.372-.942 1.525.39.203-1.421.855-.502.704 1.066 2.023.035.619 1.549 1.98.294.112.739-.29 3.72 2.633 1.817 2.346 2.829.18.952-2.212 1.249.248.817-.806.044.235.841-.58.842-.504.031.06-.706-.51.627.568.797 1.599.477-.371 1.361.702.444-.756.916.447.403-.758.053.976.484-.593.892-1.026.333-2.065-.88.968 1.049-.293 1.549.302-.561.426.464-1.001 2.286.664.227-1.409 2.944-1.204.33-.76 1.304-1.195.113.051.883 1.438.726-.078 1.037-3.149-.166 1 .762-1.005.634.181.613-2.163-.856-.062 1.805.505.347-.728.747-1.281.152.631.767-2.655-.792-.753.376-.328-.24.446-.759-2.475-.291.617 2.141.795.298.071 1.628-.632.729-.582-.971-.144 2.304-.632-.132-.786-.286.185-.382-1.696-.363.93 1.351-.463.716-.645-.018-4.122-2.001-.798.582-1.086-.999-.518.5-.105.519-1.322.936-.731-.572.705 2.001-.727 2.097-1.413.278-.169-.461-.992-.021-2.677.665-1.652 1.2-2.327-.018-.006.583-1.538.703-.602 1.174-.111 1.323.478.392-1.883 1.106.37.437-.374.235-.563-.599-.925.611-.486-.456.37-.966-.466.389-1.977-.484-.02-2.692-2.567-.456-.945.914.956 1.649-2.708 1.109-2.041-.444-.083 1.71.86 1.118-.77.162.306 1.166-1.353 1.72.137 1.926.68.023 1.506 1.835 3.195-.399.29.99 2.322.724.354 1.195 1.635 1.387 2.248-.605 2.485 1.103.608-.581 2.125.138.391.669.735-.593-.575 1.214-.886.284-.37-.429-.986.737.791.757-.791 1.022-.437 2.371 2.37 2.119.856-.54 2.061 1.334.886 2.754 2.837.095 1.014 2.074-.246.686-1.15-.034.442 1.422 2.141.822-.387 2.013 1.495.857-.014 1.184-1.816.079-.118-.412-.053.729-.255.685-.632-.004-.234.069-1.161-.11-1.878-.506-.145-.791-1.432-.379-.327-.648-1.208-.01-.85-1.203-1.612.494-.133.614-2.112-1.235-1.912-2.819-4.52-1.11-1.805-2.218-.431 1.214-1.383.584-.413 1.236 1.449.891.327 1.388-.743 1.038.721.247-.314.548.913.106-1.926 1.768 1.492 1.635-.688 2.144-1.516 2.525-.796.401-.18 1.074-3.79-.65.712-2.457 1.122.006-.753-.952-3.158 1.745-.967-1.167-1.403.447-1.35-.343-3.804-2.025-.816.114-.134.984-.92-.152-.602.503-1.812 3.001-.529-1.205-1.004-.703-.042.561-.4-.624-.961.113-.615-.929-1.35-.316-1.091.866-.588-.134 1.149-.767 1.227-4.506 1.151-.515-.01-.669-.684.004.131-.759-.496-.212-.303-3.657-2.826 1.115-.192-.344-1.402.931-.453-.711-1.152.475-.65-.576-1.442.136-.233.767-5.692-.149-1.31.397.025.628-.78.129-.57.853-3.587.324-1.118-1.026-1.375.054-1.092-.821-.458-1.971-3.471-1.407.066-1.374 1.974-1.889 1.822.06 1.854-.974.125-1.87.755-.786.814-.011 1.159-2.717 1.058-.14.502-2.099-.485-1.028-2.41.391-.187-.781-1.424.352-.712-1.338-1.1 1.693-.485-3.328-2.509-1.612.958-5.429-.704-1.25-.966.602-1.067-.806.096-2.106 1.394-2.523-.41-2.503-1.812.282-.07 1.688-4.202-1.036-1.576-2.361.384-2.055-.89-1.876-3.518-1.205.392-.61-.874-.394-.945-3.705-1.55-.407-.583-1.177-2.668-.502 2.053-4.701-.68-1.389 1.977-1.433-.563-1.118-.78-.139-.49-1.344.305-1.303 2.755-.74ZM-120.315 53.57l1.339.441.556-1.258 1.815-.302 1.006 1.445.947-.216.652 1 3.016 1.178 2.443-.338 1.476-.903.199.61.474-.386.664.817 1.18-.028 1.402 1.775 1.023-.254 1.158.484-.268.993 1.449-.638.327 2.16-.683 1.06.307-.24.174.914.592-.02 1.058 1.408-.327 1.375 2.052.328-.249.804-.797-.02-.263 1.603 1.493.515-.474.287.286.554-.859.12-.269 1.148-.428-.442-.791.6.525.99-.96-.04-.145 1.069-.984.058.611 1.176-1.521.459 1.586 1.664-1.542 1.3-.387 2.539-1.393.976.165 1.313-.945.283.4 1.776-1.327-.896-.325.345.613.087-.046.457-1.932 1.456 1.692 2.157-.161 1.442-3.359.88-.744.822-1.048-.677-.72.716-2.488-.518-.813.874-.679-.344-.541.895.316 1.595-1.136.844-.781-.187-.453 1.553-.912.756.938 1.098-.61.741.973.375.247 1.496 1.133.814-.326.651 1.601.752-.737.448.645.71-1.247-.05-1.772 1.201-.006 2.565-4.249 3.384-.041.708 1.184 1.264.298 1.885 1.261 2.301-.251 3.121-1.026 1.013 1.307 1.334-.071.825 2.465 1.761-.917 1.606 1.406 1.545 1.445-.632 1.85-2.751 1.916 1.054 2.376 3.201.78.303.873-.553.359.415.376-.549.824 2.236.572-.858 1.713-.366.757-2.233 1.549-1.498.459-2.509-1.986-.728.137-.975.443.467.934-.356-2.218-4.087-2.748 1.335-.719-.34-.246-1.577.847-1.266-.205-2.605.419-.574-.421-1.332-2.518-1.177-.386-1.203-.828-.593.52-2.776-1.173-1.046-.748-4.627-1.884-1.016-1.118.67-.7-.52.346-.447.694.322.659-.888.211.568.651-.07.43-.577-.429-1.05 1.339.32-.396-1.263.714.103.397-.719.658.305.632-1.082.867-.109.409.546-.846.72-.331-.468.036.926 1.34.267.121.743 1.33-.156-.557-1.567 1.829-.51-1.516-.1-.796-.849.186-1.078.649.708 1.921.301.416.327-.835.233.536.399.6-1.001-.757-1.236 1.25-.413-.044-.944.944-.067.17.52.364-.531.292.824-.668.3.505 1.175-.85.956.679.536.812-.304.482 1.813-1.307.698-.949-.678 1.014-.053.477-.664-1.954.361-.97 1.024.15.57-1.351.506-.227.495.744-.063-.157.832.946 1.203.91-3.322 1.34.368.661-.524.451 1.864-.77.648-.84-.336-.444.833-.414-.298-.105 2.585 2.004-1.56 1.245.698-.03-1.088-.616-.322.886-.923.186.828 1.162.648-.835 1.127-.074 1.249.559.144 1.08-1.565.947.817-.33.589.56.947 1.313-.199-.328-.709.473-.253.565 1.075.839-.075.134-.702-.776-.218.576-.363.61.222.024.897 1.13-.323.297-.534-.936-1.31-.136-1.46 1.546 1.361.376-.387-.468-.45.288-1.235-.787.313-.585-.817-.742.543.019-1.119.906-.863 1.342.206-.397 1.124.58.826.38-.834 1.255 1.011 1.103-.71.865.39-.818.025-.842 1.279.41.36-.867.109-.675 1.109.4 1.634.42-.737.417.908.978-.774-.206 1.096.769.39 1.983-2.728.633.871.344-.214-.13.671 3.873-.358 2.89 1.305-.216-1.003.64-.487-.654-2.588 1.448-.481.29.677.763-1.109 1.42.094.628-2.147 1.64-.366 1.048.502 1.693-1.304.158-.938 1.344.325.28-.687 1.438 1.195-.175 2.837 1.938 1.48.55-.158.648 1.982-1.898.842-2.211 3.297 1.302.779 1.107-.659.61.47-.429-1.38 1.963-.7.774 1.075.628-.018.152-1.272-.625-.365.874.035.889.959.5-.683 1.161.553-.32-2.39.991.92-.814.543 1.441.862.602-.211-.15.794 1.406-.508 1.277.292.001-.65-1.33-.393.003-.716-.674-.411 2.62-.268.737 1.04.224-2.371 1.094-.084.705 1.016-1.046 1.055.149 1.513-1.153.916.563 1.18-1.525.758.32.786.857.284 1.308-.412.4.266-.072-.491 1.036-.453.482 1.344 1.613-.194-.19-.628 1.753.058 1.468 1.73.76-1.909.984.682-.382.159.739-.152-.286-1.758 1.57-2.091-.416-1.067.613-1.79.977.05.216 1.431-.044-1.361.445-.256 1.606 1.42 1.022-.301.212.666-.981.077 2.17.944.627-.917-.91-.872.59-.438.767.251-.396-1.249 1.49-.25.403.79.975.248-.704.67.238 1.041.407-.646.398.558-.999.674.277.548 1.423-.545.609 1.033 1.323-.141 1.489 1.109 1.053-.266 1.487.764.324-.483.356 2.261-.41 1.102 1.644 1.778 1.198-.577 2.813 1.678h1.237l.958-.926-.445.571.8.664-.528-.024-.432 1.226 1.072.313-.375-.67.611.008-.048-.439.455.363.14-.613-.36 3.042.606.101.27-.581.867.471-.066 1.613.94-.288 2.08.743-.198-2.465.805-.643.433.812 1.824-.012.283.757 3.373-1.389.995.708-.02.901 1.772-.04-.07 1.314.95.001.116 1.349-1.434.32-.878-.422.081 1.228.549.388-.771 3.279 1.4.347.093 2.303-.373 1.609-.6.368-.174 2.406-1.298-.555-.353.675 1.337 1.542 1.516.082-.636 1.612 1.45.463.274 1.2-1.564 1.162-2.4.411-.117 1.462-1.732.959-1.536-.035.45.852-.741.283-1.474-.774-3.453.221-1.911-.52-.764.427-.705-.713.122-.6-1.088.941-3.066-.017-1.17-1.213-1.312.293-.897-.573-1.665 1.386-1.842.355-1.666-.814.103-.528-1.61-1.898-1.338.531-.316 1.517.841.652.24 1.699.9.488.347.928-1.158 1.736-.782-.019-.277 1.733-.864.324.193.958.75.126.035 1.239.555.469.69-1.171 1.01.234 1.125-1.253 1.798.615.59.979 2.338-.589 1.566 3.378 1.046-.294-.039 1.009.817.285 1.384-.562.324 1.186.706-.17 1.26 1.034.093 1.158-1.231 1.613.225 2.434-.922 1.076-1.278-.369-1.128 1.04-2.253.065-.515 1.042.571 2.372-2.103 1.191-.095.682-2.28.492-.223 1.107.614 1.912-.988 1.134.423 1.775-.582.44-.46-.795-.418.749-1.323.498-.205 1.778-.659.132-.204.713-2.535-.028-1.028 1.317-1.095-.019.262.749-.619-.335-.73 1.07-.467-1.804-1.463-.536-.497 1.2-.746-.499-1.497 1.347-1.004-1.084-1.836 1.382.1 4.13-.764 1.342-1.71.493-.095 2.714-1.178.508.861.499-.12.995-.935.088-.338-1.536-1.04-.173-1.706 4.446-.716.115.475.594-.128 3.671-.537 1.608-1.788-.294-.64 1.294-.244 3.503.55 3.212-1.93 3.952-1.662.167-2.822-2.038-.974-.131-.207.845-.97-.122-.376-.865.583-.861-1.066-2.316-2.892-2.779-1.888-.392-1.92.76-1.347 1.469-1.835.557-1.498-.619-.539.906-1.54-.182-3.26-2.004-2.233 1.271-2.904.363-1.26-3.64-1.908-.484-.552.473-1.197-.122-3.153-1.262-.23 2.048-1.89-.273-1.565 1.72-2.06-.066-.395-.482-2.128.738.383.898-.613.153.949 1.152-.231.737-.945-.369-.418.437-2.495-.117-.326.615-.674-.747-.7.817-3.536-.622-.479-.807-1.52-.357-2.057.749-.196-2.807-1.128-.468-.487 1.131-.634-.344-.856.536-.996-.641.082.662-2.314.335-.304 1.686-6.043 3.121-1.491.258-2.162-.967-.155.602-1.141.141-.42.587-.75.158-.371-1.063-.626.716-.425-.612-1.296-.005.085.742-.533.07-2.553-.37-.465-2.215-.812-.448-.56-1.683 1.063-.658 2.87.751 1.051-.364-.946-.557.009-1.804-.765-2.072-1.748-1.975-4.959.244-.081 1.08-1.535.178-.451.669-.941-.932-.36.388-2.238-.265-4.487 3.421-1.283-.398-.488.614-1.002-.125-.196 1.606-.653.491.756.917-.199.654-4.184 3.675.958 1.473-.989 2.507-3.563-.095-.909 2.268-2 1.047-2.48.056-.515-.539-2.345.279-1.537-2.234 1.386-.17.154-.489-.743-1.393.388-.586-1.586-3.21-1.213.595-2.192-1.155-2.113-.158-5.626.539-1.692-.41-1.592.629-2.09-.607-1.834.314-.97-.566-1.558.39-.061-.737-2.09.133-2.744-1.363-1.505-2.948-4.084-1.829-2.905.55-6.084-2.002-.171-1.018-1.078-.234-.198-2.256.623-2.85-.892-1.284-1.173-.468-.069-1.555-1.512.179-.883 1.151-1.377.329-.324.89-2.335.285-1.431-.798.205-.91-1.471-.816 2.176-1.998-.684-.531-.639.218-.196-3.238-1.232-.254.415-.612-.85-1.184.335-2.097 1.048-.321.585 1.107 1.488.292.412-1.287.531.257.811-1.169.949.157-1.053-1.089-1.294-.113-.362-1.147-.108.95-.672.338-.441-.692-.557 1.011-.515-1.325-.661.062.187-1.208-1.109.499-.216-.496.841-1.198 2.268.943 2.936-3.592 3.115.035.494-2.461 1.988-3.613-.719-1.849-1.339.697-1.005-.953-.535-.895.765-.433-1.259-2.34 1.793-1.395 3.173.657.877-1.226 1.633-.361 1.602-1.604 1.215.192.79-.493.003-.584-1.33.274.71-.552-.55-.841-1.438.353-1.949-1.168-.484.522-.921-1.311 1.375-1.39.085-1.271 1.033-1.103 1.083-.086 1.204-1.116.864.091 1.345-1.351.47.398 1.114-.572 1.589-1.954.882-.212-.841-1.491.863-1.481-.914-3.957.41-1.762 1.878-2.679-2.93-5.245.647-.577-.303-.799-.645-.543-3.063-.057.808-.975.088-1.567 1.864-2.739-1.044.154-.037-.836-.993.223-1.757-.788 1.175-1.25-.231-1.209 1.104-.4-.174-.745.882-1.001-1.096-.46.63-3.095 2.451 4.023 1.311-.145.506-1.159.988-.219-.169-1.268.703-.002-.345-1.242-2.361.255-1.532-.743-.254.585.184-1.737-.846-2.163.596-1.315.547 1.073.458-.367.741.613.187 1.05 3.231.936.339-.652 1.639-.204-.082-2.192 1.275-.756-.137-1.546 4.886.076.156.508-.854.536.486 1.247-.619 1.801-.996-2.193-.25.426.701 1.113-.829.961 1.306.581.385-.504 2.574-.164-.186.828-2.918 1.451-.703-1.152-1.35-.163.59-1.048-.694.163-.4-.574-.18.739 1.326 1.352-1.192.782-.548 1.2.823 1.31 1.319-.295 4.838 1.131 3.408-.843.824.982 3.834-2.19 2.074 1.001-.305 1.673.568.528-.541 1.139.268.507.657-.495 1.413 1.188-.283.553.484.537-.891.68.544.492-.074 1.038-1.618 1.065-1.471-1.609-1.111 1.339.171.546-.743.116.289 1.639.712 1.065 1.208.206.411 1.631-1.398.729-.787 2.32.859.017.349.834 1.211-.045-.053 1.024-1.419.382-.461 1.829-1.615.823-.819-1.838-.902.961-1.334.227-.443-.879-1.378-.741-1.3 1.939-.216 1.708 2.728 1.733.408.525-.527.443.693.728 1.816-.045.856 1.177.078-1.67.797.007.295-1.115-.812-.54.11-.767 1.243.4.715 1.029.45-.583 1.741-.605.471.314 2.547-1.378-.409-2.635 2.273-1.434 2.3-.56-.35-2.886.869-1.352-.301-1.188 1.113-1.321.543.588-.303.747.549 1.943 1.76.032 1.157-1.084 2.295 1.32.24-.558.776.29.438-.416 1.611 1.94 1.266-.493-.365-.574.827-.832-.244-.561.68.212.061-.591 2.008-.635.251 1.036-.743 1.581.706.628 1.412-.018 1.209 1.476 1.438-.531 1.152.224.424-1.644.743-.501-1.842-1.851-.891-1.933.291-3.73-.962-1.868 1.353-.429.35.689.873-.523.046 1.599 1.329.768.947-.487.799-1.457.481.065.377-1.242-.138-2.079-.859-1.962-1.433-.596-.531-.969-1.109.536-1.628-.103-1.198-1.993.789-.586 2.486-.275.586-.662-.919-.431.184-.829-.777-.084-.966-2.603 3.652-2.002 2.19.632.975-.321 1.445-1.284 2.429-.158 1.062 1.017 2.508-.846-.204-2.155.715-.14-.304-.957-1.488-1.31.581-1.396-.927-.154.653-2.52-1.47-.676-.584.37-1.644 1.446-.396 1.788-3.397-.815-1.345 1.112-1.715.113-.443.628-1.275-1.355-1.315-.234-1.911.528-.088-.692-2.246-.267-2.058-1.254-.355-1.225-.646-.316-1.153-2.524-.249-4.13-.867-.641.122-.667 1.264-.458-.034-1.852 1.662-2.206.887.096.512-1.1 2.286.183.762-.565-.171-.57 1.321-.326.889-1.69-.258-.53 1.504-1.848 2.575-1.134 1.277-1.437 1.492-.26.848-1.368 2.071.016 2.276-1.69 1.172-1.792 2.563-.225-.124-1.22 2.494-.233 3.796-2.717 1.212.118.796-1.193 1.799-.278.194-1.313 1.546-.595.398-1.223 1.397-.082 1.162-1.096 2.451.572.089-1.607.706-.482-.425-1.237 1.999.161-.398-1.037 1.28-.264ZM153.167 16.481l.563.74 2.21.022 2.145 1.823.088 2.347.654.252.641 1.832-.823 1.32-.201 4.345-2.084 3.057 1.108 4.692 2.962 2.313-.609 1.507-2.569.802-.339 1.81-.956 1.1-.713.284-1.051-1.22-.733.52-.98-.744-1.574-.026-1.001.31.24.82-2.567 2.006-2.835-.681-.507-.695-1.885.26-.967-.482-1.546.565-1.332-.72-.285-1.738-1.519-.527 1.367-3.422-.647-1.031.13-1.012.87-.622-.95-2.037 4.025-8.669-.635-.874.74-.503-.133-.478-1.806-.826-.159-2.046.397-.371 1.299.584 1.077-.716.373.573 2.654-1.209 1.168.337 2.445-1.992 1.464.198.407-1.356 1.625-.557-.122-.766.876.901Z" fill="#EBF0EE"/>
      <path d="m-137.264-52.383 1.865-.192 2.007 2.178 5.784 2.77-2.437 4.062-.667.682-.698-.312-.757 1.558.386.66-1.105 1.17.389.596-.715.982.402.646-.812 1.254 1.642 2.592-.183 2.087.975.464-.062.557.955.378 1.177-.98 2.047-.102.651 2.739-.655-.06-.119.768.955.071.113 1.265 1.279-.203.186-1.212.999-.263 1.495-2.226 1.426-1.02.992.18 2.631-2.764 2.118.713 1.965.932 1.042 3.51 2.042 1.875 4.725 2.569 3.601.594-1.383 1.91-1.084.723-.52-.44-.528 1.602-.824-.613-1.14.97 2.253 1.777 1.382-.103 1.22 1.753.033 1.552 1.152.03.471-.513 1.433 1.46.26-1.624 2.722 1.28.162 1.791.745.538-.187.846 1.2-.185 2.486 2.265 1.388.02.204-.538.455.996.64.142.256 2.274 2.517-.222.764-.87.38 1.388 1.641-.68 1.38.608 1.205-.962 1.633-.332.895.862-.662 1.708.852-.204.226-.967.775.015.564.772-.919.288 1.591.194-.323.486.877 1.578 1.192.507 1.199-.646.704-1.36-.389-.498 1.225-.888 1.243.03 2.566 2.183.906-.075.147.847 1.588.867 1.111 1.875 2.41.244 1.742 2.287.331-.643-.702-2.725 1.71-.671 1.123 1.444 1.47-.078.592 1.626 2.036.638.553 1.223 2.006 1.033.271-.601.857.36.151.885 1.7.99 1-.512.459 1.135 1.178.843 3.429.72.58 2.12 2.303 2.713.015.84-.502.053.677.555-.26.436 1.398-.26.1-1.025 1.803.436 1.05 1.301-.146 1.051 3.819 2.394 2.046.44 4.791 3.815 1.08-.074 1.103-2.038 2.609.16 1.456 1.726 2.227.644 6.303 4.838 6.793-1.267.1 1.67 1.157 2.304-.547 2.455 5.1.065.644.97 2.094.56 4.039-.154 3.056 3.602 1.426-.345 1.322-2.04-.651-.663.45-.656-.343-.646 5.917.295 6.337 3.476-.775.829.674.337 1.626-.414.235.62-.726 1.312 1.481.716.636 1.013-1.031 3.146 2.13-.073-.784.787 1.312.7.152 2.418-.57.563.598.318.114 1.173.996.424.277-.69 1.054.386-.24.93.976.619 1.057-1.065.835.25.293 1.57-.725 1.506.245.511.35.3 1.33-.7.723 2.012 2.007.38.319 1.284-3.727.81-4.99-1.267.019 1.262-.91 1.634-1.93.336-.304.68-1.581-.277.002 1.975 2.087.455.76-.403 1.601 1.86 2.603.306.27 1.655-.585 2.068-1.215-.466-.881 1.182-1.778-.565.174 2.774.81 1.319 1.1.09 1.997 2.062-.027.984.933-.262 2.477 1.552 1.442-.357 1.493.81.393 1.128 2.76.425-.044 1.256.774-.091 1.67 1.256-.516.967.788.935-1.965-.234-.087 1.514-.547-.254.117-.973-.296 1.218-.95.188-1.037-1.059-1.23.433-.573-1.422-1.276.119-.332 2.1-.918-.15.052.45-2.167-.233-.225-.976-1.208-.797-1.41.306-.648.716.179 1.68-4.18 2.281-1.726 2.448-1.072.225.737.837-1.153.153.131.594-.982.666-.772-.655-.746.705-.246-.287-.507.51.36.206-1.015.095-.73 1.109-1.526.615-.647-.272-2.075 1.891-1.337.078-.552 1.216-1.011.233-.375.505.577 1.646-1.027 3.074.673.196.265 4.018.954 1.077-.094 1.403 1.74 1.46.7-.129.023.919.864.705-.424.845 1.149.731-1.132 2.84-2.755.739-.305 1.304.49 1.344.78.139.563 1.117-1.978 1.434.681 1.389-2.053 4.701-.904.811-.34 1.416-1.573.966-.695 1.946-2.696 1.223-3.875.065-3.434-2.483-.274-1.2-1.45-.463.636-1.612-1.516-.082-1.337-1.542.353-.676 1.298.556.173-2.406.6-.368.374-1.609-.094-2.303-1.4-.347.772-3.28-.549-.387-.081-1.228.878.422L0 119.585l-.116-1.348-.95-.002.07-1.313-1.772.04.02-.901-.995-.708-3.373 1.388-.283-.757-1.824.013-.433-.812-.805.643.198 2.465-2.08-.743-.94.288.065-1.613-.866-.471-.27.581-.606-.102.36-3.041-.14.613-.456-.363.05.439-.612-.009.375.671-1.072-.313.432-1.226.527.024-.799-.665.445-.57-.958.926h-1.237l-2.813-1.678-1.198.577-1.644-1.778.41-1.103-.356-2.261-.324.483-1.488-.763-1.052.265-1.489-1.108-1.323.141-.609-1.033-1.423.545-.277-.548 1-.674-.399-.558-.407.645-.238-1.041.704-.669-.975-.248-.403-.791-1.49.251.395 1.248-.766-.25-.59.438.91.872-.627.917-2.17-.944.981-.077-.213-.667-1.021.302-1.606-1.42-.445.256.044 1.36-.217-1.43-.976-.05-.613 1.789.416 1.068-1.57 2.091.286 1.758-.739.152.382-.159-.984-.682-.76 1.908-1.468-1.729-1.753-.059.19.629-1.613.193-.482-1.343-1.036.453.143.475-.47-.25-1.309.411-.858-.284-.319-.785 1.525-.759-.563-1.179 1.153-.916-.15-1.513 1.047-1.055-.705-1.016-1.094.084-.224 2.371-.737-1.04-2.62.268.674.41-.002.717 1.33.393-.002.65-1.277-.292-1.406.508.15-.794-.602.211-1.44-.862.813-.543-.99-.92.319 2.39-1.162-.553-.5.683-.888-.959-.874-.035.625.365-.152 1.272-.628.018-.774-1.075-1.963.7.43 1.38-.611-.47-1.107.659-1.302-.779 2.21-3.297 1.899-.842-.648-1.982-.55.158-1.938-1.48.175-2.837-1.439-1.195-.279.687-1.344-.325-.158.938-1.693 1.304-1.047-.502-1.64.366-.629 2.147-1.42-.094-.763 1.109-.29-.677-1.448.481.654 2.588-.64.487.216 1.003-2.89-1.305-3.873.358.13-.671-.344.214-.633-.871-1.983 2.728-.769-.39.206-1.096-.978.774-.417-.908-.42.737-.4-1.634.675-1.109.867-.109-.41-.36.842-1.279.818-.025-.865-.39-1.103.71-1.255-1.01-.38.833-.58-.826.397-1.124-1.342-.206-.907.863-.018 1.119.742-.543.585.817.787-.313-.288 1.235.468.45-.376.387-1.547-1.361.137 1.46.936 1.31-.296.534-1.13.323-.025-.897-.61-.222-.576.363.776.218-.134.702-.839.075-.565-1.075-.473.253.328.709-1.313.199-.56-.947.33-.589-.947-.817-1.08 1.565-.559-.144.074-1.249.835-1.127-1.162-.648-.186-.828-.886.923.615.322.03 1.088-1.244-.698-2.004 1.56.105-2.585.414.298.444-.833.84.336.769-.648-.45-1.864-.661.524-1.34-.368-.91 3.322-.946-1.203.157-.832-.745.063.228-.495 1.351-.506-.15-.57.97-1.024 1.954-.361-.477.664-1.014.053.949.678 1.307-.698-.482-1.814-.812.305-.679-.536.85-.956-.505-1.175.668-.3-.292-.825-.364.532-.17-.52-.944.067.044.944-1.25.413.756 1.236-.599 1-.536-.398.835-.233-.416-.327-1.921-.301-.649-.708-.186 1.078.796.85 1.516.099-1.829.51.557 1.567-1.33.156-.121-.743-1.34-.267-.036-.926.331.468.846-.72-.409-.546-.867.109-.632 1.082-.659-.305-.396.72-.714-.105.396 1.263-1.339-.32.428 1.05-.429.578-.651.07-.211-.569-.659.889-.694-.322-.346.447.699.52 1.118-.67 1.885 1.016.748 4.627 1.173 1.046-.521 2.776.829.593.386 1.203 2.517 1.177.422 1.332-.419.574.205 2.605-.847 1.266.246 1.577.719.34 2.748-1.335 2.218 4.086-.934.357-.443-.467-.137.975 1.986.728-.459 2.509-1.549 1.498-.757 2.233-1.713.365-.572.859-.824-2.236-.377.549-.358-.415-.873.553-.78-.303-2.377-3.201-1.915-1.054-1.85 2.751-1.445.632-1.406-1.545.917-1.606-2.466-1.761.072-.825-1.307-1.334 1.026-1.013.251-3.121-1.261-2.301-.298-1.885-1.184-1.264.041-.708 4.249-3.384.006-2.565 1.772-1.201 1.247.05-.645-.71.737-.448-1.601-.752.326-.651-1.133-.815-.247-1.495-.973-.375.61-.74-.938-1.1.912-.755.453-1.553.781.186 1.136-.843-.316-1.595.541-.895.679.344.813-.874 2.488.518.72-.716 1.048.677.744-.822 3.359-.88.161-1.442-1.692-2.157 1.932-1.456.046-.458-.613-.086.325-.345 1.327.896-.4-1.776.945-.283-.165-1.313 1.393-.976.387-2.54 1.542-1.3-1.586-1.663 1.521-.46-.611-1.176.984-.057.144-1.069.96.04-.524-.99.791-.6.428.442.27-1.149.858-.119-.286-.554.474-.287-1.494-.515.263-1.603.798.02.249-.805-2.052-.327.327-1.376-1.058-1.407-.592.02-.174-.913-.307.24.682-1.061-.326-2.16-1.449.638.268-.993-1.158-.484-1.023.253-1.402-1.774-1.18.028-.664-.817-.474.385-.2-.61-1.476.904-2.442.338L-114 54.68l-.652-1-.947.217-1.006-1.445-1.815.301-.556 1.26-1.339-.442-.489-1.534.929.173.934-1.193-1.213-.89-.28.44-2.461-.419-.259 1.41-1.552-.305.146 1.186-.676.408-.402-1.453-1.696.316-1.102-.723-.256 1.025-3.583-1.41-.904.623-.082 1.024-2.917 1.418-2.197.314-.594-.757-.446 1.755.324.609-1.18.59.419-.666-.935-.016.278-1.431-.44-1.398 5.936-3.12 2.291-.42.489-1.012-.749-.256-.108.912-.491.001-.793-1.499-1.204 1.055-1.834-.626.217-1.203-1.161.316-.602-.818 2.421-.817.376-1.329 1.297-.208.482-.725-.878-.496.123-.633-1.377-1.808.588-1.256-1.037.49-2.025-1.604-1.713-.523-.438-.77.377-1.075-.869-.463-.367-1.138-1.239-.396-.124-1.208.517-.655-1.02-.537.816-1.215-.152-1.271-1.02-.662.17-2.04-.742-.548 1.665-1.561 1.914.015-.002-1.094 1.21.32.269-1.403 1.322.03.476-.764-.701-.307.646-.742-1.471-1.5-.268-1.236.246-.648.369.294.106-1.828 1.205-.643-1.316-.102-.079-.795.785.302-.091-.827.671-.532-1.937-.65.667-.324.08-.78-.84-.918.799-.6-.516-1.635-3.587-2.83-1.15-1.714 1.11-1.25-.654-1.06.321-2.118-1.01.102-1.579-2.234-.727-.228.535-1.19-.798-.938-.134-.684 1.033-.426-.814-1.534.63-1.499-2.415-2.975.471-2.276-.387-1.278.493-.551-.382-.881.641-1.873-.889-.427-.081-.803.784-.392-.55-.624.356-.942-1.429-2.74.65-.58-.631-1.433 1.512-3.154-.688-1.948.926-.673.729-3.392 2.173-2.886.19-1.39 3.775-1.77-.431-.35.67-1.5 1.303-.606 1.402-2.827 1.142-.873.569-1.8-.45-.412-.31-.605ZM149.3 203.192l.739.7.13.912-1.287-.351.418-1.261Zm8.834-.209 1.803 1.439-1.593.054-.21-1.493Zm-2.915-.542.739.689-.417.85-.751-.631.429-.908Zm-4.883-.337 1.318 1.027-.983 1.072-1.049-1.081.377-1.429.337.411Zm6.15-.406.685 1.721-1.208.42.392-.691-.646-.743.777-.707Zm5.08.324.5.565-.757.106-.107-1.402.364.731Zm-9.767-1.023-.015 1.68-1.018-.628 1.033-1.052Zm10.26-.775.165 1.165.567.469.428 1.193-.755.087-.004-.733-.706-.646-.578-1.396.883-.139Zm-4.709.247-.207 1.167-1.021-.604 1.228-.563Zm-12.941-.264.918.496.314 1.152-1.122 1.104-.11-2.752Zm3.747-.085.436 1.018-.604 1.318-.373-1.439.541-.897Zm-6.54-.331.317.578-.303.513.41.448.079.665-.307 1.143-.803-2.405.607-.942Zm22.401-.018.937 2.18-1.138.741-1.378-1.753.283-.693 1.296-.475Zm-13.372.131.698-.154.393.885-1.209 1.203-.675-1.549.793-.385Zm8.754-.788 1.5 1.401-.509 1.765-1.253-1.742.262-1.424Zm-12.336.391.426.821-.456 1.214.546.877-.874.891-.496-2.389.625-1.005-.656-.423.432-.651.453.665Zm-5.105-.521 1.295.215.879 1.955-.37 1.921.517.661-.744.591-.893-.25-.684-5.093Zm18.771-.236 1.019 1.126-1.129-.226.11-.9Zm-14.738.04-.161.971.487.537-.61.468-.283-1.76.567-.216Zm16.827-.057.984.758-.646.345-.338-1.103Zm-4.682.037.799-.029-.685 1.448.54 1.964-.407.276-.925-.331.16-1.995-1.055.185.557-1.168 1.016-.35Zm-6.62-.567.988 1.349-.333.939-.809-1.65.154-.638Zm10.394-.136.957 1.598-.29.269-1.41-1.477.743-.39Zm-9.674-.214.248 1.175-.461-.392-.264-.6.477-.183Zm-3.703.038-.031 1.45-.862.541.113-1.405.78-.586Zm6.492-.519 1.129 1.352-.171.774.36.169-.097.921-.884.182.497.782-1.597-.552.207-1.846.556-1.782Zm-4.497-.081.725.632.008 1.465-1.39.459-.401-1.449 1.058-1.107Zm-3.217-.022.548.314-.544 1.658-.64-1.214.636-.758Zm15.142-.017.443-.008.169 1.316-.857-.702.245-.606Zm-4.495.214.058 1.049-1.034.467.809-2.045.167.529Zm2.97-1.212.924.749-.314.908-1.291.508-.333-1.134 1.014-1.031Zm-9.15-.078.387.555-.102.874-.708-.504.423-.925Zm-6.804.15.587 1.428.653.183-.079.554-.892.222-.203 1.001-.967-.239-.498-1.936 1.399-1.213Zm13.719-.576.552.38.904 3.227-1.779-1.467.323-2.14Zm-18.847-.274.931 1.768-.047 1.951-.715 1.762.296.827-1.194.677-1.768-.653-.13-.723.947-2.948 1.68-2.661Zm17.136.578.9-.998.47.508-1.321 1.885-.205-1.006.156-.389Zm4.933-1.098 1.307.777-.335 1.16-1.568-.555.596-1.382Zm-9.366-.118.834.835-.382 2.335-1.007-2.216.555-.954Zm-1.555.007.337.538-.528 1.5-.431-.635.622-1.403Zm-3.036-.208.933.481.211.881-1.103 1.153-1.173-.041.553-2.17.579-.304Zm7.046.145.864.102.845 1.028-.597 2.197-1.603-1.596.491-1.731Zm-1.974-.615.72.281-.526.672-.194-.953Zm5.151.105 2.06-.289 1.354.761-.349.605-1.291 1.016-1.774-2.093Zm-2.96-.394 1.988.343.226.989-.481.553-.499-1.019-1.357-.228.123-.638Zm.57-1.343.139.7.817.161.258.367-1.295-.093-.487-.966.568-.169Zm-2.237-1.108 1.461.521-.985 1.623-1.297-.426.821-1.718Zm-13.592-.202-1.412 2.63-1.057.593.685-2.348 1.784-.875Zm17.596.195 2.351.218-.15 2.09-1.074.254-2.543-1.134.361-1.225 1.055-.203Zm5.987-.815.964 1.729-.386 1.472-.803.236-1.39-2.659.145-.965 1.47.187Zm-4.472-.856.432 1.28-2.367-.352 1.935-.928Zm-.761-.692.351.449-1.662.469-.264.632-.625-.183.685-1.462.947-.356.568.451Zm.391-2.464 1.553 2.838-1.139.07-1.09-1.104 1.107-.435-.88-1.505.449.136Zm2.592.233.767.958-.524 1.604-1.051.764-.018 1.133.582.681-.296-1.548.756-.052.232 1.943 1.281 1.857-.231.551-2-.958-.617-1.637-.296-1.992.768-.922-.966-2.012.676.24.937-.61Zm1.22-.458 1.272 1.928-.336 1.834-1.834-.197.767-1.845-.636-1.559.767-.161Zm-8.076.01 2.5.826-2.775 2.476 1.382 1.414-.243.617-1.711-.596-.714-2.133 1.561-2.604Zm4.143 1.377-1.946 1.085-1.009 1.525-.426-.038-.524-.576 2.871-2.67.548-.118.486.792Zm2.506-2.12.37.788-.79.568-.186-.516.054-.603.552-.237Zm-3.535-1.636.343 1.18-.714.436.621 1.096-.841.176-1.083-.759.11-.666 1.564-1.463Zm.75-1.754 1.319.074.512 1.05.678.187.199 1.692-1.076.445.282 1.349-2.665-1.359.586-.322-.392-2.502.557-.614Zm3.761-1.035-.029 1.608 1.04.783-.771.322 1.914 2.47.045 1.434.723-.215-.901.749-1.105-2.171-1.237-.117-.459-1.354.449-4.022.331.513Zm-2.384-4.311-.038 1.977.769 1.8-.881.649-.651-3.586.801-.84Zm1.06-.676.675.304 1.013 3.334-1.025.555-.46 2.838-.908-.73-.002-1.17.685-.548-.724-1.993.039-2.326.707-.264ZM136.702 42.375l1.519.528.286 1.738 1.331.72 1.546-.566.967.481 1.885-.259.507.693 2.835.681 2.567-2.006-.24-.82 1.003-.31 1.573.026.981.745.732-.522 1.052 1.222.711-.284 3.099 1.156.132 4.597 1.154-1.305.909.818-.362.755.591.534 1.639-.472.565 1.07 1.149.283.306 1.684.76.824 3.264-.256 3.186-1.444.363.74 1.526.208.263.806 2.611-.27 1.648 1.127.601-.117.256.508-1.076 1.033.492.26.694.022.397-.64 1.378.527.793-.413.465 1.076.86-.45 1.305.328.508 1.582-.506.761.537 1.141-.406.185-.245 2.624.471.812-1.135 1.845.512-.183.274.532-1.973.907-.03.65-.795.274.213.935-1.07-.475.515 1.006-.322.367-.534-.334.627.92-.825.61.911.143-.974.675 1.031.409-.403.26-.513-.067-.598-.958-.081-.503-.935-.26.603 1.512-1.077-.07-.157.715-.494-.106 1.004 1.106-.952.522.428.361.516-.538.524 1.26-1.865 1.14-.029 1.624-.965-.067-.032-1.011-2.721-.093-.236-1.073-.816 1.122-1.204-.105-1.818-1.117.054-.49-.617.058.279-.805-1.102-.9-1.776-.466-.572-1.2.165-1.605-1.008-1.364.944-1.117-1.397-.032.422-.496-.535-.79.177-.963-1.376.037-2.01-1.897-.339.989-.463-.208-.59.706.227 1.225 1.145.12.126.335.603.06.426.685-.413.694 1.086.558.834-.244.12 1.123-2.603.399-.932-1.358-1.22-.095-.527.41.444 1.121-1.005.133-.722-.738.063-1.192-.595-.363-.979.365-.324-1.53-1.174.548-.593-1.335.547-.237-2.046-1.366-.101-1.037-.668-.022.047.652-1.045-.216.103-.934-.903.21-1.064-1.735-1.327-.16-.526-2.544-.991 1.183-1.115 3.376.548.925.306-1.2 3.031.756 1.089 2.946-.99.309-.762-.714-.519 1.068-.816.192.24.42-1.688 1 .021 1.79-2.692.89-1.818 1.266-.509 1.964.637.216-.319 1.095.367.253-1.129.356-1.5 2.877.566.663.23 2.69.906.662.907-.723.584.386 1.608-.657.047.816 2.8 1.949.75 1.25 1.299.255-.27 1.836 1.404.453-.09.679 2.135 1.509.822-.221 1.059 1.043 1.285.203.32-.782 1.52.136-.163-.837 1.246.045.752 1.448-.582 1.772.736.466-.033.854 1.178 1.15.467-.376.5.921 2.245.322-1.431.954.058 1.143-.63.042.329.982-.638.487-2.047-1.269-1.078 1.121-.807-.539-.549.381-1.122-.915-2.414.1-1.344.818-1.732-.978-1.411.443.44 1.563-.52.453.264 1.352-.428.836.451.419-1.477 1.911.107.673-1.568.191-.403.815.566.53-.597.756-1.251-.858-.357.583-.006-1.228-.933-1.183-2.314.669.942 2.159-.735.309-.3 1.288-.358-.468-.433 1.212-.927.286-.152 1.379-1.42 1.568 3.597 4.613 1.368 1.29 1.969.626 1.515 1.589 3.025.176 2.104.94.69 1.362.343-.862.476.02 1.14.568 1.906-.13.843 1.014-.071 2.223-.851.896.28 1.344-.407.157.138.528.672-.028.042 2.894.826-.392.322.667-.944.189-.09 1.855-.772.004-1.138 1.278-2.165.236.674 1.223-1.105.895.503.57-.448 3.507.806.156-.303 1.019 1.68-.208.375 1.573 2.193 2.043 1.457-.4-.197 1.52-.673-.041-.206.675.129 1.624-.755.44.329 1.034-1.277.379.601 1.242 2.002 1.052.455-.028.099-.976.914.749 1.591-.153.149.614 1.98-.114-.335.879-.534-.243-1.068 1.807-1.331.851.088 2.595-.699.053.556.365-.17.973.889.131.484.903-.12 1.166.963-.002.563.984-.238 1.368-1.028.918 1.052 2.006-.702 2.029.658.225-.527 1.153-1.8.679-.684 1.071.401.752-.314 2.616.79.93-1.504-.234-.501 2.136-1.526 1.388-.137.907-1.428-.107-1.64 2.843.456 1.786-.995 1.983.209 1.732-.751.654-.146-.492-.837.094-.328 1.425-.885-.729.819-1.434-2.772.662-.584.598-.179 2.421-.699.031-.275-1.664-1.042.277-1.436 1.115.361 1.453-1.454-.242-1.414-3.226.365-1.31-.618-.928 1.419-1.78.423-1.482-.547-2.578-.983-.898-2.512-.368.925-2.609-1.464 2.381-1.685-.721-.686-1.097-.323-3.419-.603-.814-1.038-.184 1.533 2.117-.058 2.988 1.799 1.656 3.326.469 1.397 2.406-3.319 2.419-.24.078-1.906 4.282-1.339 1.605-1.03.197-2.624 2.763-.954-.132-1.668 1.183-5.443 1.367-.613-1.016.32-1.744-.731-.613.018-.893-1.926.023-.472-.719-2.351-.79-.723-3.942-1.765-.535-.239 1.204-1.698.636.029 1.335-1.689-.139-.846-1.184.954-2.294-.438-1.464-1.583-1.182-3.282-.33-1.092-1.654-1.962.294.192-2.018 1.16.11.236-.069.632.004.255-.685.053-.729.118.412 1.816-.079.014-1.183-1.494-.858.387-2.012-2.14-.822-.442-1.422 1.149.033.245-.686-1.014-2.074-2.838-.095-.886-2.753-2.061-1.334-.856.541-2.371-2.119.437-2.372.792-1.021-.792-.757.985-.737.37.429.887-.284.574-1.215-.734.595-.391-.67-2.126-.137-.607.581-2.484-1.103-2.248.604-1.637-1.386-.353-1.195-2.32-.723-.29-.99-3.196.398-1.506-1.836-.68-.022-.136-1.927 1.353-1.719-.307-1.168.771-.162-.86-1.118.082-1.71 2.04.443 2.708-1.109-.956-1.647.946-.915 2.567.457.02 2.69 1.977.485.465-.39-.37.966.487.456.925-.611.563.599.374-.235-.37-.438 1.883-1.106-.478-.392.111-1.325.6-1.174 1.54-.704.006-.583 2.327.019 1.65-1.2 2.679-.665.992.022.169.46 1.413-.278.726-2.098-.705-2.001.732.572 1.323-.936.105-.519.518-.499 1.084.999.8-.583 4.122 2.002.645.019.463-.717-.93-1.349 1.696.362-.185.383.786.286.632.132.144-2.304.582.97.632-.73-.071-1.628-.795-.297-.617-2.141 2.475.29-.445.758.328.241.754-.377 2.655.792-.632-.767 1.281-.151.729-.747-.506-.348.062-1.803 2.165.856-.183-.613 1.007-.635-1.002-.761 3.15.167.079-1.037-1.437-.726-.052-.884 1.196-.112.759-1.304 1.204-.33 1.408-2.946-.662-.226 1-2.286-.425-.464-.302.56.293-1.549-.968-1.048 2.065.879 1.025-.334.593-.892-.975-.484.756-.053-.445-.403.756-.914-.703-.444.372-1.362-1.6-.476-.567-.797.51-.627-.06.704.504-.03.58-.843-.236-.841.808-.044-.248-.816 2.212-1.248-.18-.953-2.346-2.829-2.633-1.818.289-3.72 1.286.612-.363-1.009.882-1.252-1.9-1.575.128-1.147-.606-.165-.174-.781.583-1.143.716.302.659-.877.776-.024.413-1.46.518.338.709-.921 1.572.329.017.64.46.248.086-.471.525.7 1.122.162.064-.676-.972-.947-.385-1.45.871-1.327-.491-.115.341-1.554-2.296-.986-.75-1.35-.889.045.316-1.303-.711-.4.721-.67-2.308-.57-.499-1.178.686-.676.319-3.16 1.855-1.348.477.64.178-.45.793.09-.107-2.05 1.285.323.638-1.068.849.058 1.957-2.239 1.829-.838 2.034-2.1-.637-.792-.785.17-.188-.541.982-.809-1.019-.738-.073-.847-.851.124-.387-.54 1.425-1.217-.057-.572-1.65.426-.599.768-1.03-.717.003-.011-.021-.1 1.51-2.822.719-3.94-.378-2.738-.974-.968.254-.644-.671-.869.38-1.027-1.113-.548-.407-.908-1.027-.037-.434-1.494-.774-.521.729-1.917-.138-1.42Z" fill="#EBF0EE"/>
    </g>
    <g opacity=".6">
      <mask id="b" style="mask-type:alpha" maskUnits="userSpaceOnUse" x="-237" y="-208" width="600" height="600">
        <path stroke="#000" stroke-width="2" d="M63-208v600M-148.293-120.707l424.264 424.264M-237 91h600M-149.707 303.557l424.264-424.264M-50.912-185.188l229.61 554.328M-213.64-23.299l554.328 229.61M-214.578 206.24 339.75-23.37M-52.587 369.212l229.61-554.328"/>
      </mask>
      <g mask="url(#b)">
        <path d="M-322-300h784v784h-784v-784Z" fill="url(#c)" fill-opacity=".7"/>
      </g>
    </g>
  </g>
  <defs>
    <radialGradient id="c" cx="0" cy="0" r="1" gradientUnits="userSpaceOnUse" gradientTransform="matrix(0 392 -392 0 70 92)">
      <stop offset=".211" stop-color="#E9B840"/>
      <stop offset=".618" stop-color="#E9B840" stop-opacity="0"/>
    </radialGradient>
    <clipPath id="a">
      <path fill="#fff" d="M0 0h160v160H0z"/>
    </clipPath>
  </defs>
</svg>
