<svg width="160" height="160" fill="none" xmlns="http://www.w3.org/2000/svg">
  <g clip-path="url(#a)">
    <g style="mix-blend-mode:multiply">
      <rect x="-.333" width="160" height="160" rx="2" fill="#E7D7B0"/>
    </g>
    <g style="mix-blend-mode:multiply">
      <path d="m79.397 166.081-.002.007.002-.007Zm.597-.035-.356 2.262-.69-.98-.014-.729 1.06-.553Zm-.597.035-.111-.57-.25.403-1.154.089-.053-.665-.825.528 1.59.697-.021.944.415.127.607 1.363-6.999 3.425-4.294 1.687-3.438-.971-2.842.336-2.442 1.213-2.38 5.208.091.881-2.661 2.816-.25.423.352.791-.868.758-2.773.374-.793-1.337.239-.707.341.005-.107-.527-2.271-.792-2.863.551-2.04.973-1.75 1.153-1.336 1.49-1.325 4.084-1.943 3.078-.984 4.581 1.278 6.819 1.613 2.827-1.326 9.16 2.203 5.924-.159 3.523 1.511 4.035-2.762-5.011-.516-.233-.106 1.735-.565-.565.325-.561-.367-.07-1.07 1.681 2.119 1.931 1.436.032 1.447 1.282v1.038l-.691-.386-.875-1.717-1.5-.04-1.583-1.15-1.443.156-.076.383.815.162.063.339-.577-.064-.202.554-.642.16.027.654-.59.265.404.591-.538.746-1.424.636-.974-.017-.393.436-.492-.406-.63.598 1.22.954-.776.558-.413-.526-.653.282.14-.518-.436.087-.091-1.026-1.692.715-.604-.426-.248-.859-2.048-.245-1.04.402.966.424-.271 1.354.484-.346.18.255-.457.161.04.412-1.456.477.13.651-.893.641-.777-.865-.94.11v.619l-.564.377-.693 1.511-1.603-.133-1.714-1.219-1.25.172-.4.637.597.323-.819-.021-.112-1.299-2.492.797-.834-.21-.167 1.012-.817-.265-.718.763.633 1.168-.402-.003-.839 2.897-.697.525.04 1.138-.445.116-.162-.466-.104.034-.327-.033-.094.783-.592.02.038.875-1.75.109-1.491-.801-.5-.76-1.428.206.716-.661-.126-.73.392-1.851 1.188.005.811-1.581.63.642 1.102-.107-.252-1.327.675.105-.121-1.334 1.016-.414-.052-.565.5-.307-.369-.435 1.156-.722-.539-.6.532-.332.168-1.131-.418-.731-.667.858-.94-1.024-.686.187-.22-.405-.636.301-.465-.321.582-.24-.81-.445.684-4.366-3.125-.177-.851.603.205-1.171-.64-.142-.092-.495-1.437.262-.43-.621.11-.415.792.074.077-.506-.469-.456.638-.852-.09-1.253-1.387-.899-.064.665-1.009-.172-.371.813-.407.005-.04-1.183.682-.257-.223-1.122-1.05 1.046-.472-.666-1.316-.072-.229.515.41.942-.99.484.046.451-1.258.438-.078 1.132-.253-.562-.61.179.125-.495-.404.033-.74.4.502.396-.296.154-.492-.318-.757.532-.698-.537-.14 1.14-.479-.413-.084.53-.636.077.148-2.377-.935-.043.304-.703-1.247-.207-.756.391-.25-.618-1.082.348-.319-1.087-.427.657-.126-.387-.501.418-.034-1.129-.404.345.126.84-.74.149.734.562.084 1.295-1.367-.122-.674.432-.647-.639-.286.759-.361-.192-.464-1.408.937-1.549.46-.079-.105-.553-2.007-1.906.84-.834-.919-1.217-.83-.075.148-.549.873-.135.09-.46 1.498.325-.22 1.465.294.881 1.866.218.503.992 3.183-.652.772.833-.105 1.683.807-.022.027.35.681-.576-.378-.527.44-.641-1.054-.007.148-.75-1.095-.305 1.327-1.581-.11-.296-.866.442.061-.556.555-.102.25-.701 2.12.281-.08-2.373-.796-.008-.237-.739-1.087-.297-.204.584.78 1.635-.611.396-.544-.751.074-.771-1.526-.134.03-1.082-.942.395-1.529-.525-.77.988-.131 1.459-.57.077-.493-.593-2.141-.011-.248-.63.483-.429-1.36-1.03.077-.861.574-.458.545.276.042-.896.568-.653-1.977.193-.818-1.074-.533-.092-.758-1.462.726-2.61-.34-.879 1.31-.487.302-3.152-.7.256-1.228-.372.398-.921-.198-1.079.435-.383 1.528 1.225 2.014.361.361-.379.885.007-.112.469.725.107 1.44-2.377-.42-.437.49-.124.01-.885-.714-.541.83-.747-.312-.524-.622-.082-.11-.74-.922.107-.654-2.238-1.092-1.101.03-.304 1.047.125.051-2.645 1-.376.666.549.168-.671-1.566-1.492.397-1.754-.797-.172.837-1.337 1.485-.818 2.02-.339 4.992.731 1.857.18 1.008.698 1.095-.2 1.592.421 1.696-.606 2.187.727.66-.849.524 1.139.88.344.31-.431.745-.001.293-1.019 1.11-.566.358-2.025 1.142.043 1.714-1.026 2.94.486 1.11-.842 1.85 1.431 1.177.059 1.178-1.264.025-1.374.48.072.187.851.725.098-.096-1.52.385-.405 2.02-.86 2.79.568.806-.446.127-5.331.781-1.058 3.075-.417 1.352-.954 2.89-.627 2.43-1.342.678.777.988-.154.771 1.201 1.075-.084 1.72-2.05.417-1.361-.701-.773-.794-.214.343-.876.696-1.156 1.686-.399.924-1.187.366.633 1.167.051.75 1.089.343 1.69.755.32.275.872.512-.769 1.013.685.074.503 2.039.54.79-.495-.949-.737.2-.88.417-.097-.05-1.047-1.778-.432-.067.612-2.482-1.059.584-.864-.417-.847.538-.418.488 1.05.492.156.69-.663.266-1.148 1.227-.6 1.85 1.002-.328.65 1.65-.189 2.045.775.505-.501.22-1.902.824.007-.153-1.102 1.646.43 1.059-.68 2.227-.373.36-1.788 1.64.045 1.102-1.409.902.667.84-.089 1.49-1.739.153-1.809.426-.606-.398-.402 1.307-1.958.104-.765 3.942-2.116.2-.412-.661-.818.819-.855 2.888-1.122 1.396-1.317 2.6.287.326.662 1.232.617.49-.133-.006-1.239.594-.275.146.484.465-.053.069-2.043.463.347.146-.292-1.131-1.122.511-.403.078-1.011.67-.158.406-.649-1.123-.214.958-1.043-.444-.819 2.16-2.549.481.706.46-.044.134 1.397.453-.067-.357.966 1.252.418.207.446-.667.795.083.737.884.829.611-1.16 2.074-.894.502-1.28-.326-.497.439-.395.877.594.76-.06.139.921.781.311 1.62-.664.694.184.093-1.079-.399.203-.423-.512 1.417-1.878-1.089-.2-.107-.402.519-.373-.88-.039.067-1.017.755-.304 1.57-2.378 1.318.607.064.53.275-1.004.895.177.257-.656 1.47-.211.05-.642.717.026.287-.577-1.24-1.359.644.073-.66-.68-.322.808-.454-1.466.786-.406 1.198.277.895 1.017-.134-1.087.5-.014.064-.421-.356-.976.265-.163.391.497.225-.235.158.805-.385-.04.036.316.688.115.288-1.38.62.485.491-.774-.194-.648.556-.671 1.413 2.764.502.094-.334.537.767 1.35.656.21-.776-1.424.909-.603 1.593 3.824 1.333.439 1.673-.112 1.049 1.157.788-.072.544-.552 3.466-.327.072-1.504.506.316.174-.325-.385-.322.694.11-.428-.373.623.204.605-.554-.265-.491.48-.581-.489-.946 1.084.658.34-.799 1.469-.889.413 1.049.48-.843.8.051-.006-.579-.659.091-.536-.954 1.329.04.073-.703.71.112-.158.637.482.477.804.495-3.412 3.928-.553 1.683-1.688 1.597-2.102 3.144-4.416 4.12-.021.848-7.765 3.92-2.81 1.914-.825 1.38-2.288 2.113v.667l-1.256 1.704-2.512 2.683-11.607 5.882-4.582 3.539-1.357 1.709-.495 1.831-.437.209.139.874 1.064.923.815-.226-.218 2.26-.827.467v-.001ZM190.633-35.57l.016.072-.016-.072Zm-76.362-20.841.636-.067-.038.665 1.091.35.052.58.874-.205.76 1.455 6.248.986L125.255-50l-.319 2.556-.605 1.031 2.186.955.304-.319.4.47.693-.507 1.184 1.063 1.356.2.308.433-.206.513 1.774.626-.728.668 3.319-.239-.356 1.168.635 1.136 2.377.369 1.404-1.062.883.197 3.467-1.922 1.918 1.63-.04 3.014 1.632 1.104.641-.15-.023.876 1.883-.954.234-.806 1.306-.328 2.109.804-.045.479 1.075-.175.48.561.669-.611 1.432-.053 4.118 1.73.547.877 3.079 1.594.656-.775 1.304.42 1.162-.49-.045-.513.732-.075.055-.579 1.582-.326.567-1.175.516.032.376 2.885 1.363.983 1.795-.15.184.792.893.054.546.501.535-1.281 1.872-.688 2.671 1.265.879-.268.497-.891 1.071.587.627-.098.447-1.209 1.129.697.756-1.07.742 1.458 1.242.547.119.585.616.002.089-.577 1.154-.973.168-2.09.752.525.439-.562 1.206-.31.041.417-1.041.89.282.395.623-.09.053.62.745.54-.718.59.137.396.574-.123.466.579-1.487 1.536-1.337.613-1.431 1.637-.62-.042-.467.782-.939-.236.078 1.499-.58-.066-.13.328-.348-.467-1.357.987-.233 2.31-.502.495.366.86 1.686.418-.527.49.52.293-.231.954.65-.034.548.988 1.679.721-.249 1.137.359.084-.637.97.282 1.061.71.693-.047.494-.82-.119-.384-.511-.062.345-.337-.181-.012-.47-1.15-.24-.518.674-.379-.247-.302 1.068-.567.017-.482.642-.523-.22-.427.835.128.57.443.122-.094.839 1.39 1.152-.646.915.266.74-.94-.448-.083-.541-1.447-.215-.453-1.133-1.479-.026-.514-.78-.626.368-.147 1.04-1.116-.286.272.69-.441.454-.01.973-1.54-.692-.42.473-.89-.38-.62 2.818-.777-.35-.751.343-1.237 1.373.217 2.914-.137.571-.7.06-.688.7.347.437-.885 4.083-2.307-.756-.613 1.18.25 1.003-.666-.6-.418.354-.336-.372-.704.076.105-.627-.55-.53-.503.038-.369.884-1.211.319-1.254-.932-1.077 1.468-.785.362-.328 1.942-.437.065-.261 1.113-.702-.22-1.241-1.35-1.372-.384.637-.972-.161-1.043.361-.54-1.125.171-.896-.752-.429.557-1.182-.385-.17-2.13-.726-.863-.909.105.22-.803-1.921.996-1.39-1.43-1.926.027-.776-.497-.769 2.291-.902.553.29 2.204-1.689-.442-.158.793-.603-.001-.355.853-.61-.55-3.908.504-.011.617-2.515.72.359.698-1.532 1.052-.46-.158.205-1.112-.438.518-1.205.06-.419.759-1.351.08-.342-1.898-.877.215-.034-1.234-.714-.377-2.231 1.532-.396 1.31-1.644-.39-.129.594-.847.162.076.77-.612 1.095-.748-1.08-.71.153.097-.582-.772-.638-.888-.129-.399-.578.294-.162-.713-.411.019-.627.617-.46-.64-1.325-.455.037.209.258-.44.443-.424-.47-.335.378-.559-.423-.296.172.123.769-.637-.626-.115.743-.579.49-1.207-2.74-1.046-.54-1.221 1.887-1.158.315-2.9.585-4.186-.462.827-2.078-.84-.534.31-.619-.631-.515-.018-.672-.512.095-1.271-1.068.068-1.026-.697-.788-.194-2.939-.493-.143.751-2.25-.422-1.203.274-.37.74-.17.403-.89.977-.057 1.517-1.384.473.2 1.116-.45.533-.81.743-.071-.263-.15.371-.374.18.21.545-.515.564.478.718-.487-.095-.435.842-.112-.539-.612.784-.165 1.263-1.79 3.055-1.67-.132-1.228.475-.524 1.031-.225.883.583.165.714 1.584.172-.038-.33.669.11.245-1.536.932-.087.42 1.04.898-.317.759.774.694-.137.216-.891-.086.712.401.186.063-1.108 1.436.171-.576-.683.377-.708-1.221-.919-.565.068.032-.919-2.018-.311-.288-.825-1.09-.593-1.054.262-1.811-1.136-.682.192.019-.72-1.46-1.507-.804-.067-.593-.965-.127-2.03 1.3.415.644-.865.888.34.429-1.512-.198-1.21-1.903-.224-1.17-1.362-.555.295-1.526-.333-.002-1.445 1.156.203.222-.497 1.411-.247.666-1.196-.014-.921 3.648.927 2.724-.592-.233-.94-1.467-.278-.529-1.471-.971.511-.257-.219-.179-.375.53-1.102-.214-1.147-.611-.183-.772.778-.714-.452.176-.682-.771-.282-.203.506-.729-.311-.083-.858-.436-.232.416-.411-.112-1.77-.959-.512.574-.575-1.558.053.754-2.3-.465-.743-1.083-.523.531-.959-.172-.454-1.189.303-.493-.248.567-.605.956-.715-.635-.163-.095-.786 1.206-.448 1.843.338 1.306-1.199.044-.587.387.075Z" fill="#EBF0EE"/>
      <path d="m99.016 15.828 1.951.367.426.861 1.134.298.69 2.71.639.288-.286.447 2.572.881.65 1.372-.281 1.503 1.153 1.727 3.072.758.051-1.235 1.324-.206.3 1.83-1.019 1.847-.07 1.54.78.59.706-.44.515.914-.7 3.971 1.834 1.179.355 2.434.803-1.238.521.979 1.041-.258.137.572 1.762-.286.354.751-.367 1.536-.773.103-.848 1.987-.595.008-.552.575-.091 1.368-1.356.712-1.331-.044-1.444 1.382-.048 1.005-.429-.025-.077.41 1.255.785-.716 1.987-2.743.492-2.074 2.078-1.146-.054-.905.43-1.659 2.484.788.788-1.187.208-.062 1.888.349.643.903.439-.554.8.249.579-1.022.24.103.78-.874-.423-.455.652.325.845-1.234 1.365 1.242 1.012-.61.417-.22-.903-1.16.748-.883 2.401.3 1.055.833.912.17 1.043-.533.174-2.007-.717-.305 1.281.391.546-1.077.521-.54 2.546-1.347.704-1.519-.364-1.62-1.156-1.47.54-1.28-.194-.453.394-.7-.419-2.229.212.174.97-.683.627.248.706-1.33 1.94-1.288.775-.51 1.624-.834-.054-.27-.733-1.051-.437-.22 2.555.635 2.737-.847 1.429 1.082.895.145 1.165.421-.422.366.965-.678 1.835.68 1.067-.463.394.163 1.244-.665 1.17.23 1.724 3.974 1.499.64-.292 1.452.199-.134 1.964.326.456-.284.805-1.092.115-1.162 1.1-.265-1.04.427-.853-2.896-.78-1.026.43-.946 1.049-2.084-3.404-1 .405-2.31-1.456-.642.808-1.591-1.87-1.433 1.343-.56 1.743.236.851 2.121 1.079.38 1.194 1.526.256-.427 1.602.164 3.344-.454.743 1.335-.162.522 1.736 1.221.127-.32 1.043-.489.081.81.852-.601 1.094.518 2.151-.365.652.767.182.236.542-.345.612.595.919.276 2.097-1.28.305-.222 2.1-.614.67-.914.036-.054.88-.859-.136-1.266.568-.388 1.242-1.189-.433.058.59 1.267.689-.146.554-.733-.102-.226.719-.745.308-1.836 2.043-.33 1.324-1.663.121.011.566-1.25.197-1.255.845-.444 1.511.342.53-.267 1.301-.667 1.28.066 1.171-.768 1.883-.83-.184-.17 1.571-2.51-.111-1.809-.809-1.648 1.327-.788-.069-1.695-5.831.57-1.745-2.14.71-.265-1.302.37-.193-.727-.538-.606 1.36-1.214-.109-.025-.944 1.051-.707-.834-.966-.543-1.619.197-.523-.68-.208.15-.335-.921-.728-.347-.935-2.86-2.195-2.712.838-1.424-2.644-.486-.841.659-.102 1.378-1.189-1.549-2.111.001-1.178 1.043-1.764.052-1.343 1.184-.957-.064-1.011 1.029-.442.74-1.494 1.767-1.329.81 1.892 1.183-.39.32.868 1.162-.066 1.835-1.496-1.093-1.329 1.995-.788-.25-1.078-.645-.204-.34-.676-1.172-.115-.87-.81-1.23-.079.172-1.617-2.417-1.666.053-.905-1.404-.109.171 1.058-.491-.414-1.107-.034.055-.439.654.12 1.26-1.184-.283-.61-1.437-.142-.027-.538.717-.409.705.504.764-.062.482-1.142.012-1.591-.11-.895-.812-.59-1.996-.104-.15-.381.536-.556-.595-1.046 2.45-.566.599-.756 1.45-.545-.608-1.258.695-4.235-1.053-.174-1.062.556-.581-.651.499-.764 1.39-.59-.664-1.665-.07-3.434-1.653.036-.61-1.58.453-.553-.27-1.234.46-1.547 3.41-1.58.721-.983-.313-.664 1.41-2.89-.401-2.35.177-2.563.47-.946 1.306.215.393-1.176.093-2.685-.347-.435.524-.084 1.246-3.252.76.126.248 1.124.684-.065.088-.727-.63-.366.861-.371.07-1.985 1.25-.36.558-.982-.073-3.021 1.343-1.012.734.794 1.093-.986.546.365.363-.877 1.07.391.341 1.32.534-.782.452.245-.191-.548.8.013.752-.962 1.853.02.15-.522.481-.096.15-1.3.968-.365.304-.548.337.581.426-.321-.31-1.299.723-.83-.449-1.398.163-.81 1.667-.36.07-.498 1.537-.871-.417-1.736.376-.762 1.647-.048.825-.76.934.27.674-.788-.165-1.78.9-1.18-.068-.847-.92-.756-.517.125-.237-.868-1.011.41-.598-.208.028-.738-.764.216-1.145-2.472-1.709.431-.431-.716-1.315-.45-.823.917-.738-.171-.505.856-.405-.343-.026-.906-.548-.093-.14-.7.63-.237.203-1.267.572.013.847-1.27-.254-.678-.659-.357-.175-1.243-.615-.477.232-1.11.978-.388 1.176 1.388-.075.386 1.219.595 1.346-.259 1.217-1.014.656.42.959-.215.855.887 2.242.013.795-.688-.089.438.516.522.558-.312 1.398.38 2.524-.162 1.077.566.542-.207-.329-.623 1.123.026 1.266-.702.086-1.07 1.755-.3 1.143-.85 2.51 1.817 2.833-.048 1.971-.895.508-1.423 1.15-.707.249-1.036.66-.593Z" fill="#28A062" fill-opacity=".7"/>
      <path d="m102.362 6.928 4.187.463 2.899-.585 1.159-.315 1.221-1.888 1.044.54 1.208 2.74.579-.49.115-.743.637.626-.123-.769.296-.17.56.421.335-.377.425.47.439-.443-.208-.26.455-.036.64 1.325-.617.46-.019.627.714.41-.295.163.399.578.888.128.772.64-.098.58.711-.152.748 1.079.613-1.096-.076-.77.846-.16.128-.595 1.644.39.397-1.31 2.229-1.532.715.376.035 1.235.876-.215.343 1.898 1.35-.08.419-.76 1.205-.06.438-.519-.205 1.112.459.159 1.532-1.053-.358-.698 2.516-.72.01-.616 3.908-.504.609.55.355-.854.603.001.159-.792 1.688.442-.291-2.204.903-.554.769-2.29.776.496 1.925-.028 1.391 1.431 1.921-.995-.222.802.91-.104.726.862.17 2.13 1.182.386.429-.557.895.752 1.126-.173-.361.541.161 1.042-.638.973 1.372.384 1.242 1.35.702.22.261-1.113.437-.065.327-1.942.786-.362 1.077-1.467 1.254.93 1.211-.317.369-.884.504-.038.549.53-.105.627.702-.077.338.373.418-.353.665.6-.25-1.003.613-1.18 2.306.756.885-4.084-.347-.436.688-.699.7-.06.137-.572-.217-2.914 1.236-1.373.752-.342.776.348.62-2.817.89.38.42-.472 1.539.692.01-.974.442-.455-.272-.69 1.115.286.148-1.04.625-.366.514.78 1.479.025.453 1.133 1.447.215.083.541-.212 2.721 1.924 1.33 1.715 2.069.132.696-1.617.913.181.598-.589.032.172.615-.424.616-.369.023.044-.516-.372.458.414.583 1.17.35-.272.995.514.325-.553.67.327.294-.554.039.713.354-.433.653-.751.243-1.509-.643.708.767-.215 1.133.221-.41.311.34-.731 1.671.485.166-1.03 2.154-.88.241-.556.954-.874.082.038.646 1.051.531-.057.76-2.302-.123.731.558-.735.464.133.448-1.582-.626-.045 1.32.369.255-.532.546-.937.11.462.562-1.941-.58-.55.276-.24-.176.326-.555-1.81-.213.451 1.566.581.218.053 1.19-.463.534-.425-.71-.105 1.685-.463-.096-.574-.21.135-.279-1.24-.265.68.987-.339.525-.471-.014-3.013-1.463-.584.425-.793-.73-.379.365-.077.38-.967.684-.534-.418.515 1.464-.531 1.534-1.033.203-.124-.337-.725-.016-1.957.487-1.207.878-1.702-.014-.004.427-1.124.514-.441.859-.081.968.35.287-1.377.809.271.319-.274.172-.412-.438-.676.447-.355-.334.27-.706-.34.284-1.446-.354-.014-1.969-1.877-.334-.691.67.699 1.206-1.98.81-1.492-.324-.06 1.25.629.818-.564.12.224.852-.989 1.258.1 1.41.497.016 1.101 1.342 2.336-.292.212.724 1.697.53.259.874 1.196 1.014 1.643-.442 1.817.806.444-.424 1.554.1.286.49.537-.434-.42.888-.648.208-.271-.314-.72.54.578.553-.578.747-.32 1.735 1.733 1.55.626-.395 1.506.976.648 2.014 2.074.07.742 1.517-.181.502-.84-.025.323 1.04 1.565.601-.283 1.473 1.093.627-.01.865-1.328.058-.086-.301-.038.534-.187.5-.462-.003-.171.05-.849-.08-1.373-.37-.106-.578-1.047-.277-.239-.474-.883-.008-.621-.88-1.179.361-.097.45-1.544-.904-1.398-2.062-3.305-.811-1.319-1.623-.315.888-1.011.427-.302.904 1.059.652.239 1.015-.543.76.527.18-.229.4.667.079-1.408 1.293 1.091 1.196-.503 1.568-1.109 1.847-.582.294-.131.785-2.771-.475.521-1.798.82.005-.55-.697-2.309 1.277-.707-.854-1.026.327-.986-.25-2.782-1.482-.597.084-.098.719-.672-.11-.44.367-1.325 2.195-.386-.881-.734-.515-.031.411-.293-.456-.702.082-.449-.68-.988-.23-.797.633-.43-.098.84-.561.897-3.296.842-.377-.008-.489-.5.003.096-.556-.363-.154-.221-2.676-2.067.816-.14-.252-1.025.68-.331-.519-.842.348-.475-.422-1.054.1-.171.56-4.161-.108-.958.29.019.46-.571.094-.417.624-2.622.237-.817-.75-1.005.039-.798-.6-.335-1.442-2.538-1.03.048-1.005 1.444-1.382 1.331.044 1.356-.712.091-1.368.552-.575.595-.008.848-1.987.773-.103.367-1.535-.354-.752-1.762.286-.137-.571-1.041.257-.521-.979-.803 1.239-.356-2.435-1.834-1.179.701-3.97-.515-.915-.706.44-.78-.59.07-1.54 1.019-1.846-.3-1.83-1.325.206-.05 1.234-3.072-.758-1.153-1.727.281-1.503-.65-1.371-2.572-.882.286-.446-.639-.289-.691-2.71-1.133-.297-.426-.861-1.95-.368 1.5-3.438-.498-1.016 1.447-1.049-.412-.817-.571-.102-.357-.983.222-.953 2.014-.542ZM-77.2 187.178l-.565-.406.71-.15-.058-.781 1.413-.702.44-.638.435.879.807.038 1.392-.68.468-1.394-.858-.157.567-.782.37.788.347-.017-.377-.961 1.502-2.761-.651-.321-.886.428-.42-.353 1.274-1.143 1.044.462-.062-1.183.519-.818-.188-.849-1.544-.524-.025-.458-1.302-.223-.372.472.285-.465-.492-.667.047-1.075.337-.226.356.514.143-.586-.507-.123-.072-1.026-.816-.135.069-.866-.597.528-.3-.374.626-.17-.18-.818.724.844.293-1.021.693-.071-.057.363.523.215.26-1.008 1.322-.519.095-1.112.395.678 1.023-.131.434 1.614 1.194-.472.123-.616.912.045-.572-.658.683-.744.04-.8 3.003-1.105 1.319.017-.227-1.711.998-.436.06-.547-.77-.403.218-.307 1.76-.011.032.317 1.121-.458.972 1.496h.93l-.124.627.627.034 1.282-.675.109-1.603 1.089.044.947-.475.695.258.706-.436.472.845 1.49-.413.105-.879.646.094.022.667.658.37.567-.184-.045-1.503-.546-.014.664-.526.002-.624-.968-1.514.654-.761-.043-1.059-1.034-.834.138-.779-.542-.149-.12-.661.714-.179.379-1.709.803.39.261.906.879-.185 1.251 1.032.43-1.051.712.739.484-.629.123 1.271.718.589 2.364-.602.464.483.813-.724.803.508.242.872-.066-1.028 1.38-.517.603.881 1.298-.387.166.784.563-.024.505-1.147-.882-.115.214-1.184-.756.042-.055-.729.847-.493-.605-.017.434-.556-.5-.406-.16-1.045 1.609-.186.25-.804 1.16-.325-.056-1.056.715-.034v-.873l.95-.022v1.157l.79-1.322.933 1.608.524.159.146-.922.564-.219-.227-.897.901-.103.487-.788-.971-.611.061-.821 1.19.594 2.178-.936.023-2.365.708-.129-.147-.683.408-.468-.876-.381.605-1.377.647-.073.69.517.171-.423.476.63.981-.007-.255-.849 1.043-.432.394-1.289.682.059-.206-.698.95-1.161-.092-.765 1.48-.906.472.473.528-.349.002.943.774.244-.983 1.562 1.486.084.556.934.858-.371-.014-.567.776.308 1.015.269-.74 1.553.64.974.055 1.051-1.051.914.891.874 1.034.339.138.478-.18.459-.388-.228-.138 1.099-.601-.107.22.756-.458-.048-.441 1.096-.455-.175-.29.508-.122.377 1.178.368-.076.34-2.14 1.116-.2 2.195.96.303.223.507.494-.646.402.475.794-.266.036.601 1.799.54-.031.655-.689-.167.09-.44-.236.545-.565.121-.006.514-.717-.2-.012.493-1.196.045.486.463-.144.638-.553.359-.911-.326-.337 1.64.393.247-1.42 1.12.353.219-.744.939 1.966 1.147.705 1.926-.881 1.957.34 2.585-.644-.081-.271 1.365.832.051-.034.669-.929.308.314.5.698-.184-.1 1.246-1.392.377.457.941-.694.141-.245.528-1.334-.146-.089.355-1.088.11.948 1.292 1.117.462 1.318.338 1.585-.26 1.86.759-.024 1.006-.485-.215-.598.696-.624-.103-.262.358.023.505.42.02-.519 1.284.059.848.435.243-.358 1.445.371.562-.013 1.612-4.991-.732-2.021.34-1.485.818-.837 1.337.797.171-.396 1.755 1.566 1.492-.169.671-.666-.55-1 .377-.05 2.645-1.049-.126-.029.305 1.092 1.101.654 2.238.922-.107.11.739.622.083.311.524-.829.747.714.541-.01.885-.49.123.42.438-1.44 2.377-.725-.107.112-.469-.885-.007-.361.379-2.014-.362-1.528-1.224-.435.382.198 1.079-.398.922 1.228.372.7-.257-.301 3.152-1.31.487.339.88-.726 2.61.758 1.462.534.091.817 1.075 1.977-.193-.568.652-.042.896-.545-.275-.574.457-.077.862 1.36 1.029-.483.43.248.629 2.141.011.493.593.57-.076.131-1.459.77-.988 1.53.525.942-.395-.03 1.082 1.525.134-.074.771.544.751.611-.396-.78-1.635.205-.584 1.086.297.237.739.796.008.08 2.372-2.12-.281-.25.701-.554.103-.062.555.866-.442.11.297-1.327 1.581 1.095.305-.148.75 1.054.007-.44.641.378.527-.68.576-.028-.35-.806.022.104-1.683-.772-.833-3.183.652-.502-.993-1.866-.217-.295-.881.22-1.465-1.498-.325-.09.459-.873.136-.148.549.83.075.92 1.216-.841.835 2.007 1.906.104.553-.46.079-.936 1.549.464 1.407.361.193.287-.759.646.639.674-.432 1.367.121-.084-1.294-.734-.562.74-.149-.125-.84.403-.345.034 1.129.5-.418.127.387.427-.657.319 1.087 1.082-.348.25.617.757-.39 1.246.206-.304.704.935.043-.148 2.377.636-.077.085-.531.477.414.141-1.14.698.537.758-.532.491.318.297-.154-.504-.396.74-.4.405-.033-.124.495.61-.179.252.562.079-1.132 1.257-.438-.047-.451.99-.484-.408-.942.228-.516 1.317.073.47.666 1.052-1.046.222 1.122-.682.257.04 1.183.407-.005.371-.813 1.009.172.064-.665 1.388.899.09 1.253-.639.852.469.456-.077.506-.792-.074-.11.415.43.621 1.437-.262.091.495.64.142-.204 1.171.851-.603 3.125.177-.683 4.366.809.445-.582.24.465.321.636-.301.22.405.686-.187.94 1.024.667-.858.418.731-.168 1.131-.532.332.54.6-1.157.721.368.436-.498.307.05.564-1.015.415.122 1.333-.676-.104.252 1.327-1.101.107-.63-.642-.812 1.58-1.188-.004-.391 1.851-1.916-.341-1.417-1.412-.61-.069-.257.985-.384-.004-.686-1.049-.399.696-.298-.162.483-.665-.32-.437-2.545.871.28.917-1.304 2.398-.53-.191-.487.482-.462-.491-1.225.324.144.713-.533 1.23.162.993.534.141-.594.612.954-.173-.098 1.342-.31 1.065-1.171 1.366-1.39.426-.087 1.161 4.995.681.806 1.202-1.514 1.861-.555 1.397-3.374.112-.144 1.097-.462-.244.067.962-.71 1.719-1.144-.546-.64.385-.79-.766-.826-.079-.282.363-2.38.401.124.977-.723-.238-.289-1.012-.655.242.178-.374-.521-.37-.607.037-.253.698-1.147-.352-1.364 2.706.43.821-.262.531-.398-.441-1.346-.259-3.567.008-.377-1.173-.694-.535-1.012.833-.534-.081-.518-.812.43-.311-.214-.706-1.392.441-1.207-1.417-1.025.067-.66-1.239-1.456.245-.003-2.323-2.173.92-2.256-.338-1.003-.848-.473-1.691-1.583.176-.296-.744-.75.178-.524-.998-1.115-.163-1.804-2.637-1.218-.005.043-1.566-1.069-.784.02-.87 1.07-.164-.153-.714-1.412.792-.114-.667-1.03-.545-.082-.896.977-.41-.98-.516-1.03.956-.411-1.219-.81.158-.31-.318.147-.839-1.237-.418-.057.612-.677.124.036-1.067-.816.107.097-.266-.525-.136.457-.597-.313-.586-2.4.703-.882-1.911-2.411-9.681-.469-5.601-1.223-4.562-.703-1.57-.74-.36-.574-1.133-.586-3.156-.56-.791-1.686-5.487.756-.557-.549-.443-.165.624-.889.027-.286-1.59-.48-.497.293-.262-.351-1.471-.613-.651-.57.591-2.096-1.59.537-.121.144-.816-.362-.011-.282-.962.804-.489.69.227-.062-.829.76.584 1.117-.893-.16-.475.778-.968-.46-1.105.216-.932.618-.807-.29-.772-.942-.68 1.611-.697-.254-1.468-.876-.422-.003-1.076-.501-.917.592-.721-.632-.788.273-.864-.254-.882-.454-.243-.352.346-.442-.632-.32.572-.903.035Z" fill="#EBF0EE"/>
      <path d="m-76.817 60.28 1.047.585 1.707-.209.236-.65 1.008-.242.645-.842 1.106-.131.05 1.138.857.342.653.938-.457 2.085.146 1.65.788.172.124.744 4.45 1.466 2.122-.403 2.986 1.338 1.1 2.156 2.007.997 1.528-.097.043.54 1.14-.287.709.415 1.34-.23 1.528.444 1.164-.46 1.236.3 4.113-.395 1.545.115 1.602.845.887-.435 1.16 2.347-.284.43.542 1.018-.113.358-1.013.125 1.124 1.634 1.715-.206.377.396 1.812-.041 1.462-.766.665-1.66 2.605.07.724-1.834-.7-1.078 3.058-2.688.146-.478-.552-.671.477-.359.143-1.175.732.092.357-.45.938.291 3.28-2.502 1.638.195.263-.285.688.682.33-.49 1.122-.13.058-.79 3.625-.178 1.278 1.444.558 1.516-.006 1.32.692.406-.769.266-2.098-.549-.777.48.41 1.233.594.327.339 1.62 1.866.271.39-.05-.062-.545.946.004.311.448.458-.524.27.778.55-.115.307-.43.833-.103.114-.44 1.58.707 1.09-.188 4.419-2.284.222-1.233 1.692-.246-.06-.483.728.469.626-.392.463.25.356-.827.824.343.144 2.052 1.504-.547 1.11.261.351.59 2.585.455.512-.597.493.547.238-.45 1.824.085.305-.319.69.27.17-.539-.695-.843.449-.112-.28-.657 1.556-.54.289.354 1.505.047L19.01 66.3l1.38.2.17-1.5 2.305.924.876.09.403-.347 1.394.355.92 2.662 2.124-.266 1.631-.93 2.384 1.468 1.125.132.395-.662 1.094.453 1.342-.407.984-1.075 1.404-.556 1.38.287 2.115 2.033.78 1.694-.426.63.274.631.71.09.151-.618.713.095 2.062 1.491 1.215-.123.315.665-.722.983-3.41 1.58-.46 1.546.27 1.235-.452.553.61 1.58 1.652-.036.07 3.435.663 1.664-1.389.59-.498.765.58.65 1.062-.555 1.053.174-.695 4.235.608 1.258-1.45.545-.598.756-2.45.567.594 1.045-.535.556.15.381 1.996.103.812.59.11.896-.011 1.591-.483 1.142-.764.062-.705-.504-.716.408.026.538 1.437.142.285.61-1.261 1.185-.654-.121-.055.438 1.107.034.491.415-.171-1.058 1.404.109-.053.904 2.417 1.667-.172 1.617 1.228.079.87.81 1.173.114.34.676.646.205.249 1.078-1.995.788 1.092 1.329-1.835 1.496-1.162.065-.32-.867-1.183.39-.81-1.892-1.768 1.329-.74 1.494-1.028.442.064 1.01-1.185.958-.052 1.343-1.042 1.764-.001 1.179 1.548 2.11-1.378 1.189-.659.103.486.84-1.258.412-.248.439-.59-.409-.907.398-1.886-1.821-1.54-.355-.727-.935.862-.564-.086-3.278-.353-.517-1.082.256-.03-1.4 1.632-1.34-.44-1.125.796-1.434.215-2.089-.628-1.282-2.146-1.464-.82-1.144-.864-.193-1.927.568-.798 1.439-.873-.329-.189-.575-1.384 1.032-1.943-1.49-1.049.115-.18-.498-1.169-.453-.138 1.733-.571.71.308.482-.864.143-1.436-1.359-1.619-.242-.488-.446-.735.206.498-.671-.222-1.297-1.016-.375-1.095.231-.252-2.064-1.164-.413-1.311.243-2.16-1.026-1.484-.085-.62.577-.339-.47-1.504-.405-.26-.867-.917-.081-.32-.654-.487 1.335.86.21.55 1.177-.43 1.364-1.139.484-.308.537.79 1.192.003.656-.614.274.571 2.057-2.428.901.286 1.616-.518 1.925-1.683-.371-.596.262-.103-.587-1.855-1.421-1.687.789.02.364.84.34-.735.242-.4 1.175.227.327-.523.909.327.919-.872-.24-.105 1.02-.68-.216-.082.675.19.95.954-.019-.085.663.786-.058-.254.825.787.056 1.168 1.735-2.013.299-.978 2.48-.552-.462-.475.626.07 2.435-1.512.554-.168-.512-.987.103.072 1.472-.47-.192-.58.409.747.361-1.136.362.562.192-.685 1.375.909.629-.325.534-.775-.309.013.568-.858.37-.556-.934-1.486-.083.983-1.563-.774-.244-.001-.943-.528.349-.474-.472-1.479.906.093.764-.951 1.161.207.698-.683-.059-.394 1.29-1.043.431.255.849-.98.008-.477-.63-.17.423-.69-.517-.648.072-.605 1.377.876.381-.407.469.146.682-.707.13-.024 2.364-2.178.937-1.19-.594-.06.82.97.611-.486.788-.902.104.228.897-.565.218-.145.922-.525-.158-.933-1.608-.79 1.321v-1.157l-.95.022v.873l-.715.034.057 1.057-1.16.324-.25.804-1.61.187.16 1.044.5.406-.434.556.605.017-.847.494.055.728.757-.042-.214 1.184.882.115-.505 1.147-.559.031-.165-.785-1.298.388-.603-.881-1.38.516.065 1.029-.241-.872-.803-.508-.814.724-.463-.484-2.364.603-.718-.59-.123-1.27-.484.629-.713-.74-.43 1.052-1.25-1.033-.879.185-.26-.905-.804-.391-.38 1.71-.713.178.12.661.541.149-.137.779 1.034.835.042 1.059-.653.761.968 1.513-.002.625-.664.526.546.014.044 1.502-.566.184-.658-.369-.022-.668-.646-.093-.105.879-1.49.412-.472-.844-.706.435-.695-.257-.947.475-1.09-.045-.108 1.604-1.283.674-.626-.034.124-.627h-.93l-.972-1.495-1.121.458-.031-.317-1.761.011-.218.307.77.402-.06.548-.998.436.227 1.711-1.32-.018-3.003 1.106-.04.8-.682.744.572.658-.912-.046-.123.616-1.194.472-.434-1.613-1.023.131-.395-.678-.096 1.112-1.321.519-.26 1.008-.523-.215.057-.363-.694.071-.293 1.021-.723-.844.18.818-.625.169.299.375.597-.528-.069.865.816.136.072 1.026.507.122-.143.587-.356-.514-.338.226-.046 1.074.492.667-.285.465.372-.472 1.302.223.024.459 1.545.524.188.849-.52.817.063 1.184-1.044-.463-1.273 1.144.419.353.886-.428.65.321-1.501 2.76.377.962-.347.017-.37-.788-.567.782.858.157-.468 1.393-1.392.681-.807-.038-.436-.88-.439.638-1.413.702.058.782-.71.149.564.407-1.88.903-.559-.13-.564-.656-.457-1.923-1.206-.156-.325-.952-.622 1.182-2.929.264-.607-.422.5-.164-1.612-3.134-1.544-.495-.51-1.953-.533-.363.234-.336-.612-2.532-.9-3.225-.399-.038.719-.82-.76.149-.017-.838-.932-1.468.026-.851.48-.198-.496-.689.442-.741-.34-.066-.208-3.286-.654-1.697.329-1.869-.447-.011.245-.51-.564-.304.84-1.018-.617-.686-.814-3.062-.655-.648.63-.078.105.426.314-.515-.707-1.535-.766-.415.74-.677-.379-.056-.037-1.275-.895-1 .597-.532-.793-1.092-.25-1.144.404-.439-.894-1.839-.24-1.772-.239.122-.644-1.068.16-.805-.927-1.42.25-.412-.612-1.129.32-1.263-1.086-.507.085-1.226.558.028.324.763 1.677.395-.256.708.623.711-.15-1.597-.494-.785-1.181-.062-.804-1.259-.708-.373.234-.635-.591-1.729.633-1.39-1.405-3.113.271-2.168.9.246.468-.714.57.766.234-.398.117-1.134-1.191.302-.357-1.03.953-.129-.351-.765.314-.554.452.23 1.016-.736-.564-.049-.191-1.158-.58.017-.139.616-.883.733-.904-.235-.335 1.582-.708.671.303-1.018-.606-.184.436-1.539.229.174.223-.42-.425-.067.207-1.036-.895-1.455-.037-2.276.399-1.053-.793-.902-.25-1.756.681-.573.117-.702-.41.438-.894-.695-.106-1.157.484-.039-.974-3.973-.696-.917.021-.383.564-.138-.325-1.369.996-.799-.165-1.988.575-1.341 1.23.234.003-.477.638.078-.013-.835.764-.812 1.838.273.31.833-.257.822.306.356.541-.44-.139.498.816.865.15-.636 1.512.3.888.637.582-1.401 1.394-.559.423-1.17.8.177.282-.302.13.42 1.064-.275-.124-2.962-.615-.774.736-.492 1.36-2.559-.363-.062-.019-.82-.775-.234-.721-.967.713-.453.263-.928.554-.137.303 1.297.765-.415 1.32.764.565 1.162.65.344.58-.326.904.224 1.726-.985.136-1.045-.435-.544.784-.01.421-.719.677.124.549-.382-.085-1.993-.96-2.04.22-.877-1.726-.263-.167-.542-.63.248-.625-.92.2-1.195-1.775.116-1.373-1.215.477-.168.444.887.86-.398 1.061.284.096-.59 1.55-.097.184-1.953 1.147.103 1.083-.718.083-2.144.304.21 1.529-.56.357-1.278.8.694.382-.317 1.795.092.124-.42.395.341 1.496-.672.017-.93-.438-.493-.682.606-.613-.296-.572.385-.42-.58-2.233.002-4.004 1.305-.696-2.1-.706-.548 1.878-.41.206-1.131-1.249-1.284.264-.57-.66-.67 6.429-2.679Z" fill="#EBF0EE"/>
      <path d="m1.042-41.898.978.323.406-.92 1.327-.221.736 1.057.692-.159.477.732 2.205.862 1.786-.247 1.079-.661.145.446.347-.282.485.598.863-.02 1.025 1.297.748-.186.847.355-.196.726 1.059-.467.239 1.58-.5.776.225-.175.127.668.433-.015.774 1.03-.24 1.006 1.5.24-.181.588-.583-.015-.193 1.173 1.092.377-.347.21.21.405-.628.087-.197.84-.313-.323-.578.438.383.725-.702-.03-.105.782-.72.043.447.86-1.112.336 1.16 1.217-1.128.951-.282 1.857-1.02.714.122.961-.691.207.293 1.299-.97-.656-.239.253.449.063-.034.335-1.412 1.064 1.236 1.578-.117 1.056-2.455.643-.545.601-.766-.495-.526.524-1.819-.38-.595.64-.496-.251-.395.654.23 1.167-.83.617-.57-.136-.332 1.136-.666.552.685.804-.446.542.712.274.18 1.094.828.596-.238.476 1.17.55-.538.327.471.52-.912-.036-1.295.878-.004 1.877L.19-.512.16.006l.866.925.218 1.38.922 1.682-.184 2.283-.75.741.956.976-.053.603 1.802 1.289-.67 1.174 1.028 1.13 1.056-.462 1.353-2.013 1.4.772 1.738 2.341.57.222.639-.405.261.304.276-.402.602 1.636.418-.628 1.252-.267.554-1.634 1.132-1.096.336-1.835-1.452-.532.1-.713.325.341.682-.26-1.622-2.99-2.008.977-.526-.25-.18-1.153.62-.926-.15-1.905.306-.42-.309-.974-1.84-.861-.282-.88-.606-.434.38-2.03-.857-.766-.547-3.384-1.377-.744-.818.49-.511-.38.253-.327.507.236.482-.65.154.415.476-.05.314-.423-.313-.768.979.234-.29-.924.522.076.29-.526.482.223.462-.792.633-.08.3.4-.62.527-.24-.342.026.677.979.195.089.544.972-.115-.408-1.146 1.338-.373-1.109-.072-.582-.622.136-.789.475.518 1.405.22.303.24-.61.17.392.292.438-.732-.553-.905.914-.302-.032-.69.69-.049.124.38.267-.388.213.603-.489.22.37.859-.622.7.496.39.594-.221.353 1.326-.956.51-.694-.496.742-.038.348-.486-1.428.264-.71.75.11.416-.987.37-.167.363.545-.047-.116.609.692.88.666-2.43.98.27.482-.384.33 1.363-.563.475-.614-.247-.324.61-.303-.218-.077 1.891 1.465-1.141.91.51-.022-.796-.45-.235.648-.676.136.606.85.474-.611.825-.054.913.408.106.79-1.145.692.597-.24.431.408.693.96-.145-.24-.52.347-.184.412.786.614-.055.098-.513-.568-.16.421-.265.447.162.017.656.827-.236.216-.39-.684-.959-.1-1.068 1.13.996.276-.283-.342-.33.21-.903-.575.229-.428-.598-.543.398.014-.819.663-.631.98.15-.29.823.425.604.278-.61.917.74.806-.52.633.285-.598.019-.616.935.3.264-.634.08-.494.81.293 1.196.307-.54.305.665.715-.567-.15.802.562.286 1.45-1.996.462.637.251-.156-.094.49 2.83-.261 2.114.954-.158-.734.467-.356-.477-1.892 1.059-.353.21.495.56-.81 1.037.068.46-1.57 1.199-.268.766.367 1.237-.953.115-.687.983.238.204-.502 1.052.874-.128 2.075 1.417 1.082.402-.115.474 1.45-1.388.616-1.616 2.411.952.57.809-.482.446.344-.314-1.01 1.435-.512.566.787.46-.013.11-.931-.456-.267.638.025.65.702.365-.5.85.405-.234-1.748.724.673-.595.397 1.054.63.44-.154-.11.581 1.028-.372.934.214v-.475l-.971-.288.001-.524-.493-.3 1.916-.196.539.76.164-1.734.8-.061.515.743-.765.771.109 1.107-.843.67.411.863-1.114.555.233.574.627.208.956-.301.292.195-.052-.36.757-.331.352.983 1.18-.142-.139-.46 1.282.044 1.073 1.265.556-1.396.719.499-.28.116.54-.112-.208-1.286 1.148-1.53-.305-.78.449-1.309.714.037.158 1.046-.032-.995.325-.187 1.174 1.038.747-.22.155.488-.717.056 1.587.69.458-.67-.666-.638.432-.32.56.182-.289-.913 1.09-.183.294.578.713.182-.514.49.173.76.298-.471.29.408-.73.493.203.4 1.04-.398.445.756.968-.104 1.088.811.77-.194 1.087.559.237-.354.26 1.654-.3.807 1.202 1.3.876-.422L75.81 1.37h.904l.7-.678-.325.418.584.486-.385-.018-.316.897.783.229-.273-.49.447.006-.036-.322.333.266.102-.449-.263 2.225.443.075.197-.425.634.344-.048 1.18.687-.21 1.52.543-.144-1.803.589-.47.316.593 1.334-.009.207.554 2.465-1.016.728.518-.015.659 1.295-.03-.05.962h.694l.085.987-1.049.235-.641-.309.059.898.4.284-.563 2.399 1.023.253.069 1.685-.273 1.177-.44.27-.125 1.76-.95-.407-.258.494.978 1.128 1.108.06-.465 1.179 1.06.339.2.877-1.142.85-1.755.3-.086 1.07-1.266.702-1.123-.026.329.623-.542.207-1.077-.565-2.525.16-1.397-.38-.558.313-.516-.522.089-.438-.795.688-2.242-.013-.856-.886-.958.214-.656-.42-1.217 1.015-1.347.259-1.218-.595.075-.387-1.176-1.388-.978.388-.232 1.11.615.477.175 1.243.66.357.253.678-.847 1.27-.572-.013-.202 1.267-.632.238.141.7.548.092.026.906.406.343.504-.856.738.17.823-.915 1.314.45.432.716 1.71-.431 1.144 2.47.764-.214-.028.737.598.21 1.011-.412.237.868.516-.125.921.756.069.848-.901 1.18.165 1.78-.674.787-.934-.27-.825.76-1.647.048-.376.762.417 1.736-1.538.871-.07.499-1.666.36-.163.81.449 1.398-.723.83.31 1.298-.426.321-.337-.581-.304.548-.968.364-.15 1.301-.481.096-.15.522-1.853-.02-.751.962-.801-.013.191.548-.452-.245-.534.782-.34-1.32-1.07-.391-.364.877-.546-.365-1.093.986-.734-.794-1.343 1.012.073 3.021-.558.981-1.25.36-.07 1.986-.861.372.63.365-.088.727-.684.065-.247-1.123-.76-.127-1.247 3.252-.524.084.347.435-.093 2.685-.393 1.176-1.307-.215-.469.947-.177 2.562.402 2.35-1.412 2.89-1.214.123-2.063-1.491-.712-.096-.152.618-.71-.09-.274-.632.427-.63-.78-1.693-2.114-2.033-1.38-.288-1.405.557-.983 1.074-1.342.408-1.096-.453-.393.662-1.126-.133-2.384-1.466-1.632.93-2.123.266-.921-2.663-1.395-.354-.404.346-.875-.089-2.305-.923-.169 1.498-1.38-.2-1.145 1.258-1.505-.048-.29-.353-1.555.54.28.657-.449.112.694.843-.168.539-.691-.27-.306.32-1.824-.086-.238.45-.494-.547-.511.598-2.585-.455-.35-.59-1.111-.261-1.504.547-.144-2.053-.825-.342-.356.827-.463-.251-.626.391-.727-.468.06.484-1.692.245-.223 1.233-4.417 2.284-1.09.188-1.581-.707-.114.44-.833.103-.308.43-.548.115-.271-.777-.458.523-.31-.447-.948-.004.062.543-.39.051-1.866-.27-.34-1.62-.593-.328-.41-1.231.777-.482 2.098.55.769-.267-.692-.407.006-1.32-.559-1.516-1.277-1.444-3.626.178-.06.79-1.121.13-.33.49-.688-.682-.263.284-1.636-.194-3.28 2.502-.939-.291-.357.45-.732-.092-.143 1.175-.477.359.553.67-.146.48-3.059 2.687.7 1.078-.723 1.834-2.604-.07-.665 1.659-1.462.766-1.813.04-.377-.394-1.714.204-1.124-1.633 1.013-.125.113-.358-.543-1.018.284-.43-1.16-2.347-.887.435-1.602-.845-1.545-.115-4.113.394-1.237-.3-1.164.46-1.527-.444-1.341.23-.71-.415-1.139.286-.044-.54-1.528.098-2.007-.997-1.1-2.156-2.985-1.338-2.124.403-4.448-1.465-.125-.745-.788-.171-.145-1.65.456-2.085-.653-.94-.857-.342-.05-1.137-1.106.13-.645.843-1.007.24-.237.651-1.707.209-1.046-.584.15-.665-1.075-.597 1.59-1.462-.5-.388-.467.16-.143-2.37-.9-.185.302-.448-.621-.865.245-1.534.766-.236.428.81 1.088.214.301-.941.388.187.593-.854.694.114-.77-.796-.946-.083-.265-.839-.078.695-.492.247-.322-.506-.407.74-.377-.97-.484.046.138-.884-.811.365-.159-.363.615-.876 1.659.69 2.146-2.628 2.277.026.362-1.8 1.453-2.643-.526-1.353-.978.51-.735-.697-.391-.655.559-.316-.92-1.712 1.31-1.02 2.32.48.64-.897 1.195-.264 1.17-1.173.89.14.577-.36.002-.428-.972.2.519-.403-.402-.615-1.052.258-1.425-.854-.353.382-.674-.96 1.005-1.016.063-.93.755-.806.791-.064.88-.816.632.067.984-.989.343.291.815-.418 1.161-1.43.646-.154-.615-1.091.63-1.083-.668-2.895.3-1.288 1.373-1.96-2.142-3.837.473-.422-.222-.584-.471-.398-2.24-.04.591-.715.065-1.146 1.362-2.003-.763.113-.027-.612-.726.163-1.284-.577.858-.914-.168-.884.807-.293-.127-.544.644-.733-.8-.336.46-2.264 1.792 2.943.958-.107.37-.847.722-.16-.124-.928.515-.001-.253-.909-1.726.187-1.12-.544-.185.428.134-1.27-.618-1.582.435-.962.4.784.335-.268.542.448.136.768 2.363.685.248-.477 1.198-.15-.06-1.603.932-.553-.1-1.13 3.572.055.114.372-.624.391.355.913-.453 1.317-.728-1.604-.183.312.513.814-.606.703.954.425.282-.37 1.882-.119-.136.606-2.134 1.062-.513-.843-.988-.12.432-.766-.508.119-.292-.42-.132.54.97.99-.872.572-.4.878.602.958.963-.216 3.538.827 2.491-.617.602.719 2.804-1.602 1.516.732-.223 1.224.415.386-.396.833.196.37.48-.36 1.034.868-.207.404.353.393-.65.498.397.36-.054.76-1.183.778-1.075-1.177-.813.98.126.399-.544.085.211 1.199.521.779.883.15.3 1.193-1.022.534-.575 1.697.628.012.256.61.885-.033-.039.75-1.038.279-.336 1.338-1.181.602-.599-1.345-.66.703-.974.166-.324-.642-1.008-.543-.95 1.418-.158 1.25 1.994 1.267.298.385-.385.324.507.532 1.327-.033.626.86.057-1.22.583.004.216-.815-.594-.395.08-.56.91.291.522.754.329-.427 1.273-.443.344.23 1.862-1.008-.299-1.927 1.662-1.05 1.681-.41-.256-2.11.635-.99-.22-.868.814-.966.398.43-.222.546.4 1.422 1.288.023.845-.793 1.678.966.176-.409.567.213.32-.305 1.178 1.42.926-.361-.267-.42.604-.609-.178-.41.497.155.045-.432 1.468-.465.183.758-.543 1.156.516.46 1.033-.014.883 1.08 1.052-.388.842.164.31-1.203.543-.367-1.347-1.353-.651-1.414.213-2.729-.704-1.366.99-.314.256.504.638-.382.034 1.17.97.561.694-.357.583-1.065.352.048.275-.91-.1-1.52-.628-1.435-1.048-.436-.388-.709-.811.392-1.19-.075-.876-1.458.577-.428 1.817-.202.429-.484-.672-.315.134-.606-.568-.062-.705-1.904 2.67-1.465 1.6.463.713-.235 1.056-.939 1.776-.116.777.744 1.833-.619-.15-1.576.523-.102-.222-.7-1.087-.959.424-1.021-.678-.113.478-1.843-1.074-.494-.428.27-1.202 1.058-.289 1.308-2.484-.596-.983.814-1.254.082-.324.46-.931-.992-.962-.171-1.397.386-.064-.506-1.642-.196-1.505-.917-.26-.896-.472-.23-.843-1.847-.182-3.02-.633-.47.089-.488.924-.335-.025-1.355 1.215-1.613.649.07.374-.804 1.671.133.557-.413-.125-.417.966-.239.65-1.235-.189-.388 1.1-1.352 1.882-.83.934-1.05 1.09-.191.62-1 1.515.011 1.664-1.236.856-1.31 1.874-.166-.09-.892 1.822-.17 2.775-1.988.886.087.582-.873 1.316-.203.142-.96 1.13-.436.29-.894 1.022-.06.85-.803 1.792.419.065-1.175.516-.353-.311-.905 1.461.118-.29-.759.936-.193ZM166.976 84.463l2.325.013.181 1.126-1.293.104-1.703 1.22-.316-.438-.635.135.448.544-.865-.13.928-2.303.93-.271Zm-54.951-35.847 2.538 1.03.335 1.441.798.6 1.005-.039.818.75 2.621-.237.418-.624.57-.096-.019-.459.958-.29 4.161.11.171-.561 1.054-.1.475.422.843-.348.33.52 1.025-.681.14.25 2.067-.815.222 2.675.362.155-.095.556.499-.003.009.489-.842.377-.896 3.296-.841.56.431.098.797-.633.987.232.449.678.703-.082.292.456.031-.41.734.515.387.881 1.324-2.194.44-.368.672.111.097-.72.597-.083 2.782 1.481.986.25 1.025-.326.707.854 2.309-1.277.55.697-.82-.005-.52 1.798 2.771.475.131-.785.582-.293 1.109-1.847.503-1.569-1.09-1.196 1.408-1.293-.667-.078.229-.401-.527-.18.544-.76-.24-1.015-1.058-.652.302-.903 1.01-.428.316-.888 1.319 1.623 3.305.811 1.397 2.062 1.545.904.096-.45 1.179-.362.622.88.883.009.239.474 1.047.277.106.58 1.373.368-.14 1.477 1.434-.216.798 1.21 2.4.242 1.157.864.32 1.07-.697 1.68.619.865 1.234.102-.021-.977 1.241-.465.175-.88 1.291.39.528 2.885 1.718.577.345.526 1.409-.017-.014.654.535.448-.234 1.276.448.743-1.955 1.293-3.431-.06-1.667.823-2.543 1.995-1.704 1.932-1.336 2.503.017 1.135 2.81 6.453-.24.76-1.458-.26-1.028.525-1.037 2.574.898.116-.46-.529.613-.136.317.438 1.702-1.22 1.267.314.865-.288-4.995 3.534-1.054 2.661.964.27.021.931-1.932 1.675-2.422 1.083-2.72 3.522-.436 1.2-.896-.186-.991-1.512-.817.158-.214.532 1.117.052 1.327 1.432-13.423 4.345-5.327 2.69-4.699 3.273-1.448 1.61-2.914 2.116-1.702 1.737-1.203 2.058-.804-.494-.482-.477.158-.637-.71-.112-.073.703-1.329-.041.536.955.659-.092.007.58-.801-.051-.48.843-.413-1.049-1.468.888-.341.8-1.084-.658.489.946-.479.581.264.49-.605.555-.623-.204.428.373-.694-.11.386.322-.175.325-.505-.316-.073 1.504-3.466.326-.543.553-.789.072-1.049-1.157-1.672.112-1.334-.439-1.592-3.824-.91.603.776 1.423-.656-.209-.767-1.35.334-.537-.502-.094-1.413-2.764-.555.671.194.648-.492.774-.619-.485-.289 1.38-.688-.115-.036-.316.386.04-.159-.806-.225.236-.391-.497-.265.163.356.976-.064.421-.5.014.134 1.087-.894-1.018-1.198-.276-.787.406.454 1.466.322-.809.66.681-.643-.073 1.239 1.359-.287.577-.717-.026-.05.642-1.47.21-.257.657-.895-.177-.275 1.004-.064-.53-1.317-.608-1.57 2.379-.756.304-.067 1.017.88.039-.519.373.107.401 1.09.201-1.417 1.878.422.512.4-.204-.094 1.079-.695-.183-1.619.664-.781-.311-.138-.921-.761.06-.877-.594-.44.395.328.497-.503 1.28-2.074.894-.611 1.16-.884-.829-.083-.737.668-.795-.207-.446-1.252-.418.356-.966-.452.067-.135-1.397-.46.044-.48-.706-2.16 2.549.443.819-.958 1.042 1.123.215-.406.649-.67.158-.077 1.011-.512.403 1.131 1.122-.145.292-.464-.347-.069 2.043-.465.053-.146-.484-.593.274.005 1.24-.49.133-1.232-.618-.326-.661-2.6-.287-1.396 1.317-2.888 1.121-.819.856-1.056.645-.286-.474-.483.158-.994 1.232-.813-.25-1.677.5-.418-.437-1.426.362.17-1.571.832.184.768-1.883-.066-1.171.666-1.28.267-1.3-.341-.531.444-1.509 1.254-.847 1.25-.197-.011-.565 1.663-.122.33-1.323 1.835-2.042.745-.309.226-.719.734.102.147-.554-1.268-.689-.057-.59 1.189.433.388-1.242 1.264-.567.86.135.055-.88.913-.036.614-.669.223-2.101 1.28-.305-.278-2.096-.593-.92.345-.612-.237-.542-.766-.182.364-.652-.518-2.151.602-1.094-.81-.852.489-.081.32-1.044-1.222-.127-.521-1.736-1.335.163.455-.744-.164-3.343.427-1.601-1.527-.257-.379-1.194-2.121-1.08-.236-.851.56-1.743 1.433-1.343 1.592 1.87.641-.808 2.31 1.456 1-.405 2.085 3.405.945-1.048 1.026-.431 2.896.78-.427.854.265 1.04 1.162-1.1 1.092-.115.284-.805-.325-.456.134-1.964-1.451-.2-.64.292-3.975-1.499-.23-1.724.665-1.17-.163-1.244.463-.394-.68-1.067.678-1.834-.366-.967-.42.423-.146-1.165-1.082-.896.847-1.429-.635-2.737.22-2.555 1.05.438.27.733.834.054.51-1.623 1.288-.775 1.329-1.94-.248-.706.683-.626-.174-.972 2.228-.21.702.418.453-.395 1.28.194 1.47-.54 1.62 1.156 1.518.364 1.347-.704.541-2.546 1.078-.52-.393-.547.305-1.281 2.007.717.533-.173-.17-1.044-.834-.912-.299-1.054.883-2.4 1.16-.75.221.904.609-.417-1.241-1.013 1.234-1.364-.324-.845.455-.652.873.422-.102-.78 1.021-.24-.248-.58.554-.8-.903-.438-.349-.643.062-1.888 1.187-.21-.788-.787 1.659-2.484.905-.43 1.146.055 2.074-2.079 2.743-.492.716-1.987-1.255-.785.077-.409.422.024Z" fill="#EBF0EE"/>
      <path d="m-80.26-114.775.007 1.628-1.376 1.637-.071 1.691 12.03.587-.268.784.548.112.38.813-1.69 1.716.128.956 1.032.059 1.165-.597.36.344-.745 4.154.917.797-.68 1.5-.692-.174-.263.373.042.537.508.14.746 1.235-.018.74.882-.063.16-.9 2.04.358L-63.5-97.4l1.649.863.497 1.808.727.223.936-.337.731 1.195.578.125 1.374-.916.834.736 1.835-1.278-.082 1.256.581.214.243-.621.723-.16.095 1.595-.757 1.01.672.31-.299 1.267.951.122.085 1.05 1.464.126.103.772-.947 1.07.887 1.952-.284 1.064.582.813.514 2.948 1.194.27.211 1.22 2.858 1.916-.152 1.083 2.278.303.635.537.619 1.09 1.227.813-.145.849.802.379-.152.461.916 1.032-.533.231.025-.503-.74-.107-1.755 1.712.88.287.048.636.596-.822.382.321-.58.42.09.385-.767.124.393.448-.653.198.584.353-.455 1.03-.473-.306-.285.39.1.35.93.163-.274.96 1.66.364.735-.444 1.626 1.314.964-.72-.578-.496.106-.757-.617-.346.25-1.246-.47-.565 1.129-.706-.7-.595 1.414-.252.591.259.291.712.845-.218.255-.824-1.095-.58 1.114-.592-1.466-1.087 1.09.03.782.85 1.805-.361.514 1.04-.706-.114-.237.404.94.614-.84.326 1.623.228-.006 1.48 1.165-.848 1.17-.199-.17-1.678 2.688-1.307.189-1.176.941-.325 2.132 1.787-.826 3.161.009 1.57.378.126-.234 1.829-.438.034-.377 2.192.584.648-.645.03.416.88.605-.357.695.387.442-1.82 1.642.07-.228-.546-.895-.309.338-.903 1.69.939.478-.332-.015-.511.576.149-.23.512.481-.798.727.778.59-.652.254.205.543.4-.125 1.492.746.485.11.93-.596.888.746.393-.378.48.09.883.907.29.268.832.635.339-.276.787.32.562 1.253.383 1.48 1.172.759-.357-.43.918 1.006 1.323-.09.463.642.363-.352.53-.949.152-.274.972-1.77.598.44.599.848-.232-.158.88 1.34.458.881-.772.58 1.097h.358l.08-.668.547.188-.357.739-1.675.308-4.34 2.282.322 1.023-.203 1.047.683.011-.306.487.863-.432-.237-.444.325-1.285.435.554 1.607-.23 2.132-1.036.06-.75.66-.456 2.62 1.032.187-.75.806.529 1.24-.231.294 1.063.494-.298-.107-.868 1.135.223.19-1.031 1.799.306.204-.322.887.651-.683.873-.68-.127.359 1.122-.937.193.291.759-1.461-.118.31.905-.515.352-.065 1.175-1.792-.418-.85.802-1.021.06-.291.895-1.13.435-.142.96-1.316.204-.582.873-.886-.087-2.775 1.988-1.823.17.09.892-1.873.165-.856 1.31-1.664 1.237-1.515-.012-.62 1-1.09.191-.934 1.052-1.883.829-1.099 1.352.189.388-.65 1.235-.966.24.125.416-.557.413-1.671-.133-.374.804-.65-.07-1.214 1.613.025 1.355-.924.335-.09.488.634.47.182 3.02.843 1.846.472.231.26.896 1.505.917 1.642.196.064.506 1.397-.386.962.171.931.991.324-.46 1.254-.082.983-.813 2.484.596.29-1.308 1.201-1.057.427-.271 1.075.494-.478 1.843.678.113-.424 1.021 1.087.958.222.7-.522.103.149 1.576-1.833.619-.777-.744-1.776.116-1.056.94-.713.233-1.6-.462-2.67 1.465.705 1.904.569.062-.135.605.672.316-.429.484-1.817.202-.577.428.876 1.458 1.19.075.81-.392.389.709 1.048.436.628 1.435.1 1.52-.275.91-.352-.048-.584 1.065-.692.357-.972-.562-.033-1.17-.638.383-.257-.504-.989.314.704 1.366-.213 2.729.651 1.414 1.347 1.353-.543.367-.31 1.203-.842-.164-1.052.388-.883-1.08-1.033.014-.516-.46.543-1.156-.183-.758-1.468.465-.045.432-.497-.155.178.41-.604.609.267.42-.926.36-1.177-1.42-.32.306-.568-.213-.176.408-1.678-.965-.845.792-1.287-.022-.401-1.422.221-.546-.397-.43-.813.966.22.869-.636.989.256 2.11-1.681.41-1.662 1.05.3 1.927-1.863 1.008-.344-.23-1.273.443-.33.426-.522-.753-.908-.292-.081.561.594.395-.216.815-.583-.004-.057 1.22-.626-.86-1.327.033-.507-.532.385-.324-.298-.385-1.994-1.267.158-1.25.95-1.418 1.008.542.324.643.974-.166.66-.703.599 1.345 1.18-.602.337-1.338 1.038-.28.039-.75-.885.034-.256-.61-.628-.013.575-1.697 1.023-.533-.3-1.193-.884-.15-.52-.78-.212-1.198.544-.086-.126-.399.813-.979 1.075 1.177 1.183-.779.054-.76-.397-.36.65-.497-.353-.393.207-.404-1.033-.869-.48.362-.197-.371.396-.833-.415-.386.222-1.224-1.515-.732-2.804 1.602-.602-.719-2.491.617-3.538-.827-.963.216-.602-.959.4-.877.872-.572-.97-.99.132-.54.292.42.508-.12-.432.768.988.118.513.843 2.134-1.061.136-.606-1.882.12-.282.369-.954-.425.606-.703-.513-.815.183-.31.728 1.603.453-1.317-.355-.913.624-.391-.114-.372-3.573-.056.1 1.131-.932.553.06 1.604-1.197.149-.248.477-2.363-.685-.136-.768-.542-.448-.335.268-.4-.785-.435.962.618 1.582-.134 1.271.186-.428 1.119.544 1.726-.187.253.909h-.515l.124.929-.722.16-.37.847-.958.107-1.792-2.943-.46 2.263.8.337-.644.732.127.545-.807.293.168.884-.858.914 1.284.577.726-.163.027.611.763-.112-1.363 2.003-.063 1.146-.592.714 2.24.041.471.397.222.585-.474.422 2.143 3.837-1.373 1.96-.3 1.288.668 2.895-.63 1.083.615 1.09-.646.155-1.161 1.43-.815.418-.343-.29-.984.988-.631-.067-.88.816-.792.063-.756.807-.062.93-1.005 1.017.674.959.353-.382 1.425.854 1.052-.258.402.615-.52.403.973-.2-.002.427-.578.361-.888-.14-1.171 1.173-1.194.264-.641.897-2.32-.48-1.31 1.02-.771-.67.108-.49-.808-1.44-.737-.079-.47.825-1.073-.551.13-1.878-.615-.547-1.097-.006-.226-.752-.803-.11-.378-.82-.455.075-.16.666-.856.09-1.19-2.276-.94.253-.352-.498-.74.954-.42-.896-.976.317-.391-.248.491-1.073-.408-.914.453-1.556-1.6-.674-1.222.802-.095-1.8-.56-.118-1.127-1.463-.854.263-.253-.433-.011-1.55 1.199-1.442-.376-1.24.166-1.263-.845-.77.073-.839-.734.273-.05.864-.795.966-.866.348-.899-.85.477-.976-2.1-.843-.603-.968 1.192-2.567.684.133.236-.88.347.196.39-.637-.391-.225-.786.518-1.629-.917.448-.666-.267-1.433-.83.618-.733-.36-.24.247-.709 1.819.54.413-1.295.788-1.069-.826-2.597.095-.749-1.213.072-.795-2.083-.32-.841-.72-.844 1.185.138.845-.825.058-.536-1.117.11-.916-.995.114-.625-1.124-1.203.295-.845-.874.541-.416.896.276.532-.656-.742.194-1.63-.503-.37.425-.867-.04-1.542-.802.006-.929-.628-.184-2.075 1.658-.461-.851-.835-.164-.347 1.488-.894-.37-.244-1.02-2.633.78-.861-.784-2.459-.067-2.016 1.094-.614-.66-1.021.955-3.651-1.531-3.098-5.329-.98-4.406-2.45-2.546-.425-1.18-1.342-1.442.262-2.701-.42-3.801-.938-.2-1.547.633-2.617.273-2.3-.792-3.516-5.146-.259-2.745 1.726-3.636.216-5.142-.311-1.36-1.944-1.036-3.581.39-1.225-.237-1.792-1.315-4.104-2.018-.459-1.233.565-4.502 1.244-3.182 5.438-5.087 1.423-2.134 1.533-1.159 1.754-4.537.942-1.447 4.008-3.758 2.253-.556 1.511.307 2.098 2.277.12 1.622 1.519 2.624 2.424.405 7.448-3.09 2.621-.515 4.762-.069 4.581-1.907.688-3.66 1.199-1.73 3.612-3.27 2.252-6.655 1.585-2.154 6.257-3.724 4.416-2.009 1.117-2.62 1.709-2.222 3.489-6.735 2.3-8.364 4.21-1.861 3.373-.968 3.432-2.835ZM-11.6 134.591l.324-.533-.908-.628.684-1.376-.561-.191 1.136-.363-.748-.36.581-.409.47.192-.072-1.473.988-.103.167.511 1.512-.554-.07-2.435.475-.626.552.462.977-2.481 2.015-.298-1.169-1.735-.787-.056.253-.825-.786.057.085-.663-.953.02-.19-.95.08-.675.682.216.104-1.02.871.238-.326-.918.523-.909-.227-.327.4-1.175.734-.242-.84-.34-.02-.364 1.687-.79 1.856 1.421.103.587.596-.263 1.682.372.52-1.925-.287-1.615 2.427-.902-.57-2.057.614-.274-.004-.655-.79-1.192.308-.538 1.14-.483.43-1.365-.552-1.177-.859-.21.487-1.335.32.654.918.08.258.867 1.505.406.34.47.62-.577 1.483.085 2.16 1.026 1.311-.243 1.165.413.252 2.064 1.095-.231 1.015.375.222 1.297-.498.672.734-.207.489.447 1.619.242 1.435 1.36.865-.144-.308-.482.57-.711.14-1.732 1.168.453.18.498 1.049-.115 1.943 1.49 1.384-1.032.188.575.873.328.799-1.438 1.927-.569.864.193.82 1.144 2.145 1.465.63 1.282-.216 2.089-.797 1.434.441 1.126-1.63 1.34.028 1.4 1.083-.256.353.517.086 3.277-.863.566.729.933 1.54.356 1.886 1.821.905-.398.591.41.248-.44 1.258-.412 1.424 2.644 2.712-.838 2.86 2.195.347.936.921.727-.15.335.68.208-.197.523.543 1.619.834.966-1.05.707.024.944 1.213.109.607-1.36.727.538-.37.193.265 1.302 2.14-.71-.57 1.745 1.695 5.831.788.069 1.648-1.327 1.81.81 2.508.11 1.427-.362.416.437 1.678-.5.813.25.994-1.231.484-.158.284.473 1.056-.645.661.817-.2.412-3.941 2.117-.104.764-1.307 1.958.397.403-.427.606-.153 1.807-1.49 1.741-.84.088-.903-.666-1.102 1.408-1.64-.045-.36 1.789-2.227.373-1.06.681-1.645-.43.153 1.102-.824-.007-.22 1.902-.506.501-2.044-.775-1.65.188.326-.649-1.849-1.002-1.227.601-.266 1.147-.69.663-.492-.156-.488-1.05-.537.418.416.847-.584.864 2.482 1.06.068-.613 1.779.431.05 1.047-.418.097-.2.881.95.737-.791.495-2.04-.54-.073-.504-1.013-.684-.512.769-.275-.873-.754-.319-.343-1.69-.75-1.09-1.168-.049-.367-.634-.924 1.187-1.686.399-.696 1.155-.342.876.794.215.7.772-.417 1.362-1.72 2.049-1.074.085-.77-1.201-.99.154-.677-.777-2.43 1.342-2.89.627-1.353.954-3.075.417-.781 1.058-.127 5.331-.807.446-2.79-.567-2.02.86-.385.405.097 1.521-.724-.099-.187-.851-.48-.073-.026 1.375-1.178 1.264-1.176-.059-1.851-1.433-1.11.843-2.94-.487-1.713 1.027-1.142-.043-.357 2.025-1.11.566-.295 1.019-.744.001-.312.431-.88-.344-.524-1.139-.66.849-2.187-.727-1.695.606-1.592-.421-1.095.199-1.008-.697-1.857-.18.013-1.612-.37-.562.356-1.445-.434-.243-.059-.848.519-1.284-.42-.021-.024-.504.262-.358.623.103.599-.695.485.215.024-1.006-1.86-.759-1.585.26-1.318-.338-1.117-.462-.95-1.292 1.09-.111.089-.354 1.335.147.245-.528.693-.142-.456-.941 1.393-.377.1-1.247-.698.185-.314-.501.928-.307.035-.67-.832-.05.27-1.365.644.08-.34-2.585.882-1.957-.705-1.926-1.966-1.147.744-.939-.354-.22 1.42-1.119-.392-.247.337-1.641.91.328.554-.36.144-.637-.486-.463 1.195-.045.013-.493.717.2.006-.514.565-.121.236-.544-.09.44.689.167.03-.655-1.798-.54-.036-.601-.794.266-.403-.475-.494.646-.222-.507-.96-.303.2-2.195 2.14-1.115.075-.341-1.178-.368.123-.377.289-.508.455.175.44-1.096.46.047-.22-.756.6.108.138-1.099.388.228.18-.459-.138-.478-1.033-.34-.891-.874 1.05-.914-.053-1.051-.641-.974.741-1.555-1.017-.268Z" fill="#EBF0EE"/>
      <path d="m-11.35-119.4 1.364-.141 1.467 1.593 4.228 2.027-1.78 2.971-.488.498-.511-.228-.553 1.14.282.483-.808.855.284.437-.522.718.294.472-.594.917 1.2 1.897-.133 1.526.713.34-.046.407.698.277.86-.717 1.497-.075.476 2.004-.479-.044-.087.562.699.052.082.925.935-.148.136-.887.73-.192 1.093-1.629 1.043-.746.725.131 1.923-2.021 1.549.521 1.437.682.761 2.567 1.493 1.372 3.454 1.88 2.633.434-1.011 1.397-.793.529-.38-.322-.386 1.172-.602-.449-.834.71 1.648 1.3 1.01-.075.892 1.282.024 1.135.842.022.344-.376 1.048 1.069.19-1.189 1.99.938.119 1.31.544.393-.136.619.877-.136 1.817 1.657 1.015.014.15-.393.332.728.467.105.188 1.663 1.84-.162.559-.637.277 1.016 1.2-.497 1.009.444.881-.704 1.194-.243.654.63-.484 1.25.623-.15.165-.707.566.011.413.565-.672.21 1.164.142-.237.357.641 1.154.871.37.877-.472.514-.995-.283-.364.895-.65.909.022 1.876 1.597.662-.055.108.62 1.16.634.813 1.371 1.76.179 1.275 1.673.242-.47-.513-1.994 1.25-.49.821 1.055 1.075-.056.433 1.189 1.488.466.404.895 1.466.756.2-.44.625.264.11.647 1.243.724.732-.374.335.83.861.617 2.507.526.424 1.551 1.684 1.984.011.615-.367.039.495.405-.19.32 1.022-.19.073-.75 1.318.318.768.952-.107.769 2.791 1.75 1.497.323 3.503 2.79.788-.053.807-1.491 1.907.117 1.065 1.262 1.628.471 4.608 3.54 4.966-.928.073 1.222.846 1.685-.4 1.796 3.729.048.47.71 1.531.409 2.953-.113 2.234 2.635 1.043-.252.966-1.492-.476-.485.329-.48-.25-.473 4.325.216 4.633 2.543-.566.605.492.248 1.189-.303.172.454-.531.959 1.083.523.465.742-.754 2.3 1.557-.052-.573.575.959.512.111 1.769-.416.412.437.232.083.858.728.31.203-.505.77.283-.175.68.714.453.772-.779.61.183.215 1.148-.53 1.102.179.374.256.219.971-.512.529 1.472 1.468.278.233.94-2.725.592-3.648-.927.014.923-.666 1.195-1.41.246-.222.497-1.156-.202.002 1.444 1.525.333.556-.294 1.17 1.36 1.903.224.198 1.21-.428 1.513-.888-.34-.645.864-1.299-.413.127 2.029.592.964.805.067 1.459 1.507-.02.72.682-.191 1.811 1.135 1.055-.261 1.091.593.287.824 2.018.311-.032.92.566-.067 1.221.919-.377.707.575.684-1.436-.172-.064 1.108-.4-.186.086-.712-.217.892-.693.137-.759-.774-.899.316-.419-1.04-.933.087-.243 1.536-.671-.11.039.33-1.585-.171-.165-.714-.883-.583-1.03.224-.474.524.13 1.228-3.055 1.67-1.262 1.79-.784.164.539.613-.843.111.096.435-.718.487-.564-.479-.546.516-.18-.21-.371.373.264.15-.742.07-.534.81-1.115.451-.474-.2-1.516 1.385-.978.056-.403.89-.74.17-.273.37.422 1.203-.752 2.25.492.143.194 2.939.698.788-.069 1.026 1.272 1.068.511-.094.018.671.631.517-.31.617.84.535-.827 2.077-2.015.541-.222.954.358.983.57.102.412.817-1.446 1.049.497 1.016-1.5 3.438-.661.593-.25 1.037-1.149.706-.508 1.423-1.971.895-2.833.048-2.51-1.817-.2-.878-1.06-.338.464-1.179-1.108-.06-.978-1.128.258-.494.95.406.126-1.76.44-.269.272-1.177-.069-1.685-1.023-.253.564-2.4-.401-.283-.06-.898.642.309 1.049-.235-.085-.986-.695-.001.051-.961-1.295.029.015-.659-.728-.518L83.8 4.311l-.207-.554-1.334.01-.316-.595-.589.47.145 1.804-1.521-.544-.687.21.048-1.18-.633-.343-.198.424-.443-.074.263-2.225-.102.449-.333-.266.035.322-.446-.007.273.49-.783-.228.316-.897.385.017-.584-.486.325-.417-.7.677h-.904L73.752.141l-.876.422-1.202-1.3.3-.807-.26-1.654-.237.354-1.088-.559-.77.194-1.087-.81-.968.103-.445-.756-1.04.399-.203-.401.73-.493-.29-.409-.298.473-.174-.762.515-.49-.713-.18-.295-.58-1.089.184.29.913-.56-.183-.433.32.665.639-.457.67-1.587-.69.717-.056-.155-.488-.747.22-1.174-1.038-.325.187.032.995-.158-1.046-.714-.037-.449 1.31.305.78-1.148 1.53.209 1.285-.54.112.279-.116-.72-.5-.555 1.396-1.073-1.264-1.282-.043.14.459-1.18.142-.353-.983-.757.331.105.348-.345-.183-.956.301-.627-.208-.233-.574 1.114-.555-.411-.863.843-.67-.11-1.107.766-.771-.515-.743-.8.06-.164 1.735-.54-.76-1.915.196.493.3-.002.524.973.288-.001.475-.934-.214-1.028.372.11-.581-.44.154-1.054-.63.595-.397-.724-.673.234 1.748-.85-.404-.365.5-.65-.703-.639-.025.457.267-.11.93-.46.013-.566-.786-1.435.512.314 1.01-.446-.344-.81.482-.951-.57 1.616-2.411 1.388-.616-.474-1.45-.402.115-1.417-1.082.128-2.075-1.052-.874-.204.502-.983-.238-.115.687-1.237.953-.767-.367-1.199.268-.459 1.57-1.038-.069-.558.811-.212-.495-1.059.352.478 1.893-.467.356.158.734-2.113-.954-2.831.261.094-.49-.25.156-.464-.637-1.45 1.996-.561-.286.15-.802-.715.567-.305-.665-.307.54-.293-1.196.494-.81.634-.08-.3-.264.616-.935.598-.019-.633-.285-.806.52-.917-.74-.278.61-.424-.604.29-.822-.981-.151-.663.631-.014.818.543-.397.428.598.575-.229-.21.903.342.33-.276.283-1.13-.996.1 1.068.684.958-.216.391-.827.236-.017-.656-.447-.162-.42.265.566.16-.097.513-.614.055-.412-.786-.346.185.24.519-.96.145-.41-.693.241-.43-.692-.598-.79 1.145-.408-.106.054-.913.61-.825-.849-.474-.136-.606-.648.676.45.235.022.796-.91-.51-1.465 1.14.077-1.89.303.218.324-.61.614.246.563-.474-.33-1.363-.483.383-.98-.269-.665 2.43-.692-.88.116-.61-.545.048.167-.363.987-.37-.11-.417.71-.749 1.428-.264-.348.486-.742.038.694.496.956-.51-.353-1.326-.594.222-.496-.392.622-.7-.37-.858.489-.22-.213-.603-.267.389-.124-.381-.69.05.032.69-.914.301.553.905-.438.732-.392-.292.61-.17-.303-.24-1.405-.22-.474-.518-.137.79.582.62 1.109.073-1.338.373.408 1.146-.972.115-.09-.544-.978-.195-.027-.677.242.342.618-.527-.299-.4-.633.08-.462.792-.482-.223-.29.526-.522-.076.29.924-.979-.234.313.768-.314.422-.476.051-.154-.415-.482.65-.507-.236-.253.327.511.38.818-.49 1.377.743.547 3.385.858.765-.38 2.031.605.434.282.88 1.84.86.309.975-.307.42.15 1.905-.62.926.181 1.154.525.249 2.01-.977 1.621 2.99-.683.26-.323-.341-.101.713 1.452.532-.336 1.835-1.132 1.096-.553 1.634-1.253.267-.418.628-.602-1.636-.275.402-.262-.304-.64.405-.57-.222-1.736-2.341-1.4-.772-1.354 2.013-1.056.462-1.028-1.13.67-1.174-1.802-1.289.053-.603-.956-.976.75-.741.184-2.283-.922-1.683L1.026.93.16.007l.03-.518 3.107-2.474.004-1.877 1.295-.878.912.036-.471-.52.539-.327-1.17-.55.237-.476-.828-.596-.18-1.094-.712-.274.446-.542-.685-.804.666-.553.331-1.135.571.136.83-.617-.23-1.167.395-.654.496.252.595-.64 1.819.379.526-.524.766.495.545-.601 2.455-.643.117-1.056-1.236-1.578 1.412-1.064.034-.335-.448-.063.237-.253.97.655-.292-1.298.69-.207-.12-.961 1.019-.714.282-1.857 1.128-.95-1.16-1.218 1.112-.336-.446-.86.72-.043.104-.781.702.03-.383-.726.578-.438.313.323.197-.84.628-.087-.21-.406.347-.21-1.092-.376.193-1.173.583.015.182-.589-1.5-.24.239-1.005-.774-1.03-.433.015-.127-.668-.224.175.498-.776-.238-1.58-1.06.467.197-.727-.847-.354-.748.186-1.025-1.298-.863.02-.485-.597-.347.282-.145-.446-1.08.66-1.785.248-2.205-.862-.477-.732-.692.159-.736-1.057-1.327.22-.406.92-.978-.322-.358-1.122.679.127.683-.873-.887-.65-.204.321-1.8-.306-.19 1.031-1.134-.223.107.868-.494.298-.294-1.064-1.24.232-.806-.53-.187.75-2.62-1.031-.66.456-.06.75-2.132 1.036-1.607.23-.434-.554-.326 1.284.237.445-.863.432.306-.487-.683-.012.203-1.047-.321-1.022 4.339-2.283 1.675-.307.358-.74-.548-.187-.08.667h-.358l-.58-1.096-.88.772-1.34-.458.158-.88-.849.231-.44-.598 1.77-.598.274-.972.949-.152.352-.53-.642-.363.09-.463-1.007-1.323.43-.919-.757.358-1.481-1.172-1.252-.383-.32-.563.275-.787-.635-.338-.268-.832-.906-.29-.091-.884.378-.48-.746-.392.597-.889-.111-.93-.746-.484.125-1.492-.543-.4 1.217-1.143 1.4.011-.002-.8.885.235.197-1.027.966.023.348-.56-.513-.225.473-.542-1.076-1.097-.196-.904.18-.474.27.215.077-1.337.88-.47-.961-.076-.058-.58.574.22-.067-.605.49-.39-1.415-.475.488-.236.058-.572-.614-.67.584-.44-.377-1.196-2.622-2.07-.841-1.253.812-.915-.479-.776.235-1.548-.738.074-1.154-1.634-.532-.166.39-.87-.582-.687-.098-.5.755-.312-.595-1.122.46-1.097-1.765-2.176.344-1.665-.283-.934.36-.404-.279-.644.469-1.37-.65-.313-.06-.587.574-.287-.402-.456.26-.69-1.044-2.003.475-.425-.462-1.048 1.106-2.307-.504-1.425.678-.492.532-2.482 1.59-2.11.138-1.018 2.76-1.294-.315-.256.49-1.097.952-.444 1.026-2.067.834-.639.416-1.317-.329-.301-.227-.442ZM198.149 67.548l.54.511.095.668-.941-.257.306-.922Zm6.458-.153 1.318 1.053-1.164.039-.154-1.092ZM202.476 67l.54.503-.305.623-.549-.463.314-.663Zm-3.57-.247.964.751-.719.784-.767-.79.276-1.046.246.3Zm4.496-.297.501 1.259-.883.307.286-.505-.472-.544.568-.517Zm3.714.237.366.413-.554.078-.078-1.025.266.534Zm-7.14-.748-.011 1.229-.744-.46.755-.77Zm7.5-.567.121.852.415.343.313.873-.552.064-.003-.537-.516-.472-.423-1.022.645-.101Zm-3.442.18-.151.854-.747-.442.898-.412Zm-9.461-.193.671.364.23.842-.82.808-.081-2.014Zm2.739-.062.319.745-.441.964-.273-1.053.395-.656Zm-4.781-.242.232.423-.222.375.3.328.058.486-.224.837-.588-1.76.444-.689Zm16.377-.013.685 1.595-.832.542-1.007-1.283.206-.507.948-.347Zm-9.776.096.511-.113.287.647-.884.88-.493-1.132.579-.282Zm6.4-.577 1.097 1.025-.373 1.291-.916-1.274.192-1.042Zm-9.019.287.312.6-.334.888.4.641-.639.652-.363-1.747.457-.735-.48-.31.316-.476.331.487Zm-3.732-.382.947.157.643 1.43-.271 1.406.378.483-.544.433-.652-.183-.501-3.726Zm13.723-.172.745.823-.825-.165.08-.658Zm-10.774.03-.118.71.356.392-.446.342-.207-1.287.415-.158Zm12.302-.043.719.555-.472.252-.247-.807Zm-3.423.027.584-.02-.501 1.058.395 1.437-.298.202-.676-.242.117-1.46-.772.136.408-.854.743-.257Zm-4.84-.414.722.986-.243.687-.592-1.207.113-.466Zm7.598-.1.7 1.169-.212.197-1.03-1.08.542-.286Zm-7.072-.157.181.86-.336-.287-.193-.439.348-.134Zm-2.707.028-.023 1.06-.63.397.083-1.028.57-.43Zm4.746-.379.826.989-.125.566.263.124-.071.673-.646.133.363.572-1.168-.404.152-1.35.406-1.303Zm-3.287-.06.53.463.005 1.071-1.016.336-.293-1.06.774-.81Zm-2.352-.016.401.23-.399 1.212-.467-.887.465-.555Zm11.069-.012.324-.006.124.963-.627-.514.179-.443Zm-3.285.157.042.767-.756.341.591-1.496.123.388Zm2.171-.887.675.548-.23.664-.943.371-.244-.829.742-.754Zm-6.69-.057.283.405-.074.64-.518-.369.309-.676Zm-4.974.11.429 1.044.478.134-.058.405-.652.162-.149.732-.706-.174-.364-1.416 1.022-.887Zm10.03-.422.404.278.66 2.36-1.3-1.072.236-1.566Zm-13.779-.2.681 1.293-.035 1.427-.522 1.29.217.604-.874.495-1.292-.478-.095-.528.692-2.157 1.228-1.947Zm12.528.422.658-.73.343.373-.965 1.378-.151-.736.115-.285Zm3.606-.802.955.568-.244.848-1.147-.406.436-1.01Zm-6.847-.087.61.611-.28 1.708-.735-1.621.405-.698Zm-1.137.005.246.394-.386 1.097-.315-.465.455-1.026Zm-2.219-.152.682.352.154.644-.806.844-.858-.03.404-1.587.424-.223Zm5.151.106.631.075.618.752-.436 1.607-1.172-1.168.359-1.266Zm-1.444-.45.527.206-.385.492-.142-.698Zm3.767.077 1.505-.212.991.557-.256.443-.943.743-1.297-1.531Zm-2.165-.288 1.454.25.165.724-.351.405-.365-.746-.993-.167.09-.466Zm.418-.982.101.511.597.118.188.268-.946-.067-.356-.707.416-.123Zm-1.636-.811 1.068.381-.72 1.187-.948-.312.6-1.256Zm-9.937-.148-1.032 1.924-.773.434.501-1.718 1.304-.64Zm12.864.143 1.719.16-.11 1.528-.785.186-1.859-.83.263-.896.772-.148Zm4.377-.597.704 1.265-.282 1.078-.586.172-1.017-1.945.106-.706 1.075.136Zm-3.27-.626.316.937-1.73-.258 1.414-.679Zm-.556-.506.257.329-1.215.343-.193.462-.457-.133.5-1.07.693-.26.415.33Zm.286-1.802 1.135 2.076-.833.051-.796-.807.809-.319-.643-1.1.328.1Zm1.895.17.561.701-.384 1.174-.767.558-.014.83.425.497-.216-1.132.553-.038.17 1.42.936 1.36-.169.403-1.462-.701-.451-1.197-.216-1.458.561-.674-.706-1.472.494.176.685-.447Zm.892-.335.93 1.41-.246 1.342-1.341-.144.561-1.35-.465-1.14.561-.118Zm-5.904.008 1.828.604-2.029 1.81 1.01 1.035-.177.451-1.252-.435-.521-1.56 1.141-1.905Zm3.029 1.007-1.423.794-.737 1.116-.312-.029-.383-.42 2.099-1.954.4-.086.356.58Zm1.832-1.551.27.577-.578.415-.135-.377.039-.441.404-.174Zm-2.585-1.196.251.863-.522.318.454.802-.615.13-.791-.556.08-.487 1.143-1.07Zm.548-1.284.965.054.374.768.496.138.145 1.237-.786.326.206.987-1.949-.994.429-.236-.287-1.83.407-.45Zm2.75-.756-.021 1.176.76.573-.563.235 1.399 1.807.033 1.049.528-.158-.658.548-.808-1.588-.904-.086-.336-.99.328-2.942.242.376Zm-1.743-3.154-.027 1.446.562 1.317-.645.475-.475-2.623.585-.615Zm.775-.494.494.222.74 2.439-.749.405-.336 2.076-.664-.533-.002-.856.501-.401-.529-1.458.028-1.701.517-.194Zm-17.573-97.908 1.11.386.21 1.272.973.527 1.13-.415.706.352 1.379-.19.371.508 2.072.498 1.877-1.467-.176-.6.733-.228 1.151.02.716.545.536-.382.768.894.52-.208 2.266.846.097 3.362.843-.954.665.598-.265.552.432.39 1.198-.344.413.782.84.207.225 1.232.555.603 2.386-.187 2.329-1.056.266.541 1.116.152.192.59 1.908-.198 1.205.825.44-.086.186.371-.786.756.36.19.507.016.29-.468 1.008.386.579-.302.341.787.628-.33.954.24.372 1.158-.37.556.393.835-.298.136-.178 1.919.344.594-.83 1.349.374-.134.2.39-1.442.663-.022.476-.581.2.155.684-.781-.348.376.736-.235.269-.391-.244.458.672-.603.446.667.105-.712.494.753.299-.295.19-.374-.05-.438-.7-.059-.367-.684-.19.441 1.105-.787-.051-.115.523-.361-.077.734.809-.696.381.313.265.377-.394.383.92-1.363.836-.021 1.188-.706-.05-.023-.74-1.99-.067-.172-.785-.596.82-.881-.076-1.329-.817.039-.36-.451.044.204-.589-.805-.658-1.299-.341-.418-.878.121-1.174-.737-.998.69-.817-1.021-.023.308-.363-.391-.578.129-.705-1.005.028-1.469-1.388-.248.723-.339-.151-.431.516.165.896.838.087.091.246.442.044.311.5-.302.508.794.409.61-.179.088.821-1.903.292-.682-.993-.892-.07-.385.3.324.82-.734.098-.528-.54.046-.872-.435-.266-.716.267-.237-1.119-.858.4-.433-.976.4-.173-1.497-1-.073-.758-.489-.015.035.476-.764-.158.075-.683-.66.153-.778-1.268-.97-.117-.384-1.861-.725.865-.815 2.469.4.677.224-.877 2.216.552.797 2.155-.724.226-.558-.522-.379.781-.596.14.175.308-1.234.732.015 1.308-1.968.652-1.329.925-.372 1.437.466.159-.234.8.269.186-.826.26-1.096 2.105.413.485.169 1.967.662.485.663-.53.427.282 1.176-.48.034.597 2.047 1.426.548.914.95.187-.198 1.342 1.027.332-.066.497 1.561 1.103.601-.162.774.764.939.148.235-.572 1.111.1-.119-.613.911.033.55 1.06-.426 1.295.538.342-.025.624.862.841.341-.275.366.674 1.641.235-1.046.699.042.835-.46.031.241.719-.467.356-1.497-.928-.788.82-.59-.395-.401.279-.82-.67-1.765.074-.982.598-1.267-.715-1.032.324.323 1.143-.381.331.193.99-.313.61.33.307-1.08 1.398.078.492-1.146.14-.295.596.414.388-.436.553-.915-.628-.261.427-.004-.898-.682-.866-1.692.49.689 1.579-.537.226-.22.942-.262-.342-.316.886-.678.21-.111 1.008-1.038 1.147 2.629 3.375 1.001.943 1.439.458 1.108 1.162 2.211.13 1.538.687.505.996.251-.63.347.014.834.416 1.393-.095.617.74-.052 1.627-.623.656.205.983-.297.115.101.386.491-.02.03 2.116.604-.286.236.487-.69.139-.066 1.357-.564.003-.832.934-1.583.173.493.894-.808.656.368.416-.328 2.566.589.114-.221.745 1.228-.152.274 1.15 1.603 1.495 1.066-.293-.145 1.112-.491-.03-.151.494.094 1.188-.552.321.241.757-.934.278.439.907 1.464.77.333-.02.072-.714.668.547 1.164-.111.109.45 1.447-.084-.245.642-.391-.177-.78 1.322-.973.622.064 1.898-.511.04.407.266-.125.712.65.096.354.66-.088.853.704-.001.412.72-.174 1-.751.672.768 1.467-.513 1.484.481.165-.385.843-1.316.497-.5.783.293.55-.23 1.914.578.68-1.099-.171-.366 1.562-1.116 1.015-.101.664-1.043-.078-1.199 2.08.333 1.306-.728 1.45.153 1.267-.549.479-.106-.36-.612.069-.24 1.042-.647-.533.598-1.05-2.026.485-.426.437-.131 1.771-.512.023-.2-1.217-.763.202-1.05.816.265 1.063-1.064-.177-1.033-2.36.266-.958-.451-.68 1.037-1.3.31-1.085-.4-1.886-.719-.657-1.837-.269.677-1.908-1.07 1.741-1.232-.527-.502-.802-.236-2.502-.441-.595-.759-.134 1.121 1.548-.043 2.186 1.316 1.21 2.431.344 1.022 1.76-2.427 1.77-.175.057-1.393 3.132-.98 1.174-.753.144-1.918 2.02-.698-.095-1.219.865-3.979 1-.448-.743.234-1.276-.535-.449.014-.653-1.409.017-.345-.526-1.718-.578-.529-2.883-1.29-.391-.175.88-1.241.465.021.977-1.235-.102-.618-.866.697-1.678-.32-1.071-1.157-.864-2.4-.242-.798-1.21-1.434.215.14-1.476.848.08.172-.05.463.003.186-.5.039-.534.086.3 1.328-.057.01-.865-1.092-.627.283-1.472-1.565-.602-.323-1.04.84.025.179-.502-.741-1.517-2.075-.07-.648-2.014-1.506-.975-.626.395-1.734-1.55.32-1.735.579-.747-.579-.553.72-.54.271.314.648-.207.42-.889-.537.435-.286-.49-1.554-.1-.444.425-1.816-.807-1.644.442-1.196-1.014-.258-.874-1.697-.53-.211-.723-2.337.29-1.101-1.342-.497-.016-.1-1.41.99-1.257-.224-.854.563-.12-.629-.816.06-1.252 1.492.324 1.98-.81-.7-1.206.692-.669 1.877.334.014 1.968 1.445.355.341-.286-.27.707.355.334.676-.448.412.439.274-.172-.271-.32 1.376-.81-.349-.286.081-.97.44-.858 1.124-.515.005-.427 1.701.014 1.207-.878 1.958-.486.725.016.124.337 1.033-.203.531-1.535-.515-1.464.534.418.968-.684.076-.38.379-.365.793.731.585-.426 3.013 1.464.471.014.339-.525-.68-.986 1.24.264-.136.28.575.21.462.096.106-1.685.425.71.462-.534-.052-1.191-.581-.218-.451-1.566 1.809.212-.325.555.24.176.551-.276 1.941.58-.462-.561.936-.111.533-.546-.37-.255.046-1.319 1.583.626-.134-.448.736-.464-.732-.557 2.302.122.058-.759-1.051-.53-.037-.647.874-.082.554-.954.881-.241 1.03-2.155-.485-.166.732-1.672-.311-.34-.221.41.214-1.132-.707-.767 1.509.643.749-.244.434-.653-.713-.354.553-.038-.326-.295.553-.67-.513-.324.271-.996-1.169-.349-.415-.583.373-.458-.044.515.369-.022.423-.617-.172-.615.591-.032-.182-.597 1.618-.913-.132-.697-1.715-2.069-1.925-1.33.211-2.72.94.447-.265-.739.645-.915-1.389-1.152.093-.84-.443-.12-.127-.572.426-.835.524.22.481-.641.568-.018.302-1.068.379.247.518-.673 1.149.24.012.47.337.18.062-.345.385.512.82.119.046-.494-.71-.693-.282-1.06.637-.971-.358-.084.248-1.137-1.678-.721-.548-.988-.65.033.23-.953-.519-.293.527-.49-1.687-.417-.365-.862.501-.494.234-2.31 1.356-.988.349.468.13-.328.579.066-.078-1.5.939.236.467-.781.621.042 1.43-1.637 1.337-.614 1.488-1.535-.466-.58-.574.124-.137-.396.717-.59-.745-.54-.053-.62-.622.09-.283-.395 1.042-.89-.042-.418-1.206.31-.438.563-.753-.524.002-.009-.015-.072 1.103-2.065.527-2.882-.277-2.002-.712-.709.186-.471-.491-.635.278-.752-.814-.4-.297-.665-.751-.027-.317-1.093-.566-.381.533-1.402-.101-1.04Z" fill="#EBF0EE"/>
    </g>
    <g opacity=".6">
      <mask id="b" style="mask-type:alpha" maskUnits="userSpaceOnUse" x="-231" y="-228" width="600" height="600">
        <path stroke="#000" stroke-width="2" d="M69-228v600M-142.293-140.707l424.264 424.264M-231 71h600M-143.707 283.557l424.264-424.264M-44.912-205.188l229.61 554.328M-207.64-43.299l554.328 229.61M-208.578 186.24 345.75-43.37M-46.587 349.212l229.61-554.328"/>
      </mask>
      <g mask="url(#b)">
        <path d="M-316-320h784v784h-784v-784Z" fill="url(#c)" fill-opacity=".7"/>
      </g>
    </g>
  </g>
  <defs>
    <radialGradient id="c" cx="0" cy="0" r="1" gradientUnits="userSpaceOnUse" gradientTransform="rotate(90 2 74) scale(392)">
      <stop offset=".211" stop-color="#E9B840"/>
      <stop offset=".618" stop-color="#E9B840" stop-opacity="0"/>
    </radialGradient>
    <clipPath id="a">
      <path fill="#fff" d="M0 0h160v160H0z"/>
    </clipPath>
  </defs>
</svg>
