<svg width="160" height="160" fill="none" xmlns="http://www.w3.org/2000/svg">
  <g clip-path="url(#a)">
    <g style="mix-blend-mode:multiply">
      <rect x=".333" width="160" height="160" rx="2" fill="#E7D7B0"/>
    </g>
    <g style="mix-blend-mode:multiply">
      <path d="m148.501-9.211.023.106-.023-.106ZM36.549-39.781l.932-.097-.055.974 1.6.513.076.853 1.282-.301 1.113 2.133 9.16 1.447 1.995 3.881-.467 3.748-.887 1.514 3.204 1.4.446-.467.587.69 1.016-.745 1.735 1.56 1.989.292.45.635-.301.753 2.601.918-1.068.98 4.867-.35-.522 1.713.931 1.666 3.485.541 2.058-1.557 1.294.288 5.084-2.819 2.811 2.39-.059 4.422 2.392 1.619.941-.219-.034 1.285 2.76-1.4.344-1.183 1.915-.48 3.091 1.18-.065.701 1.575-.256.704.823.981-.897 2.099-.078 6.038 2.538.802 1.287 4.514 2.337.961-1.137 1.912.616 1.704-.718-.066-.752 1.073-.11.08-.85 2.32-.477.831-1.724.756.047.552 4.231 1.998 1.442 2.631-.22.271 1.163 1.308.077.801.736.784-1.88 2.745-1.008 3.916 1.856 1.289-.394.728-1.307 1.571.862.919-.144.655-1.773 1.656 1.021 1.108-1.568 1.087 2.137 1.821.803.174.858.904.003.131-.846 1.692-1.427.245-3.065 1.103.77.643-.825 1.768-.456.061.613-1.527 1.305.414.58.913-.133.078.909 1.092.792-1.052.867.201.58.841-.181.683.85-2.18 2.252-1.96.9-2.098 2.401-.909-.061-.685 1.146-1.376-.346.114 2.199-.85-.097-.19.482-.511-.686-1.989 1.447-.342 3.39-.736.725.536 1.263 2.473.612-.773.72.762.428-.338 1.399.953-.048.803 1.448 2.461 1.058-.365 1.667.526.124-.934 1.423.414 1.556 1.041 1.016-.069.725-1.202-.175-.563-.75-.092.506-.493-.266-.018-.687-1.685-.353-.76.988-.555-.363-.443 1.567-.832.025-.706.942-.767-.324-.625 1.226.186.837.65.178-.137 1.23 2.037 1.69-.946 1.343.389 1.084-1.378-.657-.121-.793-2.122-.316-.664-1.66-2.168-.04-.754-1.143-.918.54-.216 1.525-1.636-.42.399 1.012-.647.667-.015 1.427-2.257-1.015-.615.694-1.305-.557-.909 4.132-1.14-.511-1.1.502-1.814 2.013.318 4.275-.2.837-1.026.089-1.01 1.026.509.64-1.297 5.99-3.382-1.109-.899 1.73.366 1.472-.976-.88-.612.519-.494-.547-1.032.113.154-.92-.806-.777-.738.055-.541 1.297-1.775.467-1.838-1.366-1.58 2.153-1.151.532-.48 2.847-.64.095-.383 1.634-1.029-.324-1.82-1.98-2.012-.562.935-1.427-.236-1.53.529-.793-1.65.253-1.313-1.104-.63.818-1.732-.565-.25-3.126-1.063-1.264-1.334.153.323-1.178-2.816 1.461-2.038-2.098-2.823.041-1.138-.73-1.127 3.362-1.324.81.426 3.233-2.476-.648-.232 1.162-.884-.001-.52 1.251-.894-.805-5.73.738-.016.905-3.687 1.055.526 1.026-2.246 1.542-.674-.232.3-1.631-.642.76-1.766.088-.615 1.113-1.98.118-.502-2.784-1.286.315-.05-1.81-1.047-.552-3.27 2.246-.581 1.922-2.41-.572-.19.871-1.24.237.111 1.129-.898 1.607-1.096-1.583-1.041.223.142-.853-1.132-.937-1.302-.188-.585-.848.43-.238-1.045-.603.029-.92.904-.674-.938-1.943-.667.054.306.378-.644.65-.623-.689-.49.553-.82-.62-.434.253.18 1.127-.933-.918-.169 1.09-.849.72-1.77-4.02-1.532-.793-1.79 2.77-1.699.461-4.25.858-6.138-.678 1.213-3.047-1.232-.784.455-.908-.926-.756-.026-.985-.75.14-1.865-1.567.101-1.505-1.022-1.156-.285-4.31-.722-.211 1.1-3.298-.618-1.766.401-.542 1.086-.25.59-1.306 1.433-.083 2.223-2.03.694.294 1.636-.66.782-1.19 1.09-.103-.387-.22.544-.548.264.307.8-.756.826.702 1.052-.714-.14-.639 1.236-.164-.79-.898 1.149-.241 1.851-2.626 4.48-2.45-.194-1.8.697-.77 1.51-.329 1.295.856.242 1.047 2.322.252-.056-.485.982.162.359-2.253 1.367-.127.614 1.526 1.318-.466 1.112 1.136 1.018-.202.316-1.307-.126 1.044.588.273.092-1.625 2.106.251-.844-1.002.552-1.038-1.79-1.348-.829.1.047-1.348-2.958-.457-.422-1.21-1.598-.87-1.546.385-2.655-1.666-1 .282.029-1.057-2.14-2.21-1.18-.099-.868-1.415L33.5.103l1.906.607.944-1.269 1.302.5.629-2.218-.291-1.776-2.79-.328-1.715-1.998-.814.433-2.237-.489-.003-2.118 1.695.296.326-.729 2.068-.36.977-1.755-.022-1.352 5.349 1.36 3.994-.869-.342-1.377-2.15-.408-.776-2.159-1.424.75-.376-.32-.263-.55.777-1.617-.314-1.683-.895-.269-1.132 1.142-1.047-.663.258-1-1.13-.415-.298.743-1.068-.457-.122-1.258-.64-.34.61-.603-.163-2.597-1.407-.75.842-.843-2.284.078 1.106-3.375-.683-1.089-1.588-.767.779-1.407-.253-.665-1.743.444-.721-.364.83-.887 1.402-1.049-.931-.24-.14-1.152 1.769-.657 2.701.496 1.915-1.758.064-.862.568.11ZM14.185 66.178l2.86.539.625 1.263 1.66.436 1.014 3.975.936.423-.42.655 3.77 1.293.955 2.013-.412 2.204 1.69 2.533 4.504 1.112.074-1.811 1.941-.302.44 2.684-1.493 2.708-.104 2.26 1.144.864 1.036-.646.754 1.341-1.027 5.825 2.69 1.73.52 3.57 1.178-1.816.763 1.435 1.526-.377.201.838 2.583-.419.52 1.102-.538 2.253-1.134.15-1.243 2.914-.872.012-.81.843-.133 2.007-1.988 1.045-1.952-.065-2.116 2.027-.071 1.475-.63-.037-.112.6 1.84 1.152-1.05 2.915-4.021.722-3.04 3.049-1.68-.081-1.328.631-2.432 3.643 1.156 1.156-1.74.306-.091 2.768.511.944 1.324.643-.813 1.174.365.849-1.497.352.15 1.144-1.28-.62-.668.957.476 1.239-1.809 2.001 1.821 1.485-.893.612-.324-1.325-1.7 1.099-1.295 3.521.439 1.548 1.222 1.337.25 1.53-.782.255-2.943-1.052-.447 1.879.575.802-1.58.763-.793 3.735L8.463 157l-2.226-.535-2.375-1.695-2.156.792-1.876-.285-.664.577-1.027-.613-3.267.31.255 1.424-1.002.919.363 1.035-1.948 2.847-1.89 1.136-.748 2.381-1.222-.079-.396-1.075-1.54-.641-.322 3.747.93 4.015-1.242 2.096 1.586 1.313.213 1.709.618-.619.537 1.416-.995 2.691.996 1.565-.678.579.239 1.824-.974 1.717.335 2.528 5.828 2.199.94-.429 2.126.292-.196 2.881.478.668-.416 1.182-1.601.167-1.704 1.614-.388-1.525.625-1.251-4.245-1.144-1.504.631-1.386 1.538-3.057-4.993-1.465.594-3.387-2.136-.94 1.186-2.334-2.743-2.101 1.97-.822 2.556.347 1.248 3.11 1.583.556 1.752 2.238.376-.626 2.349.24 4.904-.665 1.09 1.956-.238.766 2.547 1.79.187-.47 1.529-.716.119 1.19 1.25-.884 1.604.76 3.155-.534.957 1.123.266.347.796-.506.897.871 1.349.405 3.076-1.875.447-.326 3.079-.9.983-1.34.054-.08 1.29-1.259-.199-1.856.832-.569 1.822-1.743-.635.085.866 1.858 1.011-.214.812-1.075-.15-.332 1.055-1.092.452-2.692 2.997-.483 1.941-2.439.178.017.83-1.834.289-1.838 1.24-.65 2.215.5.779-.392 1.907-.977 1.877.097 1.718-1.126 2.762-1.219-.27-.25 2.305-3.677-.162-2.653-1.188-2.415 1.946-1.155-.101-2.485-8.552.834-2.561-3.137 1.042-.388-1.909.542-.283-1.065-.789-.89 1.995-1.779-.16-.036-1.386 1.54-1.036-1.222-1.416-.796-2.375.289-.768-.999-.305.222-.491-1.351-1.067-.509-1.372-4.192-3.22-3.977 1.229-2.088-3.879-.712-1.232.966-.15 2.02-1.744-2.27-3.096.002-1.729 1.528-2.587.076-1.969 1.737-1.404-.094-1.484 1.508-.648 1.084-2.191 2.591-1.949 1.188 2.774 1.735-.571.468 1.272 1.704-.096 2.69-2.194-1.602-1.949 2.924-1.156-.365-1.581-.946-.3-.5-.992-1.718-.168-1.276-1.188-1.802-.115.252-2.372-3.543-2.445.077-1.326-2.058-.16.25 1.552-.72-.608-1.622-.05.08-.644.959.177 1.849-1.737-.416-.896-2.107-.208-.039-.789 1.05-.6 1.034.739 1.12-.091.708-1.674.017-2.334-.162-1.313-1.19-.865-2.927-.153-.22-.558.786-.817-.872-1.533 3.592-.831.878-1.108 2.126-.799-.892-1.846 1.02-6.212-1.545-.255-1.556.815-.852-.954.731-1.121 2.037-.866-.971-2.442-.104-5.037-2.423.054-.895-2.319.664-.811-.394-1.809.673-2.269 5-2.317 1.057-1.442-.46-.974 2.069-4.24-.59-3.446.261-3.759.687-1.388 1.916.315.576-1.725.137-3.938-.509-.638.768-.124 1.827-4.769 1.115.185.363 1.648 1.002-.095.129-1.067-.923-.536 1.262-.545.102-2.911 1.833-.529.819-1.44-.108-4.431 1.969-1.483 1.076 1.163 1.603-1.445.8.535.533-1.287 1.568.574.5 1.936.783-1.148.663.36-.28-.804 1.174.02 1.101-1.412 2.718.03.218-.766.706-.141.22-1.907 1.418-.535.447-.804.494.853.624-.471-.454-1.905 1.06-1.217-.659-2.051.24-1.188 2.443-.528.102-.731 2.254-1.278-.612-2.546.552-1.118 2.415-.07 1.209-1.115 1.37.396.987-1.155-.241-2.61 1.32-1.731-.1-1.243-1.35-1.11-.757.183-.348-1.272-1.482.603-.877-.306.042-1.083-1.12.316-1.679-3.625-2.505.633-.633-1.052-1.927-.659-1.207 1.344-1.082-.25-.74 1.256-.594-.504-.038-1.329-.803-.135-.207-1.027.926-.348.296-1.86.839.02 1.241-1.863-.372-.994-.966-.524-.256-1.823-.902-.7.34-1.628 1.434-.569 1.724 2.036-.11.567 1.786.873 1.974-.38 1.785-1.488.962.615 1.405-.314 1.254 1.3 3.287.02 1.165-1.01-.13.643.756.765.818-.457 2.05.557 3.7-.237 1.58.83.794-.303-.482-.915 1.646.038 1.856-1.028.126-1.57 2.572-.44 1.676-1.247 3.68 2.665 4.154-.07 2.89-1.313.745-2.088 1.685-1.036.365-1.52.969-.87Z" fill="#EBF0EE"/>
      <path d="m19.09 53.124 6.138.678 4.25-.857 1.7-.462 1.79-2.77 1.53.792 1.772 4.021.848-.72.169-1.09.934.919-.18-1.128.433-.251.822.619.49-.553.623.688.644-.65-.304-.38.666-.053.938 1.944-.904.675-.028.918 1.047.603-.433.238.586.848 1.301.188 1.133.937-.144.853 1.041-.223 1.098 1.581.898-1.607-.112-1.129 1.241-.236.188-.871 2.41.572.581-1.923 3.269-2.246 1.048.552.05 1.811 1.286-.316.502 2.785 1.979-.118.615-1.113 1.767-.089.641-.761-.3 1.631.673.232 2.246-1.544-.524-1.024 3.687-1.055.015-.905 5.73-.738.893.805.52-1.25h.885l.232-1.162 2.474.648-.425-3.232 1.323-.813 1.127-3.36 1.138.73 2.823-.042 2.038 2.1 2.817-1.461-.325 1.177 1.334-.153 1.064 1.265.25 3.125 1.732.565.629-.818 1.312 1.104 1.65-.254-.528.793.236 1.53-.935 1.427 2.011.562 1.821 1.98 1.029.324.383-1.634.64-.095.48-2.848 1.151-.531 1.58-2.152 1.838 1.365 1.775-.466.542-1.296.738-.055.805.777-.154.92 1.031-.113.495.546.612-.518.975.88-.366-1.47.899-1.731 3.38 1.108 1.297-5.99-.508-.64 1.009-1.024 1.026-.09.2-.838-.318-4.274 1.813-2.014 1.102-.502 1.138.512.909-4.133 1.304.558.616-.693 2.256 1.015.015-1.429.648-.667-.399-1.01 1.635.418.217-1.525.916-.538.755 1.144 2.168.037.664 1.662 2.121.316.121.793-.311 3.991 2.822 1.95 2.514 3.035.194 1.021-2.371 1.34.265.877-.864.047.252.902-.621.903-.541.034.065-.757-.546.672.608.855 1.714.512-.398 1.46.753.477-.811.983.479.432-.812.056 1.046.52-.635.957-1.1.357-2.213-.944 1.037 1.125-.314 1.662.324-.601.456.498-1.072 2.453.711.243-1.51 3.158-1.29.355-.815 1.399-1.281.12.055.948 1.541.779-.084 1.113-3.375-.179 1.072.818-1.077.68.194.658-2.318-.918-.067 1.936.542.373-.781.802-1.373.162.676.823-2.846-.85-.806.404-.351-.258.477-.814-2.653-.312.662 2.297.852.32.076 1.746-.677.783-.624-1.042-.154 2.471-.678-.14-.843-.308.199-.41-1.818-.389.997 1.449-.497.77-.691-.021-4.417-2.147-.856.625-1.163-1.072-.556.536-.113.557-1.417 1.004-.783-.613.755 2.146-.778 2.25-1.515.298-.181-.494-1.063-.023-2.87.715-1.77 1.287-2.494-.02-.007.626-1.648.754-.645 1.26-.12 1.42.513.42-2.018 1.186.397.469-.401.252-.604-.643-.991.657-.521-.49.396-1.036-.5.417-2.118-.52-.022-2.887-2.75-.49-1.013.981 1.023 1.77-2.902 1.189-2.187-.477-.089 1.835.922 1.2-.826.174.328 1.251-1.45 1.844.147 2.068.73.024 1.613 1.97 3.425-.429.31 1.062 2.489.777.38 1.282 1.752 1.488 2.41-.649 2.663 1.183.651-.623 2.278.148.419.718.788-.636-.616 1.302-.95.305-.397-.461-1.056.791.848.812-.848 1.097-.469 2.544 2.54 2.274.918-.58 2.209 1.431.95 2.955 3.04.102 1.087 2.226-.264.735-1.232-.036.474 1.525 2.294.882-.414 2.16 1.602.92-.015 1.27-1.947.084-.126-.441-.057.782-.273.735-.678-.004-.251.074-1.244-.119-2.012-.542-.156-.848-1.535-.407-.35-.696-1.295-.01-.911-1.292-1.728.531-.143.659-2.263-1.325-2.05-3.025-4.844-1.191-1.934-2.38-.463 1.302-1.481.627-.443 1.327 1.552.955.35 1.489-.795 1.114.773.265-.337.588.978.114-2.064 1.897 1.6 1.754-.738 2.3-1.625 2.709-.854.431-.191 1.152-4.063-.697.763-2.636 1.202.006-.806-1.021-3.385 1.872-1.036-1.252-1.505.479-1.446-.368-4.078-2.172-.875.122-.143 1.056-.986-.163-.644.54-1.943 3.219-.567-1.293-1.076-.754-.045.603-.43-.67-1.029.121-.659-.997-1.448-.339-1.168.929-.631-.144 1.232-.823 1.315-4.834 1.234-.553-.012-.717-.732.004.14-.815-.53-.227-.326-3.924L60 116.75l-.205-.369-1.502.999-.486-.762-1.235.51-.696-.619-1.546.146-.25.823-6.1-.16-1.404.426.027.674-.836.138-.612.916-3.845.347-1.198-1.101-1.473.058-1.17-.881-.491-2.114-3.721-1.51.071-1.474 2.116-2.027 1.952.064 1.988-1.044.134-2.007.809-.843.872-.012 1.243-2.915 1.133-.15.539-2.253-.52-1.102-2.583.419-.201-.838-1.526.378-.763-1.436-1.178 1.817-.52-3.571-2.69-1.73 1.027-5.824-.755-1.341-1.035.645-1.144-.864.104-2.26 1.493-2.707-.44-2.685-1.941.302-.074 1.81-4.505-1.11-1.69-2.534.413-2.204-.954-2.013-3.77-1.292.42-.655-.937-.423-1.013-3.975-1.662-.437-.625-1.263-2.86-.538 2.201-5.044-.73-1.49 2.12-1.538-.603-1.2-.836-.148-.525-1.442.326-1.399 2.953-.794Z" fill="#28A062" fill-opacity=".7"/>
      <path d="m113.818 166.849 3.408.02.266 1.652-1.896.153-2.496 1.788-.464-.642-.93.198.656.798-1.268-.19 1.361-3.379 1.363-.398Zm-80.562-52.578 3.72 1.51.492 2.114 1.17.881 1.473-.058 1.2 1.1 3.843-.348.612-.915.836-.14-.027-.674 1.403-.424 6.101.16.25-.823 1.546-.147.696.619 1.236-.51.484.763 1.503-.999.206.368 3.03-1.197.324 3.924.531.227-.14.815.733-.004.013.717-1.235.553-1.313 4.834-1.234.823.632.143 1.17-.928 1.447.34.657.994 1.03-.121.429.67.046-.601 1.076.754.567 1.293 1.942-3.218.644-.539.986.162.142-1.055.875-.122 4.078 2.172 1.446.366 1.503-.478 1.036 1.253 3.386-1.873.806 1.022-1.202-.007-.762 2.637 4.063.696.191-1.15.854-.431 1.625-2.709.738-2.301-1.598-1.755 2.063-1.896-.978-.115.337-.588-.773-.264.797-1.114-.351-1.489-1.552-.956.443-1.325 1.482-.628.463-1.302 1.933 2.38 4.845 1.191 2.048 3.024 2.265 1.325.141-.659 1.728-.532.913 1.292 1.294.012.351.695 1.535.407.155.85 2.013.541-.205 2.165 2.102-.315 1.17 1.774 3.519.355 1.696 1.267.469 1.571-1.022 2.462.907 1.27 1.81.149-.031-1.433 1.82-.682.256-1.291 1.892.573.774 4.23 2.52.847.506.772 2.065-.025-.02.958.783.658-.342 1.872.656 1.09-2.866 1.897-5.03-.088-2.444 1.206-3.728 2.926-2.498 2.834-1.959 3.672.025 1.665 4.12 9.465-.353 1.113-2.137-.381-1.507.772-1.52 3.775 1.316.17-.674-.776.899-.2.465.642 2.495-1.788 1.858.46 1.268-.423-7.324 5.184-1.544 3.904 1.412.394.031 1.367-2.832 2.457-3.551 1.588-3.988 5.165-.64 1.76-1.312-.272-1.453-2.218-1.198.232-.314.78 1.638.077 1.946 2.101-19.68 6.372-7.81 3.946-6.889 4.801-2.123 2.361-4.272 3.104-2.496 2.548-1.763 3.019-1.178-.725-.707-.699.232-.935-1.041-.165-.107 1.031-1.949-.059.786 1.4.966-.134.01.85-1.174-.075-.703 1.236-.605-1.538-2.154 1.303-.5 1.173-1.588-.965.717 1.387-.703.852.387.72-.887.813-.913-.299.628.548-1.018-.163.565.473-.256.476-.74-.463-.106 2.206-5.082.479-.797.811-1.157.105-1.537-1.697-2.452.165-1.955-.644-2.335-5.609-1.333.885 1.137 2.087-.962-.307-1.124-1.98.49-.788-.736-.137-2.071-4.055-.815.984.285.951-.721 1.134-.908-.71-.423 2.023-1.01-.168-.051-.464.564.059-.232-1.181-.33.345-.573-.729-.389.239.522 1.432-.094.617-.732.021.195 1.594-1.31-1.492-1.757-.406-1.152.596.665 2.15.471-1.186.969.998-.944-.106 1.817 1.993-.421.846-1.05-.038-.074.941-2.155.309-.377.963-1.313-.259-.402 1.472-.094-.777-1.931-.891-2.303 3.489-1.107.445-.099 1.492 1.29.057-.76.547.157.589 1.597.294-2.077 2.755.62.75.585-.298-.137 1.583-1.019-.27-2.373.975-1.146-.457-.203-1.35-1.115.087-1.285-.871-.644.58.479.729-.737 1.878-3.04 1.31-.897 1.702-1.296-1.216-.12-1.081.977-1.166-.303-.654-1.835-.613.521-1.417-.662.098-.198-2.05-.673.065-.706-1.035-3.167 3.739.651 1.201-1.405 1.529 1.647.314-.595.952-.982.232-.114 1.484-.75.59 1.658 1.646-.213.428-.68-.508-.1 2.996-.683.078-.214-.71-.87.402.008 1.818-.718.196-1.806-.906-.479-.971-3.81-.42-2.048 1.932-4.233 1.645-1.201 1.255-1.549.946-.418-.695-.709.231-1.457 1.807-1.192-.367-2.46.734-.611-.641-2.092.531.25-2.305 1.22.27 1.125-2.761-.096-1.719.976-1.876.392-1.908-.5-.779.65-2.213 1.839-1.242 1.833-.289-.017-.829 2.439-.179.483-1.94 2.691-2.996 1.093-.453.331-1.055 1.076.151.215-.813-1.859-1.01-.084-.866 1.743.635.569-1.822 1.854-.831 1.26.197.08-1.29 1.34-.053.9-.982.326-3.081 1.876-.447-.406-3.075-.87-1.349.506-.897-.348-.796-1.123-.266.534-.957-.76-3.155.884-1.604-1.19-1.25.719-.12.468-1.53-1.79-.187-.765-2.546-1.956.239.667-1.092-.24-4.902.625-2.35-2.238-.376-.556-1.752-3.11-1.584-.346-1.248.82-2.556 2.102-1.97 2.334 2.743.94-1.185 3.387 2.136 1.465-.595 3.057 4.995 1.386-1.538 1.504-.631 4.246 1.143-.626 1.253.388 1.525 1.704-1.614 1.6-.167.417-1.182-.476-.668.195-2.881-2.126-.293-.938.428-5.83-2.199-.335-2.529.975-1.715-.24-1.825.68-.578-.997-1.566.994-2.69-.537-1.418-.617.621-.213-1.709-1.586-1.315 1.24-2.095-.929-4.016.322-3.746 1.54.641.395 1.076 1.222.079.748-2.38 1.889-1.137 1.948-2.846-.363-1.035 1-.919-.254-1.425 3.267-.309 1.028.613.664-.578 1.876.284 2.156-.792 2.375 1.696 2.226.534 1.974-1.032.794-3.735 1.58-.764-.576-.801.447-1.88 2.943 1.053.782-.254-.25-1.532-1.222-1.337-.439-1.546 1.295-3.522 1.7-1.098.323 1.325.894-.612-1.82-1.485 1.81-2.001-.476-1.239.667-.957 1.28.62-.149-1.144 1.496-.353-.363-.85.813-1.173-1.324-.643-.512-.944.09-2.769 1.74-.306-1.155-1.156 2.433-3.644 1.327-.631 1.68.081 3.04-3.049 4.022-.722 1.05-2.915-1.84-1.151.112-.599.619.035ZM-147.62-132.171l1.999-.207 2.151 2.338 6.199 2.972-2.611 4.357-.715.732-.749-.334-.81 1.671.413.709-1.185 1.254.418.64-.767 1.054.431.693-.871 1.345 1.761 2.782-.196 2.239 1.045.498-.067.597 1.024.406 1.261-1.052 2.194-.11.698 2.939-.702-.064-.128.824 1.024.076.121 1.357 1.371-.217.199-1.301 1.071-.282 1.602-2.388 1.528-1.094 1.064.192 2.819-2.966 2.271.766 2.106 1 1.117 3.765 2.188 2.013 5.064 2.756 3.861.637-1.483 2.049-1.162.776-.557-.473-.566 1.72-.883-.658-1.223 1.04 2.416 1.907 1.481-.11 1.307 1.88.036 1.665 1.235.033.504-.55 1.537 1.566.279-1.743 2.917 1.375.173 1.921.798.577-.2.908 1.286-.199 2.665 2.43 1.488.021.218-.577.487 1.069.686.153.275 2.44 2.697-.239.82-.934.407 1.49 1.759-.729 1.478.651 1.293-1.032 1.75-.356.959.925-.71 1.833.914-.22.241-1.037.83.016.606.829-.985.308 1.706.208-.347.523.94 1.692 1.277.544 1.285-.693.755-1.459-.416-.534 1.312-.953 1.332.032 2.751 2.343.97-.081.158.909 1.702.93 1.191 2.011 2.582.262 1.868 2.454.355-.69-.752-2.924 1.833-.72 1.203 1.55 1.575-.084.635 1.744 2.182.685.593 1.313 2.15 1.107.29-.644.919.387.162.949 1.82 1.062 1.074-.55.491 1.218 1.263.905 3.675.772.621 2.275 2.47 2.91.015.903-.538.056.726.595-.279.468 1.499-.279.107-1.1 1.933.468 1.125 1.396-.157 1.128 4.093 2.568 2.194.472 5.135 4.094 1.157-.08 1.182-2.186 2.796.171 1.56 1.852 2.388.691 6.755 5.191 7.281-1.36.108 1.793 1.24 2.471-.587 2.634 5.467.07.69 1.041 2.244.6 4.329-.165 3.275 3.865 1.528-.37 1.417-2.188-.697-.712.481-.705-.366-.692 6.341.317 6.793 3.729-.83.888.721.363 1.743-.444.252.666-.778 1.406 1.587.768.682 1.088-1.106 3.375 2.284-.078-.841.844 1.406.75.164 2.596-.61.604.64.34.121 1.259 1.069.455.296-.741 1.13.415-.258.998 1.047.663 1.132-1.142.895.268.314 1.684-.777 1.616.263.55.376.32 1.424-.75.775 2.158 2.151.409.342 1.377-3.994.87-5.349-1.36.02 1.353-.975 1.753-2.068.361-.326.73-1.695-.297.003 2.118 2.237.489.814-.433 1.717 1.997 2.79.327.289 1.776-.628 2.218-1.302-.5-.944 1.27L33.51.108l.186 2.977.868 1.415 1.18.098 2.14 2.21-.03 1.057 1-.282 2.655 1.666 1.546-.384 1.6.87.42 1.21 2.96.456-.047 1.348.829-.098L50.607 14l-.553 1.038.844 1.003-2.105-.252-.094 1.625-.587-.273.127-1.044-.319 1.307-1.017.202-1.112-1.136-1.318.465-.614-1.527-1.367.128-.357 2.254-.984-.161.056.483-2.322-.251-.242-1.047-1.295-.855-1.51.328-.696.768.192 1.802-4.479 2.449-1.85 2.625-1.15.242.79.898-1.235.164.14.638-1.053.714-.826-.702-.8.755-.264-.307-.544.548.387.22-1.089.102-.782 1.19-1.636.66-.693-.293-2.224 2.03-1.433.083-.591 1.305-1.085.25-.4.542.618 1.766-1.102 3.298.722.21.284 4.311 1.023 1.156-.1 1.505 1.863 1.567.75-.139.026.986.925.757-.454.906 1.231.784-1.213 3.048-2.953.793-.326 1.399.525 1.442.836.149.603 1.198-2.12 1.539.73 1.49-2.2 5.044-.969.87-.365 1.52-1.685 1.036-.745 2.087-2.89 1.313-4.153.07-3.68-2.665-.295-1.287-1.553-.497.681-1.73-1.625-.088-1.433-1.654.379-.725 1.391.596.185-2.581.644-.395.4-1.726-.1-2.472-1.5-.371.826-3.52-.588-.415-.087-1.317.94.452 1.538-.343-.124-1.448-1.019-.001.075-1.41-1.898.043.021-.966-1.067-.76-3.615 1.49-.303-.812-1.955.013-.464-.87-.863.69.212 2.644-2.23-.798-1.006.31.07-1.731-.929-.505-.29.623-.65-.109.386-3.263-.15.657-.488-.389.053.471-.655-.009.401.72-1.148-.336.463-1.316.564.026-.856-.713.477-.612-1.027.993h-1.326l-3.015-1.8-1.284.619-1.762-1.908.44-1.183-.382-2.425-.347.518-1.594-.82-1.129.286-1.595-1.19-1.419.152-.652-1.109-1.525.585-.297-.588 1.07-.723-.426-.6-.436.694-.255-1.117.754-.718-1.045-.266-.432-.849-1.597.269.424 1.34-.821-.269-.633.47.975.936-.67.984-2.327-1.014 1.052-.082-.229-.715-1.095.323-1.721-1.524-.476.276.047 1.459-.233-1.535-1.046-.053-.658 1.92.447 1.145-1.682 2.243.306 1.886-.792.164.41-.17-1.056-.732-.814 2.047-1.574-1.855-1.879-.064.204.674-1.73.208-.516-1.441-1.11.486.154.51-.505-.269-1.402.442-.92-.305-.342-.843 1.635-.813-.604-1.266 1.236-.983-.16-1.623 1.122-1.132-.756-1.09-1.172.09-.24 2.544-.79-1.115-2.81.287.724.44-.003.77 1.425.42-.001.698-1.369-.313-1.506.545.16-.853-.645.227-1.544-.925.872-.582-1.062-.987.343 2.564-1.245-.593-.536.733-.953-1.03-.936-.038.67.393-.163 1.365-.674.019-.829-1.154-2.104.75.46 1.481-.654-.503-1.186.706-1.396-.835 2.37-3.537 2.034-.904-.694-2.126-.59.169-2.077-1.588.188-3.043-1.542-1.283-.3.738-1.44-.35-.17 1.007-1.814 1.4-1.123-.54-1.758.393-.673 2.303-1.522-.1-.818 1.19-.31-.727-1.553.517.7 2.776-.685.522.232 1.077-3.098-1.4-4.15.384.138-.72-.368.23-.679-.935-2.125 2.927-.824-.42.22-1.175-1.048.831-.447-.975-.45.791-.429-1.753.724-1.19.93-.116-.44-.387.902-1.372.877-.027-.928-.419-1.182.763-1.344-1.085-.407.894-.622-.886.425-1.205-1.439-.222-.971.926-.02 1.2.796-.582.626.877.844-.336-.308 1.325.501.483-.403.415-1.658-1.46.147 1.566 1.003 1.406-.318.573-1.211.346-.026-.962-.655-.238-.617.39.832.233-.143.753-.899.08-.606-1.153-.507.272.352.76-1.408.214-.6-1.016.353-.632-1.014-.877-1.158 1.68-.599-.155.08-1.34.895-1.21-1.246-.695-.2-.888-.95.99.661.345.032 1.168-1.334-.749-2.148 1.674.113-2.773.444.32.475-.895.9.361.825-.695-.483-2-.708.562-1.436-.394-.976 3.564-1.014-1.292.169-.892-.798.068.244-.532 1.448-.542-.161-.612 1.04-1.098 2.094-.388-.511.713-1.087.056 1.017.728 1.401-.75-.517-1.945-.87.327-.728-.575.911-1.026-.542-1.26.717-.322-.313-.885-.39.57-.183-.558-1.011.073.047 1.012-1.34.443.811 1.326-.643 1.074-.574-.428.895-.25-.446-.35-2.059-.324-.695-.76-.2 1.158.853.911 1.625.106-1.96.548.597 1.68-1.425.169-.13-.798-1.436-.286-.039-.993.354.502.907-.773-.439-.586-.928.117-.678 1.161-.705-.327-.426.771-.765-.11.424 1.354-1.434-.343.459 1.127-.46.618-.698.076-.227-.61-.706.953-.743-.345-.372.48.75.558 1.199-.72 2.019 1.09.802 4.965 1.258 1.122-.559 2.98.889.635.413 1.29 2.698 1.264.453 1.428-.45.616.22 2.795-.908 1.359.264 1.692.77.365 2.946-1.433 2.377 4.385-1.001.382-.475-.5-.147 1.045 2.129.782-.492 2.691-1.66 1.607-.812 2.396-1.836.392-.613.921-.883-2.399-.404.59-.383-.446-.937.593-.836-.324-2.547-3.434-2.053-1.132-1.983 2.952-1.548.678-1.507-1.658.982-1.722-2.642-1.89.077-.885-1.401-1.431 1.1-1.088.268-3.348-1.351-2.469-.319-2.023-1.27-1.355.045-.76 4.554-3.63.007-2.752 1.898-1.29 1.337.054-.691-.762.79-.48-1.716-.807.349-.699-1.215-.873-.264-1.605-1.043-.402.654-.795-1.005-1.179.977-.81.485-1.667.838.2 1.217-.904-.338-1.712.579-.96.728.37.872-.94 2.666.557.771-.768 1.124.726.798-.882 3.6-.944.172-1.548-1.813-2.314 2.07-1.561.05-.492-.657-.092.348-.37 1.423.96-.43-1.904 1.013-.304-.177-1.41 1.494-1.047.414-2.723 1.653-1.395-1.7-1.786 1.631-.492-.655-1.262 1.055-.062.154-1.147 1.029.043-.562-1.063.848-.643.459.474.288-1.232.921-.128-.308-.595.509-.307-1.601-.553.282-1.72.855.022.267-.864-2.2-.351.351-1.476-1.134-1.51-.635.022-.186-.98-.329.257.731-1.138-.35-2.317-1.552.684.287-1.065-1.242-.52-1.096.272-1.503-1.903-1.265.03-.711-.877-.509.413-.213-.653-1.582.969-2.618.362-3.232-1.264-.699-1.073-1.015.232-1.079-1.55-1.945.323-.596 1.35-1.434-.473-.525-1.646.996.187 1.001-1.281-1.301-.954-.299.472-2.638-.45-.278 1.513-1.663-.327.157 1.272-.725.438-.431-1.56-1.818.34-1.181-.776-.275 1.1-3.84-1.514-.969.669-.087 1.1-3.126 1.52-2.355.337-.638-.812-.477 1.884.347.652-1.265.634.449-.715-1.002-.017.298-1.536-.471-1.5 6.361-3.347 2.456-.451.525-1.085-.803-.275-.117.978-.526.002-.849-1.609-1.291 1.132-1.965-.671.232-1.292-1.244.34-.646-.878 2.595-.877.403-1.425 1.39-.223.517-.779-.941-.531.132-.68-1.476-1.94.63-1.347-1.111.525-2.171-1.72-1.835-.561-.47-.826.404-1.154-.931-.497-.394-1.22-1.328-.426-.133-1.295.554-.704-1.093-.576.875-1.303-.163-1.364-1.093-.71.182-2.19-.795-.587 1.784-1.675 2.052.016-.003-1.173 1.298.343.288-1.506 1.417.034.51-.82-.751-.33.692-.797-1.577-1.608-.287-1.326.263-.696.396.316.114-1.962 1.291-.69-1.41-.11-.085-.852.841.323-.098-.887.72-.57-2.076-.699.715-.346.086-.838-.9-.984.856-.644-.553-1.755-3.844-3.036-1.234-1.838 1.191-1.341-.702-1.139.345-2.271-1.083.109-1.692-2.397-.78-.244.573-1.277-.855-1.006-.143-.735 1.107-.456-.872-1.646.675-1.608-2.589-3.193.505-2.442-.415-1.37.529-.592-.409-.945.687-2.01-.953-.458-.087-.862.84-.42-.589-.67.381-1.011-1.531-2.938.696-.623-.676-1.537 1.621-3.385-.738-2.09.993-.722.781-3.639 2.329-3.096.204-1.493 4.046-1.898-.462-.376.718-1.608 1.397-.651 1.502-3.033 1.224-.937.609-1.932-.481-.442-.333-.648Z" fill="#EBF0EE"/>
      <path d="m159.52 142.039.792.751.139.979-1.379-.376.448-1.354Zm9.468-.224 1.932 1.544-1.707.058-.225-1.602Zm-3.124-.581.792.738-.447.913-.805-.678.46-.973Zm-5.234-.362 1.413 1.102-1.054 1.15-1.124-1.16.404-1.533.361.441Zm6.592-.435.734 1.845-1.295.452.42-.742-.692-.797.833-.758Zm5.445.347.536.606-.812.114-.114-1.504.39.784Zm-10.469-1.098-.016 1.803-1.091-.674 1.107-1.129Zm10.997-.831.177 1.25.608.503.458 1.28-.809.094-.004-.787-.757-.693-.619-1.498.946-.149Zm-5.047.265-.221 1.252-1.095-.648 1.316-.604Zm-13.87-.284.983.533.337 1.235-1.202 1.186-.118-2.954Zm4.016-.091.467 1.093-.647 1.413-.4-1.543.58-.963Zm-7.01-.354.34.62-.325.55.44.481.085.713-.329 1.227-.862-2.58.651-1.011Zm24.009-.02 1.005 2.339-1.22.795-1.477-1.881.303-.743 1.389-.51Zm-14.332.141.749-.166.421.95-1.296 1.291-.723-1.662.849-.413Zm9.384-.846 1.607 1.503-.546 1.894-1.343-1.87.282-1.527Zm-13.223.42.457.881-.489 1.302.585.941-.936.956-.532-2.563.67-1.078-.703-.454.463-.699.485.714Zm-5.472-.56 1.389.231.942 2.098-.397 2.061.554.709-.797.635-.957-.269-.734-5.465Zm20.12-.252 1.092 1.208-1.211-.243.119-.965Zm-15.796.043-.173 1.041.522.576-.654.502-.303-1.888.608-.231Zm18.035-.062 1.055.813-.693.371-.362-1.184Zm-5.018.04.856-.031-.734 1.553.578 2.108-.436.295-.992-.354.172-2.141-1.131.198.597-1.252 1.09-.376Zm-7.096-.608 1.059 1.447-.357 1.007-.867-1.769.165-.685Zm11.14-.146 1.026 1.714-.311.289-1.511-1.585.796-.418Zm-10.368-.23.265 1.261-.493-.421-.284-.644.512-.196Zm-3.969.04-.034 1.556-.923.581.121-1.507.836-.63Zm6.958-.555 1.211 1.449-.184.831.386.182-.104.988-.948.194.533.839-1.712-.592.223-1.98.595-1.911Zm-4.82-.088.777.678.008 1.572-1.489.493-.429-1.555 1.133-1.188Zm-3.448-.024.588.337-.584 1.779-.686-1.302.682-.814Zm16.229-.017.475-.01.181 1.413-.919-.754.263-.649Zm-4.817.229.062 1.125-1.108.501.866-2.194.18.568Zm3.183-1.301.99.805-.337.973-1.383.545-.357-1.216 1.087-1.107Zm-9.807-.083.414.595-.108.938-.76-.541.454-.992Zm-7.293.161.629 1.532.701.196-.085.595-.957.237-.217 1.074-1.036-.256-.534-2.077 1.499-1.301Zm14.705-.619.592.408.968 3.463-1.906-1.574.346-2.297Zm-20.201-.294.998 1.897-.051 2.094-.766 1.891.318.887-1.28.726-1.895-.7-.139-.776 1.014-3.163 1.801-2.856Zm18.367.621.964-1.07.503.545-1.415 2.021-.22-1.079.168-.417Zm5.286-1.178 1.401.834-.358 1.244-1.681-.596.638-1.482Zm-10.038-.127.894.896-.409 2.505-1.079-2.377.594-1.024Zm-1.666.008.361.577-.567 1.61-.461-.682.667-1.505Zm-3.254-.223.999.515.227.945-1.182 1.238-1.257-.044.592-2.328.621-.326Zm7.551.156.926.108.906 1.104-.64 2.357-1.718-1.713.526-1.856Zm-2.116-.661.772.302-.564.721-.208-1.023Zm5.522.113 2.207-.31 1.452.816-.374.65-1.384 1.09-1.901-2.246Zm-3.173-.423 2.13.368.243 1.062-.515.593-.535-1.094-1.455-.244.132-.685Zm.611-1.441.149.751.875.173.277.393-1.388-.099-.522-1.036.609-.181v-.001Zm-2.397-1.189 1.566.56-1.056 1.741-1.391-.458.881-1.843Zm-14.568-.216-1.514 2.822-1.132.636.734-2.52 1.912-.938Zm18.859.209 2.52.234-.161 2.242-1.152.272-2.725-1.216.387-1.314 1.131-.218Zm6.416-.875 1.033 1.855-.413 1.58-.86.253-1.491-2.853.156-1.035 1.575.2Zm-4.793-.918.463 1.373-2.536-.377 2.073-.996Zm-.815-.743.377.482-1.782.504-.283.678-.67-.196.734-1.57 1.016-.381.608.483Zm.419-2.643 1.664 3.045-1.221.075-1.167-1.184 1.186-.467-.943-1.615.481.146Zm2.778.25.823 1.028-.563 1.721-1.125.819-.021 1.216.624.731-.316-1.661.81-.056.248 2.085 1.373 1.992-.247.592-2.144-1.029-.662-1.756-.316-2.137.822-.989-1.034-2.159.724.258 1.004-.655Zm1.308-.491 1.364 2.068-.361 1.968-1.966-.212.822-1.979-.681-1.672.822-.173Zm-8.656.01 2.68.886-2.975 2.657 1.481 1.517-.26.662-1.834-.639-.765-2.289 1.673-2.794Zm4.44 1.478-2.085 1.164-1.081 1.637-.458-.042-.561-.618 3.077-2.864.588-.127.52.85Zm2.687-2.275.395.845-.846.61-.199-.553.058-.647.592-.255Zm-3.79-1.755.368 1.266-.765.467.666 1.176-.902.19-1.161-.815.118-.715 1.676-1.569Zm.804-1.882 1.414.079.549 1.126.726.202.213 1.815-1.152.478.302 1.447-2.857-1.458.628-.346-.42-2.684.597-.659Zm4.031-1.11-.031 1.725 1.115.84-.826.345 2.051 2.65.048 1.539.775-.231-.965.804-1.185-2.329-1.326-.126-.492-1.453.482-4.315.354.551Zm-2.555-4.626-.04 2.121.824 1.932-.945.696-.698-3.847.859-.902Zm1.137-.725.723.326 1.085 3.578-1.099.594-.492 3.045-.973-.783-.002-1.255.733-.588-.775-2.138.042-2.496.758-.283ZM146.018-30.504l1.627.566.307 1.865 1.427.773 1.657-.608 1.036.517 2.021-.278.543.744 3.038.73 2.752-2.152-.258-.88 1.075-.334 1.687.029 1.05.8.785-.56 1.127 1.31.763-.305 3.322 1.24.141 4.933 1.237-1.4.974.878-.388.81.634.573 1.756-.506.605 1.147 1.232.304.329 1.807.814.884 3.498-.275 3.415-1.549.389.795 1.636.223.282.864 2.797-.29 1.768 1.21.644-.127.273.545-1.152 1.11.527.277.743.024.426-.686 1.477.566.85-.444.499 1.155.922-.483 1.398.351.544 1.699-.542.816.576 1.224-.436.199-.262 2.815.505.871-1.217 1.98.549-.197.293.57-2.114.974-.032.698-.853.294.229 1.003-1.146-.51.551 1.079-.345.395-.573-.359.673.987-.885.654.977.154-1.044.724 1.105.439-.432.279-.549-.073-.642-1.027-.087-.54-1.002-.278.647 1.621-1.154-.075-.169.768-.529-.114 1.076 1.187-1.021.56.459.387.553-.577.562 1.35-2 1.225-.03 1.743-1.035-.073-.033-1.085-2.918-.099-.252-1.152-.875 1.204-1.29-.112-1.949-1.2.058-.525-.662.063.3-.863-1.181-.966-1.904-.5-.613-1.288.177-1.722-1.08-1.463 1.011-1.2-1.497-.033.452-.533-.573-.847.189-1.034-1.474.04-2.154-2.035-.364 1.061-.496-.223-.632.757.243 1.315 1.228.128.134.36.646.065.457.734-.443.745 1.165.599.893-.262.129 1.204-2.79.428-.999-1.456-1.307-.102-.565.44.475 1.203-1.076.142-.774-.792.067-1.28-.638-.388-1.049.392-.347-1.642-1.259.588-.635-1.433.587-.253-2.194-1.466-.108-1.113-.716-.023.051.7-1.121-.233.11-1.001-.967.224-1.141-1.86-1.422-.173-.563-2.729-1.063 1.269-1.194 3.622.586.993.329-1.287 3.248.81 1.168 3.16-1.062.332-.817-.765-.555 1.145-.875.207.257.451-1.81 1.073.023 1.92-2.885.955-1.948 1.357-.546 2.108.683.232-.342 1.175.393.271-1.211.381-1.607 3.088.606.712.247 2.886.972.71.971-.776.627.414 1.723-.705.051.875 3 2.092.804 1.34 1.393.275-.29 1.969 1.505.486-.096.729 2.287 1.619.882-.238 1.135 1.12 1.377.217.343-.839 1.629.147-.174-.898 1.335.048.806 1.553-.623 1.901.789.5-.037.916 1.263 1.234.5-.403.537.988 2.406.345-1.534 1.025.062 1.225-.675.046.353 1.054-.684.522-2.194-1.361-1.155 1.203-.866-.579-.588.408-1.202-.981-2.588.107-1.44.878-1.857-1.05-1.512.476.472 1.676-.558.486.283 1.452-.459.896.484.45-1.583 2.05.114.722-1.68.206-.432.874.607.569-.64.81-1.341-.92-.382.625-.007-1.317-1-1.27-2.481.719 1.011 2.315-.788.332-.322 1.383-.384-.503-.464 1.3-.993.307-.164 1.48-1.521 1.682 3.855 4.95 1.466 1.384 2.111.67 1.624 1.706 3.241.19 2.256 1.007.739 1.462.368-.925.51.022 1.222.61 2.043-.14.904 1.087-.077 2.386-.912.96.301 1.443-.436.169.147.566.721-.03.044 3.104.886-.42.344.716-1.011.202-.097 1.991-.827.004-1.219 1.37-2.322.255.724 1.311-1.185.961.539.611-.48 3.763.864.168-.325 1.093 1.801-.223.401 1.687 2.351 2.193 1.562-.43-.212 1.631-.721-.044-.221.725.138 1.742-.809.471.353 1.11-1.369.407.644 1.332 2.146 1.13.488-.03.106-1.048.98.803 1.705-.164.16.66 2.121-.123-.358.943-.573-.26-1.144 1.938-1.427.913.094 2.784-.749.058.596.39-.182 1.045.952.141.52.968-.129 1.251 1.032-.002.604 1.056-.255 1.467-1.102.985 1.127 2.152-.753 2.178.706.241-.565 1.237-1.929.729-.733 1.149.429.807-.336 2.807.846.997-1.611-.251-.537 2.292-1.636 1.488-.147.974-1.53-.114-1.758 3.05.489 1.915-1.067 2.128.224 1.858-.805.702-.156-.527-.897.1-.352 1.53-.948-.783.877-1.539-2.971.711-.625.641-.192 2.598-.75.034-.294-1.786-1.117.297-1.539 1.196.387 1.56-1.559-.261-1.515-3.46.391-1.406-.662-.996 1.52-1.909.454-1.591-.586-2.765-1.054-.964-2.693-.395.992-2.799-1.569 2.555-1.806-.774-.735-1.177-.346-3.669-.647-.872-1.112-.198 1.643 2.272-.063 3.205 1.928 1.777 3.566.503 1.497 2.582-3.557 2.594-.258.085-2.042 4.594-1.436 1.722-1.104.211-2.812 2.964-1.023-.141-1.787 1.269-5.834 1.467-.656-1.09.342-1.871-.784-.658.02-.959-2.065.026-.506-.772-2.52-.847-.774-4.23-1.892-.573-.256 1.291-1.82.682.031 1.432-1.81-.149-.907-1.27 1.023-2.462-.47-1.57-1.696-1.268-3.518-.354-1.17-1.775-2.103.316.205-2.166 1.244.118.252-.073.678.004.274-.735.056-.782.126.441 1.947-.084.015-1.269-1.601-.921.415-2.159-2.295-.882-.473-1.525 1.231.035.263-.735-1.086-2.226-3.042-.102-.95-2.954-2.209-1.431-.918.58-2.541-2.272.468-2.546.85-1.095-.85-.812 1.056-.791.397.46.95-.304.616-1.304-.787.638-.419-.718-2.278-.148-.651.624-2.662-1.184-2.41.648-1.754-1.487-.378-1.282-2.488-.776-.31-1.062-3.426.427-1.614-1.97-.728-.023-.147-2.068 1.45-1.844-.328-1.253.827-.174-.924-1.2.089-1.834 2.187.475 2.902-1.19-1.025-1.768 1.015-.98 2.75.49.022 2.885 2.119.521.499-.419-.396 1.037.52.49.992-.657.604.643.401-.252-.397-.47 2.018-1.187-.513-.42.12-1.422.644-1.259 1.649-.755.007-.626 2.494.02 1.769-1.287 2.871-.713 1.063.023.181.494 1.515-.298.778-2.252-.755-2.146.783.613 1.419-1.004.112-.557.556-.536 1.162 1.073.857-.626 4.417 2.148.692.02.496-.769-.997-1.447 1.818.388-.198.41.842.308.678.141.154-2.471.624 1.04.678-.783-.077-1.746-.852-.32-.661-2.297 2.652.312-.476.813.352.258.807-.404 2.846.85-.677-.823 1.372-.163.781-.801-.542-.373.067-1.935 2.32.919-.195-.658 1.078-.68-1.073-.817 3.376.178.084-1.112-1.54-.78-.055-.947 1.281-.12.814-1.4 1.29-.354 1.51-3.16-.71-.243 1.072-2.453-.456-.498-.323.602.314-1.662-1.038-1.125 2.213.943 1.099-.358.636-.957-1.045-.52.81-.056-.478-.432.811-.982-.753-.476.399-1.46-1.715-.512-.608-.855.546-.673-.064.756.54-.032.622-.905-.253-.902.866-.047-.266-.876 2.371-1.34-.193-1.021-2.515-3.035-2.821-1.951.31-3.991 1.378.656-.389-1.083.945-1.343-2.036-1.69.136-1.23-.649-.178-.186-.838.625-1.225.767.323.706-.94.832-.026.443-1.567.555.363.76-.988 1.685.353.018.687.493.266.092-.506.563.75 1.202.175.069-.725-1.041-1.017-.414-1.555.934-1.424-.526-.123.365-1.667-2.461-1.058-.803-1.449-.953.049.338-1.4-.762-.427.773-.72-2.473-.612-.536-1.263.736-.725.342-3.39 1.988-1.447.512.686.19-.482.85.096-.114-2.198 1.376.346.685-1.147.909.062 2.098-2.402 1.96-.899 2.18-2.253-.683-.85-.841.182-.201-.58 1.052-.867-1.092-.792-.078-.91-.913.134-.414-.58 1.527-1.305-.061-.614-1.768.457-.643.824-1.103-.77.003-.011-.023-.106 1.618-3.029.772-4.227-.405-2.938-1.044-1.039.272-.691-.719-.932.406-1.102-1.193-.588-.436-.974-1.1-.04-.466-1.602-.829-.56.781-2.057-.147-1.523Z" fill="#EBF0EE"/>
    </g>
    <g opacity=".6">
      <mask id="b" style="mask-type:alpha" maskUnits="userSpaceOnUse" x="-235" y="-206" width="600" height="600">
        <path stroke="#000" stroke-width="2" d="M65-206v600M-146.293-118.707l424.264 424.264M-235 93h600M-147.707 305.557l424.264-424.264M-48.912-183.188l229.61 554.328M-211.64-21.299l554.328 229.61M-212.578 208.24 341.75-21.37M-50.587 371.212l229.61-554.328"/>
      </mask>
      <g mask="url(#b)">
        <path d="M-320-298h784v784h-784v-784Z" fill="url(#c)" fill-opacity=".7"/>
      </g>
    </g>
  </g>
  <defs>
    <radialGradient id="c" cx="0" cy="0" r="1" gradientUnits="userSpaceOnUse" gradientTransform="matrix(0 392 -392 0 72 94)">
      <stop offset=".211" stop-color="#E9B840"/>
      <stop offset=".618" stop-color="#E9B840" stop-opacity="0"/>
    </radialGradient>
    <clipPath id="a">
      <path fill="#fff" d="M0 0h160v160H0z"/>
    </clipPath>
  </defs>
</svg>
