<svg width="160" height="160" fill="none" xmlns="http://www.w3.org/2000/svg">
  <g clip-path="url(#a)">
    <g style="mix-blend-mode:multiply">
      <rect width="160" height="160" rx="2" fill="#E7D7B0"/>
    </g>
    <g style="mix-blend-mode:multiply">
      <path d="m169.941 118.378-.002.006.002-.006Zm.5-.029-.298 1.897-.579-.822-.012-.612.889-.463Zm-.5.029-.094-.478-.209.338-.969.074-.045-.557-.692.443 1.334.584-.018.792.349.106.509 1.143-5.874 2.873-3.604 1.414-2.885-.814-2.385.282-2.05 1.017-1.997 4.368.076.738-2.233 2.362-.21.354.295.664-.728.636-2.328.313-.665-1.121.201-.593.286.005-.09-.442-1.906-.665-2.403.462-1.712.816-1.469.967-1.121 1.25-1.112 3.425-1.631 2.58-.826 3.843 1.073 5.718 1.353 2.371-1.112 7.681 1.849 4.968-.134 2.955 1.268 3.384-2.318-4.202-.433-.196-.089 1.455-.474-.474.273-.47-.308-.059-.898 1.41 1.778 1.618 1.205.028 1.214 1.075.001.87-.58-.324-.735-1.44-1.258-.033-1.329-.964-1.211.131-.064.321.684.135.053.285-.484-.054-.169.465-.54.134.023.548-.495.223.339.496-.451.625-1.195.534-.818-.015-.33.365-.413-.34-.528.502 1.023.799-.651.469-.347-.442-.548.237.117-.434-.365.073-.077-.861-1.42.6-.507-.357-.208-.721-1.719-.205-.872.337.811.356-.228 1.135.406-.29.151.214-.384.135.035.345-1.222.4.109.546-.75.538-.652-.726-.789.093-.001.519-.472.316-.582 1.267-1.346-.112-1.438-1.022-1.049.144-.336.535.501.27-.687-.018-.095-1.089-2.091.669-.7-.176-.14.848-.686-.222-.602.64.531.98-.337-.003-.704 2.43-.585.44.033.954-.374.097-.135-.391-.087.029-.275-.028-.079.657-.497.017.032.734-1.468.091-1.252-.672-.419-.637-1.199.172.601-.554-.106-.612.329-1.552.997.004.681-1.326.529.539.924-.09-.211-1.113.567.088-.102-1.119.852-.347-.043-.474.419-.257-.309-.365.97-.605-.452-.504.446-.278.141-.948-.351-.613-.56.719-.788-.858-.576.156-.185-.34-.534.253-.39-.269.489-.202-.68-.373.574-3.661-2.623-.149-.714.506.172-.982-.538-.119-.077-.415-1.206.22-.36-.521.092-.348.665.062.064-.424-.393-.383.535-.714-.075-1.051-1.165-.754-.053.557-.847-.144-.312.683-.34.003-.035-.991.573-.216-.187-.941-.882.877-.395-.558-1.105-.061-.192.432.343.79-.83.406.038.378-1.055.368-.066.949-.212-.472-.512.151.105-.416-.34.028-.621.336.422.332-.249.129-.412-.266-.636.445-.585-.45-.119.956-.4-.347-.071.445-.534.065.123-1.993-.784-.036.255-.591-1.046-.173-.635.328-.21-.518-.908.292-.267-.912-.359.551-.106-.324-.42.35-.029-.947-.338.29.105.704-.622.125.617.472.07 1.085-1.147-.102-.566.362-.542-.536-.24.637-.304-.162-.389-1.18.786-1.299.386-.066-.088-.464-1.684-1.598.706-.7-.772-1.02-.697-.063.124-.461.733-.113.075-.385 1.258.272-.185 1.229.247.738 1.566.183.422.832 2.672-.547.647.699-.087 1.411.676-.018.023.293.572-.483-.317-.442.368-.537-.884-.006.125-.629-.92-.256 1.114-1.326-.092-.248-.727.37.052-.465.465-.086.21-.588 1.779.235-.067-1.989-.668-.007-.2-.619-.91-.25-.172.49.654 1.371-.513.332-.456-.629.062-.647-1.28-.112.025-.908-.791.331-1.283-.44-.647.828-.11 1.224-.478.064-.414-.497-1.797-.009-.208-.528.405-.36-1.141-.864.064-.722.482-.384.458.231.035-.751.477-.547-1.66.162-.686-.902-.447-.076-.637-1.226.61-2.189-.285-.738 1.1-.408.252-2.643-.587.215-1.031-.312.334-.773-.166-.905.365-.321 1.283 1.027 1.69.303.303-.317.743.006-.095.393.609.09 1.209-1.994-.353-.367.412-.103.008-.742-.6-.454.697-.626-.262-.44-.522-.069-.092-.62-.774.089-.549-1.876-.916-.924.024-.255.88.105.043-2.218.838-.316.56.461.141-.563-1.314-1.251.332-1.471-.669-.144.703-1.121 1.246-.686 1.696-.285 4.19.613 1.558.151.846.585.92-.167 1.335.353 1.424-.508 1.836.609.553-.711.44.955.738.288.261-.361.625-.001.246-.854.932-.475.3-1.698.958.036 1.439-.861 2.467.408.931-.707 1.554 1.201.987.05.989-1.06.021-1.153.404.06.156.714.609.082-.081-1.275.323-.339 1.695-.721 2.342.476.677-.374.106-4.47.656-.888 2.58-.35 1.135-.799 2.426-.526 2.04-1.126.568.652.83-.129.646 1.007.902-.071 1.444-1.718.35-1.142-.588-.648-.666-.18.288-.734.583-.97 1.415-.335.776-.995.307.531.98.042.63.914.287 1.417.634.268.23.732.43-.645.851.574.061.422 1.712.453.663-.415-.796-.618.167-.738.35-.082-.041-.878-1.493-.362-.056.513-2.084-.888.49-.724-.349-.71.452-.351.409.88.413.131.579-.556.223-.962 1.03-.504 1.552.841-.274.545 1.385-.159 1.716.651.424-.421.184-1.595.691.006-.128-.924 1.381.361.889-.57 1.87-.314.302-1.499 1.376.037.925-1.181.757.56.705-.075 1.25-1.459.129-1.517.358-.508-.335-.337 1.097-1.642.088-.641 3.308-1.775.168-.346-.555-.685.688-.718 2.423-.94 1.172-1.105 2.182.24.274.556 1.034.518.411-.112-.005-1.04.498-.23.123.406.39-.044.058-1.713.389.29.122-.244-.949-.941.429-.338.066-.848.562-.133.34-.544-.942-.18.804-.874-.373-.687 1.813-2.138.404.592.386-.037.113 1.172.379-.056-.298.81 1.05.35.174.375-.56.667.069.618.742.695.513-.973 1.741-.75.422-1.073-.275-.417.369-.332.736.499.638-.05.116.772.656.26 1.359-.556.583.154.079-.905-.335.17-.355-.429 1.189-1.575-.914-.168-.09-.337.435-.312-.739-.033.057-.853.634-.255 1.318-1.995 1.106.51.053.444.231-.841.751.148.216-.55 1.234-.177.042-.538.601.021.241-.483-1.04-1.14.54.06-.554-.57-.27.678-.381-1.229.66-.34 1.005.231.751.854-.112-.912.419-.012.054-.353-.299-.819.223-.136.328.416.189-.197.133.676-.324-.034.03.266.578.095.242-1.156.52.406.413-.649-.163-.543.466-.563 1.186 2.318.421.078-.28.451.643 1.132.551.176-.651-1.194.763-.505 1.337 3.206 1.119.369 1.403-.095.881.97.662-.06.456-.463 2.909-.274.061-1.261.424.265.146-.273-.323-.27.582.093-.359-.313.523.17.508-.464-.222-.412.402-.487-.41-.793.91.552.285-.67 1.233-.746.347.88.402-.707.672.043-.005-.486-.553.076-.45-.8 1.115.034.061-.59.597.095-.133.534.404.4.675.414-2.864 3.294-.464 1.412-1.416 1.34-1.765 2.636-3.706 3.455-.018.71-6.517 3.288-2.358 1.606-.692 1.157-1.92 1.772v.559l-1.055 1.43-2.108 2.249-9.741 4.933-3.847 2.967-1.138 1.434-.416 1.535-.366.176.116.732.893.775.684-.19-.183 1.895-.693.392v-.001Z" fill="#EBF0EE"/>
      <path d="m186.407-7.625 1.637.308.358.722.951.25.579 2.272.537.242-.241.374 2.159.74.546 1.15-.236 1.26.967 1.449 2.579.635.042-1.035 1.112-.173.252 1.535-.855 1.548-.06 1.292.655.494.593-.369.432.767-.588 3.33 1.539.989.298 2.042.675-1.039.437.82.873-.215.116.479 1.478-.24.298.63-.309 1.288-.649.086-.711 1.667-.499.007-.463.482-.077 1.147-1.138.597-1.118-.037-1.211 1.16-.041.842-.36-.02-.064.342 1.053.659-.601 1.666-2.302.413-1.741 1.743-.961-.046-.76.36-1.393 2.084.662.66-.996.176-.052 1.582.292.54.759.368-.466.67.209.486-.857.201.086.654-.733-.354-.382.547.272.708-1.035 1.145 1.042.849-.511.35-.186-.758-.973.628-.741 2.013.251.885.7.765.143.875-.448.146-1.685-.602-.255 1.074.328.459-.904.436-.454 2.136-1.13.59-1.274-.306-1.36-.97-1.234.454-1.074-.163-.38.33-.588-.35-1.87.176.146.815-.574.525.208.592-1.115 1.628-1.082.649-.429 1.361-.699-.045-.227-.614-.882-.367-.184 2.143.532 2.295-.71 1.198.908.751.122.977.353-.354.307.81-.569 1.538.57.895-.388.33.137 1.044-.558.982.192 1.445 3.336 1.257.538-.245 1.218.167-.113 1.647.274.382-.238.676-.917.096-.975.922-.222-.872.358-.715-2.431-.654-.861.36-.793.88-1.75-2.855-.839.34-1.939-1.221-.538.678-1.336-1.568-1.203 1.126-.47 1.46.198.715 1.781.905.318 1.001 1.281.215-.358 1.343.138 2.804-.381.623 1.12-.136.438 1.457 1.025.106-.269.874-.41.069.68.714-.505.918.435 1.803-.306.547.643.153.199.455-.29.512.499.772.232 1.758-1.074.256-.187 1.76-.515.562-.767.031-.045.738-.721-.114-1.063.476-.325 1.041-.998-.363.048.495 1.064.578-.123.465-.615-.086-.19.603-.625.259-1.541 1.713-.277 1.11-1.396.102.01.474-1.05.165-1.053.71-.372 1.266.286.445-.224 1.09-.559 1.073.055.983-.644 1.579-.698-.154-.143 1.317-2.105-.092-1.519-.68-1.382 1.113-.662-.057-1.422-4.89.477-1.464-1.796.595-.222-1.09.311-.163-.61-.451-.509 1.14-1.019-.09-.021-.793.882-.593-.7-.81-.455-1.357.165-.44-.572-.173.127-.281-.773-.61-.291-.785-2.4-1.84-2.277.702-1.195-2.218-.408-.704.553-.086 1.157-.997-1.3-1.77.001-.989.875-1.479.044-1.126.994-.802-.054-.849.863-.37.621-1.253 1.483-1.114.68 1.586.993-.327.268.728.976-.055 1.54-1.255-.917-1.114 1.674-.66-.209-.905-.542-.171-.286-.567-.984-.096-.73-.68-1.032-.066.145-1.356-2.029-1.397.045-.759-1.179-.091.144.887-.413-.348-.928-.028.046-.368.548.1 1.059-.992-.238-.512-1.206-.12-.023-.45.602-.344.591.423.642-.052.404-.957.01-1.335-.093-.75-.681-.495-1.675-.087-.126-.32.45-.466-.499-.877 2.056-.475.502-.634 1.218-.456-.511-1.056.584-3.551-.884-.146-.891.466-.488-.546.419-.64 1.166-.496-.557-1.396-.059-2.88-1.387.031-.512-1.325.38-.464-.226-1.035.386-1.297 2.862-1.325.605-.824-.263-.557 1.184-2.424-.337-1.97.149-2.15.393-.793 1.097.18.33-.986.078-2.252-.291-.364.439-.071 1.046-2.727.639.106.207.942.574-.054.074-.61-.529-.306.723-.312.058-1.665 1.05-.302.468-.823-.061-2.534 1.127-.848.616.666.918-.827.458.306.305-.736.898.329.286 1.107.448-.657.379.206-.16-.46.672.012.631-.808 1.555.017.125-.437.404-.08.126-1.092.812-.305.256-.46.283.488.357-.27-.26-1.089.606-.695-.376-1.173.137-.68 1.398-.301.059-.418 1.29-.731-.35-1.455.316-.64 1.382-.04.693-.637.784.226.565-.66-.138-1.493.756-.99-.058-.71-.773-.634-.433.104-.199-.727-.849.344-.501-.175.024-.618-.642.18-.961-2.072-1.434.361-.362-.6-1.103-.377-.691.768-.62-.144-.423.719-.341-.288-.021-.76-.46-.078-.118-.587.53-.198.169-1.064.48.012.711-1.065-.213-.57-.553-.298-.147-1.043-.516-.4.195-.93.821-.326.987 1.164-.063.324 1.022.5 1.13-.218 1.022-.85.551.351.804-.18.718.744 1.881.01.668-.576-.075.367.433.438.468-.262 1.173.319 2.119-.135.904.474.455-.174-.276-.522.942.021 1.063-.588.072-.897 1.473-.252.959-.713 2.107 1.524 2.377-.04 1.655-.75.426-1.194.965-.593.209-.869.555-.497ZM23.882 61.01l-.489 1.174-.745-.534-1.268-.252-.126.535-.686-.727.117-.418-.454.37-.258-.298.217-.69-.261-.698-.737-1.13.343-.25.613.369.102-.348.484.02-.011-.45.392.447.101-.542.65-.066.265-.577.088.95.78-.208.281.522-.332-.068-.768.994-.54.04.09 1.246.177-.295.506.293.405-.275-.07-.58 1.031.163.296.293-.52.684.327.305ZM31.341 134.841l2.458-.222.523-.99.272.798 1.012.13.384 1.613.473.55.47.109 1.577-.757.763-.03.269-.479.37.529.296-.29.38.204.214.74-.228.725.53.66-.498.605.421.769.003.902.735.354.213 1.231-1.352.584.79.571.244.648-.519.676-.18.782.385.926-.653.812.135.399-.937.748-.639-.49.052.696-.579-.191-.675.41-.876-.377.17-.656-1.393-1.781-.884-.299.59-1.025-.862-3.075-.345-.635-.523.161-.938-.827 1.515.226.32-.301-.767-.616-.988-.156.286-.553-.656.005-.46-1.985-.898-1.828Z" fill="#EBF0EE"/>
      <path d="m-33.823 20.931.473.542-.33.374-.778-.528.635-.388Zm-7.893-.313.16.25-.996.73.138-.701.698-.28Zm14.026-1.999.29.438-1.112.317.116-.49.706-.265Zm-23.33-12.5.867.299.044.435-.684.183.027.275-.576-.454.478-.174-.156-.565Zm.495-1.055.465.353-.009.46-.64-.43-.156-.349.34-.034Zm-1.868-1.847.355.426-.18.924-.41-.261.058-.62-.648.581-.142-.208.967-.842Zm.15-2.028-.014.62-.818.934.08-.862.751-.692Zm-.417-.49.165.417-.42.251-.093-.518.348-.15Zm-1.572-3.145.635.354.455-.175-.576 2.452-1.215 1.24-.652-.149.295-.145-.313-.3-.5.193.13.272-.464.015.076-.296-.452.179L-57 .709l.295-.406 1.045-.035.964-1.294.464-1.42Zm-.626.11.077 1.126-.711.507-.005-1.485.639-.149Zm2.846-.561.327 1.333-1.278.267.308-.606-.139-.567.782-.427Zm-1.79-.553.44.011.225.9-.953-.063-.112-.4.4-.448Zm.912-1.268.003 1.132-1.041-.108-.438.534.046-.865 1.43-.693Zm1.458-.043.359.363.43.106-1.038.948-.42-.17.044-.38.707-.518-.082-.349Zm-.812-.962.586 1.194-1.206 1.327.408-1.447-.209-.288-.445.171.317-.752.55-.205Zm-.835-.048-.322 1.058-1.05.588-.115 1.431-.269.214-.276-.306-.612.554.017 1.764-.455.19-.737-.874.67-.765-.343-1.043.348-.024.683-1.378.925-.049.407-1.048.58.213.549-.525Zm43.046-12.018 3.065 1.284.856-.8.516.553 1.692-.917 2.063.056.723.658 2.21-.656.206.856.75.31.29-1.248.702.138.387.713 1.742-1.39.527.155-.006.779 1.295.672.727.034.311-.357 1.368.422.623-.163-.447.55-.752-.231-.455.348.71.733 1.01-.247.457.913.903-.066-.094.768.45.937.692-.048-.115-.71.708-.992.706.603 1.749.268-.061.667.628 1.017 2.18-.08.897.693 1.087-.66-.453-.346.596-1.525.2-.208.615.302.697-.518.224 1.201-.375.56 1.367.768.66-.434.329.188-.328.535-.291-.165-.199.738-.574-.112-1.001 2.154.506.812 1.763.707-.4.818.754.713.727-.292.666-.81.044-.725.616-.229-.063.703.71.647-.14 1.059.316 1.039-1.006 1.209.009 1.3.213.363.716-.22.946 1.227.47.098.08 1.51 1.025-.672 1.343.565-.38 1.305.342.765-.412.902.329.208.82-.267.352.752.62-.8.296.417.788-.21 1 1.907.717-.076.136-.558.381-.063.318.687.673.093.19.63.92.006.516.458-.108 1.575.9.463.394-.692.62.066.677 1.208-.09.412.646.56.772 1.435-.468.267.328.549.616.584.822-.427.44 1.134-1.218 2.217-.305 1.51-1.91-.022-1.802 2.204-1.392-.579-.516.735.133.304.68-.305-.115.741.406-.038.316.813.342-.62.271.424.412-.207.067-.584.222.704.794.07.646.667-.582-.096-.498.718-.326-.158-.253.79-.913-.18-.359-.679-.643.198-.206 1.286.521.726-.254.375.756.155.12 1.988.393-.135.419.326-1.335 1.226.902.5-.126.559-5.394 2.25.553.562-.22.478 1.047 1.076-.173.949-1.576.344.593.46.584 1.76 3.36-1.094 1.875-.002.352.487.48-.324.514.25.572-.509.368.413-.014.78-1.255.564-.332-.287-.104.353-1.506-.077-.32.266-.673-.582-.3 1.071-1.283.47-.255-.176-.07 1.798-.909.602-.962-.086-.154 1.637-1.302.082-.08.494-.89-.238-.722.334-.373-.743-.4.14 1.152 1.02 1.49-.098-.168 1.002.525.772.529-.208.14.454 1.447.22-.183.736.805 1.71.071 1.672-.46.32-.568-.104-.354.603-.658.009.365.456-.114.877-1.448.826-.76-.188-.486.273-.546-.289-.474-.974-1.107-.64-.642.348-.255-1.089-.465.115-.22.779-.6.38.606.81.65.197.017.687.304.053-1.141 2.146-.618.412.516.65.105 2.483-.894.23-.109-.351-.237.253-.67-.148-.356.98-1.17.469-.327-.305.52-.684-.295-.294-1.032-.163.07.58-.404.276-.506-.294-.178.295-.09-1.246.541-.04.768-.994.333.069-.281-.523-.78.208-.09-.95-.264.578-.65.066-.101.542-.391-.447.01.45-.483-.02-.102.348-.612-.37-.344.251.736 1.13-1.542-.23-.641.682.011.7-.535-.065-.003.4-1.033-.197.29-2.648 1.06-1.344 1.017-2.205.206-1.479-1.698-5.285.027-.831-.349.166-.786-1.944.76-.304-1.05-.123.25-1.184-.862-.21-.13 1.156-.508.21-.143-2.517-.492-1.175.604-1.55 1.147-1.425-.83.53.463-1.488.496-.2-.348-.186-.925.868-.456-1.031.497-1.107 1.17-.596 1.39.11.767-.391-.89.08-.7-.453-3.195.434-.487-.635.532-.592.473-1.52-.835-.573-.25-1.683.729-3.371.549-.863 1.055-.282 1.715.756.88-1.255 1.112.383.393-.182.197-.752-.295.542-.474.066-.37-.685-1.475.886-1.031-.13-.862-.794-1.496.714-.063-.527-.827 1.318.108-.687-.353-.028-.572-1.082-.675-.313.31-.676-.532-.465-.295.24.536.368-.34.65.652.259.045 1.213-.272.48-.697-1.237.093 1.14.47.638-.246.316-.327-.576-.196 1.008-.317-.092-.728 3.413-.594-2.025.72-.42.182.186.027-.785-1.04.92-.032.65-.21 1.197.522.837.2 2.739.667 1.924-1.33 3.258-1.564 1.844-.273.83-.527-.34.34.458-.246.52.51.842-1.536.723-.17.371.05-.913-.546 1.113-2.523.837-.37.257.16.328-1.474.3-2.404 1.207-.816.028.017.442-1.215.898-1.005-.073.108.29-2.823.94-.858.404-.098.356h-.938l-.22.356-1.875-.071-1.165.533-.549-.751-.153-.178.36-.009.002-.52.426.007.037-.515-1.274-.452 1.34-.59-.214-1.017-.659-.433-1.205.164-.473-.498-1.007 2.497-.084 1.378-.952-.11-2.823-1.415-5.458-4.31-6.218-7.277.822-.849-.424-1.236-.21.31-.785-.11.67.63-.353.157.46.372-.304.554-7.606-6.941-4.418-5.086-.344-1.286.782-1.766 1.33-1.137.287.144-.665.676.401.634 2.015-.48.165.379-.745 1.536 1.2.95 1.404-.576.223-.667 1.376.244 1.058-.35.622-.888-.411-.834.84.532.183.849 1.492-.058.152-.6.562-.033-.018-.816-.419-.134.906-.4.264.745.241-.187.611.72.621-.936.546.13.979-1.072.422.227-.075-.592 1.388-.576.42.28 1.573-.082 1.286-1.923.161-1.227.808-.418.814-1.96 1.116-1.07 1.131-2.478-.902.221-.576.55-.237 1.431-.63.309-1.769-.854-.281.397-.938.245-.62-.313.142.626-5.365 1.282-.736.534-.75 1.377-1.01-.438-.68.115-.745-.578-1.323.328-1.884-.958-2.537-.169-6.156-3.971-.888-.226-2.698-2.321-.112-.329 1.402-.643-.5.058-.063-1.397-.496-.594-.755-.096.023-.57-.398-.034-.536-.784-.219-2.895.188-.426.322.043.066-.629 1.738-1.178.54-.882 1.14-.616-.327-.243-1.8.34-1.264 1.41-.179-1.177.505-.19.42-.786 1.456-.65-.682.067-.399-.485-.12.34-.48-.03-.345-.408.151-.276 3.256.02.376-5.814.864-.25.344 1.753.64.22.96-1.417.857.89 1.486-.757 1.717.593 1.777-.727 3.07.38 1.6-.4 1.992 1.801 4.44.152.943-.463.96-1.715 7.33-2.274.594.347-.64.983.248.603-.212 1.013 1.303.478 2.42.042 1.42-.603-.144-.59 1.2-.973.622-.251.785.232 1.36-.955-.207-.514-1.786-.192.12-1.419-.274-.325.357-1.567 1.393-.882ZM38.51 136.07l-.474-.341.596-.125-.048-.655 1.186-.589.369-.535.365.738.677.031 1.168-.57.394-1.169-.72-.131.475-.657.31.661.292-.014-.317-.806 1.261-2.315-.546-.27-.744.36-.352-.297 1.069-.958.876.387-.052-.992.436-.685-.158-.713-1.296-.439-.021-.384-1.093-.188-.312.396.24-.389-.414-.56.04-.901.283-.19.299.432.12-.492-.426-.103-.06-.861-.685-.113.058-.726-.501.443-.252-.314.525-.142-.15-.686.606.707.246-.856.582-.059-.048.304.44.181.218-.846 1.109-.435.08-.933.332.569.858-.11.364 1.353 1.002-.396.104-.516.765.038-.48-.552.573-.624.033-.671 2.52-.927 1.108.015-.19-1.435.837-.366.051-.459-.647-.338.183-.257 1.478-.009.026.266.941-.384.816 1.254h.78l-.103.526.525.028 1.076-.565.092-1.345.914.037.795-.398.583.216.593-.366.395.709 1.252-.346.087-.737.543.078.018.56.552.31.476-.155-.038-1.26-.458-.011.557-.442.002-.523-.812-1.27.548-.637-.036-.888-.867-.7.115-.654-.455-.125-.1-.554.599-.15.318-1.433.675.327.218.76.738-.156 1.05.866.36-.882.599.621.406-.528.103 1.066.603.494 1.984-.505.389.405.683-.607.673.426.203.731-.055-.862 1.158-.433.506.738 1.09-.324.139.657.473-.02.424-.962-.74-.096.179-.993-.635.035-.046-.611.71-.414-.507-.014.364-.466-.42-.341-.134-.876 1.35-.156.21-.674.975-.273-.048-.885.6-.029v-.732l.798-.018v.97l.662-1.109.784 1.349.44.133.122-.773.474-.184-.191-.752.756-.086.409-.661-.815-.513.051-.688.999.498 1.827-.785.02-1.983.594-.108-.123-.573.342-.393-.735-.32.508-1.154.543-.06.58.433.143-.355.399.528.823-.006-.214-.712.876-.362.33-1.081.573.049-.173-.585.798-.974-.078-.64 1.241-.76.398.395.443-.292.001.79.65.206-.826 1.31 1.248.07.466.783.72-.31-.01-.477.65.26.852.224-.622 1.303.539.817.045.881-.882.767.748.732.868.285.116.4-.152.386-.325-.191-.116.92-.504-.09.185.635-.385-.04-.37.919-.382-.147-.243.426-.103.316.989.309-.064.285-1.796.936-.167 1.841.806.254.186.425.415-.541.337.398.666-.223.03.504 1.51.453-.026.549-.577-.14.075-.369-.198.456-.474.102-.006.431-.601-.167-.01.413-1.004.038.408.388-.12.535-.465.301-.765-.274-.282 1.376.329.207-1.192.939.296.184-.623.787 1.65.962.591 1.616-.74 1.641.286 2.167-.54-.067-.228 1.144.698.043-.028.561-.78.258.264.42.586-.155-.084 1.045-1.17.316.385.789-.582.119-.206.442-1.12-.122-.075.297-.913.093.796 1.083.937.388 1.106.283 1.33-.218 1.562.637-.02.844-.408-.181-.501.584-.524-.086-.22.3.02.423.353.017-.437 1.076.05.712.365.203-.3 1.212.31.472-.01 1.351-4.19-.613-1.695.285-1.246.686-.703 1.121.669.144-.333 1.471 1.314 1.251-.14.563-.56-.461-.839.316-.043 2.218-.88-.105-.024.255.916.924.55 1.876.773-.09.092.621.523.069.26.44-.695.626.6.453-.009.743-.411.103.352.367-1.209 1.993-.608-.089.094-.393-.742-.006-.304.317-1.69-.303-1.283-1.027-.364.321.165.905-.334.773 1.031.311.588-.214-.253 2.643-1.1.408.285.738-.61 2.189.637 1.226.448.076.686.901 1.659-.161-.476.547-.036.751-.457-.231-.482.384-.065.722 1.142.864-.406.36.208.528 1.798.009.413.497.479-.064.11-1.224.646-.828 1.283.44.791-.331-.025.907 1.28.112-.062.647.456.63.514-.332-.655-1.371.171-.49.912.249.2.62.667.007.067 1.989-1.78-.235-.208.587-.466.086-.051.466.726-.37.093.248-1.114 1.326.92.256-.125.629.884.006-.369.537.317.442-.571.483-.023-.293-.677.018.088-1.411-.648-.699-2.671.547-.422-.832-1.567-.183-.247-.738.185-1.229-1.257-.273-.075.386-.733.113-.125.461.697.063.772 1.02-.706.7 1.685 1.598.087.463-.385.067-.786 1.299.389 1.18.303.161.24-.636.543.536.566-.362 1.147.102-.07-1.086-.617-.471.621-.125-.105-.705.339-.289.028.947.42-.351.106.325.36-.551.266.912.908-.293.21.519.635-.328 1.047.173-.255.59.784.037-.124 1.993.534-.065.07-.445.402.347.118-.956.585.45.636-.446.413.267.249-.129-.423-.332.622-.336.34-.028-.105.416.511-.151.212.472.066-.949 1.056-.368-.04-.378.832-.406-.344-.79.192-.432 1.105.061.396.558.882-.877.186.941-.572.216.034.991.341-.004.312-.682.846.144.054-.557 1.164.754.076 1.051-.536.714.394.382-.065.425-.664-.062-.093.348.361.521 1.206-.22.076.415.538.119-.172.982.715-.506 2.622.149-.573 3.661.679.373-.489.202.391.269.534-.253.185.34.575-.156.789.858.56-.719.351.613-.141.948-.447.278.453.504-.97.605.308.365-.418.257.043.474-.853.347.102 1.119-.567-.088.212 1.113-.925.09-.529-.539-.68 1.326-.997-.004-.329 1.552-1.608-.286-1.189-1.184-.512-.058-.215.826-.323-.003-.576-.879-.334.583-.25-.136.405-.558-.269-.366-2.136.73.235.769-1.095 2.011-.444-.16-.41.404-.386-.411-1.029.271.12.598-.446 1.032.136.833.447.118-.498.513.801-.145-.082 1.125-.261.894-.983 1.145-1.166.357-.073.974 4.192.571.677 1.008-1.27 1.561-.467 1.171-2.831.094-.121.92-.388-.205.056.807-.595 1.442-.961-.458-.537.323-.664-.643-.693-.066-.236.304-1.998.336.104.82-.606-.199-.242-.849-.55.202.15-.313-.439-.311-.509.032-.212.585-.963-.295-1.145 2.269.36.689-.218.445-.334-.37-1.13-.217-2.994.007-.316-.984-.583-.449-.85.699-.448-.068-.435-.681.362-.261-.18-.592-1.169.37-1.012-1.189-.86.057-.555-1.039-1.221.206-.003-1.949-1.824.772-1.893-.284-.842-.711-.397-1.418-1.329.148-.248-.624-.63.149-.439-.837-.936-.136-1.514-2.212-1.022-.004.036-1.313-.897-.658.016-.729.899-.138-.13-.599-1.184.664-.096-.559-.864-.457-.07-.751.821-.344-.822-.433-.865.801-.345-1.021-.68.132-.26-.267.123-.703-1.038-.351-.048.513-.568.104.03-.894-.684.09.081-.224-.44-.114.383-.501-.263-.491-2.013.59-.742-1.603-2.023-8.119-.393-4.696-1.027-3.827-.59-1.316-.622-.302-.481-.95-.492-2.647-.47-.663-1.415-4.601.635-.468-.46-.371-.14.523-.745.023-.24-1.333-.403-.418.245-.219-.294-1.234-.514-.545-.478.496-1.76-1.334.45-.102.122-.684-.305-.009-.236-.807.675-.41.58.19-.053-.695.638.49.937-.749-.135-.398.654-.812-.386-.927.18-.782.52-.676-.244-.648-.79-.57 1.352-.584-.213-1.231-.736-.354-.002-.903-.42-.769.496-.605-.53-.66.229-.724-.214-.74-.38-.204-.296.29-.37-.53-.27.48-.757.029Z" fill="#EBF0EE"/>
      <path d="m38.832 29.653.879.49 1.432-.175.199-.546.845-.202.542-.706.928-.11.042.954.72.287.548.787-.384 1.748.122 1.384.662.144.104.624 3.734 1.229 1.782-.338 2.506 1.122.922 1.809 1.685.835 1.283-.08.036.452.956-.24.596.347 1.125-.192 1.282.372.977-.386 1.037.251 3.452-.33 1.297.096 1.345.708.744-.364.973 1.968-.238.36.455.854-.094.3-.85.105.942 1.37 1.44-.172.316.332 1.52-.035 1.228-.642.558-1.392 2.187.059.607-1.538-.588-.904 2.567-2.255.123-.4-.464-.563.4-.3.12-.986.615.076.3-.377.787.245 2.753-2.099 1.375.164.22-.24.578.573.276-.41.942-.11.05-.662 3.042-.15 1.072 1.211.469 1.271-.006 1.107.581.34-.645.224-1.76-.46-.653.403.343 1.033.499.274.285 1.359 1.566.227.327-.043-.052-.456.794.003.262.376.384-.44.227.653.46-.097.258-.36.7-.086.095-.37 1.327.594.915-.158 3.708-1.915.186-1.034 1.421-.207-.05-.405.61.393.526-.328.388.21.298-.694.693.287.12 1.722 1.262-.46.932.22.295.494 2.169.382.43-.501.414.459.199-.377 1.531.071.256-.268.58.227.141-.452-.582-.707.376-.094-.235-.55 1.306-.455.243.297 1.263.04.96-1.054 1.159.167.142-1.256 1.934.774.736.075.338-.29 1.17.297.773 2.232 1.782-.222 1.369-.78 2.001 1.23.944.111.331-.555.919.38 1.126-.342.826-.9 1.178-.468 1.158.241 1.776 1.705.654 1.42-.357.529.23.53.595.075.127-.518.599.08 1.73 1.25 1.02-.103.264.557-.605.824-2.862 1.326-.386 1.296.226 1.036-.38.463.512 1.326 1.387-.03.059 2.88.556 1.395-1.166.496-.417.64.487.547.891-.466.884.145-.584 3.552.511 1.055-1.218.457-.501.634-2.057.475.499.876-.45.467.126.32 1.676.086.681.495.093.75-.01 1.336-.405.957-.641.052-.592-.423-.601.342.022.452 1.206.118.239.513-1.058.993-.549-.102-.046.368.929.028.412.348-.143-.887 1.178.091-.045.758 2.029 1.398-.144 1.356 1.031.066.73.68.984.096.286.567.541.172.209.904-1.674.66.917 1.114-1.54 1.255-.976.055-.268-.727-.993.327-.681-1.587-1.483 1.115-.621 1.253-.863.37.054.848-.994.802-.044 1.127-.875 1.48-.001.988 1.3 1.77-1.157.997-.553.086.408.704-1.055.346-.209.368-.496-.343-.76.334-1.584-1.528-1.292-.297-.61-.784.723-.474-.072-2.748-.296-.434-.908.215-.025-1.174 1.37-1.124-.371-.943.67-1.203.18-1.751-.528-1.076-1.8-1.228-.688-.96-.726-.161-1.617.477-.67 1.206-.733-.275-.158-.482-1.162.865-1.63-1.25-.881.097-.152-.418-.98-.38-.116 1.453-.479.596.259.404-.726.12-1.205-1.14-1.359-.202-.41-.375-.616.174.418-.564-.187-1.087-.852-.314-.919.193-.212-1.73-.977-.347-1.1.203-1.814-.86-1.244-.071-.52.484-.285-.395-1.263-.34-.217-.726-.771-.068-.269-.549-.408 1.12.722.176.462.987-.361 1.144-.956.406-.259.45.664 1 .002.55-.516.23.48 1.725-2.038.756.24 1.354-.435 1.615-1.412-.311-.5.22-.087-.493-1.557-1.192-1.416.663.017.304.705.286-.617.203-.335.985.19.274-.439.762.274.77-.731-.2-.088.855-.571-.18-.07.565.16.797.8-.016-.07.556.66-.048-.213.691.66.047.98 1.455-1.69.25-.82 2.08-.463-.387-.399.525.058 2.042-1.268.465-.141-.43-.829.087.06 1.234-.393-.16-.488.342.628.303-.954.304.471.16-.574 1.154.762.527-.272.448-.65-.26.01.477-.72.31-.466-.783-1.248-.07.825-1.31-.649-.205-.001-.79-.444.292-.397-.396-1.241.76.078.64-.798.975.173.584-.573-.049-.33 1.082-.876.361.214.713-.823.006-.4-.529-.142.355-.58-.433-.543.06-.508 1.155.735.32-.342.392.123.573-.594.108-.02 1.984-1.827.785-.999-.498-.051.687.815.513-.409.661-.757.087.192.752-.474.183-.122.773-.44-.133-.784-1.348-.663 1.108v-.97l-.796.018-.001.733-.6.028.047.886-.974.272-.21.674-1.35.157.135.876.42.34-.365.466.508.015-.712.413.047.611.635-.035-.18.993.74.096-.423.963-.469.025-.139-.658-1.09.325-.505-.738-1.159.432.056.863-.203-.731-.674-.426-.683.607-.389-.405-1.984.505-.603-.495-.103-1.065-.406.527-.598-.62-.36.882-1.05-.866-.738.155-.219-.759-.675-.328-.318 1.434-.599.15.101.554.455.125-.116.653.868.7.036.888-.549.638.812 1.27-.001.523-.557.441.458.012.037 1.26-.475.155-.552-.311-.019-.559-.542-.078-.088.736-1.251.347-.396-.709-.593.366-.583-.216-.795.398-.914-.037-.091 1.344-1.076.566-.526-.028.104-.526h-.78l-.816-1.254-.941.383-.026-.265-1.478.009-.183.257.647.338-.051.459-.838.366.19 1.434-1.107-.014-2.52.927-.034.671-.573.624.48.552-.765-.039-.103.517-1.002.396-.364-1.353-.859.11-.332-.569-.08.932-1.109.436-.218.845-.44-.18.049-.305-.582.06-.246.856-.607-.708.15.686-.524.142.251.314.501-.442-.058.726.685.113.06.861.426.102-.12.492-.299-.431-.283.19-.04.901.414.559-.24.39.313-.396 1.092.187.021.385 1.297.439.157.712-.435.686.052.992-.877-.388-1.068.959.352.296.743-.359.546.27-1.26 2.314.316.807-.29.014-.311-.661-.476.656.72.132-.393 1.169-1.168.57-.677-.032-.366-.737-.368.535-1.186.588.048.656-.596.125.474.341-1.578.757-.47-.109-.473-.55-.384-1.613-1.011-.13-.273-.798-.522.991-2.458.221-.51-.353.42-.139-1.354-2.628-1.295-.415-.428-1.638-.448-.304.197-.281-.514-2.124-.755-2.704-.335-.032.603-.688-.638.125-.014-.703-.782-1.231.022-.713.402-.167-.416-.578.371-.621-.285-.055-.175-2.756-.549-1.423.277-1.567-.375-.01.205-.427-.473-.255.705-.853-.518-.576-.684-2.568-.549-.544.528-.065.09.358.263-.432-.594-1.287-.643-.349.62-.567-.317-.047-.031-1.07-.75-.838.5-.446-.666-.916-.21-.96.34-.367-.75-1.542-.202-1.487-.2.103-.541-.896.134-.675-.778-1.19.21-.346-.514-.947.268-1.06-.91-.425.07-1.028.47.023.271.64 1.407.332-.214.593.522.597-.125-1.34-.415-.658-.991-.052-.675-1.056-.594-.312.196-.533-.496-1.45.532-1.165-1.18-2.612.228-1.817.755.206.393-.6.479.643.196-.333.098-.951-1 .253-.3-.864.8-.108-.294-.641.263-.465.38.193.852-.617-.473-.041-.16-.972-.487.015-.116.516-.742.615-.759-.197-.28 1.327-.594.563.254-.854-.51-.154.367-1.291.192.146.187-.353-.357-.056.175-.869-.752-1.22-.031-1.908.335-.884-.666-.756-.21-1.472.572-.48.099-.59-.345.368-.75-.583-.09-.97.407-.033-.817-3.332-.585-.77.018-.32.473-.116-.272-1.148.835-.67-.138-1.667.482-1.125 1.033.197.003-.4.535.065-.011-.7.641-.682 1.543.23.26.698-.216.69.258.298.453-.369-.116.418.685.726.126-.534 1.268.252.745.533.49-1.175 1.17-.468.354-.98.67.147.238-.253.109.352.894-.23-.105-2.484-.516-.65.618-.412 1.141-2.146-.304-.052-.016-.688-.65-.196-.606-.81.598-.38.221-.779.465-.115.255 1.088.642-.348 1.107.64.474.975.546.288.487-.273.759.188 1.448-.826.114-.876-.365-.457.658-.008.354-.603.567.104.461-.32-.071-1.672-.805-1.71.184-.736-1.449-.22-.14-.455-.528.208-.525-.771.167-1.003-1.49.098-1.151-1.02.4-.14.373.744.722-.334.89.238.08-.495 1.302-.082.154-1.637.962.086.91-.602.07-1.798.254.177 1.284-.47.3-1.072.671.582.32-.266 1.507.078.104-.354.332.287 1.255-.564.014-.78-.368-.412-.572.508-.514-.249-.48.323-.352-.486-1.875.001-3.36 1.095-.584-1.761-.593-.46 1.576-.344.173-.948-1.048-1.076.221-.479-.553-.561 5.395-2.247Z" fill="#28A062" fill-opacity=".7"/>
      <path d="m104.178-56.035.821.271.341-.772 1.114-.185.617.886.581-.132.4.613 1.851.723 1.498-.207.906-.554.122.373.291-.236.408.501.724-.017.86 1.089.628-.156.71.297-.164.61.889-.392.2 1.325-.418.65.188-.147.107.56.363-.012.649.864-.201.843 1.259.201-.152.494-.49-.012-.161.983.916.316-.291.176.176.34-.527.073-.165.704-.263-.27-.485.367.322.608-.589-.025-.089.656-.604.035.375.722-.933.281.973 1.021-.946.798-.237 1.557-.855.599.101.805-.58.174.246 1.089-.814-.55-.2.212.376.053-.028.281-1.185.893 1.037 1.323-.098.885-2.061.54-.457.504-.643-.415-.442.439-1.526-.318-.499.536-.417-.21-.331.548.193.979-.697.517-.479-.114-.278.952-.559.464.575.674-.374.454.597.23.151.918.695.5-.199.398.982.462-.452.274.395.436-.765-.03-1.087.736-.003 1.574-2.608 2.075-.025.435.727.775.183 1.157.773 1.411-.154 1.914-.629.622.802.818-.044.506 1.512 1.08-.562.985.863.948.886-.387 1.135-1.688 1.176.647 1.458 1.963.478.186.536-.34.22.256.231-.337.506 1.371.351-.526 1.051-.224.464-1.37.95-.92.282-1.538-1.219-.447.085-.598.272.287.573-.22-1.361-2.506-1.686.819-.441-.209-.152-.967.52-.777-.126-1.598.258-.352-.259-.816-1.545-.723-.237-.737-.508-.364.319-1.703-.719-.642-.46-2.838-1.156-.624-.686.412-.429-.32.213-.273.425.197.404-.545.13.348.4-.043.263-.354-.263-.643.822.195-.243-.774.438.064.243-.442.404.188.388-.664.532-.067.251.335-.519.442-.203-.288.022.569.822.163.074.456.816-.096-.342-.961 1.123-.313-.931-.06-.488-.522.114-.662.398.435 1.179.185.255.2-.512.143.329.245.368-.614-.464-.759.766-.253-.026-.579.579-.041.104.32.224-.327.179.506-.41.184.31.72-.522.587.417.329.498-.187.296 1.112-.802.429-.582-.416.622-.033.293-.407-1.2.222-.595.628.092.35-.829.31-.139.303.457-.039-.097.51.581.74.558-2.039.822.226.406-.322.276 1.144-.472.398-.516-.207-.272.511-.254-.182-.064 1.585 1.229-.957.764.428-.018-.667-.378-.197.543-.567.115.508.713.398-.513.691-.045.766.343.089.663-.96.58.5-.202.362.344.581.805-.122-.201-.435.291-.155.346.66.515-.047.082-.43-.476-.134.353-.223.375.136.014.55.694-.197.182-.328-.575-.804-.083-.896.948.835.232-.237-.288-.276.177-.758-.483.192-.359-.5-.455.332.011-.686.556-.53.824.127-.244.69.357.506.232-.511.77.62.677-.436.531.24-.502.015-.517.784.252.221-.532.067-.414.68.245 1.002.258-.452.256.558.599-.476-.125.673.471.24 1.217-1.674.389.534.21-.13-.079.41 2.376-.219 1.773.8-.132-.615.392-.299-.401-1.587.889-.295.177.415.469-.68.871.057.386-1.317 1.006-.224.643.308 1.038-.8.097-.575.825.2.171-.422.883.733-.108 1.74 1.19.908.338-.097.397 1.216-1.165.516-1.356 2.023.799.477.679-.404.374.288-.263-.846 1.204-.43.475.66.386-.01.093-.781-.384-.225.537.022.545.589.306-.42.713.34-.196-1.466.608.564-.499.333.884.529.369-.13-.092.488.863-.312.783.179.001-.399-.816-.24.002-.44-.414-.252 1.608-.164.452.637.137-1.454.672-.051.432.623-.642.647.092.928-.708.562.346.724-.936.465.196.482.526.174.803-.253.245.164-.044-.302.635-.278.296.825.99-.12-.116-.385 1.075.037.901 1.06.466-1.17.604.418-.234.098.453-.094-.175-1.078.963-1.283-.256-.655.377-1.097.599.03.133.878-.027-.835.273-.157.985.871.627-.185.13.41-.602.046 1.332.58.384-.563-.558-.535.362-.269.471.154-.243-.766.914-.154.247.485.599.152-.432.411.146.639.249-.396.245.342-.613.414.17.336.873-.335.373.634.812-.087.914.68.646-.162.912.468.199-.296.218 1.387-.251.676 1.009 1.09.735-.353 1.726 1.029h.759l.587-.568-.272.35.49.408-.324-.015-.265.752.658.192-.23-.411.375.005-.03-.27.28.223.085-.376-.221 1.866.372.062.166-.356.532.288-.04.99.576-.177 1.277.456-.122-1.512.494-.394.266.498 1.119-.008.174.464 2.069-.852.611.435-.013.553 1.087-.025-.043.806h.583l.072.828-.88.197-.539-.26.05.754.336.238-.473 2.011.859.213.058 1.413-.229.987-.369.226-.106 1.476-.797-.341-.216.414.82.946.93.05-.39.99.89.283.168.736-.959.713-1.473.252-.072.897-1.063.588-.942-.021.276.523-.455.173-.904-.474-2.119.135-1.173-.319-.468.262-.433-.438.075-.367-.668.577-1.881-.01-.718-.744-.804.18-.551-.352-1.022.85-1.13.217-1.022-.499.063-.324-.987-1.164-.821.326-.195.93.516.4.147 1.043.553.3.213.568-.71 1.065-.481-.011-.169 1.063-.53.198.118.588.46.077.022.76.34.288.423-.719.62.144.691-.768 1.103.377.362.6 1.434-.361.961 2.072.642-.18-.024.619.501.175.849-.345.199.728.433-.105.773.634.058.71-.756.99.138 1.493-.565.66-.784-.226-.692.638-1.383.04-.316.639.35 1.455-1.29.73-.058.42-1.399.3-.137.68.376 1.173-.606.695.26 1.09-.357.269-.283-.488-.256.46-.812.305-.126 1.091-.404.08-.125.438-1.555-.017-.631.808-.672-.012.16.46-.379-.206-.448.657-.286-1.107-.898-.329-.305.736-.458-.306-.918.827-.616-.666-1.127.848.061 2.534-.468.823-1.049.302-.059 1.665-.723.312.529.306-.074.61-.574.055-.207-.943-.638-.106-1.047 2.727-.439.07.291.365-.078 2.252-.33.987-1.097-.18-.393.793-.149 2.149.337 1.97-1.184 2.424-1.02.103-1.731-1.25-.598-.081-.127.519-.596-.075-.23-.53.358-.529-.654-1.42-1.775-1.705-1.158-.241-1.179.467-.825.9-1.126.342-.92-.38-.33.556-.945-.111-2.001-1.23-1.37.78-1.782.222-.773-2.232-1.17-.297-.339.29-.734-.075-1.935-.774-.142 1.256-1.159-.167-.96 1.055-1.264-.04-.242-.297-1.306.453.235.551-.377.094.583.707-.142.452-.58-.226-.256.267-1.531-.071-.2.377-.414-.458-.429.5-2.169-.38-.295-.496-.932-.218-1.262.459-.121-1.722-.692-.287-.299.694-.388-.211-.526.328-.611-.393.05.406-1.419.206-.187 1.034-3.708 1.915-.915.158-1.326-.593-.095.369-.7.087-.258.36-.46.096-.228-.651-.384.439-.261-.376-.795-.003.052.455-.327.043-1.566-.227-.285-1.358-.499-.275-.343-1.032.652-.404 1.76.46.646-.223-.58-.341.005-1.107-.47-1.271-1.072-1.212-3.043.15-.05.663-.942.108-.276.411-.578-.572-.22.238-1.374-.162-2.753 2.098-.787-.244-.3.377-.614-.077-.12.986-.4.3.463.563-.122.401-2.567 2.255.587.903-.606 1.538-2.187-.058-.557 1.39-1.228.643-1.522.035-.315-.331-1.439.17-.943-1.37.85-.104.095-.3-.456-.854.238-.36-.973-1.969-.744.365-1.345-.708-1.297-.097-3.452.33-1.038-.251-.977.386-1.282-.372-1.125.192-.596-.347-.956.24-.037-.453-1.283.081-1.683-.835-.924-1.809-2.505-1.122-1.783.338-3.733-1.228-.105-.625-.661-.144-.122-1.383.383-1.749-.548-.787-.72-.287-.042-.954-.928.11-.541.706-.845.201-.2.546-1.432.175-.878-.49.126-.558-.902-.5 1.335-1.226-.42-.325-.392.133-.12-1.986-.756-.156.254-.375-.521-.726.205-1.287.643-.197.36.68.912.178.253-.789.326.158.498-.717.582.096-.646-.668-.794-.07-.222-.703-.066.582-.413.208-.27-.425-.342.62-.317-.812-.405.038.115-.742-.68.307-.133-.304.516-.735 1.392.578 1.8-2.203 1.912.021.303-1.51 1.22-2.215-.441-1.135-.822.428-.616-.585-.328-.549.469-.266-.773-1.435 1.1-.856 1.947.403.538-.752 1.003-.22.982-.985.746.118.485-.303.001-.358-.816.168.436-.339-.337-.515-.883.216-1.196-.716-.296.32-.566-.804.844-.853.052-.78.634-.676.664-.053.739-.685.53.056.826-.829.288.244.683-.35.975-1.2.542-.129-.516-.915.529-.908-.56-2.427.251-1.081 1.152-1.643-1.798-3.218.397-.354-.186-.49-.395-.333-1.88-.035.496-.599.054-.96 1.144-1.68-.64.094-.024-.513-.609.137-1.078-.484.72-.767-.14-.741.677-.246-.107-.456.541-.614-.672-.283.386-1.898 1.504 2.468.805-.09.31-.71.606-.134-.104-.779h.432l-.212-.763-1.449.157-.94-.456-.155.36.113-1.067-.52-1.326.366-.807.336.658.281-.225.455.376.114.644 1.983.574.208-.4 1.005-.125-.05-1.345.783-.463-.085-.949 2.998.047.096.312-.524.328.298.765-.38 1.105-.61-1.345-.154.261.43.683-.509.59.801.356.237-.31 1.58-.1-.115.508-1.79.89-.431-.706-.83-.1.363-.643-.426.1-.245-.352-.11.453.813.83-.732.48-.336.735.505.804.81-.181 2.968.694 2.091-.518.506.603 2.352-1.343 1.273.613-.187 1.027.348.324-.332.698.164.31.404-.302.867.728-.174.34.297.329-.546.417.333.302-.045.637-.993.653-.902-.987-.683.821.106.335-.457.071.178 1.006.437.653.741.127.252 1-.858.447-.482 1.423.527.01.214.512.743-.028-.032.629-.871.234-.283 1.122-.991.505-.502-1.127-.554.59-.818.138-.272-.539-.846-.455-.797 1.19-.133 1.048 1.673 1.063.25.322-.323.272.426.446 1.114-.027.525.721.048-1.024.49.004.18-.684-.498-.33.068-.471.762.245.439.631.276-.357 1.068-.372.29.193 1.562-.845-.25-1.617 1.394-.88 1.411-.343-.215-1.77.533-.83-.184-.728.683-.81.333.36-.186.459.337 1.191 1.08.02.71-.665 1.407.81.148-.343.476.178.269-.255.989 1.19.776-.302-.224-.352.508-.51-.15-.345.417.13.038-.362 1.232-.39.153.635-.455.97.433.386.867-.012.74.906.883-.325.707.137.26-1.009.456-.307-1.13-1.136-.547-1.185.18-2.288-.591-1.146.83-.264.215.423.535-.32.029.98.815.472.581-.3.49-.893.295.04.231-.762-.084-1.275-.527-1.204-.88-.366-.325-.594-.68.329-1-.063-.734-1.223.483-.36 1.526-.168.36-.406-.564-.265.113-.508-.477-.051-.593-1.598 2.241-1.228 1.343.388.599-.197.886-.787 1.49-.098.653.625 1.538-.52-.125-1.321.439-.086-.187-.587-.912-.804.356-.856-.57-.095.402-1.546-.902-.414-.359.227-1.008.887-.243 1.096-2.085-.5-.825.683-1.052.07-.272.385-.782-.832-.808-.143-1.172.324-.053-.425-1.379-.164-1.262-.77-.218-.75-.397-.194-.707-1.549-.153-2.533-.532-.393.075-.41.776-.28-.021-1.136 1.02-1.353.544.059.314-.675 1.403.112.467-.347-.105-.35.81-.2.546-1.036-.158-.325.922-1.134 1.58-.695.784-.882.915-.16.52-.839 1.272.01 1.396-1.036.72-1.1 1.572-.138-.076-.748 1.53-.143 2.329-1.667.743.073.489-.732 1.104-.17.119-.806.949-.365.244-.75.857-.05.713-.673 1.504.35.054-.985.434-.295-.261-.76 1.226.1-.244-.637.786-.162ZM243.444 49.932l1.951.012.152.944-1.085.087-1.429 1.023-.266-.367-.532.113.376.456-.726-.109.779-1.932.78-.227Zm-46.12-30.06 2.13.863.282 1.208.669.504.844-.033.687.628 2.2-.198.35-.524.478-.08-.015-.385.804-.242 3.492.091.143-.47.885-.084.399.354.707-.292.278.436.86-.571.117.21 1.735-.684.186 2.244.304.13-.08.465.419-.002.007.41-.706.316-.752 2.764-.706.47.362.082.669-.53.828.194.377.569.59-.07.245.383.026-.343.616.43.325.74 1.111-1.84.369-.308.565.093.081-.604.501-.07 2.334 1.242.828.21.861-.273.593.716 1.938-1.071.461.584-.688-.004-.436 1.508 2.326.398.11-.658.488-.246.93-1.549.423-1.316-.915-1.003 1.182-1.084-.56-.065.192-.337-.442-.15.456-.638-.201-.851-.888-.547.253-.757.848-.36.265-.744 1.107 1.361 2.774.68 1.172 1.73 1.297.758.081-.377.989-.304.522.738.742.007.2.398.879.232.089.486 1.152.31-.117 1.237 1.203-.18.67 1.015 2.014.202.971.725.269.898-.585 1.408.519.726 1.036.085-.017-.82 1.041-.389.147-.738 1.083.327.443 2.419 1.443.484.289.441 1.183-.014-.012.548.449.376-.196 1.07.375.623-1.64 1.085-2.88-.05-1.399.69-2.135 1.672-1.429 1.62-1.122 2.1.014.951 2.359 5.412-.202.637-1.224-.218-.862.441-.87 2.158.753.098-.386-.444.515-.114.266.367 1.429-1.023 1.063.264.726-.242-4.193 2.963-.884 2.232.809.226.018.781-1.622 1.405-2.033.908-2.283 2.953-.366 1.006-.751-.155-.832-1.268-.686.133-.18.446.938.043 1.114 1.201-11.266 3.644-4.471 2.256-3.944 2.744-1.215 1.35-2.446 1.775-1.429 1.457-1.009 1.726-.674-.414-.405-.4.133-.535-.596-.094-.062.59-1.115-.034.45.8.553-.077.005.486-.672-.043-.402.707-.347-.88-1.233.746-.285.67-.91-.551.41.793-.402.487.222.412-.508.465-.523-.171.36.313-.583-.093.324.27-.147.272-.424-.264-.061 1.26-2.909.275-.456.463-.662.06-.88-.97-1.404.094-1.119-.368-1.337-3.207-.763.506.651 1.194-.551-.176-.643-1.132.28-.45-.421-.08-1.186-2.317-.466.563.163.543-.413.648-.52-.406-.242 1.157-.577-.096-.03-.265.323.033-.133-.675-.189.197-.328-.417-.223.137.299.819-.054.353-.419.012.112.911-.75-.853-1.006-.232-.66.34.381 1.23.27-.678.555.57-.54-.06 1.04 1.14-.242.483-.601-.022-.042.538-1.234.177-.216.55-.751-.148-.231.842-.053-.444-1.106-.51-1.318 1.995-.634.255-.056.852.739.034-.436.312.09.337.914.168-1.189 1.575.355.429.335-.17-.079.904-.583-.154-1.359.557-.656-.26-.116-.773-.638.05-.736-.498-.368.332.274.416-.422 1.074-1.741.75-.513.973-.742-.696-.069-.618.56-.667-.173-.373-1.051-.351.299-.81-.38.056-.113-1.172-.385.037-.405-.592-1.812 2.138.372.687-.804.874.942.18-.34.544-.562.132-.065.849-.43.337.95.941-.123.245-.389-.29-.058 1.712-.39.045-.123-.406-.497.23.004 1.04-.411.112-1.034-.519-.274-.555-2.182-.24L164.352 97l-2.423.94-.688.718-.886.54-.24-.397-.405.132-.835 1.033-.682-.21-1.408.42-.35-.366-1.198.304.143-1.318.699.154.644-1.579-.055-.982.559-1.073.224-1.09-.286-.446.372-1.266 1.053-.71 1.049-.165-.009-.474 1.395-.102.277-1.11 1.541-1.712.625-.26.19-.602.616.086.123-.465-1.064-.578-.048-.495.997.363.326-1.041 1.062-.475.721.112.046-.737.767-.03.515-.562.187-1.761 1.074-.256-.233-1.758-.498-.772.29-.512-.199-.456-.643-.152.306-.547-.435-1.803.505-.918-.68-.714.411-.069.268-.875-1.025-.106-.438-1.456-1.12.136.382-.624-.138-2.803.358-1.343-1.281-.215-.318-1.001-1.78-.906-.199-.714.47-1.461 1.203-1.126 1.336 1.568.539-.678 1.938 1.221.839-.34 1.75 2.856.794-.88.861-.36 2.43.654-.358.716.222.872.976-.923.916-.096.238-.675-.272-.382.112-1.647-1.218-.168-.537.245-3.337-1.257-.192-1.446.558-.981-.137-1.043.389-.331-.571-.895.569-1.538-.307-.81-.353.354-.122-.977-.908-.752.71-1.198-.532-2.295.184-2.142.881.366.227.615.7.045.428-1.36 1.081-.65 1.116-1.628-.209-.591.573-.525-.145-.816 1.87-.176.588.35.381-.33 1.073.163 1.235-.453 1.36.97 1.274.305 1.13-.59.455-2.136.904-.437-.33-.458.256-1.074 1.684.601.448-.145-.143-.876-.699-.764-.252-.884.742-2.013.973-.628.185.757.512-.35-1.042-.849 1.036-1.144-.272-.708.381-.548.733.355-.085-.654.856-.202-.208-.486.466-.67-.758-.368-.293-.54.051-1.583.997-.175-.662-.66 1.393-2.084.76-.36.961.045 1.741-1.743 2.302-.413.601-1.666-1.053-.659.064-.342.354.02ZM130.572 215.418l-.609-.005-.07-.867-1.32-.489-.374-.884.674.138-.219-.71.828.321.29-.307.854.166-.054 2.637Zm-.817-16.192-.3-.52-.476.258-.038-.589-.739.363-.72-.446.383-.637.523.485.153-.271-.303-.606-.448-.128.336-.579-.879-.232.557-.538.431.683.464-.276.288.242-.593.196.341.983.981-.92.639.376-.6 2.156Zm39.512-80.444-1.334-.584.692-.443.044.557.97-.074.209-.338.093.478-.001.006-.812.074.139.324Z" fill="#EBF0EE"/>
      <path d="m35.942-117.15.006 1.365-1.155 1.373-.059 1.418 10.096.493-.225.657.46.094.32.682-1.42 1.439.109.802.866.049.977-.5.302.287-.625 3.484.77.669-.571 1.258-.58-.146-.221.312.035.451.426.116.627 1.037-.016.621.74-.053.135-.755 1.712.3 1.358-.882 1.384.723.417 1.517.61.187.786-.283.613 1.002.485.105 1.154-.768.7.617 1.54-1.071-.07 1.053.488.18.205-.522.606-.134.08 1.338-.636.847.564.26-.25 1.063.798.102.071.88 1.229.106.087.647-.796.898.745 1.636-.238.893.488.682.431 2.472 1.003.226.177 1.023 2.398 1.607-.127.909 1.912.254.533.45.519.914 1.03.682-.121.712.673.317-.128.387.769.865-.448.194.02-.422-.62-.09-1.473 1.436.739.241.04.534.5-.69.321.27-.487.352.076.322-.644.104.33.376-.549.166.49.296-.381.864-.397-.257-.24.327.085.294.78.136-.23.806 1.393.305.617-.372 1.365 1.102.81-.605-.486-.415.089-.635-.518-.29.21-1.045-.394-.474.947-.592-.588-.5 1.187-.21.496.217.245.597.709-.183.214-.69-.92-.487.936-.497-1.23-.912.913.026.657.712 1.515-.302.432.872-.593-.096-.198.34.788.514-.705.274 1.362.19-.004 1.242.977-.712.982-.166-.142-1.408 2.255-1.096.159-.985.79-.273 1.79 1.498-.695 2.651.008 1.318.317.105-.195 1.533-.368.029-.317 1.838.49.543-.54.026.348.737.508-.298.584.324.37-1.527 1.378.06-.191-.458-.75-.26.283-.757 1.418.787.401-.278-.013-.429.483.125-.192.43.404-.67.61.653.494-.547.214.172.455.335-.104 1.252.626.406.093.78-.5.745.625.33-.317.402.076.74.76.244.225.698.534.284-.232.66.27.472 1.05.32 1.243.984.636-.3-.361.77.845 1.11-.075.388.538.303-.296.446-.796.127-.23.815-1.486.501.37.502.712-.194-.133.739 1.126.383.738-.647.487.92.3-.001.068-.56.459.158-.3.62-1.406.258-3.642 1.914.27.858-.17.878.573.01-.257.408.724-.362-.199-.373.274-1.077.364.464 1.349-.193 1.79-.87.05-.628.554-.382 2.198.865.158-.629.676.444 1.041-.194.246.892.415-.25-.09-.728.953.187.159-.865 1.51.257.171-.27.744.546-.573.732-.57-.107.301.941-.786.162.244.636-1.227-.099.262.76-.434.295-.054.986-1.504-.351-.713.672-.857.05-.245.75-.948.366-.12.805-1.103.17-.489.733-.743-.073-2.33 1.667-1.53.143.077.748-1.573.138-.719 1.1-1.396 1.036-1.271-.01-.52.84-.916.159-.784.882-1.58.695-.922 1.134.158.325-.546 1.036-.81.2.105.35-.468.347-1.402-.112-.314.674-.545-.059-1.02 1.354.022 1.136-.776.28-.075.41.532.393.153 2.533.707 1.549.396.193.219.752 1.262.769 1.379.164.053.425 1.172-.324.808.143.782.832.272-.386 1.052-.069.825-.682 2.085.5.243-1.097 1.008-.887.359-.227.902.414-.401 1.546.569.095-.357.856.913.804.187.587-.439.086.125 1.322-1.538.518-.652-.624-1.49.098-.887.787-.599.197-1.343-.388-2.24 1.228.592 1.598.477.051-.113.508.563.265-.36.406-1.525.169-.483.359.735 1.223.998.063.68-.329.326.594.88.366.527 1.204.084 1.275-.23.762-.296-.04-.49.893-.581.3-.815-.472-.029-.98-.535.32-.215-.423-.83.264.59 1.146-.179 2.288.547 1.185 1.13 1.136-.456.307-.26 1.009-.707-.138-.882.326-.742-.906-.866.012-.433-.386.455-.97-.153-.635-1.232.39-.038.362-.417-.13.15.344-.508.51.224.353-.776.302-.989-1.19-.269.255-.476-.178-.148.343-1.408-.81-.71.665-1.08-.02-.336-1.192.186-.458-.333-.36-.683.81.184.728-.533.83.215 1.77-1.411.344-1.395.88.251 1.616-1.563.845-.289-.193-1.068.372-.276.357-.439-.631-.762-.245-.068.47.498.331-.18.684-.49-.004-.048 1.024-.525-.721-1.114.027-.425-.446.323-.272-.25-.323-1.674-1.063.133-1.047.797-1.19.846.455.272.539.818-.139.553-.59.503 1.128.99-.505.283-1.122.872-.234.032-.629-.743.028-.214-.511-.527-.011.482-1.423.858-.447-.252-1-.741-.127-.437-.653-.178-1.006.457-.071-.106-.335.683-.821.902.987.993-.653.045-.637-.334-.302.547-.418-.297-.329.174-.339-.868-.728-.403.303-.164-.311.332-.698-.348-.324.186-1.027-1.272-.614-2.352 1.344-.506-.603-2.09.517-2.97-.693-.809.18-.505-.803.336-.736.732-.48-.814-.83.11-.452.246.351.426-.1-.362.644.829.1.43.706 1.791-.89.114-.508-1.579.1-.236.31-.802-.356.509-.59-.43-.683L57-23l.611 1.344.38-1.105-.298-.765.524-.328-.096-.312-2.998-.047.084.949-.782.463.05 1.345-1.005.125-.208.4-1.983-.574-.114-.644-.455-.376-.281.225-.336-.658-.366.807.52 1.326-.113 1.066.156-.359.94.456 1.448-.157.212.762-.432.001.104.779-.606.134-.31.71-.805.09-1.504-2.468-.386 1.898.672.282-.54.615.106.456-.678.246.142.741-.72.767 1.077.484.61-.137.022.513.64-.095-1.143 1.68-.054.961-.496.599 1.88.034.395.334.186.49-.397.354 1.798 3.217L51.3-4.728l-.252 1.08.56 2.428-.528.908.516.915-.542.13-.974 1.199-.684.35-.288-.244-.826.83-.53-.057-.739.685-.664.053-.634.676-.052.78-.844.852.566.805.296-.32 1.196.716.883-.217.337.516-.436.339.816-.168-.001.358-.485.302-.746-.117-.982.984-1.003.221-.538.752-1.947-.403-1.1.856-.647-.561.091-.411L40.44 8.3l-.619-.066-.394.691-.9-.462.108-1.575-.516-.458-.92-.006-.19-.63-.673-.093-.318-.687-.382.063-.135.558-.717.076-1-1.908-.788.211-.295-.417-.621.8-.353-.752-.82.267-.328-.208.412-.9-.342-.767.38-1.305-1.343-.565-1.025.672-.08-1.51-.47-.098-.946-1.227-.716.22-.213-.362-.01-1.3 1.007-1.21-.316-1.04.14-1.058-.709-.647.062-.703-.616.229-.044.725-.666.81-.727.292-.754-.713.4-.818-1.763-.707-.506-.812 1-2.153.574.11.199-.737.29.165.329-.535-.329-.188-.66.434-1.366-.768.375-.56-.224-1.201-.697.518-.615-.3-.2.206-.596 1.525.453.347-1.087.66-.897-.693-2.18.08-.628-1.018.06-.666-1.748-.268-.706-.604-.708.994.115.709-.692.048-.45-.937.093-.768-.836.096-.524-.943-1.01.247-.709-.733.454-.348.752.23.447-.549-.623.163-1.368-.422-.31.357-.728-.034-1.295-.672.006-.78-.527-.154-1.742 1.39-.387-.713-.701-.138-.291 1.248-.75-.31-.205-.856-2.21.655-.723-.658-2.063-.056-1.692.917-.516-.554-.856.801-3.065-1.284-2.6-4.468-.822-3.695-2.056-2.135-.358-.99-1.126-1.21.22-2.264-.352-3.188-.787-.167-1.3.53-2.195.23-1.93-.665-2.952-4.315-.217-2.303 1.448-3.048.182-4.312-.26-1.142-1.633-.868-3.005.327-1.029-.199-1.503-1.102-3.445-1.693-.385-1.034.474-3.775 1.044-2.668 4.564-4.267 1.195-1.789 1.287-.972 1.471-3.804.79-1.215 3.365-3.15 1.89-.467 1.269.257 1.76 1.91.102 1.36 1.274 2.201 2.035.34 6.251-2.593 2.2-.431 3.996-.058 3.845-1.6.577-3.069 1.007-1.45 3.032-2.743 1.89-5.58 1.33-1.807 5.251-3.122 3.706-1.685.938-2.197 1.434-1.864 2.928-5.648 1.93-7.014 3.535-1.56 2.83-.812 2.88-2.378ZM93.567 91.97l.273-.447-.762-.526.574-1.154-.471-.16.953-.305-.627-.302.487-.343.395.161-.06-1.235.828-.086.14.428 1.27-.464-.058-2.043.397-.525.464.388.82-2.08 1.69-.25-.98-1.456-.66-.046.212-.692-.66.048.072-.556-.8.016-.16-.797.068-.565.571.18.088-.855.731.2-.274-.77.44-.762-.191-.274.335-.986.617-.203-.705-.285-.017-.305 1.416-.663 1.557 1.192.087.492.5-.22 1.412.312.435-1.615-.24-1.354 2.037-.757-.479-1.724.516-.23-.003-.55-.664-1 .259-.45.956-.405.361-1.145-.462-.987-.721-.176.408-1.12.269.549.77.067.217.727 1.263.34.286.395.52-.484 1.244.07 1.814.861 1.1-.203.977.346.212 1.73.919-.193.851.314.187 1.088-.418.564.616-.173.41.374 1.359.203 1.205 1.14.726-.12-.259-.405.479-.595.117-1.453.98.38.151.417.881-.096 1.63 1.25 1.162-.866.158.482.733.276.67-1.207 1.617-.477.726.162.688.96 1.8 1.228.528 1.075-.18 1.752-.669 1.202.37.944-1.369 1.124.025 1.174.908-.215.296.434.072 2.749-.723.474.611.783 1.292.298 1.583 1.527.76-.334.496.344.208-.37 1.056-.344 1.195 2.217 2.277-.702 2.4 1.84.291.785.773.61-.127.28.572.175-.165.439.455 1.358.7.81-.882.592.021.792 1.019.091.509-1.14.61.451-.311.162.222 1.092 1.796-.596-.477 1.464 1.422 4.89.662.057 1.382-1.113 1.519.68 2.105.092 1.198-.303.349.366 1.408-.42.683.21.834-1.032.406-.132.239.396.886-.54.555.685-.167.345-3.309 1.775-.087.641-1.097 1.642.333.338-.358.508-.128 1.516-1.252 1.46-.704.073-.758-.558-.925 1.181-1.376-.038-.302 1.5-1.869.313-.89.571-1.381-.361.128.925-.691-.007-.185 1.595-.424.421-1.716-.65-1.385.158.274-.545-1.552-.84-1.03.504-.223.962-.579.556-.413-.13-.409-.882-.451.351.349.71-.491.725 2.084.888.057-.513 1.493.362.041.878-.35.081-.167.738.796.618-.664.415-1.711-.452-.061-.423-.851-.574-.43.645-.23-.731-.633-.268-.288-1.417-.63-.914-.98-.042-.308-.532-.776.996-1.414.334-.584.969-.288.735.666.18.589.648-.35 1.142-1.444 1.718-.902.071-.646-1.007-.83.129-.569-.651-2.04 1.125-2.425.526-1.136.8-2.58.35-.656.887-.107 4.47-.676.375-2.343-.476-1.695.721-.322.34.081 1.275-.608-.083-.157-.713-.403-.061-.022 1.153-.989 1.06-.986-.05-1.554-1.201-.932.707-2.467-.409-1.438.861-.958-.036-.3 1.698-.932.475-.247.854-.625.001-.261.362-.738-.289-.441-.955-.553.712-1.836-.61-1.422.508-1.337-.353-.919.168-.845-.585-1.56-.151.012-1.352-.311-.471.3-1.212-.366-.204-.049-.711.436-1.077-.353-.017-.02-.423.22-.3.523.086.502-.582.407.18.021-.844-1.561-.637-1.331.218-1.106-.283-.937-.387-.797-1.083.914-.093.075-.297 1.12.122.206-.442.582-.119-.383-.789 1.169-.317.084-1.045-.586.155-.263-.42.778-.258.03-.562-.698-.042.227-1.144.54.067-.285-2.168.74-1.641-.592-1.616-1.65-.961.624-.788-.297-.184 1.192-.939-.329-.207.283-1.375.764.274.465-.301.12-.535-.408-.388 1.004-.038.01-.413.602.167.005-.43.474-.102.198-.456-.075.369.578.14.026-.549-1.51-.453-.03-.504-.666.223-.338-.398-.415.542-.187-.426-.805-.254.168-1.841 1.796-.935.063-.286-.989-.309.103-.316.243-.426.381.147.37-.92.386.04-.185-.633.504.09.116-.921.326.19.15-.385-.116-.4-.866-.285-.748-.733.882-.767-.046-.88-.537-.818.622-1.304-.854-.224Z" fill="#EBF0EE"/>
    </g>
    <g opacity=".6">
      <mask id="b" style="mask-type:alpha" maskUnits="userSpaceOnUse" x="-277" y="-224" width="600" height="600">
        <path stroke="#000" stroke-width="2" d="M23-224v600M-188.293-136.707l424.264 424.264M-277 75h600M-189.707 287.557l424.264-424.264M-90.912-201.188l229.61 554.328M-253.64-39.299l554.328 229.61M-254.578 190.24 299.75-39.37M-92.588 353.212l229.611-554.328"/>
      </mask>
      <g mask="url(#b)">
        <path d="M-362-316h784v784h-784v-784Z" fill="url(#c)" fill-opacity=".7"/>
      </g>
    </g>
  </g>
  <defs>
    <radialGradient id="c" cx="0" cy="0" r="1" gradientUnits="userSpaceOnUse" gradientTransform="matrix(0 392 -392 0 30 76)">
      <stop offset=".211" stop-color="#E9B840"/>
      <stop offset=".618" stop-color="#E9B840" stop-opacity="0"/>
    </radialGradient>
    <clipPath id="a">
      <path fill="#fff" d="M0 0h160v160H0z"/>
    </clipPath>
  </defs>
</svg>
