<svg width="160" height="160" fill="none" xmlns="http://www.w3.org/2000/svg">
  <g clip-path="url(#a)">
    <g style="mix-blend-mode:multiply">
      <rect x="-.333" width="160" height="160" rx="2" fill="#E7D7B0"/>
    </g>
    <g style="mix-blend-mode:multiply">
      <path d="m35.368 155.83-.002.008.002-.008Zm.661-.039-.394 2.499-.763-1.083-.016-.805 1.173-.611Zm-.66.039-.124-.629-.276.445-1.279.098-.058-.734-.913.583 1.76.769-.024 1.042.46.141.672 1.505-7.749 3.783-4.754 1.863-3.806-1.072-3.146.371-2.705 1.339-2.633 5.753.1.972-2.947 3.111-.276.467.389.873-.96.838-3.071.412-.878-1.475.265-.782.378.006-.119-.582-2.515-.875-3.17.608-2.257 1.075-1.938 1.273-1.479 1.646-1.467 4.511-2.151 3.399-1.09 5.06 1.415 7.53 1.785 3.123-1.467 10.116 2.44 6.543-.177 3.891 1.673 4.457-3.058-5.535-.572-.257-.117 1.916-.626-.625.36-.618-.406-.078-1.185 1.857 2.346 2.132 1.59.036 1.602 1.415v1.146l-.765-.426-.969-1.896-1.66-.044-1.753-1.27-1.598.172-.084.423.903.179.07.375-.64-.071-.222.612-.712.177.03.721-.653.293.447.653-.595.824-1.576.703-1.08-.019-.434.481-.546-.448-.696.66 1.35 1.053-.86.617-.456-.581-.724.312.155-.572-.482.096-.101-1.133-1.873.789-.669-.47-.274-.949-2.268-.271-1.151.444 1.07.469-.301 1.495.536-.382.2.282-.507.178.046.455-1.613.526.144.719-.989.709-.86-.957-1.04.123-.002.683-.623.416-.768 1.669-1.774-.147-1.898-1.346-1.383.189-.444.705.662.356-.907-.024-.125-1.434-2.758.88-.924-.231-.185 1.117-.905-.292-.794.842.7 1.291-.445-.004-.928 3.2-.772.579.044 1.258-.493.127-.178-.515-.116.038-.363-.037-.103.866-.656.022.042.966-1.936.121-1.652-.886-.552-.839-1.582.228.792-.73-.139-.807.434-2.044 1.315.005.898-1.745.698.709 1.22-.118-.28-1.466.749.115-.135-1.472 1.125-.458-.057-.624.552-.339-.407-.481 1.28-.796-.597-.663.588-.367.187-1.249-.463-.807-.739.947-1.04-1.13-.76.206-.244-.448-.704.333-.515-.354.645-.266-.896-.491.756-4.822-3.46-.196-.942.666.227-1.293-.71-.156-.1-.547-1.591.289-.476-.685.122-.459.876.082.085-.559-.518-.504.706-.941-.1-1.384-1.536-.992-.07.734-1.117-.191-.411.899-.45.005-.045-1.306.755-.284-.246-1.239-1.164 1.155-.521-.736-1.458-.08-.253.57.453 1.04-1.096.534.051.499-1.392.484-.087 1.249-.28-.62-.675.198.138-.547-.448.036-.82.442.558.438-.328.17-.545-.351-.839.587-.772-.593-.156 1.259-.529-.457-.093.587-.704.085.163-2.626-1.035-.047.337-.777-1.38-.229-.837.432-.278-.683-1.198.386-.352-1.201-.474.726-.14-.428-.554.462-.037-1.247-.447.381.139.928-.82.164.814.621.092 1.429-1.513-.134-.747.477-.715-.706-.317.838-.4-.212-.513-1.555 1.036-1.71.509-.088-.115-.61-2.223-2.105.931-.922-1.018-1.343-.919-.083.164-.606.967-.15.1-.507 1.658.358-.244 1.619.326.972 2.066.241.556 1.095 3.525-.719.854.92-.115 1.858.892-.024.03.386.754-.636-.418-.582.486-.707-1.166-.008.164-.828-1.213-.338 1.47-1.746-.122-.327-.959.488.068-.613.614-.114.276-.774 2.348.31-.088-2.62-.882-.009-.262-.815-1.203-.329-.226.645.863 1.806-.677.437-.602-.829.082-.852-1.689-.148.034-1.194-1.044.435-1.692-.579-.853 1.091-.145 1.611-.632.085-.545-.655-2.37-.012-.275-.696.535-.474-1.506-1.137.085-.951.635-.506.604.305.047-.99.628-.721-2.189.214-.904-1.187-.591-.101-.84-1.614.804-2.883-.376-.972 1.451-.537.334-3.482-.775.283-1.36-.41.44-1.018-.218-1.192.481-.422 1.692 1.352 2.23.4.4-.419.98.008-.125.518.803.118 1.594-2.625-.465-.483.543-.137.01-.977-.79-.598.918-.825-.344-.579-.69-.091-.12-.817-1.021.119-.725-2.472-1.209-1.216.033-.336 1.16.138.057-2.921 1.106-.416.738.607.186-.741-1.733-1.648.438-1.937-.882-.189.927-1.477 1.644-.904 2.237-.375 5.526.808 2.056.199 1.116.77 1.213-.22 1.762.465 1.878-.669 2.422.802.73-.937.58 1.258.974.38.344-.476.824-.001.325-1.126 1.23-.625.395-2.236 1.264.047 1.898-1.134 3.255.538 1.228-.931 2.05 1.581 1.302.066 1.304-1.396.028-1.519.532.08.207.94.803.109-.107-1.679.426-.447 2.236-.95 3.09.626.893-.492.14-5.887.865-1.168 3.403-.461 1.498-1.054 3.2-.692 2.69-1.483.75.858 1.095-.17.853 1.327 1.19-.093 1.903-2.264.462-1.503-.776-.854-.878-.236.38-.968.77-1.276 1.866-.441 1.024-1.311.405.699 1.292.056.83 1.203.38 1.867.836.352.304.964.567-.849 1.122.756.081.556 2.258.596.875-.547-1.05-.813.22-.973.462-.107-.054-1.156-1.97-.477-.074.676-2.748-1.17.646-.954-.46-.935.595-.462.54 1.159.545.172.763-.732.295-1.267 1.359-.663 2.047 1.107-.362.717 1.827-.208 2.264.856.56-.554.242-2.1.912.008-.169-1.217 1.822.475 1.172-.751 2.467-.413.398-1.975 1.816.05 1.22-1.556.999.737.93-.098 1.649-1.921.17-1.998.471-.669-.44-.444 1.447-2.163.115-.844 4.364-2.338.221-.455-.731-.903.906-.945 3.197-1.238 1.547-1.454 2.878.316.361.731 1.364.682.542-.148-.006-1.368.657-.303.162.534.515-.058.076-2.257.513.384.162-.323-1.253-1.239.567-.445.086-1.117.742-.175.448-.716-1.243-.237 1.061-1.151-.491-.905 2.391-2.815.533.779.509-.048.149 1.543.5-.074-.394 1.067 1.386.462.23.492-.74.878.092.814.978.916.677-1.282 2.297-.986.556-1.414-.362-.549.486-.437.971.656.842-.066.153 1.017.866.344 1.792-.734.77.203.103-1.192-.442.225-.468-.565 1.568-2.074-1.206-.222-.118-.444.575-.411-.975-.043.075-1.123.836-.336 1.738-2.627 1.459.671.07.585.304-1.109.991.196.285-.725 1.628-.233.055-.708.794.028.318-.637-1.372-1.501.712.08-.731-.751-.356.892-.503-1.618.87-.449 1.327.306.99 1.124-.148-1.201.554-.015.07-.465-.394-1.079.294-.18.433.549.25-.26.174.89-.426-.045.04.35.761.126.32-1.523.686.535.544-.854-.215-.716.615-.741 1.564 3.053.556.103-.37.593.85 1.491.726.232-.86-1.572 1.008-.666 1.763 4.223 1.476.485 1.851-.124 1.162 1.277.873-.078.602-.611 3.837-.361.08-1.661.56.349.193-.359-.426-.355.768.122-.474-.413.69.226.67-.613-.293-.542.53-.641-.54-1.045 1.2.727.376-.883 1.627-.982.457 1.159.53-.931.887.056-.007-.64-.73.101-.593-1.054 1.471.045.081-.777.786.125-.175.703.534.527.89.546-3.778 4.338-.612 1.859-1.868 1.764-2.328 3.472-4.89 4.551-.022.936-8.597 4.329-3.111 2.115-.913 1.523-2.533 2.334v.737l-1.392 1.882-2.78 2.963-12.85 6.497-5.075 3.907-1.501 1.889-.548 2.021-.484.232.153.964 1.179 1.02.902-.25-.242 2.496-.915.516v-.001Z" fill="#EBF0EE"/>
      <path d="m57.09-10.114 2.159.406.472.95 1.255.33.765 2.992.707.319-.317.493 2.847.973.72 1.516-.31 1.66 1.275 1.907 3.402.837.056-1.364 1.466-.227.332 2.021-1.127 2.04-.079 1.7.864.651.782-.486.57 1.01L72.153 12l2.031 1.302.393 2.689.89-1.368.576 1.08 1.153-.283.152.63 1.95-.315.392.83-.406 1.696-.856.113-.938 2.195-.66.009-.61.635-.102 1.51-1.5.787-1.474-.048-1.599 1.526-.053 1.11-.476-.027-.085.451 1.39.868-.793 2.194-3.037.544-2.296 2.296-1.268-.061-1.003.475-1.837 2.743.874.87-1.314.231-.07 2.085.387.71 1 .484-.614.884.275.64-1.13.264.113.862-.967-.467-.504.72.36.934-1.367 1.507 1.375 1.118-.674.46-.245-.997-1.283.827-.978 2.651.331 1.166.923 1.006.189 1.153-.591.192-2.222-.793-.338 1.415.434.604-1.193.575-.598 2.812-1.491.778-1.681-.403-1.794-1.276-1.628.596-1.417-.214-.501.434-.775-.462-2.468.234.193 1.072-.757.692.274.779-1.47 2.144-1.428.855-.565 1.793-.923-.06-.3-.809-1.162-.482-.244 2.821.703 3.023-.938 1.578 1.198.989.161 1.287.466-.466.406 1.066-.751 2.026.752 1.178-.512.436.18 1.374-.735 1.293.253 1.903 4.4 1.656.71-.323 1.606.22-.148 2.169.36.503-.313.89-1.21.126-1.286 1.215-.293-1.148.472-.942-3.206-.861-1.136.475-1.046 1.158-2.309-3.76-1.106.448-2.558-1.608-.71.892-1.762-2.065-1.587 1.483-.62 1.924.261.94 2.349 1.192.42 1.32 1.69.282-.473 1.77.182 3.692-.503.82 1.478-.178.578 1.917 1.352.14-.355 1.152-.54.09.897.941-.667 1.208.574 2.376-.404.72.849.2.262.6-.382.675.658 1.016.306 2.316-1.417.336-.246 2.319-.68.74-1.011.041-.06.971-.952-.15-1.401.627-.43 1.372-1.316-.478.064.652 1.403.761-.162.611-.811-.113-.25.795-.826.34-2.032 2.256-.365 1.462-1.842.135.013.624-1.385.218-1.388.934-.492 1.667.378.587-.296 1.436-.737 1.413.072 1.294-.85 2.079-.92-.203-.188 1.736-2.778-.123-2.003-.894-1.824 1.466-.872-.076-1.877-6.44.63-1.928-2.369.784-.293-1.437.41-.213-.805-.595-.672 1.503-1.343-.121-.028-1.043 1.164-.78-.924-1.067-.6-1.788.217-.578-.754-.23.168-.369-1.02-.804-.385-1.033-3.165-2.424-3.004.925-1.576-2.92-.539-.928.73-.114 1.526-1.313-1.714-2.331v-1.302l1.155-1.947.058-1.483 1.31-1.058-.07-1.117 1.139-.488.818-1.65 1.957-1.467.897 2.09 1.31-.431.354.958 1.287-.073 2.031-1.652-1.21-1.467 2.208-.87-.275-1.191-.715-.226-.376-.747-1.299-.126-.963-.895-1.361-.087.19-1.786-2.676-1.84.06-1-1.555-.12.19 1.169-.545-.458-1.225-.037.06-.486.724.134 1.397-1.308-.315-.674-1.59-.157-.03-.594.794-.452.78.557.846-.069.534-1.26.013-1.758-.122-.989-.9-.65-2.21-.116-.165-.42.593-.615-.658-1.154 2.712-.626.663-.835 1.606-.602-.674-1.39.77-4.677-1.166-.192-1.175.614-.644-.719.552-.844 1.539-.652-.734-1.838-.078-3.793-1.83.04-.676-1.745.502-.61-.298-1.363.508-1.709 3.776-1.744.798-1.086-.347-.734 1.562-3.192-.444-2.595.196-2.83.519-1.045 1.447.237.435-1.299.103-2.966-.384-.48.58-.093 1.38-3.591.842.14.273 1.24.757-.071.098-.804-.698-.403.954-.41.077-2.193 1.384-.398.618-1.084-.08-3.337 1.486-1.117.812.877 1.211-1.089.604.404.402-.97 1.185.433.378 1.457.59-.864.501.271-.212-.605.887.015.832-1.064 2.052.023.165-.576.533-.107.166-1.436 1.072-.402.337-.606.373.642.471-.355-.342-1.434.799-.916-.497-1.544.18-.895 1.846-.397.077-.551 1.702-.963-.462-1.916.417-.842 1.824-.053.913-.84 1.034.299.746-.87-.182-1.966.997-1.303-.076-.936-1.02-.835-.571.138-.262-.959-1.12.454-.662-.23.032-.815-.847.238-1.267-2.73-1.892.477-.478-.792-1.455-.496-.911 1.012-.818-.19-.559.947-.448-.38-.029-1-.607-.102-.156-.773.7-.262.223-1.4.634.015.937-1.403-.28-.75-.73-.393-.194-1.373-.68-.527.256-1.226 1.083-.428 1.302 1.533-.083.427 1.348.657 1.491-.286 1.348-1.12.726.463 1.061-.237.948.98 2.481.014.88-.76-.097.484.57.576.618-.345 1.547.42 2.795-.178 1.193.624.6-.228-.364-.688 1.243.028 1.402-.774.095-1.182 1.942-.332 1.266-.939 2.78 2.007 3.136-.053 2.182-.988.563-1.572 1.273-.78.275-1.145.732-.655Z" fill="#EBF0EE"/>
      <path d="m60.794-19.943 4.635.51 3.21-.645 1.283-.348 1.352-2.086 1.156.597 1.338 3.027.64-.541.128-.821.705.691-.136-.849.327-.189.62.466.371-.416.47.518.487-.49-.23-.285.504-.04.708 1.463-.683.509-.021.69.79.455-.326.179.442.638.982.142.856.706-.109.642.787-.168.829 1.19.677-1.21-.084-.85.938-.178.141-.656 1.82.431.44-1.447L88.308-20l.79.416.04 1.363.97-.237.38 2.096 1.494-.089.464-.838 1.334-.066.485-.573-.227 1.228.508.175 1.697-1.163-.397-.771 2.785-.795.011-.68 4.327-.557.675.607.393-.942h.668l.175-.875 1.869.488-.322-2.434.999-.611.852-2.53.859.549 2.132-.032 1.539 1.581 2.127-1.1-.245.887 1.007-.115.804.952.188 2.353 1.308.426.476-.616.991.83 1.246-.19-.399.597.178 1.152-.706 1.074 1.519.424 1.375 1.49.777.244.289-1.23.483-.072.363-2.144.869-.4 1.193-1.62 1.388 1.028 1.341-.351.409-.976.557-.042.608.585-.116.693.778-.085.374.411.462-.39.737.662-.277-1.107.679-1.303 2.553.835.979-4.51-.384-.482.762-.771.776-.068.15-.63-.24-3.22 1.369-1.516.832-.378.86.386.687-3.112.984.42.466-.522 1.703.764.011-1.075.49-.503-.301-.76 1.234.315.164-1.149.692-.405.569.861 1.638.029.502 1.25 1.602.238.091.598-.235 3.005 2.131 1.468 1.899 2.285.146.77-1.791 1.008.201.66-.653.036.191.679-.47.68-.408.026.049-.57-.413.506.459.644 1.295.385-.301 1.1.569.358-.612.74.362.326-.613.042.789.392-.479.72-.831.27-1.671-.711.783.847-.237 1.251.244-.453.345.375-.81 1.847.537.183-1.14 2.378-.975.267-.615 1.053-.967.092.041.713 1.164.587-.064.837-2.548-.134.81.616-.814.512.147.495-1.751-.691-.051 1.458.41.28-.59.604-1.037.122.511.62-2.149-.64-.609.304-.266-.194.361-.613-2.003-.235.499 1.73.644.24.057 1.315-.511.59-.471-.785-.117 1.861-.512-.106-.636-.231.15-.309-1.373-.293.753 1.09-.375.58-.522-.015-3.336-1.616-.646.47-.879-.807-.419.403-.085.42-1.07.756-.592-.462.57 1.616-.587 1.694-1.144.225-.137-.372-.803-.017-2.167.537-1.337.97-1.884-.015-.005.47-1.244.569-.487.948-.091 1.07.388.316-1.524.893.299.353-.302.19-.456-.484-.749.494-.393-.369.298-.78-.376.314-1.601-.39-.016-2.175-2.077-.37-.765.74.773 1.332-2.192.896-1.651-.36-.067 1.383.696.902-.624.132.248.942-1.095 1.389.111 1.556.55.018 1.219 1.483 2.586-.322.235.8 1.879.585.287.965 1.323 1.12 1.82-.488 2.011.89.492-.469 1.72.112.317.54.594-.479-.465.98-.717.23-.3-.347-.797.596.64.611-.64.826-.354 1.916 1.918 1.712.693-.437 1.668 1.078.717 2.225 2.297.077.82 1.676-.199.554-.93-.028.357 1.149 1.733.664-.313 1.626 1.21.692-.011.957-1.471.064-.095-.333-.042.59-.207.552-.512-.003-.189.056-.94-.09-1.52-.408-.117-.639-1.159-.306-.265-.523-.978-.008-.688-.973-1.305.4-.107.496-1.71-.998-1.547-2.277-3.659-.897-1.46-1.792-.35.98-1.119.473-.334.998 1.172.72.265 1.12-.601.84.584.199-.255.443.739.086-1.558 1.428 1.207 1.321-.557 1.732-1.227 2.04-.644.324-.145.867-3.069-.524.577-1.986.908.005-.609-.769-2.557 1.41-.782-.943-1.136.361-1.092-.277-3.08-1.636-.66.092-.109.795-.745-.122-.486.406-1.467 2.424-.428-.973-.813-.569-.034.454-.324-.504-.777.091-.498-.75-1.093-.256-.883.7-.476-.108.93-.62.993-3.64.932-.417-.009-.54-.553.004.106-.614-.4-.17-.246-2.955-2.288.9-.155-.278-1.135.752-.367-.574-.932.384-.526-.466-1.167.11-.189.62-4.607-.12-1.06.32.02.508-.631.104-.462.69-2.904.261-.904-.829-1.113.044-.883-.663-.371-1.593-2.81-1.137.053-1.11 1.598-1.526 1.475.049 1.5-.787.102-1.511.61-.635.66-.009.938-2.194.856-.114.406-1.696-.392-.83-1.95.316-.152-.631-1.153.284-.576-1.08-.89 1.367-.393-2.689L72.154 12l.775-4.386-.57-1.01-.782.487-.864-.651.079-1.701 1.127-2.04-.332-2.02-1.466.227-.056 1.363-3.402-.837-1.275-1.907.31-1.66-.72-1.515-2.847-.974.317-.493-.707-.318-.765-2.993-1.255-.329-.472-.951-2.16-.405 1.662-3.798-.55-1.122 1.6-1.159-.456-.902-.631-.112-.396-1.086.246-1.053 2.23-.598ZM-137.583 38.981l1.159.645 1.89-.23.261-.72 1.116-.266.714-.93 1.224-.145.056 1.257.949.378.723 1.036-.506 2.303.161 1.822.873.19.138.822 4.925 1.618 2.35-.444 3.307 1.477 1.217 2.382 2.222 1.1 1.692-.106.048.596 1.261-.316.786.457 1.484-.253 1.691.49 1.289-.508 1.368.33 4.554-.435 1.71.127 1.775.933.981-.48 1.284 2.592-.314.474.6 1.125-.124.396-1.122.137 1.244 1.805 1.899-.227.416.437 2.007-.046 1.62-.846.735-1.832 2.885.077.8-2.026-.775-1.19 3.386-2.97.163-.527-.612-.741.527-.397.16-1.297.81.1.395-.496 1.039.322 3.632-2.764 1.813.215.29-.314.762.753.365-.54 1.242-.144.065-.872 4.014-.198 1.415 1.596.618 1.673-.007 1.458.766.449-.852.294-2.322-.607-.86.531.453 1.36.657.362.376 1.79 2.066.299.432-.057-.069-.6 1.048.004.344.494.507-.578.3.86.607-.128.34-.475.923-.113.126-.486 1.75.78 1.207-.207 4.891-2.522.246-1.362 1.874-.272-.066-.534.806.518.693-.433.513.277.393-.914.913.379.159 2.267 1.665-.605 1.229.288.389.652 2.861.503.567-.66.546.604.264-.496 2.02.094.337-.353.765.298.186-.595-.768-.931.496-.123-.31-.726 1.723-.598.32.392 1.666.052 1.267-1.389 1.529.22.186-1.654 2.553 1.02.97.098.446-.382 1.544.392 1.019 2.94 2.35-.294 1.806-1.027 2.64 1.62 1.246.147.436-.732 1.212.5 1.486-.449 1.089-1.187 1.554-.614 1.528.317 2.342 2.245.864 1.871-.472.696.303.697.786.1.168-.683.79.105 2.282 1.646 1.345-.135.348.734-.798 1.086-3.776 1.745-.508 1.708.298 1.363-.501.61.675 1.746 1.83-.04.078 3.794.734 1.837-1.539.653-.55.844.642.719 1.175-.614 1.166.192-.77 4.678.674 1.39-1.606.6-.662.836-2.712.626.657 1.154-.592.614.166.421 2.21.114.898.652.123.989-.013 1.758-.534 1.26-.846.069-.78-.557-.794.45.03.595 1.59.157.316.674-1.397 1.308-.723-.133-.061.484 1.225.037.544.458-.19-1.168 1.555.12-.059.999 2.676 1.84-.19 1.786 1.36.087.963.895 1.298.126.377.747.715.227.275 1.19-2.209.87 1.21 1.467-2.031 1.653-1.287.072-.354-.957-1.31.43-.898-2.09-1.957 1.469-.818 1.65-1.14.488.072 1.115-1.312 1.058-.057 1.484-1.154 1.947-.001 1.302 1.714 2.331-1.526 1.313-.73.114.538.928-1.392.454-.274.486-.655-.452-1.003.44-2.089-2.012-1.704-.392-.806-1.032.955-.624-.095-3.62-.39-.571-1.2.283-.031-1.546 1.806-1.48-.488-1.243.882-1.584.239-2.306-.697-1.416-2.375-1.618-.908-1.263-.956-.213-2.134.627-.884 1.59-.967-.364-.208-.634-1.532 1.139-2.152-1.646-1.161.128-.2-.55-1.294-.5-.153 1.913-.632.784.342.533-.958.158-1.589-1.502-1.792-.266-.541-.494-.813.229.551-.742-.246-1.432-1.125-.414-1.212.255-.28-2.28-1.288-.456-1.452.268-2.392-1.133-1.641-.094-.687.638-.375-.52-1.666-.447-.287-.958-1.016-.089-.355-.722-.538 1.475.951.231.61 1.3-.476 1.507-1.261.534-.342.593.876 1.317.003.724-.68.303.632 2.272-2.688.995.317 1.784-.575 2.127-1.862-.41-.66.289-.114-.648-2.054-1.57-1.868.872.023.402.929.376-.814.267-.442 1.297.252.361-.58 1.004.362 1.015-.965-.265-.117 1.127-.752-.238-.092.745.211 1.049 1.056-.021-.094.732.87-.063-.28.91.871.062 1.293 1.917-2.23.329-1.082 2.74-.61-.511-.526.691.077 2.69-1.674.612-.186-.565-1.093.113.08 1.626-.52-.212-.643.452.828.398-1.258.401.621.211-.758 1.519 1.006.695-.36.589-.858-.341.016.627-.95.409-.616-1.032-1.646-.092 1.089-1.725-.856-.27-.003-1.041-.584.385-.524-.522-1.638 1.001.103.844-1.053 1.283.229.77-.756-.065-.436 1.425-1.155.476.283.938-1.087.008-.526-.696-.189.467-.765-.571-.716.08-.67 1.521.97.421-.451.517.162.754-.783.143-.027 2.612-2.41 1.034-1.318-.656-.068.906 1.076.675-.54.87-.998.114.253.991-.626.242-.16 1.018-.581-.175-1.034-1.776-.874 1.459v-1.277l-1.051.024-.001.964-.792.038.063 1.166-1.285.359-.276.887-1.782.207.178 1.153.553.449-.48.613.67.02-.939.544.06.805.839-.047-.237 1.308.977.127-.56 1.267-.618.034-.183-.866-1.437.427-.668-.972-1.528.57.073 1.136-.267-.963-.89-.561-.9.799-.513-.534-2.617.666-.796-.651-.135-1.403-.536.694-.79-.817-.475 1.162-1.385-1.14-.973.204-.289-1-.889-.432-.42 1.889-.79.197.132.73.6.164-.152.861 1.144.921.048 1.17-.723.84 1.071 1.672-.002.689-.735.581.604.016.049 1.659-.627.204-.728-.409-.025-.737-.715-.103-.116.971-1.65.455-.522-.933-.782.482-.769-.284-1.049.524-1.206-.049-.121 1.771-1.419.745-.693-.038.136-.692h-1.029l-1.076-1.652-1.242.505-.034-.349-1.95.012-.241.338.853.445-.066.605-1.106.482.251 1.889-1.46-.019-3.325 1.221-.044.883-.756.822.633.727-1.009-.051-.137.681-1.321.521-.48-1.782-1.133.145-.438-.749-.105 1.228-1.464.573-.287 1.114-.58-.238.064-.401-.768.079-.324 1.127-.801-.932.199.904-.692.187.331.413.661-.583-.076.956.902.15.081 1.133.561.135-.158.648-.394-.568-.374.25-.052 1.187.545.736-.316.514.412-.522 1.441.247.028.506 1.71.579.208.938-.575.902.069 1.307-1.156-.51-1.409 1.262.464.391.981-.473.72.354-1.663 3.049.418 1.062-.384.019-.41-.871-.628.864.951.173-.519 1.54-1.542.751-.892-.042-.483-.971-.486.705-1.565.775.064.863-.786.165.625.449-2.081.997-.619-.143-.624-.725-.507-2.124-1.335-.172-.359-1.051-.689 1.305-3.243.292-.672-.466.553-.182-1.785-3.461-1.708-.547-.566-2.157-.59-.4.26-.371-.678-2.797-.996-3.561-.442-.042.795-.906-.842.165-.018-.926-1.031-1.622.029-.939.53-.219-.548-.761.489-.818-.377-.073-.23-3.63-.724-1.874.365-2.064-.495-.012.271-.563-.625-.336.931-1.124-.683-.758-.902-3.382-.725-.716.696-.085.118.471.348-.57-.784-1.695-.848-.459.819-.747-.419-.061-.041-1.409-.99-1.104.661-.587-.879-1.207-.277-1.264.448-.484-.99-2.031-.265-1.958-.265.136-.713-1.18.176-.89-1.025-1.567.276-.455-.678-1.248.354-1.395-1.202-.56.095-1.353.618.03.358.843 1.857.437-.283.781.689.786-.165-1.764-.547-.867-1.308-.068-.89-1.391-.784-.411.259-.702-.655-1.909.702-1.536-1.556-3.439.3-2.393.996.272.519-.79.631.846.259-.438.129-1.254-1.319.334-.395-1.138 1.056-.142-.389-.845.347-.612.501.254 1.125-.813-.625-.053-.211-1.28-.643.019-.153.681-.978.809-1.001-.26-.371 1.748-.783.741.335-1.124-.671-.203.483-1.7.253.192.248-.464-.472-.074.23-1.144-.991-1.608-.041-2.513.442-1.163-.878-.996-.277-1.94.754-.632.13-.775-.454.484-.99-.769-.117-1.277.536-.044-1.079-4.388-.771-1.012.024-.423.624-.153-.36-1.51 1.103-.884-.183-2.196.637-1.48 1.361.258.004-.526.707.085-.015-.921.846-.898 2.034.302.345.92-.286.908.34.393.598-.486-.154.55.904.956.166-.703 1.673.332.983.702.646-1.547 1.543-.617.468-1.292.885.195.313-.333.143.464 1.179-.304-.138-3.271-.68-.856.814-.542 1.506-2.827-.401-.068-.022-.906-.858-.259-.798-1.067.789-.5.292-1.026.613-.151.335 1.433.847-.459 1.462.844.625 1.283.719.38.643-.36 1.001.248 1.911-1.088.15-1.154-.481-.602.868-.01.466-.794.749.137.608-.422-.094-2.202-1.062-2.252.242-.97-1.91-.29-.185-.598-.697.274-.693-1.016.221-1.32-1.965.128-1.52-1.342.528-.185.493.98.952-.44 1.175.313.105-.65 1.717-.109.203-2.156 1.27.113 1.199-.792.092-2.369.336.233 1.694-.619.395-1.411.886.766.423-.35 1.987.102.137-.465.438.378 1.655-.743.02-1.027-.486-.544-.755.669-.679-.328-.632.426-.465-.64-2.473.001-4.433 1.442-.77-2.32-.782-.605 2.079-.453.228-1.249-1.382-1.417.292-.63-.731-.74 7.118-2.958Z" fill="#EBF0EE"/>
      <path d="m-51.383-73.868 1.084.356.45-1.016 1.469-.244.815 1.167.766-.174.528.807 2.44.952 1.978-.273 1.194-.73.161.493.384-.311.537.66.956-.023 1.135 1.434.828-.206.937.392-.217.802 1.173-.515.264 1.745-.552.857.248-.194.141.737.48-.016.856 1.138-.265 1.11 1.66.265-.2.65-.646-.016-.213 1.295 1.209.416-.384.232.232.448-.695.096-.218.928-.347-.357-.64.484.425.8-.778-.032-.116.863-.797.047.495.95-1.231.371 1.284 1.344-1.249 1.05-.313 2.052-1.128.788.134 1.062-.765.228.324 1.434-1.074-.723-.263.279.496.07-.037.37-1.564 1.175 1.369 1.742-.13 1.166-2.718.71-.603.665-.848-.547-.583.578-2.014-.418-.658.706-.55-.278-.437.723.255 1.289-.919.681-.632-.15-.367 1.254-.738.61.76.888-.494.598.787.303.2 1.209.917.657-.264.526 1.296.608-.596.362.521.574-1.009-.04-1.434.97-.005 2.072-3.439 2.733-.033.572.958 1.021.242 1.523 1.02 1.86-.203 2.52-.83.82 1.057 1.077-.058.666 1.996 1.423-.742 1.297 1.138 1.248 1.17-.51 1.497-2.223 1.55.852 1.923 2.586.632.245.707-.447.29.335.305-.444.667 1.807.463-.694 1.386-.295.613-1.804 1.253-1.21.372-2.027-1.608-.588.112-.787.358.377.756-.288-1.795-3.302-2.224 1.079-.582-.275-.2-1.274.686-1.023-.166-2.104.34-.464-.342-1.076-2.038-.951-.312-.971-.67-.48.42-2.243-.949-.845-.606-3.738-1.525-.82-.905.541-.566-.42.28-.361.562.26.533-.718.171.459.527-.057.348-.466-.347-.848 1.084.258-.32-1.02.577.084.321-.581.533.246.512-.874.701-.088.331.44-.685.583-.267-.378.03.748 1.084.215.098.6 1.076-.125-.451-1.266 1.48-.412-1.227-.08-.644-.687.15-.871.526.572 1.555.244.337.264-.676.188.433.322.486-.809-.612-.998 1.011-.334-.035-.762.764-.055.137.42.295-.429.236.666-.54.243.409.95-.688.771.549.433.657-.246.39 1.465-1.057.564-.768-.548.82-.042.386-.537-1.581.292-.786.827.122.461-1.093.408-.185.4.603-.05-.127.671.766.973.736-2.684 1.084.297.535-.423.365 1.506-.623.523-.68-.272-.359.674-.335-.24-.085 2.087 1.622-1.26 1.007.564-.024-.88-.498-.26.717-.745.151.669.94.524-.676.91-.06 1.01.453.115.874-1.264.766.66-.266.476.453.765 1.063-.16-.266-.574.383-.204.457.868.679-.06.108-.567-.628-.176.466-.293.495.179.019.724.915-.26.24-.432-.758-1.058-.11-1.18 1.251 1.1.305-.313-.379-.363.233-.998-.637.252-.473-.66-.601.44.015-.904.734-.698 1.086.167-.321.907.47.668.307-.673 1.015.816.893-.574.7.315-.662.02-.681 1.034.332.29-.702.089-.547.895.325 1.32.34-.595.337.734.791-.626-.166.886.622.315 1.605-2.203.513.703.277-.173-.104.542 3.134-.29 2.34 1.055-.175-.81.518-.394-.53-2.09 1.173-.39.234.548.618-.896 1.15.076.508-1.735 1.327-.295.848.405 1.37-1.053.128-.758 1.088.263.226-.555 1.165.965-.142 2.292 1.568 1.196.446-.128.524 1.601-1.536.68-1.79 2.664 1.054.629.896-.532.495.38-.348-1.116 1.589-.565.626.869.509-.015.122-1.027-.505-.296.707.029.72.775.404-.552.94.447-.258-1.93.801.742-.658.439 1.166.696.487-.17-.121.641 1.138-.41 1.033.235.001-.524-1.076-.318.002-.579-.546-.331 2.12-.217.598.84.181-1.915.886-.068.57.82-.847.853.12 1.222-.933.74.456.953-1.234.613.258.635.695.229 1.059-.332.323.215-.058-.397.838-.366.39 1.085 1.306-.156-.154-.508 1.419.048 1.189 1.397.615-1.542.796.551-.309.128.598-.123-.231-1.42 1.27-1.69-.337-.861.497-1.446.79.04.175 1.156-.035-1.099.36-.207 1.3 1.147.826-.243.173.538-.795.062 1.757.763.507-.74-.737-.705.479-.354.62.202-.32-1.009 1.205-.202.327.639.789.2-.57.54.193.842.33-.522.322.451-.809.545.224.443 1.152-.441.492.835 1.072-.114 1.204.895.853-.214 1.203.617.263-.39.288 1.826-.332.89 1.33 1.437.97-.466 2.277 1.355h1.002l.775-.748-.36.461.646.537-.426-.019-.35.99.868.253-.303-.541.494.006-.04-.354.37.293.112-.495-.29 2.457.49.082.218-.47.702.38-.053 1.304.76-.233 1.684.6-.16-1.99.651-.52.351.656 1.477-.01.229.611 2.73-1.122.805.572-.016.728 1.433-.032-.056 1.061.769.001.094 1.09-1.161.259-.71-.341.065.992.444.313-.624 2.65 1.133.28.076 1.86-.302 1.3-.486.297-.14 1.944-1.051-.449-.286.546 1.082 1.246 1.228.066-.515 1.302 1.173.374.222.97-1.266.939-1.942.331-.095 1.182-1.402.774-1.243-.028.364.688-.6.229-1.193-.625-2.794.178-1.548-.42-.618.345-.57-.576.098-.484-.88.76-2.482-.014-.948-.98-1.06.237-.727-.463-1.348 1.12-1.49.286-1.35-.657.084-.427-1.302-1.533-1.083.428-.257 1.227.681.526.194 1.373.73.394.28.75-.937 1.402L20.81.02l-.224 1.4-.699.262.156.773.607.102.029 1 .449.38.558-.946.818.189.91-1.012 1.456.496.478.792 1.892-.476 1.267 2.729.847-.238-.032.815.662.23 1.12-.453.262.958.572-.137 1.019.834.076.936-.997 1.303.182 1.966-.746.87-1.034-.298-.913.84-1.824.052-.417.842.462 1.917-1.702.962-.077.55-1.845.398-.18.895.496 1.544-.8.916.343 1.434-.471.355-.373-.642-.338.606-1.07.402-.167 1.437-.533.106-.165.576-2.052-.022-.832 1.063-.886-.015.211.605-.5-.27-.591.864-.378-1.458-1.184-.433-.403.97-.604-.404-1.21 1.09-.813-.877-1.487 1.117.081 3.337-.618 1.083-1.384.398-.077 2.193-.954.41.698.404-.098.803-.757.072-.273-1.241-.842-.14-1.38 3.591-.58.094.384.48-.103 2.965-.435 1.3-1.447-.238-.519 1.045-.196 2.83.444 2.595-1.562 3.192-1.345.136-2.284-1.647-.788-.106-.168.683-.786-.099-.304-.698.473-.696-.864-1.87-2.34-2.246-1.528-.317-1.555.614-1.09 1.187-1.485.45-1.213-.5-.435.731-1.247-.146-2.64-1.62-1.806 1.027-2.351.294-1.02-2.94-1.544-.392-.447.382-.968-.098-2.553-1.02-.186 1.655-1.53-.22-1.266 1.388-1.667-.052-.32-.39-1.723.596.31.726-.496.123.768.931-.186.596-.765-.299-.339.353-2.02-.094-.263.496-.546-.603-.566.66-2.862-.502-.388-.652-1.23-.288-1.665.604-.16-2.267-.912-.378-.394.913-.513-.278-.693.433-.806-.517.066.534-1.873.271-.246 1.362-4.891 2.522-1.207.208-1.75-.781-.125.486-.924.114-.34.474-.607.128-.3-.859-.507.578-.344-.494-1.049-.004.069.6-.432.056-2.066-.299-.376-1.79-.657-.361-.453-1.36.86-.531 2.323.606.85-.294-.765-.45.007-1.457-.62-1.674-1.414-1.595-4.014.197-.066.872-1.242.144-.365.54-.762-.753-.29.314-1.812-.215-3.632 2.764-1.039-.321-.395.496-.81-.101-.16 1.298-.527.396.612.74-.162.53-3.386 2.968.775 1.19-.8 2.026-2.884-.077-.736 1.832-1.62.846-2.007.045-.416-.436-1.898.226-1.244-1.805 1.122-.137.124-.395-.6-1.125.313-.474-1.283-2.593-.982.48-1.775-.933-1.71-.127-4.554.435-1.369-.331-1.289.508-1.691-.49-1.484.254-.786-.458-1.261.315-.049-.595-1.692.107-2.221-1.1-1.218-2.382-3.306-1.478-2.351.445-4.924-1.618-.139-.823-.873-.189-.16-1.822.505-2.303-.722-1.037-.95-.378-.056-1.256-1.224.144-.714.93-1.115.266-.262.719-1.89.23-1.158-.645.166-.735-1.191-.659 1.761-1.614-.553-.429-.518.176-.158-2.616-.997-.205.336-.494-.688-.956.271-1.695.848-.26.473.895 1.205.236.334-1.04.429.208.657-.944.768.126-.852-.88-1.048-.09-.293-.927-.087.767-.544.273-.357-.56-.451.818-.417-1.07-.535.05.152-.977-.898.404-.175-.4.681-.97 1.836.763 2.376-2.902 2.521.028.4-1.988 1.609-2.918-.582-1.494-1.083.563-.814-.77-.433-.723.619-.35-1.019-1.89 1.451-1.127 2.569.53.709-.99 1.322-.291 1.296-1.296.984.155.64-.399.002-.472-1.076.221.574-.445-.445-.68-1.164.286-1.578-.944-.391.422-.746-1.06 1.113-1.122.069-1.027.836-.891.876-.07.975-.901.699.074 1.09-1.092.38.321.902-.462 1.285-1.579.715-.17-.681-1.205.698-1.196-.74-3.197.333-1.424 1.52-2.164-2.373-4.237.524-.466-.245-.646-.522-.439-2.479-.045.654-.789.071-1.265 1.509-2.213-.845.124-.03-.675-.804.18-1.422-.637.951-1.01-.187-.976.894-.324-.141-.6.714-.81-.887-.372.51-2.5 1.984 3.25 1.061-.117.409-.936.8-.177-.137-1.025h.569l-.279-1.004-1.912.206-1.239-.6-.205.472.148-1.404-.685-1.746.483-1.063.443.867.37-.297.6.496.151.848 2.616.756.274-.527 1.327-.164-.067-1.771 1.032-.611-.111-1.25 3.955.062.126.41-.691.433.394 1.008-.502 1.455-.806-1.771-.202.343.567.9-.671.776 1.057.47.312-.408 2.084-.132-.151.669-2.362 1.172-.569-.93-1.093-.132.478-.847-.562.131-.323-.463-.146.597 1.073 1.092-.965.632-.444.97.667 1.058 1.067-.239 3.916.914 2.759-.681.666.793 3.104-1.769 1.678.809-.246 1.352.459.426-.438.92.217.41.532-.4 1.144.96-.229.446.391.434-.72.55.44.397-.06.839-1.309.86-1.191-1.3-.9 1.082.139.44-.602.095.234 1.324.577.86.978.167.332 1.317-1.132.59-.636 1.873.695.014.282.673.98-.036-.042.828-1.149.308-.373 1.478-1.307.665-.663-1.485-.731.777-1.079.183-.359-.71-1.115-.6-1.052 1.567-.175 1.38 2.208 1.4.33.425-.427.357.562.589 1.469-.037.693.95.063-1.348.646.005.239-.9-.658-.436.089-.62 1.006.323.579.832.364-.472 1.409-.489.381.254 2.062-1.113-.331-2.129 1.84-1.158 1.862-.453-.284-2.331.703-1.093-.243-.959.9-1.067.44.475-.245.603.444 1.57 1.425.025.936-.875 1.857 1.066.195-.45.628.234.355-.337 1.304 1.568 1.024-.398-.295-.464.67-.672-.198-.453.55.17.05-.476 1.625-.514.203.837-.601 1.278.571.507 1.143-.015.978 1.193 1.164-.429.933.181.343-1.328.601-.405-1.49-1.495-.722-1.562.236-3.013-.78-1.51 1.096-.346.284.557.706-.423.038 1.292 1.075.62.767-.394.647-1.176.389.052.305-1.003-.112-1.68-.695-1.584-1.16-.482-.43-.783-.898.433-1.317-.083-.97-1.61.639-.473 2.012-.223.474-.534-.743-.35.148-.668-.629-.068-.781-2.104 2.956-1.617 1.772.51.79-.258 1.169-1.037 1.966-.129.86.822 2.03-.683-.166-1.74.579-.114-.246-.773-1.204-1.059.47-1.128-.75-.124.528-2.036-1.19-.546-.473.3-1.33 1.167-.32 1.444-2.75-.658-1.089.899-1.388.09-.359.508-1.031-1.094-1.065-.19-1.546.427-.071-.559-1.818-.216-1.666-1.013-.288-.99-.523-.254-.933-2.04-.202-3.336-.7-.518.097-.54 1.024-.37-.027-1.495 1.344-1.782.719.078.414-.889 1.85.148.616-.457-.137-.46 1.069-.264.72-1.365-.21-.428 1.217-1.493 2.085-.916 1.033-1.161 1.208-.21.686-1.105 1.677.013 1.842-1.366.949-1.447 2.074-.182-.1-.986 2.018-.188 3.072-2.195.981.096.645-.965 1.456-.224.157-1.06 1.252-.482.322-.987 1.13-.067.94-.885 1.985.461.072-1.297.571-.39-.344-1 1.618.131-.322-.838 1.036-.213Z" fill="#EBF0EE"/>
      <path d="m132.33 65.688 2.574.015.201 1.244-1.432.115-1.885 1.346-.35-.483-.702.149.495.601-.958-.144 1.028-2.544 1.029-.299Zm-60.838-39.59 2.81 1.137.37 1.592.884.663 1.113-.043.906.828 2.902-.262.462-.69.631-.105-.02-.507 1.06-.32 4.607.121.189-.62 1.167-.11.526.466.933-.384.366.574 1.135-.752.155.277 2.288-.9.245 2.954.401.17-.105.614.553-.002.01.54-.933.416-.992 3.64-.931.62.477.106.883-.698 1.093.256.497.749.778-.091.323.504.034-.453.813.568.429.974 1.466-2.423.487-.407.744.123.108-.795.66-.092 3.08 1.636 1.092.276 1.135-.36.782.943 2.557-1.41.609.77-.908-.006-.576 1.985 3.069.525.145-.866.644-.325 1.227-2.04.557-1.732-1.206-1.321 1.558-1.428-.739-.086.255-.443-.584-.2.602-.838-.266-1.121-1.171-.72.334-.998 1.119-.473.35-.98 1.46 1.792 3.659.896 1.546 2.278 1.711.998.106-.497 1.305-.4.689.972.978.01.265.523 1.159.306.117.64 1.52.408-.155 1.63 1.588-.237.884 1.336 2.657.267 1.28.954.355 1.182-.772 1.854.685.957 1.367.112-.023-1.079 1.374-.513.193-.973 1.429.432.585 3.185 1.903.638.382.581 1.559-.019-.015.722.592.495-.259 1.41.496.82-2.165 1.428-3.799-.066-1.845.908-2.816 2.204-1.885 2.134-1.48 2.764.018 1.254 3.112 7.127-.266.838-1.614-.287-1.138.581-1.149 2.843.995.128-.509-.584.679-.15.35.482 1.885-1.346 1.403.347.957-.319-5.53 3.903-1.167 2.94 1.067.297.023 1.029-2.139 1.85-2.681 1.195-3.011 3.89-.484 1.325-.991-.205-1.097-1.67-.905.175-.237.587 1.237.058 1.469 1.582-14.861 4.798-5.898 2.97-5.202 3.616-1.603 1.778-3.227 2.337-1.885 1.918-1.331 2.274-.89-.546-.534-.527.175-.703-.786-.125-.08.777-1.472-.045.594 1.054.73-.101.006.64-.886-.056-.531.931-.457-1.159-1.627.982-.377.883-1.2-.727.542 1.045-.531.641.293.542-.67.613-.69-.226.474.413-.768-.123.427.356-.194.359-.56-.349-.08 1.661-3.837.361-.602.611-.873.078-1.161-1.277-1.852.124-1.476-.485-1.763-4.223-1.007.666.859 1.572-.727-.232-.849-1.491.37-.593-.555-.103-1.565-3.053-.615.741.215.716-.544.854-.686-.535-.32 1.523-.761-.126-.04-.35.427.045-.176-.89-.249.26-.433-.549-.294.18.395 1.079-.071.465-.554.015.148 1.201-.99-1.125-1.326-.305-.87.449.502 1.618.356-.892.731.751-.712-.08 1.372 1.501-.318.637-.794-.028-.055.708-1.628.233-.284.724-.991-.195-.304 1.109-.071-.585-1.458-.671-1.74 2.627-.835.335-.075 1.124.975.043-.575.411.119.444 1.205.221-1.568 2.075.468.565.442-.225-.104 1.192-.769-.203-1.792.734-.866-.344-.153-1.017-.842.066-.97-.656-.487.437.362.548-.556 1.415-2.297.986-.676 1.282-.98-.916-.09-.814.738-.878-.229-.492-1.386-.462.394-1.067-.5.074-.15-1.543-.508.048-.533-.779-2.391 2.815.491.905-1.06 1.151 1.242.237-.448.716-.742.175-.086 1.117-.567.445 1.253 1.239-.161.323-.514-.384-.076 2.257-.515.058-.162-.535-.657.304.006 1.368-.542.148-1.364-.682-.361-.731-2.878-.317-1.546 1.455-3.197 1.238-.907.945-1.17.713-.316-.524-.535.174-1.1 1.361-.9-.276-1.857.553-.463-.483-1.58.4.19-1.736.92.204.85-2.08-.072-1.294.737-1.413.296-1.436-.378-.586.491-1.667 1.389-.935 1.384-.218-.012-.624 1.841-.135.365-1.46 2.032-2.257.825-.34.25-.795.813.114.162-.612-1.403-.761-.064-.652 1.316.478.43-1.372 1.4-.625.952.148.06-.971 1.012-.041.68-.739.246-2.319 1.417-.337-.307-2.316-.657-1.016.382-.675-.262-.599-.849-.2.404-.721-.574-2.376.667-1.208-.898-.94.542-.09.354-1.153-1.352-.14-.577-1.918-1.478.18.504-.822-.181-3.692.472-1.768-1.69-.283-.42-1.32-2.349-1.192-.261-.94.62-1.925 1.587-1.483 1.762 2.065.71-.892 2.558 1.608 1.106-.448 2.309 3.761 1.046-1.158 1.136-.475 3.206.861-.472.943.293 1.148 1.287-1.215 1.209-.126.314-.89-.36-.503.148-2.169-1.606-.22-.708.322-4.402-1.656-.253-1.904.735-1.292-.18-1.374.513-.435-.753-1.179.75-2.026-.405-1.067-.466.467-.161-1.287-1.198-.99.938-1.577-.703-3.024.244-2.82 1.162.482.299.81.923.06.564-1.793 1.427-.856 1.471-2.143-.274-.78.756-.69-.193-1.074 2.468-.233.776.462.501-.435 1.417.214 1.628-.596 1.794 1.276 1.68.403 1.492-.778.6-2.812 1.192-.575-.435-.603.338-1.416 2.222.793.59-.191-.188-1.154-.923-1.006-.331-1.165.978-2.651 1.283-.827.245.998.674-.461-1.373-1.118 1.365-1.507-.358-.933.503-.721.967.467-.113-.861 1.13-.266-.274-.64.614-.883-1-.485-.386-.71.068-2.086 1.314-.23-.873-.87 1.837-2.744 1.003-.475 1.268.06 2.296-2.295 3.037-.544.793-2.194-1.39-.867.086-.451.467.026Z" fill="#28A062" fill-opacity=".7"/>
      <path d="m-16.564 283.63-.804-.007-.092-1.142-1.742-.643-.492-1.164.888.181-.289-.935 1.093.423.382-.404 1.127.218-.071 3.473Zm-1.079-21.324-.395-.686-.628.34-.05-.775-.976.478-.949-.588.506-.839.69.638.201-.355-.4-.799-.59-.169.442-.762-1.159-.306.735-.709.568.901.612-.364.38.318-.782.259.45 1.294 1.294-1.211.843.494-.792 2.841ZM34.48 156.362l-1.76-.769.913-.583.058.734 1.28-.098.275-.445.123.63-.002.007-1.07.098.183.426ZM-65.38 121.052l.36-.589-1.005-.694.757-1.519-.621-.211 1.257-.402-.827-.397.643-.452.52.213-.08-1.628 1.094-.113.186.564 1.674-.612-.077-2.689.525-.692.61.511 1.083-2.74 2.23-.329-1.294-1.917-.871-.061.28-.911-.87.063.094-.732-1.056.021-.21-1.049.09-.745.754.238.115-1.127.965.264-.362-1.014.58-1.005-.252-.36.442-1.298.814-.267-.93-.376-.022-.402 1.868-.873 2.054 1.57.114.648.66-.29 1.862.411.575-2.127-.317-1.783 2.687-.996-.631-2.272.68-.303-.004-.723-.876-1.317.342-.593 1.261-.534.476-1.508-.61-1.3-.951-.231.539-1.475.355.722 1.016.088.286.959 1.666.447.377.52.686-.638 1.641.094 2.393 1.133 1.45-.267 1.29.455.28 2.28 1.211-.255 1.124.413.246 1.433-.551.743.813-.229.54.494 1.793.267 1.589 1.501.958-.158-.342-.533.632-.784.154-1.914 1.293.5.2.55 1.161-.127 2.152 1.646 1.532-1.14.208.635.967.363.884-1.589 2.134-.627.956.213.908 1.263 2.375 1.618.697 1.416-.239 2.306-.882 1.584.488 1.244-1.805 1.48.032 1.546 1.199-.283.39.571.095 3.62-.955.625.807 1.031 1.704.392 2.089 2.012 1.002-.44.655.453.274-.487 1.392-.454 1.577 2.92 3.004-.925L.01 116.01l.384 1.033 1.02.804-.167.37.754.229-.218.578.601 1.788.923 1.067-1.163.78.028 1.043 1.343.121.672-1.503.805.595-.41.213.293 1.438 2.37-.785-.631 1.928 1.877 6.44.872.076 1.824-1.466 2.003.895 2.778.122 1.58-.4.46.483 1.858-.553.9.276 1.1-1.36.536-.174.315.523 1.17-.713.731.903-.22.455-4.365 2.338-.115.843-1.448 2.163.44.445-.472.669-.17 1.996-1.65 1.923-.929.097-1-.736-1.22 1.556-1.816-.05-.398 1.975-2.466.413-1.173.752-1.822-.475.17 1.217-.913-.008-.244 2.1-.56.554-2.263-.856-1.827.208.362-.717-2.047-1.106-1.359.663-.295 1.267-.763.732-.545-.172-.54-1.16-.595.462.46.935-.646.954 2.748 1.171.075-.677 1.97.477.054 1.156-.462.107-.22.972 1.05.814-.875.547-2.258-.596-.081-.556-1.122-.756-.567.849-.304-.964-.835-.352-.38-1.866-.831-1.204-1.292-.055-.406-.7-1.024 1.311-1.866.44-.77 1.276-.38.967.88.238.775.853-.462 1.504-1.904 2.263-1.19.093-.853-1.326-1.094.17-.75-.857-2.691 1.482-3.2.692-1.498 1.053-3.403.461-.866 1.169-.14 5.887-.893.493-3.09-.626-2.236.95-.426.447.108 1.68-.803-.11-.207-.94-.532-.08-.028 1.519-1.304 1.396-1.301-.066-2.05-1.582-1.23.931-3.254-.538-1.897 1.134-1.264-.047-.396 2.236-1.229.625-.326 1.125-.824.001-.344.477-.974-.381-.582-1.257-.73.937-2.421-.803-1.877.67-1.763-.465-1.212.22-1.116-.77-2.056-.199.015-1.78-.41-.621.394-1.596-.48-.268-.066-.937.575-1.418-.465-.023-.027-.557.29-.395.69.113.663-.767.537.238.027-1.111-2.06-.839-1.755.287-1.459-.373-1.236-.51-1.05-1.427 1.205-.122.098-.391 1.479.161.27-.583.768-.156-.505-1.04 1.542-.416.111-1.377-.773.204-.347-.553 1.027-.339.039-.74-.922-.056.3-1.507.713.088-.376-2.855.976-2.161-.78-2.127-2.177-1.267.823-1.037-.392-.243 1.573-1.236-.435-.273.373-1.811 1.009.362.613-.398.159-.704-.538-.511 1.323-.05.014-.544.794.22.007-.567.625-.133.261-.602-.099.487.762.184.035-.723-1.992-.597-.04-.664-.879.294-.446-.524-.547.713-.246-.56-1.062-.334.221-2.425 2.37-1.231.082-.377-1.304-.407.136-.416.32-.561.504.194.488-1.211.509.053-.245-.835.665.118.153-1.213.43.252.199-.508-.154-.528-1.142-.375-.988-.965 1.164-1.01-.06-1.16-.71-1.077.822-1.716-1.126-.296ZM166.844 47.007l.597.565.106.737-1.042-.283.339-1.019Zm7.149-.169 1.46 1.163-1.289.043-.171-1.206Zm-2.359-.438.598.556-.337.688-.608-.51.347-.733Zm-3.952-.272 1.066.83-.795.866-.849-.873.305-1.155.273.332Zm4.978-.328.554 1.39-.978.34.317-.558-.522-.6.629-.572Zm4.112.262.404.456-.613.086-.086-1.132.295.59Zm-7.906-.827-.012 1.358-.824-.508.836-.85Zm8.304-.626.134.941.459.38.346.963-.611.07-.003-.592-.571-.521-.468-1.128.714-.113Zm-3.811.2-.167.943-.827-.489.994-.454Zm-10.474-.214.742.401.255.93-.908.893-.089-2.224Zm3.032-.069.353.823-.488 1.065-.302-1.163.437-.724Zm-5.293-.266.256.467-.245.414.332.362.064.537-.248.924-.651-1.943.492-.761Zm18.131-.015.759 1.761-.921.599-1.116-1.416.229-.56 1.049-.384Zm-10.823.106.565-.125.318.715-.978.972-.547-1.251.642-.311Zm7.086-.637 1.214 1.132-.413 1.426-1.014-1.408.213-1.15Zm-9.985.316.344.663-.369.98.442.71-.707.72-.401-1.93.505-.812-.531-.342.35-.527.367.538Zm-4.133-.421 1.049.173.712 1.58-.3 1.552.418.534-.602.478-.722-.202-.555-4.115Zm15.194-.19.825.91-.914-.184.089-.726Zm-11.929.032-.13.784.394.434-.494.378-.229-1.422.459-.174Zm13.62-.047.797.613-.523.279-.274-.892Zm-3.79.03.647-.023-.554 1.17.436 1.587-.329.222-.749-.267.13-1.612-.854.15.451-.943.822-.283Zm-5.358-.457.8 1.09-.27.758-.655-1.333.125-.515Zm8.412-.11.776 1.29-.235.218-1.141-1.193.6-.315Zm-7.829-.173.2.949-.373-.316-.213-.486.386-.147Zm-2.998.03-.025 1.172-.697.437.091-1.135.631-.474Zm5.255-.418.914 1.091-.138.626.291.136-.079.744-.715.147.402.632-1.293-.446.168-1.491.45-1.44Zm-3.639-.066.586.51.006 1.184-1.124.371-.325-1.17.857-.895Zm-2.605-.018.444.253-.441 1.34-.517-.98.514-.613Zm12.256-.014.359-.006.137 1.063-.694-.567.198-.49Zm-3.638.173.047.847-.837.377.655-1.651.135.427Zm2.404-.98.748.606-.254.733-1.045.41-.27-.915.821-.833Zm-7.406-.062.313.448-.082.707-.574-.408.343-.747Zm-5.507.122.475 1.153.529.147-.064.448-.723.18-.164.808-.782-.193-.403-1.564 1.132-.98Zm11.104-.466.447.307.732 2.607-1.44-1.185.261-1.73Zm-15.255-.222.754 1.428-.039 1.577-.578 1.424.24.668-.967.547-1.43-.528-.106-.584.766-2.382 1.36-2.15Zm13.87.467.729-.806.38.41-1.069 1.523-.167-.813.127-.314Zm3.993-.886 1.057.627-.27.937-1.27-.448.483-1.116Zm-7.581-.096.675.675-.309 1.886-.815-1.79.449-.771Zm-1.258.006.272.434-.428 1.212-.348-.513.504-1.133Zm-2.458-.168.755.388.171.712-.892.932-.95-.034.447-1.752.469-.246Zm5.703.117.699.082.684.83-.483 1.776-1.297-1.29.397-1.398Zm-1.598-.497.583.227-.426.543-.157-.77Zm4.17.085 1.667-.234 1.096.615-.283.489-1.044.82-1.436-1.69Zm-2.397-.319 1.61.277.183.8-.389.447-.404-.824-1.099-.184.099-.516Zm.462-1.084.113.565.661.13.208.296-1.047-.075-.395-.78.46-.136Zm-1.81-.896 1.182.422-.797 1.31-1.05-.344.665-1.388Zm-11.002-.163-1.143 2.125-.855.48.554-1.898 1.444-.707Zm14.242.158 1.903.176-.121 1.688-.87.205-2.058-.916.292-.99.854-.163Zm4.846-.659.78 1.397-.312 1.19-.65.19-1.125-2.148.117-.78 1.19.151Zm-3.62-.691.35 1.034-1.915-.284 1.565-.75Zm-.616-.56.285.363-1.346.38-.213.51-.506-.148.554-1.181.767-.287.459.364Zm.317-1.99 1.257 2.293-.922.056-.882-.891.896-.352-.712-1.216.363.11Zm2.098.188.621.775-.424 1.295-.851.617-.015.916.471.55-.239-1.25.612-.043.188 1.57 1.036 1.5-.186.445-1.619-.774-.5-1.322-.239-1.61.621-.744-.781-1.626.547.195.758-.494Zm.988-.37 1.029 1.558-.272 1.482-1.485-.16.622-1.49-.515-1.26.621-.13Zm-6.537.008 2.024.667-2.247 2 1.119 1.143-.197.498-1.385-.48-.577-1.724 1.263-2.104Zm3.353 1.113-1.575.877-.816 1.232-.346-.032-.423-.464 2.323-2.158.444-.095.393.64Zm2.029-1.713.299.637-.64.459-.15-.417.044-.487.447-.192Zm-2.862-1.321.278.953-.578.352.503.885-.681.143-.877-.614.09-.538 1.265-1.181Zm.607-1.418 1.068.06.415.848.548.152.161 1.367-.87.36.228 1.089-2.158-1.098.474-.26-.317-2.021.451-.497Zm3.044-.835-.023 1.299.842.632-.624.26 1.549 1.995.036 1.159.585-.174-.728.605-.895-1.753-1.001-.095-.372-1.094.364-3.249.267.415Zm-1.929-3.484-.031 1.597.623 1.455-.714.525-.527-2.897.649-.68Zm.858-.546.546.246.82 2.694-.83.448-.372 2.292-.734-.589-.002-.945.554-.443-.586-1.61.032-1.88.572-.212ZM156.647-82.913l1.229.427.232 1.404 1.077.582 1.251-.458.783.39 1.526-.21.41.56 2.294.55 2.078-1.62-.194-.663.812-.251 1.273.021.794.603.593-.422.851.987.575-.23 2.509.934.107 3.714.934-1.054.735.66-.292.61.478.432 1.326-.381.457.864.931.229.248 1.36.615.666 2.642-.207 2.578-1.166.294.598 1.235.168.213.65 2.113-.218 1.335.911.486-.095.207.41-.871.836.398.209.562.018.321-.517 1.116.426.641-.334.377.87.696-.364 1.056.265.411 1.278-.409.615.435.922-.33.15-.197 2.12.381.655-.919 1.49.414-.148.222.43-1.597.733-.024.526-.644.221.173.755-.866-.384.417.813-.261.297-.432-.27.507.743-.667.492.737.116-.788.545.834.33-.326.211-.415-.055-.484-.773-.066-.406-.757-.21.488 1.22-.871-.056-.128.578-.399-.086.813.894-.771.421.346.293.418-.435.424 1.017-1.51.922-.023 1.312-.781-.055-.026-.817-2.202-.074-.191-.868-.661.907-.974-.085-1.472-.902.044-.397-.5.048.226-.65-.891-.727-1.438-.377-.463-.97.133-1.296-.815-1.102.764-.903-1.131-.025.341-.401-.432-.638.142-.778-1.113.03-1.626-1.533-.275.799-.375-.168-.477.57.183.99.927.097.102.27.488.05.345.552-.335.561.88.451.675-.197.097.907-2.107.322-.755-1.096-.987-.077-.426.331.358.906-.812.107-.585-.596.051-.964-.482-.293-.792.295-.262-1.236-.951.443-.479-1.079.443-.19-1.657-1.105-.081-.838-.541-.017.038.527-.846-.175.083-.754-.73.169-.862-1.401-1.074-.13-.425-2.055-.803.956-.902 2.727.443.748.248-.97 2.454.611.881 2.38-.801.25-.618-.577-.419.862-.661.156.195.34-1.367.807.017 1.446-2.178.72-1.472 1.021-.412 1.587.516.175-.259.885.297.204-.914.287-1.214 2.325.458.535.187 2.174.733.535.734-.585.473.312 1.301-.531.039.659 2.265 1.575.607 1.01 1.052.206-.219 1.483 1.137.366-.073.548 1.728 1.22.666-.18.857.844 1.04.163.259-.631 1.23.11-.132-.676 1.009.036.609 1.17-.472 1.43.596.378-.027.69.953.928.378-.303.406.744 1.817.26-1.159.771.047.923-.51.034.267.794-.517.393-1.657-1.025-.872.906-.654-.436-.444.307-.907-.739-1.955.081-1.087.661-1.403-.79-1.142.358.357 1.262-.422.366.214 1.093-.346.675.365.339-1.195 1.543.086.544-1.269.155-.326.658.458.429-.483.61-1.013-.693-.289.47-.005-.991-.755-.956-1.873.54.763 1.744-.595.25-.243 1.041-.29-.378-.351.979-.749.23-.124 1.115-1.149 1.266 2.911 3.727 1.108 1.043 1.594.505 1.226 1.284 2.448.142 1.703.76.559 1.1.277-.696.385.016.923.459 1.543-.105.683.818-.058 1.797-.689.723.227 1.086-.33.127.112.427.544-.023.033 2.338.669-.317.261.54-.764.152-.073 1.499-.625.003-.921 1.032-1.753.19.547.988-.895.724.407.46-.363 2.833.653.127-.245.823 1.36-.168.303 1.27 1.775 1.651 1.179-.323-.16 1.228-.544-.034-.167.546.104 1.312-.611.355.267.836-1.034.306.487 1.003 1.62.85.369-.022.08-.789.739.605 1.288-.123.121.496 1.602-.092-.271.71-.432-.197-.865 1.46-1.077.687.071 2.097-.565.043.45.294-.138.787.719.106.392.729-.097.942.779-.001.456.794-.192 1.105-.832.742.851 1.62-.568 1.64.533.182-.427.931-1.457.549-.553.865.324.608-.254 2.113.639.751-1.217-.189-.405 1.726-1.236 1.12-.111.734-1.155-.086-1.328 2.296.369 1.443-.805 1.602.169 1.399-.608.529-.118-.398-.678.076-.265 1.152-.716-.59.662-1.158-2.243.535-.472.483-.145 1.956-.567.025-.222-1.344-.844.223-1.162.9.293 1.175-1.178-.196-1.144-2.606.295-1.058-.499-.75 1.148-1.438.342-1.197-.443-2.083-.795-.725-2.034-.298.749-2.107-1.184 1.923-1.364-.582-.556-.886-.261-2.763-.488-.657-.84-.149 1.241 1.71-.048 2.415 1.456 1.337 2.693.379 1.131 1.944-2.687 1.954-.194.063-1.543 3.46-1.084 1.296-.834.16-2.124 2.231-.772-.106-1.349.955-4.406 1.105-.496-.82.259-1.41-.592-.495.015-.722-1.559.02-.382-.582-1.903-.638-.585-3.185-1.429-.432-.193.973-1.374.513.023 1.079-1.367-.112-.685-.957.772-1.853-.355-1.183-1.28-.954-2.657-.267-.884-1.337-1.588.238.155-1.63.94.089.19-.056.512.003.207-.553.042-.59.095.333 1.471-.063.011-.956-1.209-.693.313-1.626-1.733-.664-.357-1.148.93.026.198-.554-.82-1.676-2.298-.076-.717-2.224-1.668-1.078-.693.437-1.919-1.711.354-1.917.641-.825-.641-.611.797-.596.3.347.717-.23.465-.981-.594.48-.317-.54-1.72-.112-.492.47-2.01-.891-1.82.488-1.324-1.12-.286-.966-1.879-.584-.234-.8-2.587.322-1.219-1.483-.55-.018-.11-1.557 1.095-1.388-.248-.944.624-.13-.697-.904.067-1.381 1.651.357 2.192-.895-.774-1.331.766-.74 2.077.37.017 2.173 1.6.392.376-.315-.298.78.393.369.749-.494.456.484.303-.19-.3-.354 1.524-.893-.388-.317.091-1.07.486-.948 1.245-.57.005-.47 1.884.015 1.336-.97 2.168-.537.803.018.137.372 1.144-.225.587-1.695-.57-1.616.592.462 1.071-.756.085-.42.419-.403.878.807.647-.47 3.336 1.617.522.015.375-.58-.753-1.09 1.373.293-.15.31.636.23.512.107.117-1.86.471.782.512-.589-.058-1.315-.644-.24-.499-1.73 2.003.234-.36.613.266.194.61-.304 2.149.64-.512-.62 1.037-.122.59-.604-.41-.28.051-1.457 1.752.691-.148-.495.815-.513-.811-.614 2.55.134.063-.838-1.163-.586-.041-.714.967-.09.614-1.054.975-.267 1.14-2.38-.536-.182.81-1.847-.345-.375-.244.453.237-1.252-.783-.847 1.671.71.83-.269.48-.72-.789-.392.612-.042-.361-.326.612-.739-.569-.359.301-1.1-1.295-.384-.459-.644.413-.507-.049.57.408-.025.47-.681-.191-.68.654-.035-.201-.66 1.791-1.008-.146-.77-1.899-2.285-2.131-1.468.234-3.006 1.04.495-.293-.816.714-1.01-1.538-1.273.103-.927-.49-.134-.141-.63.472-.923.58.243.533-.708.628-.02.334-1.18.42.274.573-.744 1.273.266.013.517.373.2.069-.38.426.564.908.132.051-.546-.786-.765-.312-1.172.705-1.071-.397-.093.276-1.256-1.859-.796-.607-1.091-.719.036.255-1.053-.576-.322.584-.542-1.867-.461-.405-.951.556-.546.258-2.552 1.502-1.09.386.516.144-.362.641.072-.086-1.655 1.04.26.516-.863.687.046 1.584-1.808 1.481-.677 1.646-1.696-.516-.64-.635.136-.152-.436.795-.653-.825-.597-.059-.684-.689.1-.313-.437 1.153-.982-.046-.462-1.335.343-.486.621-.832-.579.002-.009-.018-.08 1.222-2.28.583-3.183-.306-2.212-.788-.782.205-.521-.543-.702.307-.83-.901-.442-.329-.734-.831-.03-.351-1.206-.627-.422.59-1.548-.111-1.148Z" fill="#EBF0EE"/>
    </g>
    <g opacity=".6">
      <mask id="b" style="mask-type:alpha" maskUnits="userSpaceOnUse" x="-189" y="-226" width="600" height="600">
        <path stroke="#000" stroke-width="2" d="M111-226v600M-100.293-138.707l424.264 424.264M-189 73h600M-101.707 285.557l424.264-424.264M-2.912-203.188l229.61 554.328M-165.64-41.299l554.328 229.61M-166.578 188.24 387.75-41.37M-4.587 351.212l229.61-554.328"/>
      </mask>
      <g mask="url(#b)">
        <path d="M-274-318h784v784h-784v-784Z" fill="url(#c)" fill-opacity=".7"/>
      </g>
    </g>
  </g>
  <defs>
    <radialGradient id="c" cx="0" cy="0" r="1" gradientUnits="userSpaceOnUse" gradientTransform="rotate(90 22 96) scale(392)">
      <stop offset=".211" stop-color="#E9B840"/>
      <stop offset=".618" stop-color="#E9B840" stop-opacity="0"/>
    </radialGradient>
    <clipPath id="a">
      <path fill="#fff" d="M0 0h160v160H0z"/>
    </clipPath>
  </defs>
</svg>
