<svg width="160" height="160" fill="none" xmlns="http://www.w3.org/2000/svg">
  <g clip-path="url(#a)">
    <g style="mix-blend-mode:multiply">
      <rect x=".333" width="160" height="160" rx="2" fill="#E7D7B0"/>
    </g>
    <g style="mix-blend-mode:multiply">
      <path d="m207.699 92.869.014.064-.014-.064Zm-67.771-18.5.564-.059-.033.59.968.31.047.516.775-.182.674 1.291 5.545.876 1.208 2.349-.283 2.268-.537.915 1.94.848.27-.283.356.418.614-.451 1.051.944 1.203.177.273.384-.182.456 1.575.556-.647.593 2.946-.212-.316 1.036.564 1.008 2.109.328 1.246-.942.784.174 3.077-1.706 1.702 1.446-.036 2.676 1.449.98.569-.132-.02.777 1.67-.847.208-.716 1.16-.29 1.871.713-.04.425.954-.155.426.498.594-.543 1.27-.047 3.656 1.536.485.779 2.733 1.414.582-.688 1.157.373 1.032-.434-.04-.456.649-.066.049-.514 1.404-.29.503-1.043.458.029.334 2.56 1.209.873 1.593-.133.164.703.792.047.485.446.474-1.138 1.662-.61 2.371 1.123.78-.238.44-.791.952.521.556-.087.396-1.073 1.003.618.671-.949.658 1.294 1.102.486.106.519.547.001.079-.512 1.024-.863.149-1.855.667.466.39-.5 1.07-.275.037.37-.925.79.251.352.553-.08.047.55.661.478-.637.525.122.351.509-.11.414.515-1.32 1.363-1.187.544-1.27 1.454-.55-.037-.415.693-.833-.209.069 1.33-.514-.058-.115.292-.31-.416-1.204.876-.207 2.052-.445.438.324.765 1.497.37-.468.436.462.259-.205.846.577-.029.486.877 1.49.64-.221 1.009.318.075-.565.861.25.942.631.615-.042.438-.728-.105-.341-.454-.055.306-.299-.161-.011-.416-1.02-.214-.46.598-.336-.219-.268.948-.503.015-.428.57-.464-.196-.379.742.113.507.393.107-.083.745 1.233 1.023-.572.812.235.656-.834-.397-.073-.48-1.284-.191-.402-1.005-1.313-.024-.456-.692-.556.327-.131.922-.99-.253.241.612-.391.403-.009.864-1.366-.614-.373.42-.79-.337-.551 2.5-.689-.309-.666.304-1.098 1.218.192 2.587-.121.507-.621.054-.611.62.308.388-.786 3.625-2.047-.671-.544 1.047.222.891-.592-.533-.37.314-.299-.331-.625.069.094-.557-.488-.47-.447.033-.327.785-1.075.282-1.113-.827-.956 1.304-.697.321-.291 1.723-.387.058-.232.989-.623-.196-1.102-1.198-1.217-.341.566-.863-.143-.926.32-.48-.999.153-.795-.668-.381.495-1.048-.342-.151-1.892-.645-.765-.807.093.196-.713-1.705.884-1.234-1.27-1.709.026-.689-.442-.682 2.034-.801.491.257 1.956-1.498-.392-.141.703-.535-.001-.315.757-.541-.487-3.469.447-.009.547-2.233.639.319.621-1.36.933-.408-.14.182-.987-.389.459-1.069.054-.372.673-1.199.072-.303-1.685-.779.191-.03-1.096-.634-.334-1.98 1.359-.351 1.164-1.459-.346-.115.527-.751.143.067.683-.543.973-.664-.958-.63.135.086-.516-.685-.567-.788-.114-.355-.514.261-.143-.633-.365.018-.557.547-.408-.568-1.176-.403.033.185.229-.39.393-.377-.417-.297.335-.497-.376-.262.153.109.683-.565-.556-.102.66-.514.435-1.072-2.433-.927-.479-1.084 1.676-1.028.279-2.573.519-3.716-.41.734-1.844-.745-.475.275-.549-.56-.457-.016-.597-.455.085-1.128-.948.061-.911-.619-.699-.172-2.609-.437-.128.666-1.996-.374-1.068.242-.328.658-.151.357-.791.867-.05 1.346-1.229.42.178.99-.4.474-.719.66-.063-.234-.133.329-.332.16.186.484-.457.5.425.637-.432-.085-.387.749-.099-.479-.544.695-.146 1.121-1.589 2.712-1.483-.117-1.089.421-.466.915-.199.784.518.146.633 1.406.153-.034-.293.595.097.216-1.363.828-.077.372.924.798-.282.673.687.616-.122.192-.791-.077.632.356.165.056-.983 1.275.152-.511-.607.334-.628-1.083-.816-.502.06.028-.815-1.791-.276-.255-.732-.967-.527-.936.232-1.608-1.008-.605.171.017-.64-1.295-1.338-.714-.059-.526-.856-.113-1.801 1.154.367.572-.768.787.302.381-1.342-.176-1.075-1.689-.198-1.038-1.209-.493.262-1.354-.296-.001-1.282 1.026.18.197-.442 1.252-.218.591-1.062-.013-.818 3.238.823 2.418-.526-.207-.833-1.302-.247-.47-1.307-.862.455-.227-.195-.159-.333.47-.978-.19-1.019-.542-.162-.685.691-.634-.401.156-.605-.684-.251-.18.449-.647-.276-.074-.762-.387-.206.369-.365-.099-1.57-.851-.455.509-.51-1.382.047.669-2.043-.413-.659-.961-.463.471-.852-.153-.403-1.055.27-.437-.221.503-.537.849-.634-.564-.146-.085-.697 1.071-.398 1.635.3 1.159-1.064.039-.521.344.066ZM15.802 12.928l-.433.325-1.157-.523-.606-1.263 1.168-.768.169.434.456-.172-.051.379.596.053-.142 1.535ZM126.39 138.493l1.731.326.378.764 1.006.264.613 2.406.567.256-.254.396 2.282.783.578 1.218-.25 1.334 1.023 1.533 2.727.672.045-1.096 1.175-.182.266 1.624-.904 1.639-.062 1.367.692.524.627-.391.456.811-.621 3.526 1.628 1.046.315 2.161.713-1.099.462.868.924-.228.122.507 1.563-.254.315.667-.326 1.364-.686.091-.753 1.763-.528.008-.489.51-.082 1.214-1.203.633-1.181-.039-1.281 1.226-.043.892-.381-.022-.069.364 1.114.697-.635 1.763-2.435.437-1.84 1.846-1.017-.049-.804.382-1.472 2.204.7.7-1.054.185-.055 1.675.31.572.801.389-.492.71.221.514-.906.213.091.692-.775-.375-.405.579.289.75-1.095 1.211 1.102.899-.541.37-.196-.802-1.029.665-.784 2.131.266.937.74.809.151.926-.474.154-1.781-.637-.271 1.138.348.485-.956.462-.48 2.26-1.195.625-1.347-.323-1.438-1.026-1.306.479-1.135-.172-.402.349-.622-.371-1.977.187.154.862-.607.556.22.626-1.179 1.724-1.144.687-.453 1.441-.74-.048-.24-.65-.932-.388-.195 2.267.563 2.43-.752 1.269.96.794.13 1.034.373-.374.325.857-.602 1.628.603.947-.41.351.144 1.104-.589 1.039.203 1.53 3.527 1.33.569-.259 1.288.176-.119 1.744.289.404-.252.715-.969.102-1.031.976-.235-.922.378-.758-2.57-.692-.91.382-.839.931-1.851-3.022-.887.36-2.05-1.293-.569.718-1.413-1.66-1.272 1.192-.497 1.546.21.756 1.882.958.337 1.06 1.355.228-.379 1.421.146 2.968-.403.66 1.184-.144.464 1.541 1.083.113-.284.925-.434.073.72.756-.535.971.46 1.909-.323.579.68.161.21.482-.306.543.527.816.245 1.862-1.135.27-.198 1.864-.545.594-.81.033-.048.781-.763-.121-1.123.504-.345 1.103-1.055-.385.051.524 1.125.612-.13.492-.65-.091-.201.638-.661.274-1.63 1.813-.292 1.175-1.477.108.011.502-1.11.175-1.113.751-.394 1.34.303.471-.237 1.155-.592 1.135.059 1.04-.682 1.672-.737-.164-.151 1.395-2.227-.098-1.606-.719-1.462 1.178-.7-.061-1.504-5.176.506-1.549-1.9.63-.234-1.155.328-.172-.645-.477-.538 1.207-1.078-.097-.022-.838.933-.627-.74-.857-.482-1.438.175-.464-.604-.185.134-.297-.818-.646-.308-.83-2.538-1.948-2.407.743-1.264-2.347-.431-.746.584-.091 1.224-1.055-1.375-1.874.001-1.046.925-1.566.046-1.192 1.052-.849-.057-.898.913-.392.656-1.326 1.569-1.18.718 1.679 1.05-.346.284.77 1.032-.058 1.628-1.328-.97-1.179 1.77-.7-.22-.957-.573-.181-.302-.6-1.04-.102-.773-.719-1.091-.07.153-1.435-2.146-1.48.047-.802-1.246-.097.152.939-.436-.368-.982-.03.049-.39.58.107 1.12-1.051-.253-.542-1.275-.126-.023-.477.635-.364.626.448.678-.055.428-1.013.01-1.413-.097-.795-.721-.523-1.772-.093-.133-.337.476-.494-.528-.928 2.175-.503.531-.671 1.287-.484-.54-1.117.618-3.759-.935-.154-.943.493-.515-.578.442-.678 1.233-.524-.588-1.478-.062-3.048-1.467.032-.542-1.403.402-.49-.239-1.095.408-1.373 3.026-1.403.64-.872-.278-.59 1.252-2.566-.356-2.085.157-2.275.416-.84 1.16.191.349-1.044.083-2.384-.308-.386.464-.074 1.107-2.887.675.112.22.998.606-.058.078-.646-.559-.324.764-.33.062-1.762 1.11-.32.495-.871-.065-2.682 1.192-.897.651.704.97-.875.485.324.322-.779.95.348.303 1.171.474-.694.4.217-.169-.486.71.012.668-.855 1.645.018.132-.463.427-.085.133-1.155.859-.323.27-.487.3.516.377-.285-.274-1.153.64-.736-.398-1.241.145-.719 1.479-.32.062-.442 1.365-.774-.371-1.54.334-.677 1.462-.042.732-.675.829.239.598-.698-.146-1.58.799-1.048-.061-.752-.817-.671-.458.111-.21-.771-.898.365-.53-.185.025-.655-.678.191-1.017-2.194-1.516.383-.384-.636-1.166-.399-.73.813-.656-.152-.447.761-.36-.305-.023-.804-.486-.082-.126-.622.561-.21.18-1.125.507.012.751-1.128-.224-.602-.585-.317-.155-1.103-.546-.423.205-.986.868-.344 1.044 1.232-.066.343 1.081.528 1.195-.23 1.08-.9.582.372.851-.19.759.787 1.99.012.705-.611-.078.389.457.463.495-.277 1.241.337 2.24-.143.956.502.481-.183-.292-.554.997.023 1.123-.622.077-.95 1.557-.266 1.014-.755 2.229 1.613 2.514-.043 1.749-.794.451-1.264 1.02-.627.221-.919.587-.527ZM22.044 48.392l.517.61-.347.772.472.148 1.024 1.45.656-.066-.209 1.375.425.689-.72.811.746 1.113-1.617.47-.287.395.253.677-1.272.392-.808-.653-.18-.99-.599-.51-.403.098-.726-.53-.009.546-.63-.253-1.515.356-.71-.923-.045-.663.338-.018.393-.872.95-.001-.278-.378.63-.928-.208-2.226 1.517-.31.753-.923.897.37.181.458.81-.486ZM-.305-24.65l.868-1.356-.46-.952.27-1.33-.657-1.138-1.345-1.138.225-1.202 1.006-.008 1.338.908 2.32-1.687.195-.727 2.442-.56.641-1.442 1.984-1.672 1.316.137 1.333-.6.585.054.767.898 1.75-.342.433-1.418.39-.126.416.385.435-.196-.424 1.835.697.877.558-.04.685 1.628 1.376.89.627-.204.674.53 1.045-.142.167 1.34.47-.345.925.717.18.613.33-.226.798.45.386.688.486-.108.527-1.215 1.152.48.499-.5.595-.017 1.094-1.137 1.18-.315.203-.537.803.287 1.322 1.338-.49.819 1.466.733.566 1.068.582.188L34.224-27l1.349 2.143.905-.11-.032-.877.535.229.476-.762.478.398.528-.737 1.027.197 1.408-.877-.137-.503 1.423-.483-.14 1.807.437.98-1.567.919.043.97-.352.427.543.643 1.224-1.079.482.36.583.278-.118.833 1.372.76-.93 1.328.034 1.365-.458.753 1.705-.071.91.626-.317 1.2.392.732.858.298 1.421 1.987.674.156-1.355 4.116.567.587-.227.45.391.98.77.043.875 1.483-2.116 1.924.17.665.548-.114.792.751-.323 1.022.864.396.03 1.012 1.324 1.407.15.673 1.002.931.373 1.242-2.129.158-.895-.788-.403-1.145-2.506.206-.225-.539-.664-.287-.991.588-1.139.058-.442-.8-.42-.31-.372.238-.7-.853-.986.053-.085.439-.414-.105-.62.72-1.441.067-1.022.807-.982.109-.268.6-1.01-.47-1.145.475-.759 1.451-.718.38.42 1.065-.492.757.353.32-.906-.462-.498.344.188.735.85-.03-.106 1.287-.763-.446-.001 1.012-.955 1.205.898 1.143-.131.488.777.434.05.874-.893.412.55.696.704-.015.126.6-.195.429-2.042 1.171-1.666.421-.308.506.202.393-.544-.25-.562-1.013-.391.711-1.197.082.628-.627-.049-.487-.848.911-.928-.846-.601.162-1.002-.604-.836.08-.293-.895-.924-.307-.332-.507.781-.634-.096-1.789-1.275-1.068-.733-.21-.35.26-.417-.686.159-.733-.32.305-.431-.244-.878-1.696-.845.523-.624-.5-.095-.677-.686.473-.973-1.125-1.744-.805-.188-.974.455-1.12-.62-.346.019-1.09.766-.597-.161-.28-.772.214.358-.684-.53-.579-.603.49.037-.565-.324.428-.065-.411-.437.191-.371-.728-.606.542.291-.46L8.31-1.002l-.273-.995-.068.51-.736.263.354.979-.692.213.001.456L4.801.67l-.112-.687-.53-.403.313-1.036L1.91-6.073.533-9.468l.844.052-1.309-2.696-1.874-.889-1.606-1.34-.688-.313-.865.223-.336-.313 1.413-1.66-.708-.409.04-.99 1.936-.782L-.793-20.7l1.502-.752-1.38-1.827.366-1.371Z" fill="#EBF0EE"/>
      <path d="m14.952 8.583.686-.473.095.678.624.5.845-.524.878 1.696.431.244.32-.305-.16.734.418.686.35-.26.733.21 1.275 1.067.096 1.79-.781.634.332.507.924.306.293.895.836-.08 1.002.604.601-.162.928.846.849-.911.047.487-.627.627 1.197-.082.39-.71.563 1.012.544.25.292.267-.37 1.17-.74.566-.91 1.836-.845.394-.435.973.28.227-2.45 1.15-.123.903-1.41 1.873-.473 2.203-.6.437.446 1.265-.981 2.048.409.93-.422.377.927 1.778-.23.612.356.406-.508.254.052.521.577.277-.416 1.217.248.572-.32.358.251.83-.305 1.477 1.566 1.932-.408.973.528.996-.67.277.087.444-.811.486-.181-.458-.897-.37-.753.923-1.517.31.208 2.226-.63.928.279.378h-.951l-.393.873-.338.018.045.663.71.923 1.515-.356.63.253.01-.546.725.53.403-.097.599.508.18.99.808.654 1.272-.392-.253-.676.287-.397 1.617-.47 2.327 1.838.335 1.062-.518.39.545.596-.052.506-.433.21 1.256.423-.435.345.06.537-.51-.196.051.516.854.067-.782.417-.069 1.187-.24-.19-.159.42.174.803.955.973-.42.482.456.2-.31.496-.857-.02-.175.911-.785-.208.002.71-1.242-.01-1.08 1.014-.227-.181-.523.579-.645-.692-.427.709.204-.454-.51-.133.013.454-.424.294-1.5-.833-.3.802.794.274.202.485-1.457-.063-.392 1.616-.617-.343-.537.316-.369-.78.572-.027-.518-.576.334-1.945.39-.03.207-1.624-.336-.111-.008-1.394.733-2.806-1.891-1.587-.836.29-.168 1.042-2.385 1.16.15 1.49-1.038.177-1.033.753.005-1.314-1.441-.202.746-.29-.834-.544.21-.36.627.102-.457-.924-1.602.32-.694-.753-.967-.027 1.301.965-.989.526.972.515-.226.73-.75.194-.258-.632-.525-.23-1.255.224.621.529-1.001.626.417.501-.222 1.107.547.307-.094.672.513.44-.856.64-1.442-1.167-.653.394-1.473-.323.244-.853-.826-.144-.09-.312.254-.345.42.272.403-.915-.518-.313.58-.176-.35-.398.682-.11-.08-.341.515-.373-.34-.285-.529.73-.042-.565-.781-.255 1.558-1.52.656.095-.022.447.474-.206-.813-.915.134-.41-.711-.336.128-.753-1.09-.721-.548-.969-.564-.476-2.022-.269.135-.962-2.536-1.701-.187-1.083-1.06-.239-.456-2.617-.517-.721.252-.945-.787-1.732.84-.95-.091-.685-1.299-.112-.075-.932-.844-.108.264-1.126-.596-.274.672-.897-.085-1.416-.64.142-.216.552-.516-.19.073-1.115-1.629 1.134-.74-.653-1.22.812-.512-.11-.65-1.061-.83.299-.645-.198-.441-1.605-1.463-.765-1.437.933-1.81-.318-.142.799-.783.056.016-.657-.662-1.097-.45-.123-.038-.477.233-.331.614.154.604-1.331-.814-.708.661-3.687-.32-.305-1.033.53-.916-.052-.114-.85 1.5-1.523-.337-.721-.487-.1.238-.695 2.176.755-.121-.348.866-.914.564.145 1.313-.6.823.654.542-.18.064.571.518-.196 1.262 1.809 1.285-.441.328-.704.33.818-.39.465.44.446-.288.387 1.086.5.023-.756.458-.368.827 1.689-.634.523.027.73-.637.487.263.636.815.458.038 1.174 1.235-.426.143-.397-.407-.42.632-1.18.556.223-.256-.674.738-.34 1.114-1.882 1.146.932.76-.113.21.452.757-.073.206-.523 1.226.351.143-1.041 1.117-.327.416.356.56-.102.855 1.272 1.456.307.897-.481.307.183.714-1.152.658.182 2.136-1.417L5 28.552l-.312-.782.64-.302-.22-1.412.416-.21-.29-.21.963-1.304-1.095-.595.363-.001-.137-.468.804.781 1.22.211.442-.38-.392-.422 1.09.425.198-.591-.35-.5.496-.373.712 1.988.659.07.175.402.914-.433.372.462.413-.1.436-.497.208-1.963-.589-.18.132-.31-.477-.5-.875.575.257-.74 1.057-.112 1.102-1.084.69-.137.397-.524-.463-.108-.19-.558.982-.888.86.53.408-.432.813.935v.52l.8-.567-.655-1.03.002-.854.534-.657-.6-.44.483-1.165-.932-.804.061-.76-.466.461-.255-.591.142-1.535.317-.565-.324-.79-.998-.866.013-.589ZM129.359 130.593l3.716.41 2.573-.519 1.028-.279 1.084-1.676.927.479 1.072 2.433.513-.435.103-.66.565.556-.109-.683.262-.152.498.375.297-.335.377.417.39-.393-.185-.23.404-.033.568 1.177-.548.408-.017.556.634.365-.262.144.354.513.788.114.686.567-.087.516.63-.135.665.957.543-.972-.067-.684.751-.143.114-.527 1.459.346.351-1.163 1.979-1.359.634.334.031 1.095.778-.19.304 1.685 1.198-.072.372-.673 1.07-.054.388-.461-.182.987.408.141 1.36-.934-.318-.62 2.232-.639.009-.547 3.469-.447.541.487.315-.757.535.001.141-.704 1.498.393-.258-1.957.801-.491.682-2.034.689.441 1.709-.025 1.234 1.271 1.705-.884-.197.713.808-.093.644.765.151 1.892 1.049.342.381-.495.794.668.999-.154-.32.48.143.926-.566.863 1.218.341 1.102 1.198.623.196.231-.989.388-.058.291-1.723.697-.322.956-1.302 1.112.826 1.075-.282.328-.784.447-.034.487.471-.093.556.624-.068.299.331.371-.314.59.532-.221-.889.544-1.048 2.046.671.785-3.625-.307-.387.61-.62.622-.054.121-.507-.193-2.587 1.098-1.219.667-.304.688.31.551-2.501.79.337.373-.419 1.365.614.009-.864.392-.404-.241-.612.989.254.132-.923.555-.326.456.692 1.313.023.402 1.006 1.284.191.073.48-.188 2.415 1.708 1.18 1.522 1.837.117.618-1.435.811.161.53-.523.029.152.546-.376.547-.327.02.039-.458-.331.407.368.517 1.038.31-.241.884.456.288-.491.595.29.261-.491.035.632.314-.384.579-.666.216-1.339-.571.628.681-.19 1.006.195-.364.277.301-.649 1.485.43.147-.914 1.911-.781.215-.493.846-.776.073.033.574.934.471-.052.674-2.042-.108.649.494-.653.412.118.398-1.404-.555-.04 1.171.328.226-.473.485-.831.098.41.498-1.723-.514-.488.245-.213-.156.289-.493-1.606-.189.401 1.39.515.193.047 1.057-.41.474-.378-.63-.094 1.495-.41-.085-.51-.186.12-.248-1.1-.235.603.876-.3.466-.419-.012-2.674-1.3-.518.378-.704-.648-.336.324-.069.337-.857.608-.475-.371.458 1.299-.472 1.361-.917.181-.109-.299-.644-.014-1.737.432-1.072.779-1.51-.012-.004.379-.997.456-.391.762-.072.86.31.254-1.221.718.24.284-.243.153-.365-.39-.601.398-.315-.297.24-.627-.302.253-1.283-.315-.013-1.747-1.665-.297-.613.594.619 1.071-1.757.72-1.324-.289-.053 1.111.558.725-.501.106.199.757-.878 1.116.09 1.252.441.014.977 1.192 2.073-.259.188.642 1.506.471.23.776 1.061.9 1.459-.393 1.612.716.394-.377 1.379.09.254.434.477-.385-.373.788-.575.185-.241-.279-.639.479.513.491-.513.664-.283 1.539 1.537 1.377.556-.351 1.337.866.575 1.788 1.841.062.657 1.347-.16.445-.745-.022.287.923 1.389.534-.251 1.307.969.556-.009.769-1.178.051-.077-.267-.034.473-.165.445-.411-.003-.151.045-.753-.072-1.219-.328-.094-.513-.929-.246-.212-.421-.784-.007-.552-.781-1.046.321-.086.399-1.37-.802-1.241-1.831-2.933-.72-1.17-1.441-.281.788-.896.38-.268.802.939.579.212.901-.481.674.468.16-.204.356.592.069-1.249 1.148.968 1.062-.447 1.392-.984 1.639-.516.261-.116.697-2.46-.422.462-1.595.728.004-.488-.619-2.049 1.134-.628-.758-.91.29-.876-.223-2.468-1.314-.53.074-.087.638-.597-.098-.39.326-1.176 1.949-.343-.783-.651-.456-.028.364-.26-.405-.623.073-.398-.603-.877-.205-.707.562-.382-.087.746-.498.796-2.925.747-.335-.007-.434-.444.002.085-.493-.321-.137-.197-2.375-1.834.724-.124-.223-.91.604-.294-.461-.747.308-.422-.374-.936.088-.151.498-3.693-.096-.85.257.016.408-.506.084-.37.554-2.327.21-.726-.666-.892.035-.708-.533-.297-1.279-2.253-.914.044-.892 1.28-1.227 1.182.039 1.203-.632.082-1.215.489-.51.528-.007.753-1.764.686-.091.326-1.363-.315-.667-1.563.253-.122-.507-.924.229-.462-.869-.713 1.099-.315-2.161-1.628-1.046.621-3.525-.456-.812-.627.391-.692-.523.062-1.368.904-1.638-.266-1.625-1.176.183-.044 1.096-2.727-.673-1.023-1.533.25-1.334-.578-1.218-2.282-.782.254-.397-.567-.256-.613-2.405-1.006-.264-.378-.765-1.731-.326 1.332-3.052-.442-.902 1.283-.931-.365-.725-.506-.09-.318-.873.197-.847 1.788-.48ZM39.437 87.252l.868.287.36-.818 1.179-.195.653.938.614-.14.423.648 1.957.766 1.585-.22.957-.586.13.395.307-.25.43.53.767-.017.91 1.152.663-.165.752.314-.174.645.94-.414.211 1.402-.442.69.199-.157.113.593.384-.013.686.914-.212.893 1.332.213-.162.523-.517-.014-.171 1.041.969.335-.308.186.186.36-.557.077-.175.746-.277-.287-.514.39.34.643-.623-.026-.093.694-.638.037.396.764-.987.298 1.03 1.08-1.002.844-.25 1.649-.904.634.107.853-.614.183.26 1.153-.86-.582-.212.225.398.056-.03.297-1.253.945 1.097 1.4-.104.937-2.18.571-.483.534-.68-.44-.466.465-1.614-.336-.528.568-.44-.224-.352.581.205 1.036-.737.548-.506-.121-.294 1.008-.592.491.609.713-.396.481.631.243.16.971.735.529-.21.423 1.038.488-.478.291.418.461-.81-.032-1.148.78-.005 1.665-2.757 2.197-.026.46.768.82.193 1.225.818 1.494-.162 2.026-.666.658.848.866-.046.535 1.599 1.144-.595 1.043.913 1.003.937-.41 1.2-1.787 1.243.685 1.542 2.078.506.197.567-.359.232.269.245-.356.534 1.452.371-.558 1.112-.237.491-1.45 1.005-.973.298-1.628-1.29-.473.09-.633.288.303.606-.232-1.44-2.653-1.782.867-.467-.221-.16-1.024.55-.822-.133-1.691.272-.373-.274-.865-1.633-.764-.25-.781-.538-.385.338-1.803-.761-.679-.486-3.004-1.222-.66-.726.435-.454-.338.225-.29.45.209.427-.577.138.369.422-.045.279-.375-.278-.682.868.208-.257-.82.463.067.258-.467.427.198.41-.702.563-.071.265.354-.549.468-.215-.304.024.602.87.173.078.482.863-.101-.362-1.018 1.187-.331-.984-.064-.516-.552.12-.7.422.46 1.246.195.27.213-.542.151.348.259.389-.65-.49-.803.81-.268-.029-.612.613-.044.11.338.237-.346.19.536-.435.195.328.763-.551.62.44.348.527-.197.313 1.177-.848.453-.616-.44.658-.034.31-.432-1.268.235-.63.665.098.37-.877.328-.148.322.484-.041-.102.54.614.781.59-2.157.87.239.428-.34.293 1.21-.5.421-.545-.218-.288.541-.268-.194-.069 1.679 1.3-1.013.808.453-.02-.707-.399-.208.575-.6.121.538.754.421-.542.732-.048.81.362.094.702-1.017.614.531-.214.383.363.615.852-.13-.213-.46.307-.164.367.698.544-.049.087-.456-.504-.141.374-.236.396.144.016.582.733-.209.193-.347-.608-.851-.088-.948 1.003.884.244-.251-.304-.292.187-.802-.51.203-.38-.531-.482.353.013-.726.588-.561.87.134-.257.73.377.536.246-.541.814.656.715-.461.562.253-.53.016-.547.831.266.234-.563.07-.438.72.26 1.061.272-.478.27.59.635-.503-.133.711.499.254 1.286-1.771.411.565.223-.139-.084.436 2.513-.233 1.875.848-.14-.652.415-.316-.424-1.68.94-.313.187.44.496-.72.92.061.409-1.394 1.064-.237.68.325 1.098-.846.102-.61.872.212.182-.446.933.776-.114 1.841 1.258.961.357-.102.42 1.287-1.231.547-1.435 2.14.845.506.718-.428.396.305-.278-.896 1.273-.454.502.698.408-.012.098-.826-.405-.237.567.023.577.623.324-.444.754.359-.207-1.551.642.597-.528.352.935.56.39-.137-.097.516.912-.33.829.189v-.422l-.862-.255.002-.465-.438-.267 1.7-.174.478.676.146-1.54.71-.054.457.659-.679.685.097.982-.749.595.366.766-.99.493.208.51.556.184.85-.267.258.173-.046-.319.672-.294.312.872 1.047-.126-.123-.408 1.137.039.953 1.122.493-1.239.638.443-.247.103.479-.099-.185-1.141 1.018-1.358-.27-.693.398-1.162.633.033.14.929-.028-.884.289-.166 1.042.922.663-.196.138.433-.637.05 1.409.613.406-.595-.59-.567.383-.284.497.163-.257-.811.967-.163.261.514.633.161-.457.434.155.676.264-.419.258.362-.648.438.18.356.923-.354.395.671.858-.092.966.72.683-.172.965.495.211-.313.23 1.468-.265.715 1.066 1.155.778-.375 1.825 1.09h.802l.622-.601-.289.37.519.431-.342-.015-.281.796.696.203-.243-.435.396.006-.032-.286.296.236.09-.398-.233 1.975.393.066.176-.377.562.305-.042 1.047.609-.186 1.35.482-.128-1.6.522-.418.281.527 1.183-.008.184.492 2.188-.902.646.46-.013.585 1.149-.026-.045.853.616.001.076.875-.931.208-.569-.273.052.797.356.251-.5 2.13.908.225.061 1.495-.242 1.045-.39.239-.112 1.562-.843-.36-.229.438.868 1.001.984.054-.413 1.046.941.301.177.779-1.014.755-1.557.266-.077.95-1.123.622-.997-.022.292.553-.481.183-.956-.502-2.24.143-1.241-.337-.495.277-.457-.463.078-.389-.705.611-1.99-.011-.759-.788-.851.19-.582-.372-1.08.9-1.195.23-1.081-.528.066-.343-1.044-1.232-.868.345-.205.985.546.423.155 1.104.585.316.224.602-.75 1.128-.508-.012-.18 1.125-.56.21.125.622.486.082.023.804.36.305.447-.76.656.152.73-.814 1.166.399.384.636 1.516-.382 1.017 2.193.678-.191-.025.655.53.185.898-.364.21.77.458-.111.817.671.061.753-.799 1.047.146 1.58-.598.699-.829-.24-.732.675-1.462.042-.334.677.371 1.541-1.365.773-.062.443-1.479.319-.145.719.398 1.241-.64.736.274 1.153-.378.285-.298-.515-.271.486-.859.324-.133 1.154-.427.085-.132.463-1.645-.018-.667.855-.711-.012.17.487-.401-.218-.474.694-.303-1.171-.95-.348-.322.779-.484-.324-.97.875-.652-.704-1.192.898.065 2.681-.495.871-1.11.32-.062 1.763-.764.329.559.325-.078.645-.607.058-.22-.998-.674-.112-1.107 2.887-.464.075.308.385-.083 2.384-.349 1.044-1.16-.191-.416.84-.157 2.275.356 2.086-1.252 2.565-1.078.109-1.83-1.323-.633-.086-.135.549-.63-.079-.243-.561.379-.559-.692-1.504-1.877-1.805-1.225-.255-1.246.494-.873.954-1.19.362-.973-.403-.35.589-.998-.118-2.116-1.302-1.449.826-1.884.235-.817-2.363-1.238-.314-.358.307-.777-.079-2.046-.82-.15 1.33-1.225-.177-1.016 1.116-1.336-.042-.256-.314-1.381.48.248.583-.398.099.616.748-.15.479-.613-.24-.271.284-1.619-.076-.211.399-.438-.485-.454.531-2.294-.404-.311-.524-.986-.232-1.335.486-.127-1.822-.732-.304-.316.734-.411-.223-.556.348-.645-.416.052.43-1.5.217-.198 1.095-3.92 2.027-.968.167-1.403-.628-.1.391-.74.092-.274.381-.486.102-.24-.69-.407.465-.276-.397-.84-.004.054.482-.346.046-1.656-.241-.301-1.438-.527-.291-.363-1.092.69-.428 1.86.488.683-.237-.614-.361.006-1.172-.496-1.345-1.134-1.282-3.218.158-.053.701-.995.116-.293.434-.61-.605-.234.252-1.452-.172-2.911 2.221-.833-.258-.317.399-.65-.082-.127 1.043-.423.319.49.595-.129.425-2.714 2.386.62.957-.64 1.628-2.313-.062-.59 1.472-1.297.68-1.61.037-.333-.351-1.522.182-.997-1.451.9-.11.099-.318-.482-.904.252-.381-1.029-2.084-.787.386-1.422-.75-1.372-.102-3.65.35-1.097-.266-1.034.408-1.355-.394-1.19.204-.63-.368-1.011.254-.039-.479-1.356.086-1.781-.885-.976-1.914-2.65-1.187-1.885.357-3.947-1.3-.111-.661-.7-.152-.128-1.465.404-1.851-.579-.833-.76-.304-.046-1.01-.98.116-.573.748-.894.213-.21.578-1.515.185-.929-.518.134-.591-.955-.529 1.412-1.298-.444-.344-.415.141-.127-2.102-.799-.165.27-.398-.552-.768.217-1.362.68-.209.38.719.965.19.267-.836.345.167.526-.759.616.102-.683-.707-.84-.073-.235-.745-.07.616-.436.22-.286-.449-.361.656-.335-.86-.429.04.122-.785-.72.325-.14-.322.546-.778 1.472.612 1.904-2.332 2.021.022.321-1.598 1.29-2.345-.467-1.201-.868.453-.653-.619-.346-.581.496-.281-.817-1.52 1.163-.905 2.059.426.569-.796 1.06-.234 1.039-1.042.788.125.513-.32.001-.38-.862.178.46-.358-.356-.546-.934.229-1.264-.758-.314.339-.598-.852.892-.902.055-.826.67-.715.703-.057.782-.724.56.059.873-.877.305.258.723-.371 1.03-1.269.573-.137-.546-.969.56-.961-.593-2.57.267-1.144 1.218-1.739-1.902-3.406.42-.374-.196-.519-.419-.353-1.987-.036.525-.634.056-1.017 1.21-1.779-.678.1-.024-.542-.644.144-1.14-.512.762-.811-.15-.785.717-.26-.113-.483.572-.65-.71-.299.408-2.01 1.59 2.612.85-.094.33-.752.64-.142-.11-.824.457-.001-.224-.807-1.532.166-.994-.483-.165.381.12-1.129-.55-1.404.387-.853.355.696.297-.238.481.398.121.681 2.097.608.22-.423 1.063-.133-.053-1.423.827-.491-.089-1.004 3.17.05.102.33-.554.347.315.81-.402 1.169-.646-1.423-.162.276.455.723-.538.624.847.377.25-.327 1.67-.107-.12.538-1.894.943-.456-.749-.876-.105.383-.681-.45.106-.26-.372-.117.479.86.878-.773.508-.356.779.535.851.855-.192 3.14.734 2.21-.547.535.637 2.488-1.421 1.345.65-.197 1.086.368.343-.351.739.174.329.426-.321.917.771-.183.359.313.349-.577.442.352.319-.048.674-1.05.692-.953-1.045-.722.869.111.354-.482.076.188 1.064.462.692.784.134.266 1.058-.907.474-.51 1.506.557.012.227.541.785-.03-.034.666-.921.247-.3 1.188-1.047.535-.531-1.194-.586.624-.865.147-.288-.57-.894-.482-.843 1.26-.14 1.108 1.77 1.126.264.341-.342.287.45.473 1.178-.029.556.764.05-1.084.517.004.192-.724-.527-.35.071-.498.807.259.464.669.292-.379 1.13-.393.305.204 1.653-.895-.266-1.711 1.475-.931 1.492-.364-.227-1.873.564-.878-.195-.771.722-.858.352.382-.196.485.356 1.261 1.142.021.75-.704 1.49.857.155-.362.504.188.284-.27 1.045 1.26.822-.32-.238-.373.537-.54-.158-.364.441.137.04-.383 1.303-.413.162.672-.482 1.027.459.408.916-.012.784.959.933-.345.747.146.276-1.068.481-.326-1.194-1.201-.579-1.255.19-2.422-.625-1.213.878-.279.227.448.566-.34.03 1.038.862.499.615-.317.518-.945.312.042.245-.807-.09-1.349-.557-1.274-.93-.388-.344-.628-.72.347-1.056-.066-.777-1.294.511-.381 1.614-.178.38-.43-.596-.28.12-.538-.505-.055-.627-1.69 2.37-1.3 1.42.41.633-.208.938-.834 1.575-.103.69.661 1.627-.549-.132-1.399.463-.091-.197-.622-.965-.85.377-.907-.602-.1.424-1.636-.954-.439-.379.24-1.066.939-.257 1.161-2.205-.529-.872.722-1.113.073-.287.408-.827-.88-.854-.152-1.24.343-.056-.449-1.458-.174-1.335-.814-.23-.795-.42-.205-.748-1.64-.162-2.681-.562-.416.08-.433.82-.298-.022-1.202 1.078-1.432.575.062.333-.714 1.483.119.494-.368-.11-.369.856-.212.577-1.097-.167-.345.975-1.199 1.671-.737.828-.933.969-.169.55-.888 1.344.01 1.477-1.097.76-1.163 1.663-.147-.08-.792 1.617-.15 2.463-1.765.787.077.516-.775 1.167-.18.126-.853 1.003-.387.259-.793.906-.054.754-.712 1.59.372.058-1.043.458-.313-.276-.804 1.297.105-.258-.673.83-.172Z" fill="#EBF0EE"/>
      <path d="m-.305-24.65-.367 1.372L.71-21.45l-1.502.752-1.827 2.114-1.936.782-.04.99.708.41-1.413 1.659.336.313.865-.223.688.313 1.606 1.34 1.874.89 1.309 2.696-.844-.053 1.376 3.395 2.563 4.617L4.158-.42l.531.403.112.687L6.896.423l-.001-.456.692-.213-.354-.98.736-.262.068-.51.273.995L9.484.685l-.291.459.606-.542.37.729.438-.192.065.41.324-.427-.037.566.604-.49.529.578-.358.684.772-.213.16.28-.765.596-.019 1.09.62.345-.455 1.12.188.975 1.744.805.973 1.125-.013.59.998.866.324.789-.317.565-.596-.053.051-.379-.456.172-.17-.434-1.167.768.606 1.263 1.157.523.433-.325.255.591.466-.462-.061.76.932.805-.483 1.166.6.44-.534.656-.002.854.655 1.03-.8.567v-.52l-.813-.935-.408.432-.86-.53-.982.888.19.558.463.108-.398.524-.69.137-1.1 1.084-1.058.112-.257.74.875-.575.477.5-.132.31.589.18-.208 1.963-.436.497-.413.1-.372-.462-.914.433-.175-.402-.659-.07-.712-1.988-.496.373.35.5-.198.59-1.09-.424.392.422-.442.38-1.22-.21-.804-.782.137.468-.363.001 1.095.595-.963 1.303.29.211-.417.21.22 1.412-.639.302.312.782.976.381L3.84 30.35l-.658-.182-.714 1.152-.307-.183-.897.48-1.456-.306-.854-1.272-.56.102-.417-.356-1.117.327-.143 1.041-1.226-.35-.206.521-.757.074-.21-.452-.76.113-1.146-.932-1.114 1.882-.738.34.256.674-.556-.223-.632 1.18.407.42-.143.397-1.235.426-.038-1.174-.815-.458-.263-.636.637-.487-.027-.73.634-.523-.827-1.69-.458.369-.023.756-1.086-.5.288-.387-.44-.446.39-.465-.33-.818-.328.704-1.285.44-1.261-1.808-.519.196-.064-.572-.542.18-.823-.653-1.313.6-.564-.145-.866.914.12.348-2.175-.755-10.676-.522.062-1.5 1.222-1.454-.006-1.445-.144-1.306-1.473-2.095.547-.946.416-.081.126-.825.466.105.357-.843.856-.701.741.135-.165-.502.421-.402-.028-.736.304.14.161-.52.554-.01 1.38-1.712.846-.208-.334-.745.598-.29-.198-.331.517-.946.797.035.043-.781.86-.407.926-1.182 1.148-.544.345-1.462 1.09.405.846-.287.377-.67-.29-.695-.785.185-.165-.311-.495.072-.117.754-.57.19-.145-.713-.66-.333.11-2.647.693-.518 1.534-3.202-.266-.53-1.03-.298.646-.643-.05-.67-1.422-3.082.013-.444.574-.16.078-1.506.747-1.138.38.092.633-.735.738-.133.1-.66.455.411.2-.296 1.045-.058.157-.844.794-.528.125-.532.91-.302 1.343.737 1.893-1.08.82.297.525-.973.745.59 2.108-2.95.065-.682-.76-1.373 1.577.261.973-.316-.077.451.383.147.188.684.475-1.459 3.1-1.388.585-1.167.993-.214 1.16-1.79Z" fill="#EBF0EE"/>
      <path d="m-32.718 22.562.006 1.445-1.222 1.453-.062 1.501 10.676.522-.238.695.487.1.338.721-1.501 1.524.114.849.916.052 1.034-.53.319.305-.661 3.687.814.708-.604 1.331-.614-.154-.233.33.037.478.451.123.662 1.097-.016.657.783-.056.142-.799 1.81.318 1.437-.933 1.463.765.44 1.605.646.198.83-.3.65 1.062.512.11 1.22-.812.74.653 1.629-1.134-.073 1.114.515.19.217-.551.64-.142.085 1.416-.672.897.596.274-.264 1.126.844.108.075.932 1.299.112.092.684-.841.951.787 1.732-.252.945.517.721.456 2.617 1.06.239.187 1.083 2.536 1.701-.135.962 2.022.269.564.476.549.969 1.09.721-.13.753.712.336-.134.41.813.916-.474.205.022-.447-.656-.095-1.558 1.52.781.255.042.565.53-.73.339.285-.515.373.08.34-.681.111.349.398-.58.176.518.314-.404.913-.419-.27-.253.344.09.312.825.144-.244.853 1.473.323.653-.394 1.442 1.166.856-.64-.513-.44.094-.671-.547-.307.221-1.107-.416-.501 1.001-.626-.621-.53 1.255-.223.525.23.258.632.75-.193.226-.731-.972-.515.99-.526-1.302-.965.967.027.694.754 1.602-.32.457.923-.628-.101-.21.359.835.545-.746.289 1.44.202-.004 1.314 1.033-.753 1.039-.176-.15-1.49 2.384-1.16.168-1.044.835-.289 1.892 1.587-.733 2.806.008 1.394.335.111-.207 1.623-.389.03-.334 1.946.518.576-.572.027.369.78.537-.316.617.343.392-1.616 1.457.063-.203-.485-.793-.274.3-.802 1.5.834.424-.295-.014-.454.511.133-.204.454.427-.709.645.692.523-.58.226.182.482.355-.11 1.326.661.43.099.825-.53.789.662.348-.335.426.08.784.804.257.238.739.564.3-.245.7.285.499 1.11.34 1.315 1.04.673-.318-.382.816.894 1.174-.08.411.57.322-.313.471-.842.135-.244.863-1.57.53.39.532.753-.206-.14.782 1.19.406.781-.685.514.973h.319l.07-.593.486.167-.318.656-1.486.273-3.851 2.026.285.908-.18.93.607.01-.273.432.766-.383-.21-.395.29-1.14.385.491 1.425-.204 1.893-.92.053-.665.586-.405 2.325.916.167-.666.714.47 1.101-.206.26.944.44-.264-.096-.77 1.008.197.168-.915 1.597.272.18-.286.788.578-.606.775-.603-.113.318.996-.831.171.258.674-1.297-.105.276.803-.458.313-.058 1.043-1.59-.37-.754.71-.906.055-.259.793-1.003.387-.126.852-1.167.18-.517.776-.786-.078-2.463 1.765-1.618.151.08.792-1.662.147-.76 1.163-1.477 1.097-1.344-.01-.55.888-.969.169-.828.933-1.67.736-.976 1.2.167.345-.577 1.097-.857.212.11.369-.493.367-1.483-.118-.333.714-.575-.063-1.078 1.433.021 1.202-.82.297-.079.433.562.417.162 2.681.748 1.64.42.204.23.796 1.335.814 1.458.174.056.449 1.24-.343.854.152.827.88.287-.408 1.113-.073.872-.722 2.205.529.256-1.161 1.067-.939.38-.24.953.439-.424 1.636.602.1-.377.906.965.851.197.621-.463.091.132 1.399-1.627.55-.69-.661-1.575.103-.938.834-.633.208-1.42-.41-2.37 1.299.627 1.691.504.055-.12.537.597.281-.38.429-1.614.179-.511.38.777 1.295 1.056.066.72-.348.344.629.93.388.557 1.274.09 1.349-.245.807-.312-.042-.518.945-.615.317-.862-.499-.03-1.038-.566.34-.227-.448-.878.279.624 1.213-.189 2.421.578 1.256 1.195 1.201-.481.326-.276 1.068-.747-.146-.933.345-.784-.959-.916.012-.459-.408.482-1.027-.162-.672-1.303.412-.04.384-.441-.137.158.363-.537.541.238.373-.822.32-1.045-1.26-.284.27-.504-.188-.156.362-1.489-.857-.75.704-1.142-.021-.356-1.261.196-.486-.352-.381-.722.858.195.771-.564.878.227 1.873-1.492.364-1.475.931.266 1.711-1.653.895-.306-.204-1.13.393-.291.379-.464-.669-.807-.259-.071.498.527.35-.192.724-.517-.004-.05 1.084-.556-.764-1.178.029-.45-.473.342-.287-.265-.341-1.77-1.126.141-1.109.843-1.259.894.482.288.57.865-.147.586-.624.53 1.194 1.049-.535.299-1.188.92-.247.035-.666-.786.029-.226-.541-.557-.011.51-1.506.907-.474-.266-1.058-.784-.135-.462-.691-.188-1.064.482-.076-.11-.354.72-.869.955 1.045 1.05-.692.047-.674-.352-.319.577-.442-.313-.349.183-.359-.917-.771-.426.321-.174-.329.35-.739-.367-.343.197-1.087-1.345-.649-2.488 1.421-.534-.637-2.211.547-3.14-.734-.855.191-.535-.85.356-.779.774-.508-.86-.878.116-.48.26.372.45-.105-.383.681.876.105.456.749 1.893-.943.121-.538-1.67.107-.25.327-.847-.377.538-.624-.455-.723.162-.276.646 1.423.402-1.169-.315-.81.554-.348-.102-.329-3.17-.05.09 1.004-.828.491.053 1.423-1.063.133-.22.423-2.097-.608-.12-.681-.482-.398-.297.238-.355-.697-.386.854.549 1.404-.12 1.129.165-.381.994.483 1.532-.166.224.807-.457.001.11.824-.641.142-.328.752-.85.094-1.591-2.612-.409 2.009.711.299-.572.65.113.484-.716.26.15.785-.763.811 1.14.512.644-.145.024.543.678-.1-1.21 1.779-.056 1.017-.525.633 1.987.037.419.352.196.52-.42.374 1.902 3.406-1.219 1.739-.266 1.144.593 2.57-.56.961.546.968-.572.138-1.031 1.269-.723.371-.305-.258-.873.877-.56-.059-.782.724-.702.056-.67.716-.056.826-.892.902.598.852.314-.339 1.264.758.934-.229.356.546-.46.358.862-.178-.001.379-.513.321-.788-.125-1.04 1.042-1.06.234-.568.796-2.06-.427-1.162.906-.684-.594.096-.435-.717-1.279-.654-.07-.418.732-.952-.489.115-1.667-.546-.485-.973-.006-.2-.667-.713-.098-.335-.728-.404.067-.143.591-.758.08-1.057-2.02-.834.224-.312-.442-.657.847-.373-.795-.866.282-.348-.221.436-.953-.362-.81.402-1.382-1.42-.598-1.084.711-.085-1.598-.497-.104-1-1.299-.758.234-.224-.384-.01-1.376 1.064-1.281-.334-1.1.148-1.121-.75-.684.065-.744-.651.242-.046.767-.705.858-.768.309-.798-.755.423-.866-1.864-.748-.535-.86 1.058-2.279.607.118.21-.781.307.174.347-.565-.347-.199-.698.459-1.445-.814.397-.591-.237-1.272-.737.548-.65-.318-.213.218-.63 1.614.48.368-1.15.698-.948-.732-2.305.084-.665-1.077.065-.705-1.85-.285-.746-.638-.749 1.051.122.751-.732.051-.476-.992.099-.813-.884.101-.554-.998-1.068.262-.75-.776.48-.369.795.245.472-.582-.658.172-1.446-.446-.33.377-.769-.035-1.368-.712.005-.825-.557-.163-1.841 1.471-.41-.755-.741-.146-.308 1.321-.793-.328-.217-.906-2.337.693-.764-.696-2.182-.059-1.79.971-.544-.587-.906.848-3.24-1.359-2.75-4.73-.87-3.911-2.174-2.26-.378-1.048-1.19-1.28.232-2.397-.372-3.374-.833-.177-1.374.561-2.322.243-2.041-.704-3.12-4.567-.23-2.437 1.531-3.227.192-4.564-.275-1.209-1.726-.918-3.178.345-1.088-.21-1.589-1.167-3.643-1.791-.407-1.095.501-3.996 1.104-2.824 4.826-4.516 1.263-1.894 1.36-1.029 1.557-4.027.836-1.285 3.558-3.335 1.999-.494 1.34.272 1.863 2.021.107 1.44 1.347 2.33 2.152.36 6.61-2.744 2.326-.457 4.226-.061 4.066-1.693.61-3.249 1.065-1.536 3.206-2.902 1.998-5.907 1.407-1.913 5.553-3.305 3.919-1.783.992-2.326 1.516-1.973 3.096-5.978 2.042-7.424 3.737-1.652 2.993-.86 3.046-2.516Z" fill="#EBF0EE"/>
      <path d="m28.44 18.456 1.21-.125 1.302 1.415 3.753 1.799-1.581 2.637-.433.442-.453-.202-.49 1.012.25.429-.718.758.253.388-.464.638.26.419-.527.814 1.066 1.683-.118 1.355.632.302-.04.361.62.246.763-.636 1.328-.067.422 1.778-.424-.039-.078.5.62.045.073.822.83-.132.12-.787.649-.17.97-1.446.925-.662.644.116 1.707-1.795 1.374.463 1.275.606.676 2.279 1.325 1.218 3.066 1.667 2.336.386-.897 1.24-.704.47-.337-.286-.343 1.04-.534-.398-.74.63 1.462 1.154.897-.067.791 1.138.022 1.008.747.02.306-.334.93.948.169-1.055 1.766.832.104 1.163.484.35-.121.549.778-.12 1.613 1.47.9.013.133-.35.295.647.415.093.167 1.476 1.632-.144.497-.565.246.901 1.065-.44.895.393.782-.624 1.06-.216.58.56-.43 1.109.553-.132.147-.628.502.01.367.5-.596.188 1.032.125-.21.317.569 1.024.773.329.779-.42.456-.882-.252-.324.795-.577.806.02 1.665 1.418.588-.05.096.55 1.03.564.72 1.217 1.564.158 1.13 1.486.216-.418-.456-1.77 1.11-.435.728.938.954-.05.384 1.054 1.32.415.36.794 1.3.67.177-.39.556.235.098.574 1.102.643.65-.333.297.737.765.548 2.225.467.376 1.377 1.494 1.761.01.546-.326.034.44.36-.17.284.908-.17.065-.664 1.17.282.681.845-.095.682 2.478 1.555 1.328.286 3.108 2.477.701-.048.715-1.324 1.693.104.945 1.12 1.445.42 4.089 3.14 4.408-.822.065 1.084.75 1.496-.355 1.594 3.31.042.417.63 1.359.364 2.621-.1 1.982 2.339.925-.224.858-1.325-.422-.43.291-.427-.221-.419 3.838.192 4.112 2.257-.503.538.437.219 1.056-.269.152.403-.471.851.961.465.413.658-.67 2.043 1.383-.047-.509.51.851.455.099 1.57-.37.366.388.206.074.761.646.276.18-.449.684.251-.156.605.633.401.686-.691.542.162.19 1.019-.47.978.159.332.227.195.862-.454.47 1.306 1.302.247.207.833-2.418.527-3.238-.823.012.819-.59 1.06-1.252.22-.198.44-1.026-.18.002 1.283 1.354.296.493-.262 1.039 1.208 1.689.198.175 1.075-.38 1.342-.788-.302-.572.768-1.153-.367.113 1.801.525.856.714.059 1.296 1.338-.018.64.605-.171 1.608 1.008.936-.232.968.526.255.733 1.791.276-.029.815.502-.059 1.084.816-.335.628.511.607-1.274-.152-.057.983-.355-.165.076-.632-.192.791-.616.122-.673-.687-.798.281-.372-.924-.828.077-.216 1.364-.595-.097.034.292-1.406-.152-.146-.633-.784-.518-.915.199-.42.465.116 1.09-2.712 1.482-1.12 1.589-.696.146.478.544-.748.099.086.386-.638.432-.5-.425-.484.458-.16-.186-.329.331.233.133-.658.062-.474.72-.99.4-.42-.178-1.346 1.229-.867.05-.359.79-.656.151-.243.328.375 1.069-.667 1.996.437.127.172 2.609.619.699-.061.911 1.128.948.454-.083.016.596.56.458-.275.549.746.474-.735 1.844-1.788.48-.197.847.318.872.506.091.365.725-1.283.931.442.902-1.332 3.052-.587.527-.221.919-1.02.628-.451 1.263-1.75.794-2.514.043-2.228-1.613-.177-.779-.941-.301.413-1.046-.984-.054-.868-1.001.229-.438.843.36.112-1.562.39-.239.242-1.045-.061-1.495-.908-.225.5-2.13-.356-.252-.052-.797.569.274.931-.208-.076-.876h-.616l.045-.853-1.149.026.013-.585-.646-.46-2.188.902-.184-.492-1.183.008-.281-.527-.523.418.129 1.6-1.35-.483-.609.187.042-1.047-.562-.305-.176.377-.393-.066.233-1.975-.09.398-.296-.236.032.285-.396-.005.243.435-.696-.203.28-.796.342.015-.518-.431.289-.37-.622.601h-.802l-1.826-1.09-.777.375-1.066-1.155.265-.715-.23-1.468-.211.313-.965-.495-.683.172-.966-.72-.858.092-.395-.671-.924.354-.18-.356.649-.438-.258-.362-.264.419-.155-.676.457-.435-.633-.16-.261-.514-.967.163.257.81-.498-.162-.383.284.59.567-.405.595-1.409-.613.637-.05-.138-.433-.663.196-1.042-.922-.289.166.029.883-.14-.928-.634-.033-.398 1.162.27.693-1.018 1.358.185 1.141-.48.099.248-.103-.638-.443-.493 1.239-.953-1.123-1.137-.038.123.408-1.047.126-.313-.873-.671.295.092.308-.305-.162-.849.267-.556-.184-.207-.511.989-.492-.366-.766.749-.595-.097-.982.679-.685-.457-.659-.71.054-.146 1.539-.478-.675-1.7.174.438.267-.002.465.863.255-.001.422-.829-.189-.912.33.098-.516-.391.137-.935-.56.528-.352-.643-.598.208 1.552-.754-.359-.324.444-.577-.623-.567-.023.405.237-.098.826-.408.012-.502-.698-1.273.454.278.896-.396-.305-.718.428-.845-.506 1.434-2.14 1.232-.547-.42-1.287-.358.102-1.257-.961.114-1.842-.933-.775-.182.446-.872-.212-.102.61-1.099.846-.68-.326-1.064.238-.407 1.394-.921-.061-.496.72-.188-.44-.94.313.425 1.68-.415.316.14.652-1.875-.848-2.513.233.084-.436-.223.139-.41-.565-1.287 1.771-.5-.254.134-.711-.634.502-.27-.589-.273.478-.26-1.061.438-.72.563-.07-.267-.234.547-.831.53-.016-.56-.253-.716.461-.814-.656-.246.541-.377-.536.257-.73-.87-.134-.589.56-.012.727.482-.353.38.531.51-.203-.187.801.304.293-.244.251-1.004-.884.089.948.608.851-.193.347-.733.209-.016-.582-.396-.144-.374.236.504.141-.087.456-.544.049-.367-.698-.307.164.213.46-.852.13-.363-.615.213-.383-.614-.531-.7 1.017-.363-.094.048-.81.542-.732-.754-.421-.12-.538-.576.599.4.209.02.707-.808-.453-1.3 1.013.068-1.679.268.194.288-.541.545.218.5-.421-.293-1.21-.429.34-.869-.239-.59 2.157-.615-.781.103-.54-.483.041.147-.322.877-.328-.098-.37.63-.665 1.268-.235-.31.432-.658.034.616.44.848-.453-.313-1.178-.527.198-.44-.348.551-.62-.328-.763.434-.195-.19-.536-.236.346-.11-.338-.612.043.028.613-.81.268.49.803-.39.65-.347-.259.542-.152-.27-.212-1.247-.195-.42-.46-.121.7.516.552.984.064-1.187.331.362 1.018-.863.101-.079-.482-.869-.173-.023-.602.214.304.549-.468-.266-.354-.562.071-.41.702-.427-.198-.258.467-.463-.067.257.82-.868-.208.278.682-.28.375-.421.045-.138-.369-.427.577-.45-.209-.225.29.454.338.725-.435 1.223.659.486 3.005.76.679-.337 1.803.538.385.25.781 1.633.764.274.865-.272.372.133 1.692-.55.822.16 1.024.466.221 1.783-.867 1.44 2.653-.606.232-.288-.303-.09.633 1.29.472-.298 1.629-1.005.973-.491 1.45-1.111.237-.372.558-.534-1.452-.245.356-.232-.269-.567.359-.506-.197-1.542-2.078-1.242-.685-1.201 1.787-.938.41-.912-1.003.595-1.043-1.6-1.144.047-.535-.848-.866.666-.658.162-2.026-.818-1.494-.193-1.225-.768-.82.026-.46 2.757-2.197.004-1.665 1.15-.78.809.032-.419-.461.479-.291-1.039-.488.211-.423-.735-.529-.16-.971-.631-.243.395-.481-.608-.714.592-.49.294-1.008.506.121.737-.548-.205-1.036.351-.581.44.224.529-.568 1.614.336.467-.465.68.44.483-.534 2.18-.571.103-.937-1.097-1.4 1.253-.945.03-.298-.398-.056.211-.224.861.582-.26-1.153.614-.184-.108-.853.904-.633.252-1.649 1-.844-1.029-1.08.987-.298-.396-.764.638-.038.093-.693.623.026-.34-.644.514-.389.277.287.175-.746.557-.077-.186-.36.308-.186-.97-.335.172-1.04.517.012.162-.522-1.332-.213.212-.893-.686-.914-.384.013-.113-.593-.2.156.443-.689-.212-1.402-.94.414.175-.645-.752-.314-.663.165-.91-1.152-.766.018-.43-.53-.309.25-.129-.396-.958.586-1.584.22-1.957-.766-.423-.649-.614.14-.653-.938-1.178.196-.36.818-.87-.287-.317-.996.603.113.606-.775-.787-.578-.181.286-1.597-.272-.168.915-1.008-.198.095.77-.438.265-.26-.944-1.102.206-.714-.47-.167.666-2.325-.916-.586.404-.053.666-1.892.92-1.426.204-.386-.491-.289 1.14.21.394-.766.384.273-.432-.607-.01.18-.93-.285-.908L29.9 84.64l1.486-.273.318-.656-.486-.167-.07.592-.319.001-.514-.973-.781.685-1.19-.406.14-.782-.753.206-.39-.532 1.57-.53.244-.863.842-.135.312-.471-.57-.322.08-.411-.893-1.174.382-.816-.673.318-1.314-1.04-1.111-.34-.285-.5.245-.699-.564-.3-.238-.739-.804-.257-.08-.784.335-.426-.662-.349.53-.788-.099-.826-.662-.43.11-1.325-.48-.355 1.08-1.014 1.242.01-.002-.71.785.208.175-.911.858.02.309-.496-.455-.2.419-.482-.955-.973-.174-.803.16-.42.24.19.068-1.187.782-.417-.854-.067-.051-.516.51.196-.06-.537.435-.345-1.256-.423.433-.21.052-.507-.545-.595.518-.39-.335-1.062-2.327-1.838-.747-1.112.721-.811-.425-.69.209-1.374-.656.066-1.024-1.45-.472-.148.347-.773-.517-.61-.087-.444.67-.276-.528-.996.408-.973-1.567-1.932.306-1.478-.251-.83.32-.358-.248-.572.416-1.216-.577-.277-.052-.521.508-.255-.356-.405.23-.612-.927-1.778.422-.377-.41-.93.982-2.049-.447-1.265.601-.437.473-2.202 1.41-1.873.123-.904 2.45-1.149-.28-.227.435-.973.845-.394.91-1.836.74-.567.37-1.169-.292-.267-.201-.393Z" fill="#28A062" fill-opacity=".7"/>
      <path d="m56.185-.259.907 1.13-.241.843.66.46.206 1.2.684.798.965.225.531 1.598 1.5-.032.508 1.284.953.612 1.135-.841.864.046.635-.462 1.07.573.848-.023 1.023 1.711 2.195.95 1.003 1.268.92-.651.565.963.55-.027.246.542-.298.796-.668.538.484.488.115 1.299 1.528.226 1.067.8.548-.086 2.141 1.51.981-.647 2.607 1.749 1.255 1.533 3.542 1.313-.012.316-.483-.195-1.336.462-.804 1.063.248.79-1.977 1.546-.23.838-1.216.948-1.234-.012-.864 2.136-.975 1.01-1.011-.16-1.156 1.073.276 1.473.611.7-.211.86-.493.654-.615.164.119.66-1.07.81.269.47-1.01.166-.025.64.57.377.072.865.638.664-.334 2.102-.834-.301.4 1.522-.653.458-.834-.367-.68.665-.148 1.853-.303.494-.3-.091-.71 1.356.209 1.672-.795.577.252.324-.456.883-.779.419-.773-.33-.569-1.024.21-.316-1.032-.125.596-.187-.366-.502-.503-.01-.146.629-.554.132.43-1.109-.58-.56-1.06.216-.782.624-.895-.394-1.065.442-.246-.902-.497.565-1.632.144-.167-1.476-.415-.093-.295-.646-.132.349-.9-.013-1.614-1.47-.778.12.12-.55-.483-.349-.104-1.163-1.766-.832-.17 1.055-.93-.948-.305.333-.747-.02-.022-1.007-.791-1.138-.897.066-1.462-1.153.74-.63.535.398.342-1.04.337.286.704-.47.897-1.24-2.337-.386-3.065-1.668-1.325-1.217-.676-2.28-1.275-.605-1.374-.463-1.707 1.795-.644-.116-.925.662-.97 1.445-.648.17-.12.788-.83.132-.074-.822-.62-.046.078-.499.424.04-.422-1.78-1.328.068-.764.636-.62-.246.041-.361-.632-.302.118-1.355-1.066-1.683.528-.814-.261-.42.464-.637-.253-.388.717-.758-.25-.43.49-1.01.454.201.433-.442 1.58-2.637-3.752-1.8-1.302-1.414-1.21.125.306-.506 1.667-.42 2.042-1.172.195-.428-.126-.601-.704.015-.55-.695.893-.413-.05-.873-.777-.435.13-.488-.897-1.143.955-1.205.001-1.012.763.446.107-1.287-.851.03-.188-.735.498-.344.906.462-.352-.32.49-.756-.42-1.066.719-.38.76-1.45 1.143-.477 1.011.471.268-.6.983-.109 1.02-.807 1.442-.068.62-.719.414.105.085-.439.985-.053.701.854.373-.24.42.31.441.801 1.139-.058.99-.588.665.287.225.539 2.506-.206.403 1.145.895.788 2.13-.158-.374-1.242-1.003-.93-.148-.674.314-1.437 1.126-.64.956-2.109 1.377.628 1.121 1.687Z" fill="#EBF0EE"/>
    </g>
    <g opacity=".6">
      <mask id="b" style="mask-type:alpha" maskUnits="userSpaceOnUse" x="-217" y="-211" width="600" height="600">
        <path stroke="#000" stroke-width="2" d="M83-211v600M-128.293-123.707l424.264 424.264M-217 88h600M-129.707 300.557l424.264-424.264M-30.912-188.188l229.61 554.328M-193.64-26.299l554.328 229.61M-194.578 203.24 359.75-26.37M-32.587 366.212l229.61-554.328"/>
      </mask>
      <g mask="url(#b)">
        <path d="M-302-303h784v784h-784v-784Z" fill="url(#c)" fill-opacity=".7"/>
      </g>
    </g>
  </g>
  <defs>
    <radialGradient id="c" cx="0" cy="0" r="1" gradientUnits="userSpaceOnUse" gradientTransform="matrix(0 392 -392 0 90 89)">
      <stop offset=".211" stop-color="#E9B840"/>
      <stop offset=".618" stop-color="#E9B840" stop-opacity="0"/>
    </radialGradient>
    <clipPath id="a">
      <path fill="#fff" d="M0 0h160v160H0z"/>
    </clipPath>
  </defs>
</svg>
